G04 #@! TF.GenerationSoftware,KiCad,Pcbnew,7.0.6*
G04 #@! TF.CreationDate,2024-02-06T23:19:41+01:00*
G04 #@! TF.ProjectId,USB2CANv2,55534232-4341-44e7-9632-2e6b69636164,0_2*
G04 #@! TF.SameCoordinates,Original*
G04 #@! TF.FileFunction,Legend,Bot*
G04 #@! TF.FilePolarity,Positive*
%FSLAX46Y46*%
G04 Gerber Fmt 4.6, Leading zero omitted, Abs format (unit mm)*
G04 Created by KiCad (PCBNEW 7.0.6) date 2024-02-06 23:19:41*
%MOMM*%
%LPD*%
G01*
G04 APERTURE LIST*
G04 Aperture macros list*
%AMRoundRect*
0 Rectangle with rounded corners*
0 $1 Rounding radius*
0 $2 $3 $4 $5 $6 $7 $8 $9 X,Y pos of 4 corners*
0 Add a 4 corners polygon primitive as box body*
4,1,4,$2,$3,$4,$5,$6,$7,$8,$9,$2,$3,0*
0 Add four circle primitives for the rounded corners*
1,1,$1+$1,$2,$3*
1,1,$1+$1,$4,$5*
1,1,$1+$1,$6,$7*
1,1,$1+$1,$8,$9*
0 Add four rect primitives between the rounded corners*
20,1,$1+$1,$2,$3,$4,$5,0*
20,1,$1+$1,$4,$5,$6,$7,0*
20,1,$1+$1,$6,$7,$8,$9,0*
20,1,$1+$1,$8,$9,$2,$3,0*%
%AMFreePoly0*
4,1,19,0.000000,0.744911,0.071157,0.744911,0.207708,0.704816,0.327430,0.627875,0.420627,0.520320,0.479746,0.390866,0.500000,0.250000,0.500000,-0.250000,0.479746,-0.390866,0.420627,-0.520320,0.327430,-0.627875,0.207708,-0.704816,0.071157,-0.744911,0.000000,-0.744911,0.000000,-0.750000,-0.550000,-0.750000,-0.550000,0.750000,0.000000,0.750000,0.000000,0.744911,0.000000,0.744911,
$1*%
%AMFreePoly1*
4,1,19,0.550000,-0.750000,0.000000,-0.750000,0.000000,-0.744911,-0.071157,-0.744911,-0.207708,-0.704816,-0.327430,-0.627875,-0.420627,-0.520320,-0.479746,-0.390866,-0.500000,-0.250000,-0.500000,0.250000,-0.479746,0.390866,-0.420627,0.520320,-0.327430,0.627875,-0.207708,0.704816,-0.071157,0.744911,0.000000,0.744911,0.000000,0.750000,0.550000,0.750000,0.550000,-0.750000,0.550000,-0.750000,
$1*%
G04 Aperture macros list end*
%ADD10C,0.150000*%
%ADD11C,0.120000*%
%ADD12C,0.250000*%
%ADD13O,1.350000X1.350000*%
%ADD14R,1.350000X1.350000*%
%ADD15R,0.800000X1.200000*%
%ADD16R,1.700000X1.700000*%
%ADD17O,1.700000X1.700000*%
%ADD18C,2.100000*%
%ADD19RoundRect,0.381000X2.119000X0.381000X-2.119000X0.381000X-2.119000X-0.381000X2.119000X-0.381000X0*%
%ADD20C,0.700000*%
%ADD21O,1.700000X0.900000*%
%ADD22O,2.400000X0.900000*%
%ADD23RoundRect,0.200000X-0.200000X-0.275000X0.200000X-0.275000X0.200000X0.275000X-0.200000X0.275000X0*%
%ADD24R,1.500000X1.500000*%
%ADD25RoundRect,0.150000X0.825000X0.150000X-0.825000X0.150000X-0.825000X-0.150000X0.825000X-0.150000X0*%
%ADD26RoundRect,0.160000X-0.160000X0.197500X-0.160000X-0.197500X0.160000X-0.197500X0.160000X0.197500X0*%
%ADD27RoundRect,0.160000X-0.197500X-0.160000X0.197500X-0.160000X0.197500X0.160000X-0.197500X0.160000X0*%
%ADD28RoundRect,0.140000X-0.170000X0.140000X-0.170000X-0.140000X0.170000X-0.140000X0.170000X0.140000X0*%
%ADD29R,0.600000X0.200000*%
%ADD30R,0.350000X0.990000*%
%ADD31FreePoly0,180.000000*%
%ADD32R,1.000000X1.500000*%
%ADD33FreePoly1,180.000000*%
%ADD34C,0.500000*%
G04 APERTURE END LIST*
D10*
X157975541Y-105583228D02*
X157975541Y-105097514D01*
X157975541Y-105097514D02*
X158004112Y-105040371D01*
X158004112Y-105040371D02*
X158032684Y-105011800D01*
X158032684Y-105011800D02*
X158089826Y-104983228D01*
X158089826Y-104983228D02*
X158204112Y-104983228D01*
X158204112Y-104983228D02*
X158261255Y-105011800D01*
X158261255Y-105011800D02*
X158289826Y-105040371D01*
X158289826Y-105040371D02*
X158318398Y-105097514D01*
X158318398Y-105097514D02*
X158318398Y-105583228D01*
X158575540Y-105011800D02*
X158661255Y-104983228D01*
X158661255Y-104983228D02*
X158804112Y-104983228D01*
X158804112Y-104983228D02*
X158861255Y-105011800D01*
X158861255Y-105011800D02*
X158889826Y-105040371D01*
X158889826Y-105040371D02*
X158918397Y-105097514D01*
X158918397Y-105097514D02*
X158918397Y-105154657D01*
X158918397Y-105154657D02*
X158889826Y-105211800D01*
X158889826Y-105211800D02*
X158861255Y-105240371D01*
X158861255Y-105240371D02*
X158804112Y-105268942D01*
X158804112Y-105268942D02*
X158689826Y-105297514D01*
X158689826Y-105297514D02*
X158632683Y-105326085D01*
X158632683Y-105326085D02*
X158604112Y-105354657D01*
X158604112Y-105354657D02*
X158575540Y-105411800D01*
X158575540Y-105411800D02*
X158575540Y-105468942D01*
X158575540Y-105468942D02*
X158604112Y-105526085D01*
X158604112Y-105526085D02*
X158632683Y-105554657D01*
X158632683Y-105554657D02*
X158689826Y-105583228D01*
X158689826Y-105583228D02*
X158832683Y-105583228D01*
X158832683Y-105583228D02*
X158918397Y-105554657D01*
X159375541Y-105297514D02*
X159461255Y-105268942D01*
X159461255Y-105268942D02*
X159489826Y-105240371D01*
X159489826Y-105240371D02*
X159518398Y-105183228D01*
X159518398Y-105183228D02*
X159518398Y-105097514D01*
X159518398Y-105097514D02*
X159489826Y-105040371D01*
X159489826Y-105040371D02*
X159461255Y-105011800D01*
X159461255Y-105011800D02*
X159404112Y-104983228D01*
X159404112Y-104983228D02*
X159175541Y-104983228D01*
X159175541Y-104983228D02*
X159175541Y-105583228D01*
X159175541Y-105583228D02*
X159375541Y-105583228D01*
X159375541Y-105583228D02*
X159432684Y-105554657D01*
X159432684Y-105554657D02*
X159461255Y-105526085D01*
X159461255Y-105526085D02*
X159489826Y-105468942D01*
X159489826Y-105468942D02*
X159489826Y-105411800D01*
X159489826Y-105411800D02*
X159461255Y-105354657D01*
X159461255Y-105354657D02*
X159432684Y-105326085D01*
X159432684Y-105326085D02*
X159375541Y-105297514D01*
X159375541Y-105297514D02*
X159175541Y-105297514D01*
X159746969Y-105526085D02*
X159775541Y-105554657D01*
X159775541Y-105554657D02*
X159832684Y-105583228D01*
X159832684Y-105583228D02*
X159975541Y-105583228D01*
X159975541Y-105583228D02*
X160032684Y-105554657D01*
X160032684Y-105554657D02*
X160061255Y-105526085D01*
X160061255Y-105526085D02*
X160089826Y-105468942D01*
X160089826Y-105468942D02*
X160089826Y-105411800D01*
X160089826Y-105411800D02*
X160061255Y-105326085D01*
X160061255Y-105326085D02*
X159718398Y-104983228D01*
X159718398Y-104983228D02*
X160089826Y-104983228D01*
X160689827Y-105040371D02*
X160661255Y-105011800D01*
X160661255Y-105011800D02*
X160575541Y-104983228D01*
X160575541Y-104983228D02*
X160518398Y-104983228D01*
X160518398Y-104983228D02*
X160432684Y-105011800D01*
X160432684Y-105011800D02*
X160375541Y-105068942D01*
X160375541Y-105068942D02*
X160346970Y-105126085D01*
X160346970Y-105126085D02*
X160318398Y-105240371D01*
X160318398Y-105240371D02*
X160318398Y-105326085D01*
X160318398Y-105326085D02*
X160346970Y-105440371D01*
X160346970Y-105440371D02*
X160375541Y-105497514D01*
X160375541Y-105497514D02*
X160432684Y-105554657D01*
X160432684Y-105554657D02*
X160518398Y-105583228D01*
X160518398Y-105583228D02*
X160575541Y-105583228D01*
X160575541Y-105583228D02*
X160661255Y-105554657D01*
X160661255Y-105554657D02*
X160689827Y-105526085D01*
X160918398Y-105154657D02*
X161204113Y-105154657D01*
X160861255Y-104983228D02*
X161061255Y-105583228D01*
X161061255Y-105583228D02*
X161261255Y-104983228D01*
X161461256Y-104983228D02*
X161461256Y-105583228D01*
X161461256Y-105583228D02*
X161804113Y-104983228D01*
X161804113Y-104983228D02*
X161804113Y-105583228D01*
X162032684Y-105383228D02*
X162175541Y-104983228D01*
X162175541Y-104983228D02*
X162318398Y-105383228D01*
X162518398Y-105526085D02*
X162546970Y-105554657D01*
X162546970Y-105554657D02*
X162604113Y-105583228D01*
X162604113Y-105583228D02*
X162746970Y-105583228D01*
X162746970Y-105583228D02*
X162804113Y-105554657D01*
X162804113Y-105554657D02*
X162832684Y-105526085D01*
X162832684Y-105526085D02*
X162861255Y-105468942D01*
X162861255Y-105468942D02*
X162861255Y-105411800D01*
X162861255Y-105411800D02*
X162832684Y-105326085D01*
X162832684Y-105326085D02*
X162489827Y-104983228D01*
X162489827Y-104983228D02*
X162861255Y-104983228D01*
X157975541Y-106965228D02*
X157975541Y-107565228D01*
X157975541Y-107565228D02*
X158175541Y-107136657D01*
X158175541Y-107136657D02*
X158375541Y-107565228D01*
X158375541Y-107565228D02*
X158375541Y-106965228D01*
X158661255Y-106965228D02*
X158661255Y-107365228D01*
X158661255Y-107565228D02*
X158632683Y-107536657D01*
X158632683Y-107536657D02*
X158661255Y-107508085D01*
X158661255Y-107508085D02*
X158689826Y-107536657D01*
X158689826Y-107536657D02*
X158661255Y-107565228D01*
X158661255Y-107565228D02*
X158661255Y-107508085D01*
X159175540Y-106993800D02*
X159118397Y-106965228D01*
X159118397Y-106965228D02*
X159004112Y-106965228D01*
X159004112Y-106965228D02*
X158946969Y-106993800D01*
X158946969Y-106993800D02*
X158918397Y-107050942D01*
X158918397Y-107050942D02*
X158918397Y-107279514D01*
X158918397Y-107279514D02*
X158946969Y-107336657D01*
X158946969Y-107336657D02*
X159004112Y-107365228D01*
X159004112Y-107365228D02*
X159118397Y-107365228D01*
X159118397Y-107365228D02*
X159175540Y-107336657D01*
X159175540Y-107336657D02*
X159204112Y-107279514D01*
X159204112Y-107279514D02*
X159204112Y-107222371D01*
X159204112Y-107222371D02*
X158918397Y-107165228D01*
X159432683Y-106993800D02*
X159489826Y-106965228D01*
X159489826Y-106965228D02*
X159604112Y-106965228D01*
X159604112Y-106965228D02*
X159661255Y-106993800D01*
X159661255Y-106993800D02*
X159689826Y-107050942D01*
X159689826Y-107050942D02*
X159689826Y-107079514D01*
X159689826Y-107079514D02*
X159661255Y-107136657D01*
X159661255Y-107136657D02*
X159604112Y-107165228D01*
X159604112Y-107165228D02*
X159518398Y-107165228D01*
X159518398Y-107165228D02*
X159461255Y-107193800D01*
X159461255Y-107193800D02*
X159432683Y-107250942D01*
X159432683Y-107250942D02*
X159432683Y-107279514D01*
X159432683Y-107279514D02*
X159461255Y-107336657D01*
X159461255Y-107336657D02*
X159518398Y-107365228D01*
X159518398Y-107365228D02*
X159604112Y-107365228D01*
X159604112Y-107365228D02*
X159661255Y-107336657D01*
X159889826Y-107365228D02*
X160204112Y-107365228D01*
X160204112Y-107365228D02*
X159889826Y-106965228D01*
X159889826Y-106965228D02*
X160204112Y-106965228D01*
X160432683Y-106965228D02*
X160432683Y-107565228D01*
X160489826Y-107193800D02*
X160661254Y-106965228D01*
X160661254Y-107365228D02*
X160432683Y-107136657D01*
X161004111Y-106965228D02*
X160946968Y-106993800D01*
X160946968Y-106993800D02*
X160918397Y-107022371D01*
X160918397Y-107022371D02*
X160889825Y-107079514D01*
X160889825Y-107079514D02*
X160889825Y-107250942D01*
X160889825Y-107250942D02*
X160918397Y-107308085D01*
X160918397Y-107308085D02*
X160946968Y-107336657D01*
X160946968Y-107336657D02*
X161004111Y-107365228D01*
X161004111Y-107365228D02*
X161089825Y-107365228D01*
X161089825Y-107365228D02*
X161146968Y-107336657D01*
X161146968Y-107336657D02*
X161175540Y-107308085D01*
X161175540Y-107308085D02*
X161204111Y-107250942D01*
X161204111Y-107250942D02*
X161204111Y-107079514D01*
X161204111Y-107079514D02*
X161175540Y-107022371D01*
X161175540Y-107022371D02*
X161146968Y-106993800D01*
X161146968Y-106993800D02*
X161089825Y-106965228D01*
X161089825Y-106965228D02*
X161004111Y-106965228D01*
X162261254Y-107022371D02*
X162232682Y-106993800D01*
X162232682Y-106993800D02*
X162146968Y-106965228D01*
X162146968Y-106965228D02*
X162089825Y-106965228D01*
X162089825Y-106965228D02*
X162004111Y-106993800D01*
X162004111Y-106993800D02*
X161946968Y-107050942D01*
X161946968Y-107050942D02*
X161918397Y-107108085D01*
X161918397Y-107108085D02*
X161889825Y-107222371D01*
X161889825Y-107222371D02*
X161889825Y-107308085D01*
X161889825Y-107308085D02*
X161918397Y-107422371D01*
X161918397Y-107422371D02*
X161946968Y-107479514D01*
X161946968Y-107479514D02*
X162004111Y-107536657D01*
X162004111Y-107536657D02*
X162089825Y-107565228D01*
X162089825Y-107565228D02*
X162146968Y-107565228D01*
X162146968Y-107565228D02*
X162232682Y-107536657D01*
X162232682Y-107536657D02*
X162261254Y-107508085D01*
X162746968Y-106993800D02*
X162689825Y-106965228D01*
X162689825Y-106965228D02*
X162575540Y-106965228D01*
X162575540Y-106965228D02*
X162518397Y-106993800D01*
X162518397Y-106993800D02*
X162489825Y-107050942D01*
X162489825Y-107050942D02*
X162489825Y-107279514D01*
X162489825Y-107279514D02*
X162518397Y-107336657D01*
X162518397Y-107336657D02*
X162575540Y-107365228D01*
X162575540Y-107365228D02*
X162689825Y-107365228D01*
X162689825Y-107365228D02*
X162746968Y-107336657D01*
X162746968Y-107336657D02*
X162775540Y-107279514D01*
X162775540Y-107279514D02*
X162775540Y-107222371D01*
X162775540Y-107222371D02*
X162489825Y-107165228D01*
X163118397Y-106965228D02*
X163061254Y-106993800D01*
X163061254Y-106993800D02*
X163032683Y-107050942D01*
X163032683Y-107050942D02*
X163032683Y-107565228D01*
X163346969Y-106965228D02*
X163346969Y-107365228D01*
X163346969Y-107565228D02*
X163318397Y-107536657D01*
X163318397Y-107536657D02*
X163346969Y-107508085D01*
X163346969Y-107508085D02*
X163375540Y-107536657D01*
X163375540Y-107536657D02*
X163346969Y-107565228D01*
X163346969Y-107565228D02*
X163346969Y-107508085D01*
X163632683Y-107365228D02*
X163632683Y-106965228D01*
X163632683Y-107308085D02*
X163661254Y-107336657D01*
X163661254Y-107336657D02*
X163718397Y-107365228D01*
X163718397Y-107365228D02*
X163804111Y-107365228D01*
X163804111Y-107365228D02*
X163861254Y-107336657D01*
X163861254Y-107336657D02*
X163889826Y-107279514D01*
X163889826Y-107279514D02*
X163889826Y-106965228D01*
X164146968Y-106993800D02*
X164204111Y-106965228D01*
X164204111Y-106965228D02*
X164318397Y-106965228D01*
X164318397Y-106965228D02*
X164375540Y-106993800D01*
X164375540Y-106993800D02*
X164404111Y-107050942D01*
X164404111Y-107050942D02*
X164404111Y-107079514D01*
X164404111Y-107079514D02*
X164375540Y-107136657D01*
X164375540Y-107136657D02*
X164318397Y-107165228D01*
X164318397Y-107165228D02*
X164232683Y-107165228D01*
X164232683Y-107165228D02*
X164175540Y-107193800D01*
X164175540Y-107193800D02*
X164146968Y-107250942D01*
X164146968Y-107250942D02*
X164146968Y-107279514D01*
X164146968Y-107279514D02*
X164175540Y-107336657D01*
X164175540Y-107336657D02*
X164232683Y-107365228D01*
X164232683Y-107365228D02*
X164318397Y-107365228D01*
X164318397Y-107365228D02*
X164375540Y-107336657D01*
X164661254Y-106965228D02*
X164661254Y-107565228D01*
X164718397Y-107193800D02*
X164889825Y-106965228D01*
X164889825Y-107365228D02*
X164661254Y-107136657D01*
X165146968Y-106965228D02*
X165146968Y-107365228D01*
X165146968Y-107565228D02*
X165118396Y-107536657D01*
X165118396Y-107536657D02*
X165146968Y-107508085D01*
X165146968Y-107508085D02*
X165175539Y-107536657D01*
X165175539Y-107536657D02*
X165146968Y-107565228D01*
X165146968Y-107565228D02*
X165146968Y-107508085D01*
X157975541Y-105999228D02*
X157975541Y-106599228D01*
X158318398Y-105999228D02*
X158061255Y-106342085D01*
X158318398Y-106599228D02*
X157975541Y-106256371D01*
X158832684Y-105999228D02*
X158832684Y-106313514D01*
X158832684Y-106313514D02*
X158804112Y-106370657D01*
X158804112Y-106370657D02*
X158746969Y-106399228D01*
X158746969Y-106399228D02*
X158632684Y-106399228D01*
X158632684Y-106399228D02*
X158575541Y-106370657D01*
X158832684Y-106027800D02*
X158775541Y-105999228D01*
X158775541Y-105999228D02*
X158632684Y-105999228D01*
X158632684Y-105999228D02*
X158575541Y-106027800D01*
X158575541Y-106027800D02*
X158546969Y-106084942D01*
X158546969Y-106084942D02*
X158546969Y-106142085D01*
X158546969Y-106142085D02*
X158575541Y-106199228D01*
X158575541Y-106199228D02*
X158632684Y-106227800D01*
X158632684Y-106227800D02*
X158775541Y-106227800D01*
X158775541Y-106227800D02*
X158832684Y-106256371D01*
X159118398Y-105999228D02*
X159118398Y-106399228D01*
X159118398Y-106284942D02*
X159146969Y-106342085D01*
X159146969Y-106342085D02*
X159175541Y-106370657D01*
X159175541Y-106370657D02*
X159232683Y-106399228D01*
X159232683Y-106399228D02*
X159289826Y-106399228D01*
X159575541Y-105999228D02*
X159518398Y-106027800D01*
X159518398Y-106027800D02*
X159489827Y-106056371D01*
X159489827Y-106056371D02*
X159461255Y-106113514D01*
X159461255Y-106113514D02*
X159461255Y-106284942D01*
X159461255Y-106284942D02*
X159489827Y-106342085D01*
X159489827Y-106342085D02*
X159518398Y-106370657D01*
X159518398Y-106370657D02*
X159575541Y-106399228D01*
X159575541Y-106399228D02*
X159661255Y-106399228D01*
X159661255Y-106399228D02*
X159718398Y-106370657D01*
X159718398Y-106370657D02*
X159746970Y-106342085D01*
X159746970Y-106342085D02*
X159775541Y-106284942D01*
X159775541Y-106284942D02*
X159775541Y-106113514D01*
X159775541Y-106113514D02*
X159746970Y-106056371D01*
X159746970Y-106056371D02*
X159718398Y-106027800D01*
X159718398Y-106027800D02*
X159661255Y-105999228D01*
X159661255Y-105999228D02*
X159575541Y-105999228D01*
X160118398Y-105999228D02*
X160061255Y-106027800D01*
X160061255Y-106027800D02*
X160032684Y-106084942D01*
X160032684Y-106084942D02*
X160032684Y-106599228D01*
X160804113Y-105999228D02*
X160804113Y-106599228D01*
X160804113Y-106599228D02*
X161032684Y-106599228D01*
X161032684Y-106599228D02*
X161089827Y-106570657D01*
X161089827Y-106570657D02*
X161118398Y-106542085D01*
X161118398Y-106542085D02*
X161146970Y-106484942D01*
X161146970Y-106484942D02*
X161146970Y-106399228D01*
X161146970Y-106399228D02*
X161118398Y-106342085D01*
X161118398Y-106342085D02*
X161089827Y-106313514D01*
X161089827Y-106313514D02*
X161032684Y-106284942D01*
X161032684Y-106284942D02*
X160804113Y-106284942D01*
X161632684Y-106027800D02*
X161575541Y-105999228D01*
X161575541Y-105999228D02*
X161461256Y-105999228D01*
X161461256Y-105999228D02*
X161404113Y-106027800D01*
X161404113Y-106027800D02*
X161375541Y-106084942D01*
X161375541Y-106084942D02*
X161375541Y-106313514D01*
X161375541Y-106313514D02*
X161404113Y-106370657D01*
X161404113Y-106370657D02*
X161461256Y-106399228D01*
X161461256Y-106399228D02*
X161575541Y-106399228D01*
X161575541Y-106399228D02*
X161632684Y-106370657D01*
X161632684Y-106370657D02*
X161661256Y-106313514D01*
X161661256Y-106313514D02*
X161661256Y-106256371D01*
X161661256Y-106256371D02*
X161375541Y-106199228D01*
X161918399Y-105999228D02*
X161918399Y-106399228D01*
X161918399Y-106284942D02*
X161946970Y-106342085D01*
X161946970Y-106342085D02*
X161975542Y-106370657D01*
X161975542Y-106370657D02*
X162032684Y-106399228D01*
X162032684Y-106399228D02*
X162089827Y-106399228D01*
X162546971Y-106399228D02*
X162546971Y-105913514D01*
X162546971Y-105913514D02*
X162518399Y-105856371D01*
X162518399Y-105856371D02*
X162489828Y-105827800D01*
X162489828Y-105827800D02*
X162432685Y-105799228D01*
X162432685Y-105799228D02*
X162346971Y-105799228D01*
X162346971Y-105799228D02*
X162289828Y-105827800D01*
X162546971Y-106027800D02*
X162489828Y-105999228D01*
X162489828Y-105999228D02*
X162375542Y-105999228D01*
X162375542Y-105999228D02*
X162318399Y-106027800D01*
X162318399Y-106027800D02*
X162289828Y-106056371D01*
X162289828Y-106056371D02*
X162261256Y-106113514D01*
X162261256Y-106113514D02*
X162261256Y-106284942D01*
X162261256Y-106284942D02*
X162289828Y-106342085D01*
X162289828Y-106342085D02*
X162318399Y-106370657D01*
X162318399Y-106370657D02*
X162375542Y-106399228D01*
X162375542Y-106399228D02*
X162489828Y-106399228D01*
X162489828Y-106399228D02*
X162546971Y-106370657D01*
X162918399Y-105999228D02*
X162861256Y-106027800D01*
X162861256Y-106027800D02*
X162832685Y-106056371D01*
X162832685Y-106056371D02*
X162804113Y-106113514D01*
X162804113Y-106113514D02*
X162804113Y-106284942D01*
X162804113Y-106284942D02*
X162832685Y-106342085D01*
X162832685Y-106342085D02*
X162861256Y-106370657D01*
X162861256Y-106370657D02*
X162918399Y-106399228D01*
X162918399Y-106399228D02*
X163004113Y-106399228D01*
X163004113Y-106399228D02*
X163061256Y-106370657D01*
X163061256Y-106370657D02*
X163089828Y-106342085D01*
X163089828Y-106342085D02*
X163118399Y-106284942D01*
X163118399Y-106284942D02*
X163118399Y-106113514D01*
X163118399Y-106113514D02*
X163089828Y-106056371D01*
X163089828Y-106056371D02*
X163061256Y-106027800D01*
X163061256Y-106027800D02*
X163004113Y-105999228D01*
X163004113Y-105999228D02*
X162918399Y-105999228D01*
X163461256Y-105999228D02*
X163404113Y-106027800D01*
X163404113Y-106027800D02*
X163375542Y-106084942D01*
X163375542Y-106084942D02*
X163375542Y-106599228D01*
X157784857Y-103708228D02*
X157784857Y-103222514D01*
X157784857Y-103222514D02*
X157813428Y-103165371D01*
X157813428Y-103165371D02*
X157842000Y-103136800D01*
X157842000Y-103136800D02*
X157899142Y-103108228D01*
X157899142Y-103108228D02*
X158013428Y-103108228D01*
X158013428Y-103108228D02*
X158070571Y-103136800D01*
X158070571Y-103136800D02*
X158099142Y-103165371D01*
X158099142Y-103165371D02*
X158127714Y-103222514D01*
X158127714Y-103222514D02*
X158127714Y-103708228D01*
X158670571Y-103708228D02*
X158556285Y-103708228D01*
X158556285Y-103708228D02*
X158499142Y-103679657D01*
X158499142Y-103679657D02*
X158470571Y-103651085D01*
X158470571Y-103651085D02*
X158413428Y-103565371D01*
X158413428Y-103565371D02*
X158384856Y-103451085D01*
X158384856Y-103451085D02*
X158384856Y-103222514D01*
X158384856Y-103222514D02*
X158413428Y-103165371D01*
X158413428Y-103165371D02*
X158441999Y-103136800D01*
X158441999Y-103136800D02*
X158499142Y-103108228D01*
X158499142Y-103108228D02*
X158613428Y-103108228D01*
X158613428Y-103108228D02*
X158670571Y-103136800D01*
X158670571Y-103136800D02*
X158699142Y-103165371D01*
X158699142Y-103165371D02*
X158727713Y-103222514D01*
X158727713Y-103222514D02*
X158727713Y-103365371D01*
X158727713Y-103365371D02*
X158699142Y-103422514D01*
X158699142Y-103422514D02*
X158670571Y-103451085D01*
X158670571Y-103451085D02*
X158613428Y-103479657D01*
X158613428Y-103479657D02*
X158499142Y-103479657D01*
X158499142Y-103479657D02*
X158441999Y-103451085D01*
X158441999Y-103451085D02*
X158413428Y-103422514D01*
X158413428Y-103422514D02*
X158384856Y-103365371D01*
X151221000Y-97012228D02*
X151021000Y-97297942D01*
X150878143Y-97012228D02*
X150878143Y-97612228D01*
X150878143Y-97612228D02*
X151106714Y-97612228D01*
X151106714Y-97612228D02*
X151163857Y-97583657D01*
X151163857Y-97583657D02*
X151192428Y-97555085D01*
X151192428Y-97555085D02*
X151221000Y-97497942D01*
X151221000Y-97497942D02*
X151221000Y-97412228D01*
X151221000Y-97412228D02*
X151192428Y-97355085D01*
X151192428Y-97355085D02*
X151163857Y-97326514D01*
X151163857Y-97326514D02*
X151106714Y-97297942D01*
X151106714Y-97297942D02*
X150878143Y-97297942D01*
X151563857Y-97355085D02*
X151506714Y-97383657D01*
X151506714Y-97383657D02*
X151478143Y-97412228D01*
X151478143Y-97412228D02*
X151449571Y-97469371D01*
X151449571Y-97469371D02*
X151449571Y-97497942D01*
X151449571Y-97497942D02*
X151478143Y-97555085D01*
X151478143Y-97555085D02*
X151506714Y-97583657D01*
X151506714Y-97583657D02*
X151563857Y-97612228D01*
X151563857Y-97612228D02*
X151678143Y-97612228D01*
X151678143Y-97612228D02*
X151735286Y-97583657D01*
X151735286Y-97583657D02*
X151763857Y-97555085D01*
X151763857Y-97555085D02*
X151792428Y-97497942D01*
X151792428Y-97497942D02*
X151792428Y-97469371D01*
X151792428Y-97469371D02*
X151763857Y-97412228D01*
X151763857Y-97412228D02*
X151735286Y-97383657D01*
X151735286Y-97383657D02*
X151678143Y-97355085D01*
X151678143Y-97355085D02*
X151563857Y-97355085D01*
X151563857Y-97355085D02*
X151506714Y-97326514D01*
X151506714Y-97326514D02*
X151478143Y-97297942D01*
X151478143Y-97297942D02*
X151449571Y-97240800D01*
X151449571Y-97240800D02*
X151449571Y-97126514D01*
X151449571Y-97126514D02*
X151478143Y-97069371D01*
X151478143Y-97069371D02*
X151506714Y-97040800D01*
X151506714Y-97040800D02*
X151563857Y-97012228D01*
X151563857Y-97012228D02*
X151678143Y-97012228D01*
X151678143Y-97012228D02*
X151735286Y-97040800D01*
X151735286Y-97040800D02*
X151763857Y-97069371D01*
X151763857Y-97069371D02*
X151792428Y-97126514D01*
X151792428Y-97126514D02*
X151792428Y-97240800D01*
X151792428Y-97240800D02*
X151763857Y-97297942D01*
X151763857Y-97297942D02*
X151735286Y-97326514D01*
X151735286Y-97326514D02*
X151678143Y-97355085D01*
X150442856Y-92550228D02*
X150785714Y-92550228D01*
X150614285Y-91950228D02*
X150614285Y-92550228D01*
X150985714Y-91950228D02*
X150985714Y-92550228D01*
X150985714Y-92550228D02*
X151214285Y-92550228D01*
X151214285Y-92550228D02*
X151271428Y-92521657D01*
X151271428Y-92521657D02*
X151299999Y-92493085D01*
X151299999Y-92493085D02*
X151328571Y-92435942D01*
X151328571Y-92435942D02*
X151328571Y-92350228D01*
X151328571Y-92350228D02*
X151299999Y-92293085D01*
X151299999Y-92293085D02*
X151271428Y-92264514D01*
X151271428Y-92264514D02*
X151214285Y-92235942D01*
X151214285Y-92235942D02*
X150985714Y-92235942D01*
X151842857Y-92350228D02*
X151842857Y-91950228D01*
X151699999Y-92578800D02*
X151557142Y-92150228D01*
X151557142Y-92150228D02*
X151928571Y-92150228D01*
X138792857Y-102100228D02*
X138792857Y-101614514D01*
X138792857Y-101614514D02*
X138821428Y-101557371D01*
X138821428Y-101557371D02*
X138850000Y-101528800D01*
X138850000Y-101528800D02*
X138907142Y-101500228D01*
X138907142Y-101500228D02*
X139021428Y-101500228D01*
X139021428Y-101500228D02*
X139078571Y-101528800D01*
X139078571Y-101528800D02*
X139107142Y-101557371D01*
X139107142Y-101557371D02*
X139135714Y-101614514D01*
X139135714Y-101614514D02*
X139135714Y-102100228D01*
X139364285Y-102100228D02*
X139735713Y-102100228D01*
X139735713Y-102100228D02*
X139535713Y-101871657D01*
X139535713Y-101871657D02*
X139621428Y-101871657D01*
X139621428Y-101871657D02*
X139678571Y-101843085D01*
X139678571Y-101843085D02*
X139707142Y-101814514D01*
X139707142Y-101814514D02*
X139735713Y-101757371D01*
X139735713Y-101757371D02*
X139735713Y-101614514D01*
X139735713Y-101614514D02*
X139707142Y-101557371D01*
X139707142Y-101557371D02*
X139678571Y-101528800D01*
X139678571Y-101528800D02*
X139621428Y-101500228D01*
X139621428Y-101500228D02*
X139449999Y-101500228D01*
X139449999Y-101500228D02*
X139392856Y-101528800D01*
X139392856Y-101528800D02*
X139364285Y-101557371D01*
X146034285Y-90470228D02*
X145834285Y-90755942D01*
X145691428Y-90470228D02*
X145691428Y-91070228D01*
X145691428Y-91070228D02*
X145919999Y-91070228D01*
X145919999Y-91070228D02*
X145977142Y-91041657D01*
X145977142Y-91041657D02*
X146005713Y-91013085D01*
X146005713Y-91013085D02*
X146034285Y-90955942D01*
X146034285Y-90955942D02*
X146034285Y-90870228D01*
X146034285Y-90870228D02*
X146005713Y-90813085D01*
X146005713Y-90813085D02*
X145977142Y-90784514D01*
X145977142Y-90784514D02*
X145919999Y-90755942D01*
X145919999Y-90755942D02*
X145691428Y-90755942D01*
X146605713Y-90470228D02*
X146262856Y-90470228D01*
X146434285Y-90470228D02*
X146434285Y-91070228D01*
X146434285Y-91070228D02*
X146377142Y-90984514D01*
X146377142Y-90984514D02*
X146319999Y-90927371D01*
X146319999Y-90927371D02*
X146262856Y-90898800D01*
X146805714Y-91070228D02*
X147205714Y-91070228D01*
X147205714Y-91070228D02*
X146948571Y-90470228D01*
X157276857Y-92786228D02*
X157276857Y-92300514D01*
X157276857Y-92300514D02*
X157305428Y-92243371D01*
X157305428Y-92243371D02*
X157334000Y-92214800D01*
X157334000Y-92214800D02*
X157391142Y-92186228D01*
X157391142Y-92186228D02*
X157505428Y-92186228D01*
X157505428Y-92186228D02*
X157562571Y-92214800D01*
X157562571Y-92214800D02*
X157591142Y-92243371D01*
X157591142Y-92243371D02*
X157619714Y-92300514D01*
X157619714Y-92300514D02*
X157619714Y-92786228D01*
X158162571Y-92586228D02*
X158162571Y-92186228D01*
X158019713Y-92814800D02*
X157876856Y-92386228D01*
X157876856Y-92386228D02*
X158248285Y-92386228D01*
X135790000Y-103871828D02*
X135590000Y-104157542D01*
X135447143Y-103871828D02*
X135447143Y-104471828D01*
X135447143Y-104471828D02*
X135675714Y-104471828D01*
X135675714Y-104471828D02*
X135732857Y-104443257D01*
X135732857Y-104443257D02*
X135761428Y-104414685D01*
X135761428Y-104414685D02*
X135790000Y-104357542D01*
X135790000Y-104357542D02*
X135790000Y-104271828D01*
X135790000Y-104271828D02*
X135761428Y-104214685D01*
X135761428Y-104214685D02*
X135732857Y-104186114D01*
X135732857Y-104186114D02*
X135675714Y-104157542D01*
X135675714Y-104157542D02*
X135447143Y-104157542D01*
X136361428Y-103871828D02*
X136018571Y-103871828D01*
X136190000Y-103871828D02*
X136190000Y-104471828D01*
X136190000Y-104471828D02*
X136132857Y-104386114D01*
X136132857Y-104386114D02*
X136075714Y-104328971D01*
X136075714Y-104328971D02*
X136018571Y-104300400D01*
X129300800Y-99806228D02*
X129100800Y-100091942D01*
X128957943Y-99806228D02*
X128957943Y-100406228D01*
X128957943Y-100406228D02*
X129186514Y-100406228D01*
X129186514Y-100406228D02*
X129243657Y-100377657D01*
X129243657Y-100377657D02*
X129272228Y-100349085D01*
X129272228Y-100349085D02*
X129300800Y-100291942D01*
X129300800Y-100291942D02*
X129300800Y-100206228D01*
X129300800Y-100206228D02*
X129272228Y-100149085D01*
X129272228Y-100149085D02*
X129243657Y-100120514D01*
X129243657Y-100120514D02*
X129186514Y-100091942D01*
X129186514Y-100091942D02*
X128957943Y-100091942D01*
X129529371Y-100349085D02*
X129557943Y-100377657D01*
X129557943Y-100377657D02*
X129615086Y-100406228D01*
X129615086Y-100406228D02*
X129757943Y-100406228D01*
X129757943Y-100406228D02*
X129815086Y-100377657D01*
X129815086Y-100377657D02*
X129843657Y-100349085D01*
X129843657Y-100349085D02*
X129872228Y-100291942D01*
X129872228Y-100291942D02*
X129872228Y-100234800D01*
X129872228Y-100234800D02*
X129843657Y-100149085D01*
X129843657Y-100149085D02*
X129500800Y-99806228D01*
X129500800Y-99806228D02*
X129872228Y-99806228D01*
X145410285Y-94460228D02*
X145210285Y-94745942D01*
X145067428Y-94460228D02*
X145067428Y-95060228D01*
X145067428Y-95060228D02*
X145295999Y-95060228D01*
X145295999Y-95060228D02*
X145353142Y-95031657D01*
X145353142Y-95031657D02*
X145381713Y-95003085D01*
X145381713Y-95003085D02*
X145410285Y-94945942D01*
X145410285Y-94945942D02*
X145410285Y-94860228D01*
X145410285Y-94860228D02*
X145381713Y-94803085D01*
X145381713Y-94803085D02*
X145353142Y-94774514D01*
X145353142Y-94774514D02*
X145295999Y-94745942D01*
X145295999Y-94745942D02*
X145067428Y-94745942D01*
X145981713Y-94460228D02*
X145638856Y-94460228D01*
X145810285Y-94460228D02*
X145810285Y-95060228D01*
X145810285Y-95060228D02*
X145753142Y-94974514D01*
X145753142Y-94974514D02*
X145695999Y-94917371D01*
X145695999Y-94917371D02*
X145638856Y-94888800D01*
X146324571Y-94803085D02*
X146267428Y-94831657D01*
X146267428Y-94831657D02*
X146238857Y-94860228D01*
X146238857Y-94860228D02*
X146210285Y-94917371D01*
X146210285Y-94917371D02*
X146210285Y-94945942D01*
X146210285Y-94945942D02*
X146238857Y-95003085D01*
X146238857Y-95003085D02*
X146267428Y-95031657D01*
X146267428Y-95031657D02*
X146324571Y-95060228D01*
X146324571Y-95060228D02*
X146438857Y-95060228D01*
X146438857Y-95060228D02*
X146496000Y-95031657D01*
X146496000Y-95031657D02*
X146524571Y-95003085D01*
X146524571Y-95003085D02*
X146553142Y-94945942D01*
X146553142Y-94945942D02*
X146553142Y-94917371D01*
X146553142Y-94917371D02*
X146524571Y-94860228D01*
X146524571Y-94860228D02*
X146496000Y-94831657D01*
X146496000Y-94831657D02*
X146438857Y-94803085D01*
X146438857Y-94803085D02*
X146324571Y-94803085D01*
X146324571Y-94803085D02*
X146267428Y-94774514D01*
X146267428Y-94774514D02*
X146238857Y-94745942D01*
X146238857Y-94745942D02*
X146210285Y-94688800D01*
X146210285Y-94688800D02*
X146210285Y-94574514D01*
X146210285Y-94574514D02*
X146238857Y-94517371D01*
X146238857Y-94517371D02*
X146267428Y-94488800D01*
X146267428Y-94488800D02*
X146324571Y-94460228D01*
X146324571Y-94460228D02*
X146438857Y-94460228D01*
X146438857Y-94460228D02*
X146496000Y-94488800D01*
X146496000Y-94488800D02*
X146524571Y-94517371D01*
X146524571Y-94517371D02*
X146553142Y-94574514D01*
X146553142Y-94574514D02*
X146553142Y-94688800D01*
X146553142Y-94688800D02*
X146524571Y-94745942D01*
X146524571Y-94745942D02*
X146496000Y-94774514D01*
X146496000Y-94774514D02*
X146438857Y-94803085D01*
X151220000Y-99712228D02*
X151020000Y-99997942D01*
X150877143Y-99712228D02*
X150877143Y-100312228D01*
X150877143Y-100312228D02*
X151105714Y-100312228D01*
X151105714Y-100312228D02*
X151162857Y-100283657D01*
X151162857Y-100283657D02*
X151191428Y-100255085D01*
X151191428Y-100255085D02*
X151220000Y-100197942D01*
X151220000Y-100197942D02*
X151220000Y-100112228D01*
X151220000Y-100112228D02*
X151191428Y-100055085D01*
X151191428Y-100055085D02*
X151162857Y-100026514D01*
X151162857Y-100026514D02*
X151105714Y-99997942D01*
X151105714Y-99997942D02*
X150877143Y-99997942D01*
X151505714Y-99712228D02*
X151620000Y-99712228D01*
X151620000Y-99712228D02*
X151677143Y-99740800D01*
X151677143Y-99740800D02*
X151705714Y-99769371D01*
X151705714Y-99769371D02*
X151762857Y-99855085D01*
X151762857Y-99855085D02*
X151791428Y-99969371D01*
X151791428Y-99969371D02*
X151791428Y-100197942D01*
X151791428Y-100197942D02*
X151762857Y-100255085D01*
X151762857Y-100255085D02*
X151734286Y-100283657D01*
X151734286Y-100283657D02*
X151677143Y-100312228D01*
X151677143Y-100312228D02*
X151562857Y-100312228D01*
X151562857Y-100312228D02*
X151505714Y-100283657D01*
X151505714Y-100283657D02*
X151477143Y-100255085D01*
X151477143Y-100255085D02*
X151448571Y-100197942D01*
X151448571Y-100197942D02*
X151448571Y-100055085D01*
X151448571Y-100055085D02*
X151477143Y-99997942D01*
X151477143Y-99997942D02*
X151505714Y-99969371D01*
X151505714Y-99969371D02*
X151562857Y-99940800D01*
X151562857Y-99940800D02*
X151677143Y-99940800D01*
X151677143Y-99940800D02*
X151734286Y-99969371D01*
X151734286Y-99969371D02*
X151762857Y-99997942D01*
X151762857Y-99997942D02*
X151791428Y-100055085D01*
X138562857Y-94060228D02*
X138562857Y-93574514D01*
X138562857Y-93574514D02*
X138591428Y-93517371D01*
X138591428Y-93517371D02*
X138620000Y-93488800D01*
X138620000Y-93488800D02*
X138677142Y-93460228D01*
X138677142Y-93460228D02*
X138791428Y-93460228D01*
X138791428Y-93460228D02*
X138848571Y-93488800D01*
X138848571Y-93488800D02*
X138877142Y-93517371D01*
X138877142Y-93517371D02*
X138905714Y-93574514D01*
X138905714Y-93574514D02*
X138905714Y-94060228D01*
X139477142Y-94060228D02*
X139191428Y-94060228D01*
X139191428Y-94060228D02*
X139162856Y-93774514D01*
X139162856Y-93774514D02*
X139191428Y-93803085D01*
X139191428Y-93803085D02*
X139248571Y-93831657D01*
X139248571Y-93831657D02*
X139391428Y-93831657D01*
X139391428Y-93831657D02*
X139448571Y-93803085D01*
X139448571Y-93803085D02*
X139477142Y-93774514D01*
X139477142Y-93774514D02*
X139505713Y-93717371D01*
X139505713Y-93717371D02*
X139505713Y-93574514D01*
X139505713Y-93574514D02*
X139477142Y-93517371D01*
X139477142Y-93517371D02*
X139448571Y-93488800D01*
X139448571Y-93488800D02*
X139391428Y-93460228D01*
X139391428Y-93460228D02*
X139248571Y-93460228D01*
X139248571Y-93460228D02*
X139191428Y-93488800D01*
X139191428Y-93488800D02*
X139162856Y-93517371D01*
X135758285Y-96307371D02*
X135729713Y-96278800D01*
X135729713Y-96278800D02*
X135643999Y-96250228D01*
X135643999Y-96250228D02*
X135586856Y-96250228D01*
X135586856Y-96250228D02*
X135501142Y-96278800D01*
X135501142Y-96278800D02*
X135443999Y-96335942D01*
X135443999Y-96335942D02*
X135415428Y-96393085D01*
X135415428Y-96393085D02*
X135386856Y-96507371D01*
X135386856Y-96507371D02*
X135386856Y-96593085D01*
X135386856Y-96593085D02*
X135415428Y-96707371D01*
X135415428Y-96707371D02*
X135443999Y-96764514D01*
X135443999Y-96764514D02*
X135501142Y-96821657D01*
X135501142Y-96821657D02*
X135586856Y-96850228D01*
X135586856Y-96850228D02*
X135643999Y-96850228D01*
X135643999Y-96850228D02*
X135729713Y-96821657D01*
X135729713Y-96821657D02*
X135758285Y-96793085D01*
X136329713Y-96250228D02*
X135986856Y-96250228D01*
X136158285Y-96250228D02*
X136158285Y-96850228D01*
X136158285Y-96850228D02*
X136101142Y-96764514D01*
X136101142Y-96764514D02*
X136043999Y-96707371D01*
X136043999Y-96707371D02*
X135986856Y-96678800D01*
X136844000Y-96650228D02*
X136844000Y-96250228D01*
X136701142Y-96878800D02*
X136558285Y-96450228D01*
X136558285Y-96450228D02*
X136929714Y-96450228D01*
X150626856Y-107220228D02*
X150969714Y-107220228D01*
X150798285Y-106620228D02*
X150798285Y-107220228D01*
X151169714Y-106620228D02*
X151169714Y-107220228D01*
X151169714Y-107220228D02*
X151398285Y-107220228D01*
X151398285Y-107220228D02*
X151455428Y-107191657D01*
X151455428Y-107191657D02*
X151483999Y-107163085D01*
X151483999Y-107163085D02*
X151512571Y-107105942D01*
X151512571Y-107105942D02*
X151512571Y-107020228D01*
X151512571Y-107020228D02*
X151483999Y-106963085D01*
X151483999Y-106963085D02*
X151455428Y-106934514D01*
X151455428Y-106934514D02*
X151398285Y-106905942D01*
X151398285Y-106905942D02*
X151169714Y-106905942D01*
X151741142Y-107163085D02*
X151769714Y-107191657D01*
X151769714Y-107191657D02*
X151826857Y-107220228D01*
X151826857Y-107220228D02*
X151969714Y-107220228D01*
X151969714Y-107220228D02*
X152026857Y-107191657D01*
X152026857Y-107191657D02*
X152055428Y-107163085D01*
X152055428Y-107163085D02*
X152083999Y-107105942D01*
X152083999Y-107105942D02*
X152083999Y-107048800D01*
X152083999Y-107048800D02*
X152055428Y-106963085D01*
X152055428Y-106963085D02*
X151712571Y-106620228D01*
X151712571Y-106620228D02*
X152083999Y-106620228D01*
X150442856Y-89790228D02*
X150785714Y-89790228D01*
X150614285Y-89190228D02*
X150614285Y-89790228D01*
X150985714Y-89190228D02*
X150985714Y-89790228D01*
X150985714Y-89790228D02*
X151214285Y-89790228D01*
X151214285Y-89790228D02*
X151271428Y-89761657D01*
X151271428Y-89761657D02*
X151299999Y-89733085D01*
X151299999Y-89733085D02*
X151328571Y-89675942D01*
X151328571Y-89675942D02*
X151328571Y-89590228D01*
X151328571Y-89590228D02*
X151299999Y-89533085D01*
X151299999Y-89533085D02*
X151271428Y-89504514D01*
X151271428Y-89504514D02*
X151214285Y-89475942D01*
X151214285Y-89475942D02*
X150985714Y-89475942D01*
X151528571Y-89790228D02*
X151899999Y-89790228D01*
X151899999Y-89790228D02*
X151699999Y-89561657D01*
X151699999Y-89561657D02*
X151785714Y-89561657D01*
X151785714Y-89561657D02*
X151842857Y-89533085D01*
X151842857Y-89533085D02*
X151871428Y-89504514D01*
X151871428Y-89504514D02*
X151899999Y-89447371D01*
X151899999Y-89447371D02*
X151899999Y-89304514D01*
X151899999Y-89304514D02*
X151871428Y-89247371D01*
X151871428Y-89247371D02*
X151842857Y-89218800D01*
X151842857Y-89218800D02*
X151785714Y-89190228D01*
X151785714Y-89190228D02*
X151614285Y-89190228D01*
X151614285Y-89190228D02*
X151557142Y-89218800D01*
X151557142Y-89218800D02*
X151528571Y-89247371D01*
X150626856Y-104180228D02*
X150969714Y-104180228D01*
X150798285Y-103580228D02*
X150798285Y-104180228D01*
X151169714Y-103580228D02*
X151169714Y-104180228D01*
X151169714Y-104180228D02*
X151398285Y-104180228D01*
X151398285Y-104180228D02*
X151455428Y-104151657D01*
X151455428Y-104151657D02*
X151483999Y-104123085D01*
X151483999Y-104123085D02*
X151512571Y-104065942D01*
X151512571Y-104065942D02*
X151512571Y-103980228D01*
X151512571Y-103980228D02*
X151483999Y-103923085D01*
X151483999Y-103923085D02*
X151455428Y-103894514D01*
X151455428Y-103894514D02*
X151398285Y-103865942D01*
X151398285Y-103865942D02*
X151169714Y-103865942D01*
X152083999Y-103580228D02*
X151741142Y-103580228D01*
X151912571Y-103580228D02*
X151912571Y-104180228D01*
X151912571Y-104180228D02*
X151855428Y-104094514D01*
X151855428Y-104094514D02*
X151798285Y-104037371D01*
X151798285Y-104037371D02*
X151741142Y-104008800D01*
X147442285Y-100822228D02*
X147242285Y-101107942D01*
X147099428Y-100822228D02*
X147099428Y-101422228D01*
X147099428Y-101422228D02*
X147327999Y-101422228D01*
X147327999Y-101422228D02*
X147385142Y-101393657D01*
X147385142Y-101393657D02*
X147413713Y-101365085D01*
X147413713Y-101365085D02*
X147442285Y-101307942D01*
X147442285Y-101307942D02*
X147442285Y-101222228D01*
X147442285Y-101222228D02*
X147413713Y-101165085D01*
X147413713Y-101165085D02*
X147385142Y-101136514D01*
X147385142Y-101136514D02*
X147327999Y-101107942D01*
X147327999Y-101107942D02*
X147099428Y-101107942D01*
X148013713Y-100822228D02*
X147670856Y-100822228D01*
X147842285Y-100822228D02*
X147842285Y-101422228D01*
X147842285Y-101422228D02*
X147785142Y-101336514D01*
X147785142Y-101336514D02*
X147727999Y-101279371D01*
X147727999Y-101279371D02*
X147670856Y-101250800D01*
X148556571Y-101422228D02*
X148270857Y-101422228D01*
X148270857Y-101422228D02*
X148242285Y-101136514D01*
X148242285Y-101136514D02*
X148270857Y-101165085D01*
X148270857Y-101165085D02*
X148328000Y-101193657D01*
X148328000Y-101193657D02*
X148470857Y-101193657D01*
X148470857Y-101193657D02*
X148528000Y-101165085D01*
X148528000Y-101165085D02*
X148556571Y-101136514D01*
X148556571Y-101136514D02*
X148585142Y-101079371D01*
X148585142Y-101079371D02*
X148585142Y-100936514D01*
X148585142Y-100936514D02*
X148556571Y-100879371D01*
X148556571Y-100879371D02*
X148528000Y-100850800D01*
X148528000Y-100850800D02*
X148470857Y-100822228D01*
X148470857Y-100822228D02*
X148328000Y-100822228D01*
X148328000Y-100822228D02*
X148270857Y-100850800D01*
X148270857Y-100850800D02*
X148242285Y-100879371D01*
X141100000Y-94950228D02*
X140900000Y-95235942D01*
X140757143Y-94950228D02*
X140757143Y-95550228D01*
X140757143Y-95550228D02*
X140985714Y-95550228D01*
X140985714Y-95550228D02*
X141042857Y-95521657D01*
X141042857Y-95521657D02*
X141071428Y-95493085D01*
X141071428Y-95493085D02*
X141100000Y-95435942D01*
X141100000Y-95435942D02*
X141100000Y-95350228D01*
X141100000Y-95350228D02*
X141071428Y-95293085D01*
X141071428Y-95293085D02*
X141042857Y-95264514D01*
X141042857Y-95264514D02*
X140985714Y-95235942D01*
X140985714Y-95235942D02*
X140757143Y-95235942D01*
X141300000Y-95550228D02*
X141700000Y-95550228D01*
X141700000Y-95550228D02*
X141442857Y-94950228D01*
X133780286Y-95996228D02*
X133780286Y-96596228D01*
X134408857Y-96053371D02*
X134380285Y-96024800D01*
X134380285Y-96024800D02*
X134294571Y-95996228D01*
X134294571Y-95996228D02*
X134237428Y-95996228D01*
X134237428Y-95996228D02*
X134151714Y-96024800D01*
X134151714Y-96024800D02*
X134094571Y-96081942D01*
X134094571Y-96081942D02*
X134066000Y-96139085D01*
X134066000Y-96139085D02*
X134037428Y-96253371D01*
X134037428Y-96253371D02*
X134037428Y-96339085D01*
X134037428Y-96339085D02*
X134066000Y-96453371D01*
X134066000Y-96453371D02*
X134094571Y-96510514D01*
X134094571Y-96510514D02*
X134151714Y-96567657D01*
X134151714Y-96567657D02*
X134237428Y-96596228D01*
X134237428Y-96596228D02*
X134294571Y-96596228D01*
X134294571Y-96596228D02*
X134380285Y-96567657D01*
X134380285Y-96567657D02*
X134408857Y-96539085D01*
X134980285Y-95996228D02*
X134637428Y-95996228D01*
X134808857Y-95996228D02*
X134808857Y-96596228D01*
X134808857Y-96596228D02*
X134751714Y-96510514D01*
X134751714Y-96510514D02*
X134694571Y-96453371D01*
X134694571Y-96453371D02*
X134637428Y-96424800D01*
X132632667Y-99962800D02*
X132775524Y-99915180D01*
X132775524Y-99915180D02*
X133013619Y-99915180D01*
X133013619Y-99915180D02*
X133108857Y-99962800D01*
X133108857Y-99962800D02*
X133156476Y-100010419D01*
X133156476Y-100010419D02*
X133204095Y-100105657D01*
X133204095Y-100105657D02*
X133204095Y-100200895D01*
X133204095Y-100200895D02*
X133156476Y-100296133D01*
X133156476Y-100296133D02*
X133108857Y-100343752D01*
X133108857Y-100343752D02*
X133013619Y-100391371D01*
X133013619Y-100391371D02*
X132823143Y-100438990D01*
X132823143Y-100438990D02*
X132727905Y-100486609D01*
X132727905Y-100486609D02*
X132680286Y-100534228D01*
X132680286Y-100534228D02*
X132632667Y-100629466D01*
X132632667Y-100629466D02*
X132632667Y-100724704D01*
X132632667Y-100724704D02*
X132680286Y-100819942D01*
X132680286Y-100819942D02*
X132727905Y-100867561D01*
X132727905Y-100867561D02*
X132823143Y-100915180D01*
X132823143Y-100915180D02*
X133061238Y-100915180D01*
X133061238Y-100915180D02*
X133204095Y-100867561D01*
X133537429Y-100915180D02*
X133775524Y-99915180D01*
X133775524Y-99915180D02*
X133966000Y-100629466D01*
X133966000Y-100629466D02*
X134156476Y-99915180D01*
X134156476Y-99915180D02*
X134394572Y-100915180D01*
X135299333Y-99915180D02*
X134727905Y-99915180D01*
X135013619Y-99915180D02*
X135013619Y-100915180D01*
X135013619Y-100915180D02*
X134918381Y-100772323D01*
X134918381Y-100772323D02*
X134823143Y-100677085D01*
X134823143Y-100677085D02*
X134727905Y-100629466D01*
X130946667Y-99097180D02*
X131565714Y-99097180D01*
X131565714Y-99097180D02*
X131232381Y-98716228D01*
X131232381Y-98716228D02*
X131375238Y-98716228D01*
X131375238Y-98716228D02*
X131470476Y-98668609D01*
X131470476Y-98668609D02*
X131518095Y-98620990D01*
X131518095Y-98620990D02*
X131565714Y-98525752D01*
X131565714Y-98525752D02*
X131565714Y-98287657D01*
X131565714Y-98287657D02*
X131518095Y-98192419D01*
X131518095Y-98192419D02*
X131470476Y-98144800D01*
X131470476Y-98144800D02*
X131375238Y-98097180D01*
X131375238Y-98097180D02*
X131089524Y-98097180D01*
X131089524Y-98097180D02*
X130994286Y-98144800D01*
X130994286Y-98144800D02*
X130946667Y-98192419D01*
X136743714Y-98097180D02*
X136172286Y-98097180D01*
X136458000Y-98097180D02*
X136458000Y-99097180D01*
X136458000Y-99097180D02*
X136362762Y-98954323D01*
X136362762Y-98954323D02*
X136267524Y-98859085D01*
X136267524Y-98859085D02*
X136172286Y-98811466D01*
X140076285Y-99880228D02*
X139876285Y-100165942D01*
X139733428Y-99880228D02*
X139733428Y-100480228D01*
X139733428Y-100480228D02*
X139961999Y-100480228D01*
X139961999Y-100480228D02*
X140019142Y-100451657D01*
X140019142Y-100451657D02*
X140047713Y-100423085D01*
X140047713Y-100423085D02*
X140076285Y-100365942D01*
X140076285Y-100365942D02*
X140076285Y-100280228D01*
X140076285Y-100280228D02*
X140047713Y-100223085D01*
X140047713Y-100223085D02*
X140019142Y-100194514D01*
X140019142Y-100194514D02*
X139961999Y-100165942D01*
X139961999Y-100165942D02*
X139733428Y-100165942D01*
X140647713Y-99880228D02*
X140304856Y-99880228D01*
X140476285Y-99880228D02*
X140476285Y-100480228D01*
X140476285Y-100480228D02*
X140419142Y-100394514D01*
X140419142Y-100394514D02*
X140361999Y-100337371D01*
X140361999Y-100337371D02*
X140304856Y-100308800D01*
X141019142Y-100480228D02*
X141076285Y-100480228D01*
X141076285Y-100480228D02*
X141133428Y-100451657D01*
X141133428Y-100451657D02*
X141162000Y-100423085D01*
X141162000Y-100423085D02*
X141190571Y-100365942D01*
X141190571Y-100365942D02*
X141219142Y-100251657D01*
X141219142Y-100251657D02*
X141219142Y-100108800D01*
X141219142Y-100108800D02*
X141190571Y-99994514D01*
X141190571Y-99994514D02*
X141162000Y-99937371D01*
X141162000Y-99937371D02*
X141133428Y-99908800D01*
X141133428Y-99908800D02*
X141076285Y-99880228D01*
X141076285Y-99880228D02*
X141019142Y-99880228D01*
X141019142Y-99880228D02*
X140962000Y-99908800D01*
X140962000Y-99908800D02*
X140933428Y-99937371D01*
X140933428Y-99937371D02*
X140904857Y-99994514D01*
X140904857Y-99994514D02*
X140876285Y-100108800D01*
X140876285Y-100108800D02*
X140876285Y-100251657D01*
X140876285Y-100251657D02*
X140904857Y-100365942D01*
X140904857Y-100365942D02*
X140933428Y-100423085D01*
X140933428Y-100423085D02*
X140962000Y-100451657D01*
X140962000Y-100451657D02*
X141019142Y-100480228D01*
X131948285Y-96561371D02*
X131919713Y-96532800D01*
X131919713Y-96532800D02*
X131833999Y-96504228D01*
X131833999Y-96504228D02*
X131776856Y-96504228D01*
X131776856Y-96504228D02*
X131691142Y-96532800D01*
X131691142Y-96532800D02*
X131633999Y-96589942D01*
X131633999Y-96589942D02*
X131605428Y-96647085D01*
X131605428Y-96647085D02*
X131576856Y-96761371D01*
X131576856Y-96761371D02*
X131576856Y-96847085D01*
X131576856Y-96847085D02*
X131605428Y-96961371D01*
X131605428Y-96961371D02*
X131633999Y-97018514D01*
X131633999Y-97018514D02*
X131691142Y-97075657D01*
X131691142Y-97075657D02*
X131776856Y-97104228D01*
X131776856Y-97104228D02*
X131833999Y-97104228D01*
X131833999Y-97104228D02*
X131919713Y-97075657D01*
X131919713Y-97075657D02*
X131948285Y-97047085D01*
X132519713Y-96504228D02*
X132176856Y-96504228D01*
X132348285Y-96504228D02*
X132348285Y-97104228D01*
X132348285Y-97104228D02*
X132291142Y-97018514D01*
X132291142Y-97018514D02*
X132233999Y-96961371D01*
X132233999Y-96961371D02*
X132176856Y-96932800D01*
X132719714Y-97104228D02*
X133091142Y-97104228D01*
X133091142Y-97104228D02*
X132891142Y-96875657D01*
X132891142Y-96875657D02*
X132976857Y-96875657D01*
X132976857Y-96875657D02*
X133034000Y-96847085D01*
X133034000Y-96847085D02*
X133062571Y-96818514D01*
X133062571Y-96818514D02*
X133091142Y-96761371D01*
X133091142Y-96761371D02*
X133091142Y-96618514D01*
X133091142Y-96618514D02*
X133062571Y-96561371D01*
X133062571Y-96561371D02*
X133034000Y-96532800D01*
X133034000Y-96532800D02*
X132976857Y-96504228D01*
X132976857Y-96504228D02*
X132805428Y-96504228D01*
X132805428Y-96504228D02*
X132748285Y-96532800D01*
X132748285Y-96532800D02*
X132719714Y-96561371D01*
X129300800Y-102346228D02*
X129100800Y-102631942D01*
X128957943Y-102346228D02*
X128957943Y-102946228D01*
X128957943Y-102946228D02*
X129186514Y-102946228D01*
X129186514Y-102946228D02*
X129243657Y-102917657D01*
X129243657Y-102917657D02*
X129272228Y-102889085D01*
X129272228Y-102889085D02*
X129300800Y-102831942D01*
X129300800Y-102831942D02*
X129300800Y-102746228D01*
X129300800Y-102746228D02*
X129272228Y-102689085D01*
X129272228Y-102689085D02*
X129243657Y-102660514D01*
X129243657Y-102660514D02*
X129186514Y-102631942D01*
X129186514Y-102631942D02*
X128957943Y-102631942D01*
X129815086Y-102746228D02*
X129815086Y-102346228D01*
X129672228Y-102974800D02*
X129529371Y-102546228D01*
X129529371Y-102546228D02*
X129900800Y-102546228D01*
X146172285Y-104124228D02*
X145972285Y-104409942D01*
X145829428Y-104124228D02*
X145829428Y-104724228D01*
X145829428Y-104724228D02*
X146057999Y-104724228D01*
X146057999Y-104724228D02*
X146115142Y-104695657D01*
X146115142Y-104695657D02*
X146143713Y-104667085D01*
X146143713Y-104667085D02*
X146172285Y-104609942D01*
X146172285Y-104609942D02*
X146172285Y-104524228D01*
X146172285Y-104524228D02*
X146143713Y-104467085D01*
X146143713Y-104467085D02*
X146115142Y-104438514D01*
X146115142Y-104438514D02*
X146057999Y-104409942D01*
X146057999Y-104409942D02*
X145829428Y-104409942D01*
X146743713Y-104124228D02*
X146400856Y-104124228D01*
X146572285Y-104124228D02*
X146572285Y-104724228D01*
X146572285Y-104724228D02*
X146515142Y-104638514D01*
X146515142Y-104638514D02*
X146457999Y-104581371D01*
X146457999Y-104581371D02*
X146400856Y-104552800D01*
X147258000Y-104724228D02*
X147143714Y-104724228D01*
X147143714Y-104724228D02*
X147086571Y-104695657D01*
X147086571Y-104695657D02*
X147058000Y-104667085D01*
X147058000Y-104667085D02*
X147000857Y-104581371D01*
X147000857Y-104581371D02*
X146972285Y-104467085D01*
X146972285Y-104467085D02*
X146972285Y-104238514D01*
X146972285Y-104238514D02*
X147000857Y-104181371D01*
X147000857Y-104181371D02*
X147029428Y-104152800D01*
X147029428Y-104152800D02*
X147086571Y-104124228D01*
X147086571Y-104124228D02*
X147200857Y-104124228D01*
X147200857Y-104124228D02*
X147258000Y-104152800D01*
X147258000Y-104152800D02*
X147286571Y-104181371D01*
X147286571Y-104181371D02*
X147315142Y-104238514D01*
X147315142Y-104238514D02*
X147315142Y-104381371D01*
X147315142Y-104381371D02*
X147286571Y-104438514D01*
X147286571Y-104438514D02*
X147258000Y-104467085D01*
X147258000Y-104467085D02*
X147200857Y-104495657D01*
X147200857Y-104495657D02*
X147086571Y-104495657D01*
X147086571Y-104495657D02*
X147029428Y-104467085D01*
X147029428Y-104467085D02*
X147000857Y-104438514D01*
X147000857Y-104438514D02*
X146972285Y-104381371D01*
G36*
X144449871Y-95020552D02*
G01*
X144507952Y-95042404D01*
X144893149Y-95187452D01*
X145217615Y-95310015D01*
X145486541Y-95412243D01*
X145705119Y-95496284D01*
X145878539Y-95564291D01*
X146011994Y-95618411D01*
X146110675Y-95660796D01*
X146179772Y-95693595D01*
X146224477Y-95718959D01*
X146249983Y-95739037D01*
X146261479Y-95755979D01*
X146264157Y-95771935D01*
X146264557Y-95782550D01*
X146281181Y-95817815D01*
X146334667Y-95834311D01*
X146442028Y-95838398D01*
X146619899Y-95838398D01*
X146619899Y-96283075D01*
X146619899Y-96727753D01*
X146530964Y-96727753D01*
X146514574Y-96728129D01*
X146456721Y-96748991D01*
X146442028Y-96816689D01*
X146442404Y-96833078D01*
X146463266Y-96890931D01*
X146530964Y-96905624D01*
X146547353Y-96906000D01*
X146605206Y-96926862D01*
X146619899Y-96994560D01*
X146619524Y-97010949D01*
X146598662Y-97068803D01*
X146530964Y-97083496D01*
X146514574Y-97083871D01*
X146456721Y-97104733D01*
X146442028Y-97172431D01*
X146442404Y-97188821D01*
X146463266Y-97246674D01*
X146530964Y-97261367D01*
X146547353Y-97261742D01*
X146605206Y-97282604D01*
X146619899Y-97350302D01*
X146619524Y-97366692D01*
X146598662Y-97424545D01*
X146530964Y-97439238D01*
X146514574Y-97439613D01*
X146456721Y-97460475D01*
X146442028Y-97528173D01*
X146442404Y-97544563D01*
X146463266Y-97602416D01*
X146530964Y-97617109D01*
X146547353Y-97617485D01*
X146605206Y-97638346D01*
X146619899Y-97706045D01*
X146619524Y-97722434D01*
X146598662Y-97780287D01*
X146530964Y-97794980D01*
X146514574Y-97795356D01*
X146456721Y-97816218D01*
X146442028Y-97883916D01*
X146442404Y-97900305D01*
X146463266Y-97958158D01*
X146530964Y-97972851D01*
X146547353Y-97973227D01*
X146605206Y-97994089D01*
X146619899Y-98061787D01*
X146619524Y-98078176D01*
X146598662Y-98136029D01*
X146530964Y-98150722D01*
X146514574Y-98151098D01*
X146456721Y-98171960D01*
X146442028Y-98239658D01*
X146442404Y-98256047D01*
X146463266Y-98313901D01*
X146530964Y-98328594D01*
X146547353Y-98328969D01*
X146605206Y-98349831D01*
X146619899Y-98417529D01*
X146619524Y-98433919D01*
X146598662Y-98491772D01*
X146530964Y-98506465D01*
X146514574Y-98506840D01*
X146456721Y-98527702D01*
X146442028Y-98595400D01*
X146442404Y-98611790D01*
X146463266Y-98669643D01*
X146530964Y-98684336D01*
X146547353Y-98684711D01*
X146605206Y-98705573D01*
X146619899Y-98773271D01*
X146619524Y-98789661D01*
X146598662Y-98847514D01*
X146530964Y-98862207D01*
X146514574Y-98862583D01*
X146456721Y-98883444D01*
X146442028Y-98951143D01*
X146441653Y-98967532D01*
X146420791Y-99025385D01*
X146353093Y-99040078D01*
X146320399Y-99043737D01*
X146268545Y-99084850D01*
X146264480Y-99164018D01*
X146307080Y-99271689D01*
X146395222Y-99398311D01*
X146424868Y-99433923D01*
X146524860Y-99553890D01*
X146585769Y-99628555D01*
X146612216Y-99666002D01*
X146608817Y-99674314D01*
X146580194Y-99661575D01*
X146530964Y-99635869D01*
X146521212Y-99630955D01*
X146409583Y-99578116D01*
X146291224Y-99526256D01*
X146158206Y-99470922D01*
X146282330Y-99655235D01*
X146339040Y-99744215D01*
X146387728Y-99832059D01*
X146406454Y-99882459D01*
X146393354Y-99907235D01*
X146333535Y-99968634D01*
X146235819Y-100052663D01*
X146111835Y-100150873D01*
X145973212Y-100254814D01*
X145831579Y-100356034D01*
X145698565Y-100446085D01*
X145585798Y-100516516D01*
X145504909Y-100558878D01*
X145467525Y-100564719D01*
X145459932Y-100554761D01*
X145402180Y-100475464D01*
X145324658Y-100365356D01*
X145237486Y-100239271D01*
X145150784Y-100112038D01*
X145074672Y-99998492D01*
X145019272Y-99913463D01*
X145007716Y-99893860D01*
X145481524Y-99893860D01*
X145490355Y-99962580D01*
X145545289Y-100043542D01*
X145646182Y-100071731D01*
X145670558Y-100070309D01*
X145765083Y-100031374D01*
X145821353Y-99954698D01*
X145829927Y-99861223D01*
X145781364Y-99771891D01*
X145707274Y-99728271D01*
X145607073Y-99720041D01*
X145524213Y-99758678D01*
X145497054Y-99807106D01*
X145481524Y-99893860D01*
X145007716Y-99893860D01*
X145002684Y-99885323D01*
X145140962Y-99885323D01*
X145168288Y-99883643D01*
X145242197Y-99849791D01*
X145346416Y-99788988D01*
X145466349Y-99710417D01*
X145587398Y-99623264D01*
X145694969Y-99536713D01*
X145765278Y-99472257D01*
X145814302Y-99418752D01*
X145819479Y-99398363D01*
X145795178Y-99408116D01*
X145727695Y-99454313D01*
X145641608Y-99525601D01*
X145579331Y-99577195D01*
X145444969Y-99675006D01*
X145310927Y-99759663D01*
X145225321Y-99811744D01*
X145159267Y-99859807D01*
X145140962Y-99885323D01*
X145002684Y-99885323D01*
X144994703Y-99871783D01*
X144990239Y-99848324D01*
X145012922Y-99822711D01*
X145040742Y-99811887D01*
X145118855Y-99768232D01*
X145231114Y-99698856D01*
X145363577Y-99612131D01*
X145404658Y-99584209D01*
X145564292Y-99469065D01*
X145702799Y-99359045D01*
X145738803Y-99326988D01*
X146059434Y-99326988D01*
X146068499Y-99360246D01*
X146075808Y-99370777D01*
X146108272Y-99395821D01*
X146113138Y-99393504D01*
X146104073Y-99360246D01*
X146096764Y-99349716D01*
X146064300Y-99324672D01*
X146059434Y-99326988D01*
X145738803Y-99326988D01*
X145801334Y-99271311D01*
X146015137Y-99271311D01*
X146032925Y-99289098D01*
X146050712Y-99271311D01*
X146032925Y-99253524D01*
X146015137Y-99271311D01*
X145801334Y-99271311D01*
X145812689Y-99261201D01*
X145886472Y-99182582D01*
X145916655Y-99130241D01*
X145895748Y-99111227D01*
X145864208Y-99116874D01*
X145853371Y-99144078D01*
X145849388Y-99162460D01*
X145807408Y-99216294D01*
X145737270Y-99286223D01*
X145656779Y-99356128D01*
X145583742Y-99409892D01*
X145535966Y-99431395D01*
X145523412Y-99417047D01*
X145527419Y-99360197D01*
X145531904Y-99320340D01*
X145513529Y-99309091D01*
X145493435Y-99311355D01*
X145464446Y-99278901D01*
X145593981Y-99278901D01*
X145618324Y-99274708D01*
X145634128Y-99263726D01*
X145659395Y-99233637D01*
X145659049Y-99228664D01*
X145638456Y-99220830D01*
X145602637Y-99259020D01*
X145593981Y-99278901D01*
X145464446Y-99278901D01*
X145459680Y-99273565D01*
X145444826Y-99246424D01*
X145403668Y-99217949D01*
X145397433Y-99221783D01*
X145405366Y-99264771D01*
X145444515Y-99340138D01*
X145520032Y-99462326D01*
X145314013Y-99601803D01*
X145203795Y-99673923D01*
X145079125Y-99750501D01*
X144983485Y-99803950D01*
X144858975Y-99866620D01*
X144983485Y-99729049D01*
X145107995Y-99591479D01*
X144974591Y-99714073D01*
X144965662Y-99722384D01*
X144888964Y-99805128D01*
X144846587Y-99871977D01*
X144843746Y-99911345D01*
X144885656Y-99911648D01*
X144918156Y-99929157D01*
X144982877Y-99997393D01*
X145070201Y-100107740D01*
X145172121Y-100250720D01*
X145177743Y-100258972D01*
X145266728Y-100393786D01*
X145334226Y-100503885D01*
X145373740Y-100578121D01*
X145378772Y-100605344D01*
X145368386Y-100604013D01*
X145321440Y-100569770D01*
X145307385Y-100554959D01*
X145245795Y-100534196D01*
X145210477Y-100550752D01*
X145214550Y-100614238D01*
X145215106Y-100616226D01*
X145227008Y-100666178D01*
X145213946Y-100663404D01*
X145166368Y-100606339D01*
X145154879Y-100591428D01*
X145116261Y-100515569D01*
X145131763Y-100473627D01*
X145199301Y-100473975D01*
X145237105Y-100481427D01*
X145244275Y-100464873D01*
X145208563Y-100405286D01*
X145153686Y-100347760D01*
X145062092Y-100329005D01*
X145047934Y-100329906D01*
X144998769Y-100319605D01*
X144945570Y-100280067D01*
X144890398Y-100216344D01*
X145063355Y-100216344D01*
X145072420Y-100249602D01*
X145079729Y-100260133D01*
X145112194Y-100285176D01*
X145117060Y-100282860D01*
X145107995Y-100249602D01*
X145100686Y-100239071D01*
X145068221Y-100214028D01*
X145063355Y-100216344D01*
X144890398Y-100216344D01*
X144877071Y-100200951D01*
X144821183Y-100125092D01*
X144983485Y-100125092D01*
X145001272Y-100142879D01*
X145019059Y-100125092D01*
X145001272Y-100107305D01*
X144983485Y-100125092D01*
X144821183Y-100125092D01*
X144782008Y-100071919D01*
X144738108Y-100009736D01*
X144719591Y-99982795D01*
X144876762Y-99982795D01*
X144894549Y-100000582D01*
X144912336Y-99982795D01*
X144894549Y-99965008D01*
X144876762Y-99982795D01*
X144719591Y-99982795D01*
X144663401Y-99901045D01*
X144612028Y-99822291D01*
X144593177Y-99787325D01*
X144614855Y-99765712D01*
X144682494Y-99716577D01*
X144779942Y-99652900D01*
X144865556Y-99598845D01*
X144965168Y-99534956D01*
X145028965Y-99492816D01*
X145031871Y-99490828D01*
X145086932Y-99468030D01*
X145124447Y-99500845D01*
X145138631Y-99529565D01*
X145142786Y-99574958D01*
X145142385Y-99585513D01*
X145180708Y-99597408D01*
X145203547Y-99596090D01*
X145232504Y-99584626D01*
X145215898Y-99551134D01*
X145166541Y-99480771D01*
X145119124Y-99419537D01*
X145279937Y-99419537D01*
X145285151Y-99423794D01*
X145327369Y-99419537D01*
X145332935Y-99408837D01*
X145303653Y-99395821D01*
X145284820Y-99398388D01*
X145279937Y-99419537D01*
X145119124Y-99419537D01*
X145099099Y-99393677D01*
X145028519Y-99308446D01*
X144994826Y-99271311D01*
X145112917Y-99271311D01*
X145125833Y-99296473D01*
X145160806Y-99324672D01*
X145183060Y-99315924D01*
X145232504Y-99271311D01*
X145248357Y-99250131D01*
X145246564Y-99224043D01*
X145184615Y-99217949D01*
X145179281Y-99217981D01*
X145117017Y-99230711D01*
X145112917Y-99271311D01*
X144994826Y-99271311D01*
X144969749Y-99243673D01*
X144937735Y-99217949D01*
X144934019Y-99219046D01*
X144941110Y-99251566D01*
X144983642Y-99315165D01*
X145060111Y-99412380D01*
X144959543Y-99492859D01*
X144945882Y-99503644D01*
X144877124Y-99553255D01*
X144838325Y-99573515D01*
X144820236Y-99560003D01*
X144769953Y-99502415D01*
X144703658Y-99414926D01*
X144689419Y-99395821D01*
X144841188Y-99395821D01*
X144843755Y-99414653D01*
X144864904Y-99419537D01*
X144869162Y-99414323D01*
X144864904Y-99372104D01*
X144854204Y-99366539D01*
X144841188Y-99395821D01*
X144689419Y-99395821D01*
X144656806Y-99352063D01*
X144591815Y-99272751D01*
X144590347Y-99271311D01*
X144686026Y-99271311D01*
X144698942Y-99296473D01*
X144733915Y-99324672D01*
X144756169Y-99315924D01*
X144805614Y-99271311D01*
X144821466Y-99250131D01*
X144819674Y-99224043D01*
X144757725Y-99217949D01*
X144752390Y-99217981D01*
X144690126Y-99230711D01*
X144686026Y-99271311D01*
X144590347Y-99271311D01*
X144549834Y-99231559D01*
X144531058Y-99223662D01*
X144535977Y-99250539D01*
X144588052Y-99328068D01*
X144686624Y-99455172D01*
X144805619Y-99603460D01*
X144685801Y-99677511D01*
X144599738Y-99727076D01*
X144543037Y-99747636D01*
X144541350Y-99723184D01*
X144594731Y-99653734D01*
X144626783Y-99617165D01*
X144653035Y-99584966D01*
X144633731Y-99599109D01*
X144565358Y-99660389D01*
X144556388Y-99668625D01*
X144492152Y-99735919D01*
X144453497Y-99790130D01*
X144447867Y-99818086D01*
X144482708Y-99806616D01*
X144493203Y-99809129D01*
X144538889Y-99851245D01*
X144607503Y-99931209D01*
X144688127Y-100034332D01*
X144769840Y-100145924D01*
X144841726Y-100251295D01*
X144892864Y-100335755D01*
X144912336Y-100384616D01*
X144920592Y-100405786D01*
X144970789Y-100442292D01*
X144998733Y-100458923D01*
X145003627Y-100490338D01*
X144990471Y-100492122D01*
X144940223Y-100460194D01*
X144873267Y-100391671D01*
X144838818Y-100352483D01*
X144790351Y-100305672D01*
X144773494Y-100302963D01*
X144774340Y-100311992D01*
X144775790Y-100381261D01*
X144774252Y-100480834D01*
X144770039Y-100623130D01*
X144619025Y-100410255D01*
X144468010Y-100197381D01*
X144425802Y-100445830D01*
X144401528Y-100589139D01*
X144368796Y-100783189D01*
X144338913Y-100961087D01*
X144294230Y-101227893D01*
X144218095Y-100765428D01*
X144213043Y-100734847D01*
X144183704Y-100561421D01*
X144157631Y-100413875D01*
X144137494Y-100306998D01*
X144125966Y-100255579D01*
X144125633Y-100254688D01*
X144098408Y-100258349D01*
X144043275Y-100314260D01*
X143968647Y-100413951D01*
X143827322Y-100619707D01*
X143809535Y-100443548D01*
X143791748Y-100267389D01*
X143721823Y-100383005D01*
X143709406Y-100402841D01*
X143658533Y-100471066D01*
X143623548Y-100498622D01*
X143620103Y-100497674D01*
X143627720Y-100459782D01*
X143679456Y-100366938D01*
X143775013Y-100219636D01*
X143914092Y-100018370D01*
X144592168Y-100018370D01*
X144609955Y-100036157D01*
X144627743Y-100018370D01*
X144609955Y-100000582D01*
X144592168Y-100018370D01*
X143914092Y-100018370D01*
X143924625Y-100003556D01*
X144000674Y-99904335D01*
X144026338Y-99876073D01*
X144485446Y-99876073D01*
X144503233Y-99893860D01*
X144521020Y-99876073D01*
X144503233Y-99858285D01*
X144485446Y-99876073D01*
X144026338Y-99876073D01*
X144062335Y-99836433D01*
X144097109Y-99813818D01*
X144105909Y-99814893D01*
X144129703Y-99787137D01*
X144124397Y-99771431D01*
X144078375Y-99751563D01*
X144064388Y-99749792D01*
X143990782Y-99723353D01*
X143897789Y-99675298D01*
X143850548Y-99645484D01*
X143802979Y-99600477D01*
X143814901Y-99570375D01*
X143858837Y-99564074D01*
X143933233Y-99602172D01*
X143980127Y-99640772D01*
X143982697Y-99637041D01*
X143938126Y-99583359D01*
X143909790Y-99548375D01*
X143891822Y-99505657D01*
X143910140Y-99456685D01*
X143968399Y-99376471D01*
X143996661Y-99337800D01*
X144040163Y-99268046D01*
X144050348Y-99233459D01*
X144033780Y-99241335D01*
X143985867Y-99292465D01*
X143920983Y-99376774D01*
X143873065Y-99442559D01*
X143806271Y-99522785D01*
X143754750Y-99554372D01*
X143702610Y-99544067D01*
X143633960Y-99498616D01*
X143528009Y-99420283D01*
X143532402Y-99413608D01*
X143702813Y-99413608D01*
X143720600Y-99431395D01*
X143738387Y-99413608D01*
X143720600Y-99395821D01*
X143702813Y-99413608D01*
X143532402Y-99413608D01*
X143600440Y-99310222D01*
X143620351Y-99279300D01*
X143628833Y-99262417D01*
X143782855Y-99262417D01*
X143791694Y-99278832D01*
X143845109Y-99306885D01*
X143863671Y-99303727D01*
X143907364Y-99262417D01*
X143901532Y-99234341D01*
X143845109Y-99217949D01*
X143799365Y-99226713D01*
X143782855Y-99262417D01*
X143628833Y-99262417D01*
X143635204Y-99249736D01*
X143610379Y-99270152D01*
X143542437Y-99342459D01*
X143496370Y-99394189D01*
X143421030Y-99486768D01*
X143372272Y-99557652D01*
X143356902Y-99596268D01*
X143381729Y-99592045D01*
X143387119Y-99589617D01*
X143444257Y-99600432D01*
X143518681Y-99650007D01*
X143613877Y-99733776D01*
X143527191Y-99635475D01*
X143519362Y-99626449D01*
X143469199Y-99548951D01*
X143477517Y-99500164D01*
X143522757Y-99494905D01*
X143612436Y-99532022D01*
X143750967Y-99613890D01*
X143779636Y-99632385D01*
X143885348Y-99704827D01*
X143959463Y-99762450D01*
X143987406Y-99794141D01*
X143986938Y-99798082D01*
X143961699Y-99851398D01*
X143906237Y-99939856D01*
X143832053Y-100047656D01*
X143750650Y-100159001D01*
X143673528Y-100258093D01*
X143612188Y-100329134D01*
X143578131Y-100356325D01*
X143558650Y-100352877D01*
X143500497Y-100317651D01*
X143477542Y-100300618D01*
X143439504Y-100315090D01*
X143440959Y-100342020D01*
X143488851Y-100373948D01*
X143531140Y-100393805D01*
X143560516Y-100429870D01*
X143557498Y-100449805D01*
X143527309Y-100459682D01*
X143453613Y-100427377D01*
X143412164Y-100411058D01*
X143364917Y-100427377D01*
X143361091Y-100445211D01*
X143396233Y-100463047D01*
X143451577Y-100477496D01*
X143473326Y-100531048D01*
X143438067Y-100613197D01*
X143382644Y-100692324D01*
X143382644Y-100615359D01*
X143382582Y-100609616D01*
X143364799Y-100536215D01*
X143325816Y-100516868D01*
X143280776Y-100559832D01*
X143255053Y-100592320D01*
X143221230Y-100598084D01*
X143219528Y-100593729D01*
X143236636Y-100544850D01*
X143286173Y-100457263D01*
X143358458Y-100344696D01*
X143443811Y-100220876D01*
X143461826Y-100196241D01*
X143524941Y-100196241D01*
X143542729Y-100214028D01*
X143560516Y-100196241D01*
X143542729Y-100178454D01*
X143524941Y-100196241D01*
X143461826Y-100196241D01*
X143532551Y-100099528D01*
X143614998Y-99994380D01*
X143618528Y-99990385D01*
X143672973Y-99990385D01*
X143697316Y-99986192D01*
X143713119Y-99975211D01*
X143738387Y-99945122D01*
X143738040Y-99940148D01*
X143717448Y-99932314D01*
X143681628Y-99970505D01*
X143672973Y-99990385D01*
X143618528Y-99990385D01*
X143681471Y-99919160D01*
X143722290Y-99887592D01*
X143746822Y-99880945D01*
X143758145Y-99858534D01*
X143722295Y-99804924D01*
X143695614Y-99771388D01*
X143678154Y-99757995D01*
X143690332Y-99800169D01*
X143700365Y-99834342D01*
X143687562Y-99848463D01*
X143628165Y-99821018D01*
X143619462Y-99816251D01*
X143540971Y-99769292D01*
X143428549Y-99698270D01*
X143303481Y-99616586D01*
X143064233Y-99457698D01*
X143098481Y-99409601D01*
X143252576Y-99409601D01*
X143273822Y-99431395D01*
X143284148Y-99430028D01*
X143311496Y-99395821D01*
X143311088Y-99387770D01*
X143295808Y-99360246D01*
X143290102Y-99361883D01*
X143258135Y-99395821D01*
X143252576Y-99409601D01*
X143098481Y-99409601D01*
X143138384Y-99353563D01*
X143148852Y-99338368D01*
X143187424Y-99268373D01*
X143192091Y-99234676D01*
X143318782Y-99234676D01*
X143361205Y-99271303D01*
X143406210Y-99297247D01*
X143465586Y-99299153D01*
X143489367Y-99251424D01*
X143462519Y-99228758D01*
X143391538Y-99219081D01*
X143334739Y-99221315D01*
X143318782Y-99234676D01*
X143192091Y-99234676D01*
X143192784Y-99229676D01*
X143188604Y-99227930D01*
X143154200Y-99253449D01*
X143105928Y-99320271D01*
X143038823Y-99430616D01*
X142890566Y-99316670D01*
X142835817Y-99271341D01*
X142820547Y-99255840D01*
X143000050Y-99255840D01*
X143009115Y-99289098D01*
X143016424Y-99299628D01*
X143048888Y-99324672D01*
X143053754Y-99322356D01*
X143044689Y-99289098D01*
X143037381Y-99278567D01*
X143004916Y-99253524D01*
X143000050Y-99255840D01*
X142820547Y-99255840D01*
X142800743Y-99235736D01*
X142920179Y-99235736D01*
X142937967Y-99253524D01*
X142955754Y-99235736D01*
X142937967Y-99217949D01*
X142920179Y-99235736D01*
X142800743Y-99235736D01*
X142768569Y-99203074D01*
X142766910Y-99200162D01*
X142849031Y-99200162D01*
X142866818Y-99217949D01*
X142884605Y-99200162D01*
X145694969Y-99200162D01*
X145712757Y-99217949D01*
X145730544Y-99200162D01*
X145712757Y-99182375D01*
X145694969Y-99200162D01*
X142884605Y-99200162D01*
X142866818Y-99182375D01*
X142849031Y-99200162D01*
X142766910Y-99200162D01*
X142746645Y-99164588D01*
X142777883Y-99164588D01*
X142795670Y-99182375D01*
X142813457Y-99164588D01*
X145766118Y-99164588D01*
X145783905Y-99182375D01*
X145801692Y-99164588D01*
X145783905Y-99146801D01*
X145766118Y-99164588D01*
X142813457Y-99164588D01*
X142795670Y-99146801D01*
X142777883Y-99164588D01*
X142746645Y-99164588D01*
X142742308Y-99156975D01*
X142739574Y-99139434D01*
X142706734Y-99111227D01*
X142682261Y-99116565D01*
X142679589Y-99152634D01*
X142727344Y-99217789D01*
X142819208Y-99306222D01*
X142948864Y-99412127D01*
X143109991Y-99529694D01*
X143296273Y-99653117D01*
X143377779Y-99705740D01*
X143488826Y-99781610D01*
X143565384Y-99839414D01*
X143594346Y-99869631D01*
X143589029Y-99882995D01*
X143552521Y-99944668D01*
X143489804Y-100041777D01*
X143410833Y-100159730D01*
X143325561Y-100283935D01*
X143243943Y-100399799D01*
X143175933Y-100492730D01*
X143131487Y-100548135D01*
X143130913Y-100548676D01*
X143089287Y-100541540D01*
X143004186Y-100499859D01*
X142888190Y-100431938D01*
X142753879Y-100346081D01*
X142613833Y-100250593D01*
X142480631Y-100153779D01*
X142366854Y-100063942D01*
X142285082Y-99989389D01*
X142211913Y-99913169D01*
X142754759Y-99913169D01*
X142792398Y-99982795D01*
X142798485Y-99991632D01*
X142883336Y-100058866D01*
X142982552Y-100064483D01*
X143074750Y-100006675D01*
X143114603Y-99950821D01*
X143126922Y-99860726D01*
X143068569Y-99774863D01*
X142974791Y-99723111D01*
X142875107Y-99731708D01*
X142792398Y-99804924D01*
X142760846Y-99858424D01*
X142754759Y-99913169D01*
X142211913Y-99913169D01*
X142165812Y-99865145D01*
X142311159Y-99651112D01*
X142456505Y-99437079D01*
X142305919Y-99519454D01*
X142247460Y-99551008D01*
X142123271Y-99612354D01*
X142055265Y-99632747D01*
X142040945Y-99610672D01*
X142077813Y-99544617D01*
X142163373Y-99433067D01*
X142173759Y-99420140D01*
X142196136Y-99388548D01*
X142760095Y-99388548D01*
X142935387Y-99554868D01*
X143026346Y-99633958D01*
X143160796Y-99734177D01*
X143281053Y-99807524D01*
X143386490Y-99858638D01*
X143459039Y-99888118D01*
X143473710Y-99885605D01*
X143428069Y-99852254D01*
X143319685Y-99789216D01*
X143229156Y-99735442D01*
X143080532Y-99636769D01*
X142946156Y-99537204D01*
X142760095Y-99388548D01*
X142196136Y-99388548D01*
X142282139Y-99267129D01*
X142311320Y-99200162D01*
X142600011Y-99200162D01*
X142617799Y-99217949D01*
X142635586Y-99200162D01*
X142617799Y-99182375D01*
X142600011Y-99200162D01*
X142311320Y-99200162D01*
X142331499Y-99153852D01*
X142321841Y-99080309D01*
X142253163Y-99046498D01*
X142193972Y-99020894D01*
X142173121Y-98948668D01*
X142170720Y-98912602D01*
X142142825Y-98871932D01*
X142066398Y-98862207D01*
X142019989Y-98860083D01*
X141971162Y-98836831D01*
X141959675Y-98773271D01*
X142173121Y-98773271D01*
X142173496Y-98789661D01*
X142194358Y-98847514D01*
X142262056Y-98862207D01*
X142278446Y-98861831D01*
X142336299Y-98840970D01*
X142350992Y-98773271D01*
X142350616Y-98756882D01*
X142329754Y-98699029D01*
X142262056Y-98684336D01*
X142245667Y-98684711D01*
X142187814Y-98705573D01*
X142173121Y-98773271D01*
X141959675Y-98773271D01*
X141962224Y-98734597D01*
X141990126Y-98693908D01*
X142066398Y-98684336D01*
X142112807Y-98682212D01*
X142161634Y-98658960D01*
X142173121Y-98595400D01*
X142170572Y-98556726D01*
X142142670Y-98516037D01*
X142066398Y-98506465D01*
X142019989Y-98504341D01*
X141971162Y-98481089D01*
X141959675Y-98417529D01*
X142173121Y-98417529D01*
X142173496Y-98433919D01*
X142194358Y-98491772D01*
X142262056Y-98506465D01*
X142278446Y-98506089D01*
X142336299Y-98485227D01*
X142350992Y-98417529D01*
X142350616Y-98401140D01*
X142329754Y-98343287D01*
X142262056Y-98328594D01*
X142245667Y-98328969D01*
X142187814Y-98349831D01*
X142173121Y-98417529D01*
X141959675Y-98417529D01*
X141962224Y-98378855D01*
X141990126Y-98338166D01*
X142066398Y-98328594D01*
X142112807Y-98326470D01*
X142161634Y-98303218D01*
X142173121Y-98239658D01*
X142170572Y-98200983D01*
X142142670Y-98160294D01*
X142066398Y-98150722D01*
X142019989Y-98148599D01*
X141971162Y-98125347D01*
X141959675Y-98061787D01*
X142173121Y-98061787D01*
X142173496Y-98078176D01*
X142194358Y-98136029D01*
X142262056Y-98150722D01*
X142278446Y-98150347D01*
X142336299Y-98129485D01*
X142350992Y-98061787D01*
X142350616Y-98045397D01*
X142329754Y-97987544D01*
X142262056Y-97972851D01*
X142245667Y-97973227D01*
X142187814Y-97994089D01*
X142173121Y-98061787D01*
X141959675Y-98061787D01*
X141962224Y-98023112D01*
X141990126Y-97982423D01*
X142066398Y-97972851D01*
X142112807Y-97970727D01*
X142161634Y-97947476D01*
X142173121Y-97883916D01*
X142170572Y-97845241D01*
X142142670Y-97804552D01*
X142066398Y-97794980D01*
X142019989Y-97792856D01*
X141971162Y-97769604D01*
X141959675Y-97706045D01*
X142173121Y-97706045D01*
X142173496Y-97722434D01*
X142194358Y-97780287D01*
X142262056Y-97794980D01*
X142278446Y-97794605D01*
X142336299Y-97773743D01*
X142350992Y-97706045D01*
X142350616Y-97689655D01*
X142329754Y-97631802D01*
X142262056Y-97617109D01*
X142245667Y-97617485D01*
X142187814Y-97638346D01*
X142173121Y-97706045D01*
X141959675Y-97706045D01*
X141962224Y-97667370D01*
X141990126Y-97626681D01*
X142066398Y-97617109D01*
X142112807Y-97614985D01*
X142161634Y-97591733D01*
X142173121Y-97528173D01*
X142170572Y-97489499D01*
X142142670Y-97448810D01*
X142066398Y-97439238D01*
X142019989Y-97437114D01*
X141971162Y-97413862D01*
X141959675Y-97350302D01*
X142173121Y-97350302D01*
X142173496Y-97366692D01*
X142194358Y-97424545D01*
X142262056Y-97439238D01*
X142278446Y-97438862D01*
X142336299Y-97418001D01*
X142350992Y-97350302D01*
X142350616Y-97333913D01*
X142329754Y-97276060D01*
X142262056Y-97261367D01*
X142245667Y-97261742D01*
X142187814Y-97282604D01*
X142173121Y-97350302D01*
X141959675Y-97350302D01*
X141962224Y-97311628D01*
X141990126Y-97270939D01*
X142066398Y-97261367D01*
X142112807Y-97259243D01*
X142161634Y-97235991D01*
X142173121Y-97172431D01*
X142170572Y-97133757D01*
X142142670Y-97093068D01*
X142066398Y-97083496D01*
X142019989Y-97081372D01*
X141971162Y-97058120D01*
X141959675Y-96994560D01*
X142173121Y-96994560D01*
X142173496Y-97010949D01*
X142194358Y-97068803D01*
X142262056Y-97083496D01*
X142278446Y-97083120D01*
X142336299Y-97062258D01*
X142350992Y-96994560D01*
X142350616Y-96978171D01*
X142329754Y-96920317D01*
X142262056Y-96905624D01*
X142245667Y-96906000D01*
X142187814Y-96926862D01*
X142173121Y-96994560D01*
X141959675Y-96994560D01*
X141962224Y-96955885D01*
X141990126Y-96915196D01*
X142066398Y-96905624D01*
X142112807Y-96903501D01*
X142161634Y-96880249D01*
X142173121Y-96816689D01*
X142170572Y-96778014D01*
X142142670Y-96737325D01*
X142066398Y-96727753D01*
X141959675Y-96727753D01*
X141959675Y-96656605D01*
X142528863Y-96656605D01*
X142528863Y-97848342D01*
X142528863Y-99040078D01*
X143330535Y-99040078D01*
X143425704Y-99040161D01*
X143676812Y-99041615D01*
X143868297Y-99045281D01*
X144008861Y-99051675D01*
X144107207Y-99061315D01*
X144172037Y-99074716D01*
X144212052Y-99092395D01*
X144255264Y-99117326D01*
X144313983Y-99124995D01*
X144392738Y-99092395D01*
X144397983Y-99089791D01*
X144449892Y-99072452D01*
X144528709Y-99059422D01*
X144643278Y-99050186D01*
X144802442Y-99044227D01*
X145015045Y-99041029D01*
X145289932Y-99040078D01*
X146086286Y-99040078D01*
X146086286Y-98773271D01*
X146264157Y-98773271D01*
X146264533Y-98789661D01*
X146285394Y-98847514D01*
X146353093Y-98862207D01*
X146369482Y-98861831D01*
X146427335Y-98840970D01*
X146442028Y-98773271D01*
X146441653Y-98756882D01*
X146420791Y-98699029D01*
X146353093Y-98684336D01*
X146336703Y-98684711D01*
X146278850Y-98705573D01*
X146264157Y-98773271D01*
X146086286Y-98773271D01*
X146086286Y-98417529D01*
X146264157Y-98417529D01*
X146264533Y-98433919D01*
X146285394Y-98491772D01*
X146353093Y-98506465D01*
X146369482Y-98506089D01*
X146427335Y-98485227D01*
X146442028Y-98417529D01*
X146441653Y-98401140D01*
X146420791Y-98343287D01*
X146353093Y-98328594D01*
X146336703Y-98328969D01*
X146278850Y-98349831D01*
X146264157Y-98417529D01*
X146086286Y-98417529D01*
X146086286Y-98061787D01*
X146264157Y-98061787D01*
X146264533Y-98078176D01*
X146285394Y-98136029D01*
X146353093Y-98150722D01*
X146369482Y-98150347D01*
X146427335Y-98129485D01*
X146442028Y-98061787D01*
X146441653Y-98045397D01*
X146420791Y-97987544D01*
X146353093Y-97972851D01*
X146336703Y-97973227D01*
X146278850Y-97994089D01*
X146264157Y-98061787D01*
X146086286Y-98061787D01*
X146086286Y-97848342D01*
X146086286Y-97706045D01*
X146264157Y-97706045D01*
X146264533Y-97722434D01*
X146285394Y-97780287D01*
X146353093Y-97794980D01*
X146369482Y-97794605D01*
X146427335Y-97773743D01*
X146442028Y-97706045D01*
X146441653Y-97689655D01*
X146420791Y-97631802D01*
X146353093Y-97617109D01*
X146336703Y-97617485D01*
X146278850Y-97638346D01*
X146264157Y-97706045D01*
X146086286Y-97706045D01*
X146086286Y-97350302D01*
X146264157Y-97350302D01*
X146264533Y-97366692D01*
X146285394Y-97424545D01*
X146353093Y-97439238D01*
X146369482Y-97438862D01*
X146427335Y-97418001D01*
X146442028Y-97350302D01*
X146441653Y-97333913D01*
X146420791Y-97276060D01*
X146353093Y-97261367D01*
X146336703Y-97261742D01*
X146278850Y-97282604D01*
X146264157Y-97350302D01*
X146086286Y-97350302D01*
X146086286Y-96994560D01*
X146264157Y-96994560D01*
X146264533Y-97010949D01*
X146285394Y-97068803D01*
X146353093Y-97083496D01*
X146369482Y-97083120D01*
X146427335Y-97062258D01*
X146442028Y-96994560D01*
X146441653Y-96978171D01*
X146420791Y-96920317D01*
X146353093Y-96905624D01*
X146336703Y-96906000D01*
X146278850Y-96926862D01*
X146264157Y-96994560D01*
X146086286Y-96994560D01*
X146086286Y-96656605D01*
X145997350Y-96656605D01*
X145908415Y-96656605D01*
X145908415Y-97759406D01*
X145908415Y-98862207D01*
X145208349Y-98862207D01*
X145163764Y-98862160D01*
X144870381Y-98858882D01*
X144642104Y-98850521D01*
X144480894Y-98837183D01*
X144388711Y-98818969D01*
X144353907Y-98807222D01*
X144268283Y-98793969D01*
X144199904Y-98818969D01*
X144165752Y-98831291D01*
X144070613Y-98845172D01*
X143917242Y-98854794D01*
X143701364Y-98860393D01*
X143418701Y-98862207D01*
X142706734Y-98862207D01*
X142706734Y-98648762D01*
X142991328Y-98648762D01*
X143269721Y-98648762D01*
X144876762Y-98648762D01*
X145172942Y-98648762D01*
X145229966Y-98648576D01*
X145360370Y-98644581D01*
X145444289Y-98632269D01*
X145500173Y-98607574D01*
X145546471Y-98566427D01*
X145567918Y-98541635D01*
X145597170Y-98490627D01*
X145614107Y-98419995D01*
X145621925Y-98312582D01*
X145623821Y-98151231D01*
X145621839Y-98006517D01*
X145612853Y-97882680D01*
X145594610Y-97803158D01*
X145564946Y-97753314D01*
X145538090Y-97721594D01*
X145525597Y-97677410D01*
X145564946Y-97623201D01*
X145577085Y-97607709D01*
X145600105Y-97555388D01*
X145614424Y-97472437D01*
X145621758Y-97345378D01*
X145623821Y-97160736D01*
X145623821Y-96763328D01*
X145499311Y-96763328D01*
X145374801Y-96763328D01*
X145374801Y-97154644D01*
X145374801Y-97545961D01*
X145250292Y-97545961D01*
X145125782Y-97545961D01*
X145125782Y-97154644D01*
X145125782Y-96763328D01*
X145024988Y-96763328D01*
X144950236Y-96769666D01*
X144900478Y-96787044D01*
X144894764Y-96819904D01*
X144888934Y-96915593D01*
X144883974Y-97064118D01*
X144880130Y-97255785D01*
X144877645Y-97480898D01*
X144876762Y-97729761D01*
X144876762Y-98648762D01*
X143269721Y-98648762D01*
X143292792Y-98648729D01*
X143430307Y-98645448D01*
X143518690Y-98633624D01*
X143577291Y-98608776D01*
X143625463Y-98566427D01*
X143635012Y-98555976D01*
X143665601Y-98513265D01*
X143685358Y-98458462D01*
X143696600Y-98376807D01*
X143701646Y-98253540D01*
X143702813Y-98073901D01*
X143702754Y-98034123D01*
X143698662Y-97841077D01*
X143685157Y-97720422D01*
X143916258Y-97720422D01*
X143916258Y-97726555D01*
X143916484Y-97982240D01*
X143917742Y-98176430D01*
X143920914Y-98318579D01*
X143926880Y-98418143D01*
X143936521Y-98484575D01*
X143950717Y-98527329D01*
X143970350Y-98555860D01*
X143996300Y-98579621D01*
X144041717Y-98609109D01*
X144142455Y-98638208D01*
X144293167Y-98647578D01*
X144316855Y-98647538D01*
X144468468Y-98633239D01*
X144563887Y-98588007D01*
X144613512Y-98503221D01*
X144627743Y-98370260D01*
X144627448Y-98329161D01*
X144619124Y-98256219D01*
X144588444Y-98227124D01*
X144521020Y-98221871D01*
X144474610Y-98223995D01*
X144425783Y-98247247D01*
X144414297Y-98310806D01*
X144408459Y-98363196D01*
X144373988Y-98393097D01*
X144289787Y-98399742D01*
X144165278Y-98399742D01*
X144165278Y-97706045D01*
X144165278Y-97012347D01*
X144289787Y-97012347D01*
X144414297Y-97012347D01*
X144414297Y-97243580D01*
X144412387Y-97362787D01*
X144403120Y-97435504D01*
X144381653Y-97467605D01*
X144343149Y-97474812D01*
X144311029Y-97478882D01*
X144279959Y-97513507D01*
X144272000Y-97599322D01*
X144272000Y-97723832D01*
X144449871Y-97723832D01*
X144627743Y-97723832D01*
X144627743Y-97302455D01*
X144627743Y-97302003D01*
X144626352Y-97117714D01*
X144620975Y-96991052D01*
X144609788Y-96908554D01*
X144590966Y-96856758D01*
X144562686Y-96822202D01*
X144538575Y-96804709D01*
X144440078Y-96773276D01*
X144284294Y-96763328D01*
X144240513Y-96763679D01*
X144126385Y-96772211D01*
X144052075Y-96797275D01*
X143993607Y-96845662D01*
X143971450Y-96871212D01*
X143951690Y-96904460D01*
X143937311Y-96950990D01*
X143927458Y-97020446D01*
X143921279Y-97122474D01*
X143917921Y-97266716D01*
X143916532Y-97462817D01*
X143916258Y-97720422D01*
X143685157Y-97720422D01*
X143683626Y-97706748D01*
X143651382Y-97620605D01*
X143595663Y-97572114D01*
X143510203Y-97550743D01*
X143388737Y-97545961D01*
X143204773Y-97545961D01*
X143204773Y-97154644D01*
X143204773Y-96763328D01*
X143098051Y-96763328D01*
X142991328Y-96763328D01*
X142991328Y-97706045D01*
X142991328Y-98648762D01*
X142706734Y-98648762D01*
X142706734Y-97759406D01*
X142706734Y-96656605D01*
X142617799Y-96656605D01*
X142528863Y-96656605D01*
X141959675Y-96656605D01*
X141959675Y-96466876D01*
X145564531Y-96466876D01*
X145569745Y-96471133D01*
X145611963Y-96466876D01*
X145617528Y-96456175D01*
X145588247Y-96443159D01*
X145569414Y-96445727D01*
X145564531Y-96466876D01*
X141959675Y-96466876D01*
X141959675Y-96300863D01*
X142244269Y-96300863D01*
X142246393Y-96347272D01*
X142269645Y-96396099D01*
X142333205Y-96407585D01*
X142351416Y-96406859D01*
X142411445Y-96381721D01*
X142411543Y-96327954D01*
X142388780Y-96300863D01*
X142457715Y-96300863D01*
X142459838Y-96347272D01*
X142483090Y-96396099D01*
X142546650Y-96407585D01*
X142585325Y-96405037D01*
X142626014Y-96377134D01*
X142635586Y-96300863D01*
X142706734Y-96300863D01*
X142706737Y-96302164D01*
X142716719Y-96376664D01*
X142740266Y-96407585D01*
X142757504Y-96393539D01*
X142760095Y-96336437D01*
X142760157Y-96300863D01*
X142884605Y-96300863D01*
X142884608Y-96302190D01*
X142895202Y-96376672D01*
X142920179Y-96407585D01*
X142920622Y-96407577D01*
X142943505Y-96378285D01*
X143008009Y-96378285D01*
X143011669Y-96401352D01*
X143076955Y-96407585D01*
X143099653Y-96407106D01*
X143154450Y-96392609D01*
X143155218Y-96351314D01*
X143146104Y-96322820D01*
X143141183Y-96291969D01*
X143211304Y-96291969D01*
X143212108Y-96298458D01*
X143240744Y-96372396D01*
X143311496Y-96400196D01*
X143357199Y-96402133D01*
X143392606Y-96377651D01*
X143400432Y-96302367D01*
X143400349Y-96300863D01*
X143453793Y-96300863D01*
X143455917Y-96347272D01*
X143479169Y-96396099D01*
X143542729Y-96407585D01*
X143601397Y-96397140D01*
X143631664Y-96350418D01*
X143623841Y-96319686D01*
X143578303Y-96313727D01*
X143551018Y-96319319D01*
X143526429Y-96300863D01*
X143667238Y-96300863D01*
X143667765Y-96319493D01*
X143684627Y-96389331D01*
X143716272Y-96406913D01*
X143750501Y-96363117D01*
X143770781Y-96339800D01*
X143806282Y-96372011D01*
X143823188Y-96391770D01*
X143839801Y-96382116D01*
X143844565Y-96309756D01*
X143844121Y-96296416D01*
X143916258Y-96296416D01*
X143917889Y-96335613D01*
X143940670Y-96386515D01*
X144005194Y-96398692D01*
X144039278Y-96396816D01*
X144083541Y-96370618D01*
X144093494Y-96300863D01*
X144129703Y-96300863D01*
X144129706Y-96302190D01*
X144140300Y-96376672D01*
X144165278Y-96407585D01*
X144165720Y-96407577D01*
X144190547Y-96375796D01*
X144200554Y-96303028D01*
X144236426Y-96303028D01*
X144237801Y-96337872D01*
X144260201Y-96386794D01*
X144325724Y-96394928D01*
X144384635Y-96381388D01*
X144396259Y-96340821D01*
X144391668Y-96315333D01*
X144396342Y-96300863D01*
X144485446Y-96300863D01*
X144487569Y-96347272D01*
X144510821Y-96396099D01*
X144574381Y-96407585D01*
X144613056Y-96405037D01*
X144653745Y-96377134D01*
X144663317Y-96300863D01*
X144805614Y-96300863D01*
X144807339Y-96342899D01*
X144829154Y-96394898D01*
X144889136Y-96407585D01*
X144920125Y-96405596D01*
X144963056Y-96377810D01*
X144975692Y-96300863D01*
X144975651Y-96298388D01*
X145019059Y-96298388D01*
X145021637Y-96350358D01*
X145045745Y-96396898D01*
X145110358Y-96407585D01*
X145149388Y-96405556D01*
X145188996Y-96380722D01*
X145190400Y-96309756D01*
X145165419Y-96234692D01*
X145164012Y-96233968D01*
X145254503Y-96233968D01*
X145259532Y-96319486D01*
X145289553Y-96385720D01*
X145361161Y-96407585D01*
X145395434Y-96405294D01*
X145436112Y-96377408D01*
X145445950Y-96300863D01*
X145445947Y-96299535D01*
X145445503Y-96296416D01*
X145481524Y-96296416D01*
X145483155Y-96335613D01*
X145505936Y-96386515D01*
X145570460Y-96398692D01*
X145604544Y-96396816D01*
X145648807Y-96370618D01*
X145659395Y-96296416D01*
X145659068Y-96282237D01*
X145648746Y-96238608D01*
X145718663Y-96238608D01*
X145730525Y-96266731D01*
X145736313Y-96345330D01*
X145746682Y-96392085D01*
X145811314Y-96407585D01*
X145846076Y-96405263D01*
X145886750Y-96377375D01*
X145896557Y-96300863D01*
X145943989Y-96300863D01*
X145944806Y-96327562D01*
X145965450Y-96384321D01*
X146026996Y-96398692D01*
X146049650Y-96397729D01*
X146097809Y-96373398D01*
X146110002Y-96300863D01*
X146109730Y-96291969D01*
X146163965Y-96291969D01*
X146164027Y-96292500D01*
X146195315Y-96372153D01*
X146250487Y-96405944D01*
X146307295Y-96390231D01*
X146343492Y-96321369D01*
X146350483Y-96246917D01*
X146329335Y-96209365D01*
X146276324Y-96234379D01*
X146242561Y-96255792D01*
X146228583Y-96234070D01*
X146226707Y-96221695D01*
X146190646Y-96194140D01*
X146167570Y-96221417D01*
X146163965Y-96291969D01*
X146109730Y-96291969D01*
X146109185Y-96274163D01*
X146088541Y-96217404D01*
X146026996Y-96203033D01*
X146004342Y-96203996D01*
X145956182Y-96228327D01*
X145943989Y-96300863D01*
X145896557Y-96300863D01*
X145893515Y-96246250D01*
X145866639Y-96203412D01*
X145793664Y-96194140D01*
X145781210Y-96194274D01*
X145719131Y-96205772D01*
X145718663Y-96238608D01*
X145648746Y-96238608D01*
X145642579Y-96212543D01*
X145610598Y-96194963D01*
X145576233Y-96238608D01*
X145562632Y-96264823D01*
X145555481Y-96238608D01*
X145547008Y-96202025D01*
X145521264Y-96192880D01*
X145494118Y-96228500D01*
X145481524Y-96296416D01*
X145445503Y-96296416D01*
X145435353Y-96225053D01*
X145410376Y-96194140D01*
X145399406Y-96196094D01*
X145374801Y-96234070D01*
X145366901Y-96255753D01*
X145327060Y-96234379D01*
X145282512Y-96209398D01*
X145254503Y-96233968D01*
X145164012Y-96233968D01*
X145099101Y-96200559D01*
X145061015Y-96198347D01*
X145026988Y-96222589D01*
X145019059Y-96298388D01*
X144975651Y-96298388D01*
X144974910Y-96254012D01*
X144953611Y-96205537D01*
X144892170Y-96194140D01*
X144856003Y-96196546D01*
X144815332Y-96224441D01*
X144805614Y-96300863D01*
X144663317Y-96300863D01*
X144662778Y-96282031D01*
X144645878Y-96212327D01*
X144614262Y-96194802D01*
X144580154Y-96238608D01*
X144566553Y-96264823D01*
X144559403Y-96238608D01*
X144549774Y-96199363D01*
X144524068Y-96193360D01*
X144497609Y-96231415D01*
X144485446Y-96300863D01*
X144396342Y-96300863D01*
X144413119Y-96248921D01*
X144420842Y-96238061D01*
X144412641Y-96213188D01*
X144342584Y-96205998D01*
X144291877Y-96208603D01*
X144246584Y-96233908D01*
X144236426Y-96303028D01*
X144200554Y-96303028D01*
X144200852Y-96300863D01*
X144200849Y-96299535D01*
X144190255Y-96225053D01*
X144165278Y-96194140D01*
X144164835Y-96194148D01*
X144140008Y-96225929D01*
X144129703Y-96300863D01*
X144093494Y-96300863D01*
X144094129Y-96296416D01*
X144093802Y-96282237D01*
X144077313Y-96212543D01*
X144045332Y-96194963D01*
X144010967Y-96238608D01*
X143997366Y-96264823D01*
X143990215Y-96238608D01*
X143981742Y-96202025D01*
X143955997Y-96192880D01*
X143928852Y-96228500D01*
X143916258Y-96296416D01*
X143844121Y-96296416D01*
X143843620Y-96281381D01*
X143826361Y-96211787D01*
X143795567Y-96194454D01*
X143761947Y-96238608D01*
X143748346Y-96264823D01*
X143741195Y-96238608D01*
X143731567Y-96199363D01*
X143705860Y-96193360D01*
X143679402Y-96231415D01*
X143667238Y-96300863D01*
X143526429Y-96300863D01*
X143524941Y-96299746D01*
X143530953Y-96283905D01*
X143578303Y-96265288D01*
X143602850Y-96261275D01*
X143631664Y-96229714D01*
X143609584Y-96206317D01*
X143542729Y-96194140D01*
X143504054Y-96196689D01*
X143463365Y-96224591D01*
X143453793Y-96300863D01*
X143400349Y-96300863D01*
X143397367Y-96246745D01*
X143371035Y-96203570D01*
X143300240Y-96194140D01*
X143252072Y-96196577D01*
X143212360Y-96221582D01*
X143211304Y-96291969D01*
X143141183Y-96291969D01*
X143133625Y-96244592D01*
X143130093Y-96222740D01*
X143098051Y-96194140D01*
X143078841Y-96204347D01*
X143062476Y-96258173D01*
X143057380Y-96293519D01*
X143019787Y-96364896D01*
X143008009Y-96378285D01*
X142943505Y-96378285D01*
X142945449Y-96375796D01*
X142955754Y-96300863D01*
X142955751Y-96299535D01*
X142945157Y-96225053D01*
X142920179Y-96194140D01*
X142919737Y-96194148D01*
X142894910Y-96225929D01*
X142884605Y-96300863D01*
X142760157Y-96300863D01*
X142760171Y-96292761D01*
X142797712Y-96265288D01*
X142820365Y-96261612D01*
X142849031Y-96229714D01*
X142835690Y-96209037D01*
X142777883Y-96194140D01*
X142759516Y-96195241D01*
X142717915Y-96222745D01*
X142706734Y-96300863D01*
X142635586Y-96300863D01*
X142633462Y-96254453D01*
X142610210Y-96205626D01*
X142546650Y-96194140D01*
X142507976Y-96196689D01*
X142467286Y-96224591D01*
X142457715Y-96300863D01*
X142388780Y-96300863D01*
X142350585Y-96255407D01*
X142332254Y-96239913D01*
X142274135Y-96200696D01*
X142249426Y-96219037D01*
X142244269Y-96300863D01*
X141959675Y-96300863D01*
X141959675Y-96284934D01*
X141959675Y-95927333D01*
X142724521Y-95927333D01*
X142728927Y-95987641D01*
X142760016Y-96029161D01*
X142840137Y-96045203D01*
X142848036Y-96045882D01*
X142924810Y-96041573D01*
X142955754Y-96018523D01*
X142933661Y-95993637D01*
X142866818Y-95980694D01*
X142802355Y-95967606D01*
X142793879Y-95949567D01*
X143169199Y-95949567D01*
X143170673Y-95986903D01*
X143192826Y-96039151D01*
X143255755Y-96051843D01*
X143289283Y-96049914D01*
X143331288Y-96023648D01*
X143339404Y-95949567D01*
X143338936Y-95942156D01*
X143389747Y-95942156D01*
X143410292Y-96005919D01*
X143476156Y-96044858D01*
X143496552Y-96046666D01*
X143544322Y-96026725D01*
X143566954Y-95952958D01*
X143567666Y-95945120D01*
X143631664Y-95945120D01*
X143632229Y-95969270D01*
X143649918Y-96034088D01*
X143700713Y-96051843D01*
X143748227Y-96044445D01*
X143797076Y-96003139D01*
X143789873Y-95945120D01*
X143845109Y-95945120D01*
X143845112Y-95946448D01*
X143855706Y-96020930D01*
X143880684Y-96051843D01*
X143881126Y-96051835D01*
X143905954Y-96020054D01*
X143916258Y-95945120D01*
X143916255Y-95943792D01*
X143914788Y-95933478D01*
X143958363Y-95933478D01*
X143984160Y-96007162D01*
X144049661Y-96034256D01*
X144076959Y-96034659D01*
X144119242Y-96011929D01*
X144128848Y-95945120D01*
X144200852Y-95945120D01*
X144202976Y-95991530D01*
X144226228Y-96040357D01*
X144289787Y-96051843D01*
X144348279Y-96043011D01*
X144355863Y-96036349D01*
X144533553Y-96036349D01*
X144586263Y-96051843D01*
X144631188Y-96045609D01*
X144681104Y-96016269D01*
X144686662Y-96002489D01*
X144665416Y-95980694D01*
X144643509Y-95967339D01*
X144637448Y-95945120D01*
X144734465Y-95945120D01*
X144736589Y-95991530D01*
X144759841Y-96040357D01*
X144823401Y-96051843D01*
X144881893Y-96043011D01*
X144912336Y-96016269D01*
X144902891Y-95997406D01*
X144850081Y-95980150D01*
X144842106Y-95980035D01*
X144808484Y-95972689D01*
X144841188Y-95945120D01*
X144847995Y-95940673D01*
X144954870Y-95940673D01*
X144978012Y-96009570D01*
X145045740Y-96045424D01*
X145080389Y-96047846D01*
X145117110Y-96025642D01*
X145125782Y-95952041D01*
X145123747Y-95907422D01*
X145117581Y-95894668D01*
X145175337Y-95894668D01*
X145184351Y-95922998D01*
X145196930Y-96003645D01*
X145197413Y-96011271D01*
X145227500Y-96043018D01*
X145312546Y-96045203D01*
X145363567Y-96037743D01*
X145418819Y-96006622D01*
X145439419Y-95936227D01*
X145441023Y-95898523D01*
X145423918Y-95845206D01*
X145392090Y-95850361D01*
X145364333Y-95918440D01*
X145348916Y-95998482D01*
X145344072Y-95918440D01*
X145333834Y-95868666D01*
X145306127Y-95838398D01*
X145282108Y-95855970D01*
X145257610Y-95918440D01*
X145242194Y-95998482D01*
X145237349Y-95918440D01*
X145225732Y-95868647D01*
X145193124Y-95838398D01*
X145175399Y-95847229D01*
X145175337Y-95894668D01*
X145117581Y-95894668D01*
X145100190Y-95858696D01*
X145034912Y-95847291D01*
X145001356Y-95848728D01*
X144957611Y-95871903D01*
X144954870Y-95940673D01*
X144847995Y-95940673D01*
X144849909Y-95939423D01*
X144876609Y-95914894D01*
X144841188Y-95907590D01*
X144818277Y-95898517D01*
X144858975Y-95873972D01*
X144893337Y-95857835D01*
X144895572Y-95845221D01*
X144832294Y-95840898D01*
X144783251Y-95842744D01*
X144743257Y-95869649D01*
X144734465Y-95945120D01*
X144637448Y-95945120D01*
X144627743Y-95909546D01*
X144621072Y-95868193D01*
X144592168Y-95838398D01*
X144576760Y-95843406D01*
X144556594Y-95888849D01*
X144554564Y-95915434D01*
X144535001Y-95995572D01*
X144533553Y-96036349D01*
X144355863Y-96036349D01*
X144378723Y-96016269D01*
X144372703Y-95999904D01*
X144325362Y-95980694D01*
X144297182Y-95970916D01*
X144274809Y-95918440D01*
X144279899Y-95888174D01*
X144295560Y-95900652D01*
X144318175Y-95933731D01*
X144358601Y-95939547D01*
X144378723Y-95891759D01*
X144361316Y-95856952D01*
X144289787Y-95838398D01*
X144251113Y-95840946D01*
X144210424Y-95868849D01*
X144200852Y-95945120D01*
X144128848Y-95945120D01*
X144129703Y-95939175D01*
X144129439Y-95926574D01*
X144113107Y-95856876D01*
X144080998Y-95839276D01*
X144046541Y-95882865D01*
X144032940Y-95909080D01*
X144025789Y-95882865D01*
X144022149Y-95866675D01*
X143985043Y-95838398D01*
X143962183Y-95864196D01*
X143958363Y-95933478D01*
X143914788Y-95933478D01*
X143905662Y-95869310D01*
X143880684Y-95838398D01*
X143880241Y-95838406D01*
X143855414Y-95870187D01*
X143845109Y-95945120D01*
X143789873Y-95945120D01*
X143789401Y-95941322D01*
X143769693Y-95923076D01*
X143734485Y-95950216D01*
X143710414Y-95976548D01*
X143703357Y-95938835D01*
X143712453Y-95904992D01*
X143765067Y-95862920D01*
X143769947Y-95861575D01*
X143783303Y-95849447D01*
X143729493Y-95842524D01*
X143679607Y-95843597D01*
X143640242Y-95869883D01*
X143631664Y-95945120D01*
X143567666Y-95945120D01*
X143572056Y-95896813D01*
X143551413Y-95858144D01*
X143480545Y-95850256D01*
X143433513Y-95852508D01*
X143391918Y-95876161D01*
X143389747Y-95942156D01*
X143338936Y-95942156D01*
X143337369Y-95917337D01*
X143314500Y-95861374D01*
X143252847Y-95847291D01*
X143224362Y-95848854D01*
X143180150Y-95874989D01*
X143169199Y-95949567D01*
X142793879Y-95949567D01*
X142777883Y-95915523D01*
X142785649Y-95893568D01*
X142822096Y-95861255D01*
X142895385Y-95820694D01*
X143013153Y-95768247D01*
X143183041Y-95700276D01*
X143412686Y-95613142D01*
X143421506Y-95609847D01*
X143621139Y-95535999D01*
X143798228Y-95471797D01*
X143941774Y-95421129D01*
X144040778Y-95387879D01*
X144084241Y-95375933D01*
X144111110Y-95384420D01*
X144165278Y-95429294D01*
X144205946Y-95460249D01*
X144289787Y-95482655D01*
X144344594Y-95472692D01*
X144414297Y-95429294D01*
X144444328Y-95400596D01*
X144498695Y-95375330D01*
X144501520Y-95375598D01*
X144555445Y-95390520D01*
X144663658Y-95425644D01*
X144815331Y-95477293D01*
X144999637Y-95541790D01*
X145205746Y-95615456D01*
X145389353Y-95682466D01*
X145582338Y-95755775D01*
X145720053Y-95812793D01*
X145809616Y-95856754D01*
X145858147Y-95890892D01*
X145872762Y-95918440D01*
X145872595Y-95924384D01*
X145846359Y-95967914D01*
X145766118Y-95980694D01*
X145764790Y-95980697D01*
X145690308Y-95991291D01*
X145659395Y-96016269D01*
X145660471Y-96020937D01*
X145701608Y-96042908D01*
X145783905Y-96051843D01*
X145790682Y-96051835D01*
X145870608Y-96045311D01*
X145902593Y-96012338D01*
X145908415Y-95931945D01*
X145908415Y-95812048D01*
X145223611Y-95568223D01*
X145103250Y-95525039D01*
X144876301Y-95440808D01*
X144705679Y-95372343D01*
X144583291Y-95316054D01*
X144501044Y-95268354D01*
X144450843Y-95225656D01*
X144438848Y-95212726D01*
X144366561Y-95152087D01*
X144308546Y-95127995D01*
X144232195Y-95145538D01*
X144160132Y-95191497D01*
X144129703Y-95246795D01*
X144128930Y-95249381D01*
X144087262Y-95279086D01*
X143987998Y-95328264D01*
X143839387Y-95393282D01*
X143649675Y-95470505D01*
X143427112Y-95556302D01*
X143213502Y-95636843D01*
X143033534Y-95705945D01*
X142904225Y-95758476D01*
X142817203Y-95798858D01*
X142764095Y-95831513D01*
X142736528Y-95860862D01*
X142726127Y-95891329D01*
X142724521Y-95927333D01*
X141959675Y-95927333D01*
X141959675Y-95842116D01*
X142146440Y-95831363D01*
X142209554Y-95825778D01*
X142299989Y-95806377D01*
X142333205Y-95779107D01*
X142333940Y-95768831D01*
X142360577Y-95710232D01*
X142363138Y-95708408D01*
X142413911Y-95684819D01*
X142520978Y-95640288D01*
X142675672Y-95578257D01*
X142869329Y-95502170D01*
X143093283Y-95415468D01*
X143338868Y-95321594D01*
X144289787Y-94960328D01*
X144449871Y-95020552D01*
G37*
G36*
X146485093Y-99938594D02*
G01*
X146488804Y-99961013D01*
X146449745Y-100030855D01*
X146350052Y-100134104D01*
X146335591Y-100147187D01*
X146234255Y-100231194D01*
X146106753Y-100328077D01*
X145966824Y-100428431D01*
X145828205Y-100522853D01*
X145704636Y-100601939D01*
X145609855Y-100656287D01*
X145557602Y-100676493D01*
X145525036Y-100670695D01*
X145525041Y-100644070D01*
X145576160Y-100592702D01*
X145681998Y-100513164D01*
X145846160Y-100402026D01*
X145944294Y-100335267D01*
X146094659Y-100225517D01*
X146225202Y-100121823D01*
X146315584Y-100039879D01*
X146389426Y-99968706D01*
X146451148Y-99928369D01*
X146485093Y-99938594D01*
G37*
G36*
X142174746Y-99955311D02*
G01*
X142262504Y-100036624D01*
X142301394Y-100073689D01*
X142413424Y-100166053D01*
X142557177Y-100273593D01*
X142713134Y-100382449D01*
X142861780Y-100478763D01*
X142983598Y-100548675D01*
X143003444Y-100559494D01*
X143065128Y-100606231D01*
X143079327Y-100642434D01*
X143075963Y-100647654D01*
X143053415Y-100668356D01*
X143018076Y-100668098D01*
X142958435Y-100642121D01*
X142862978Y-100585664D01*
X142720192Y-100493969D01*
X142706469Y-100485008D01*
X142509655Y-100350839D01*
X142342996Y-100226709D01*
X142214295Y-100119112D01*
X142131353Y-100034539D01*
X142101972Y-99979483D01*
X142102365Y-99968208D01*
X142122361Y-99932860D01*
X142174746Y-99955311D01*
G37*
G36*
X142065316Y-100045666D02*
G01*
X142115812Y-100083052D01*
X142201565Y-100164199D01*
X142249327Y-100206981D01*
X142363094Y-100298003D01*
X142504454Y-100402724D01*
X142653373Y-100505989D01*
X142759381Y-100577953D01*
X142872742Y-100658082D01*
X142951958Y-100717939D01*
X142984312Y-100748216D01*
X142988128Y-100762745D01*
X142967539Y-100793679D01*
X142901652Y-100788406D01*
X142802984Y-100747008D01*
X142779620Y-100735081D01*
X142696096Y-100705102D01*
X142653001Y-100712669D01*
X142622421Y-100743457D01*
X142553562Y-100788848D01*
X142512504Y-100809844D01*
X142495148Y-100809434D01*
X142528863Y-100762359D01*
X142567736Y-100715907D01*
X142609579Y-100673977D01*
X142598760Y-100647331D01*
X142541305Y-100593314D01*
X142449495Y-100524546D01*
X142425345Y-100507655D01*
X142290274Y-100403992D01*
X142170686Y-100297996D01*
X142077204Y-100200560D01*
X142020452Y-100122577D01*
X142011052Y-100074942D01*
X142011257Y-100074611D01*
X142035367Y-100045149D01*
X142065316Y-100045666D01*
G37*
G36*
X146575558Y-100101759D02*
G01*
X146543781Y-100173191D01*
X146529346Y-100192066D01*
X146461792Y-100260531D01*
X146359946Y-100351090D01*
X146239701Y-100449309D01*
X145982006Y-100651152D01*
X146057998Y-100761652D01*
X146133991Y-100872151D01*
X146026277Y-100772528D01*
X145918563Y-100672904D01*
X145786715Y-100750697D01*
X145717280Y-100788210D01*
X145654017Y-100805276D01*
X145612663Y-100784381D01*
X145611811Y-100783485D01*
X145593349Y-100740625D01*
X145637495Y-100699489D01*
X145852386Y-100564269D01*
X146062273Y-100423064D01*
X146240258Y-100293628D01*
X146370880Y-100186770D01*
X146419666Y-100145327D01*
X146505112Y-100088485D01*
X146559872Y-100073743D01*
X146575558Y-100101759D01*
G37*
G36*
X145161356Y-100389799D02*
G01*
X145156457Y-100412544D01*
X145111790Y-100449799D01*
X145050835Y-100442913D01*
X145032589Y-100423205D01*
X145059729Y-100387997D01*
X145074061Y-100379361D01*
X145138282Y-100358554D01*
X145161356Y-100389799D01*
G37*
G36*
X143568566Y-100534604D02*
G01*
X143596090Y-100549883D01*
X143594453Y-100555590D01*
X143560516Y-100587557D01*
X143546736Y-100593116D01*
X143524941Y-100571870D01*
X143526308Y-100561544D01*
X143560516Y-100534196D01*
X143568566Y-100534604D01*
G37*
G36*
X145025295Y-100535524D02*
G01*
X145072420Y-100569770D01*
X145078119Y-100583426D01*
X145058832Y-100605344D01*
X145048398Y-100604016D01*
X145001272Y-100569770D01*
X144995573Y-100556114D01*
X145014860Y-100534196D01*
X145025295Y-100535524D01*
G37*
G36*
X143185360Y-100643659D02*
G01*
X143186986Y-100676493D01*
X143179716Y-100686107D01*
X143129426Y-100712067D01*
X143117464Y-100709326D01*
X143115838Y-100676493D01*
X143123108Y-100666879D01*
X143173398Y-100640919D01*
X143185360Y-100643659D01*
G37*
G36*
X145416611Y-100642247D02*
G01*
X145463737Y-100676493D01*
X145469436Y-100690149D01*
X145450149Y-100712067D01*
X145439714Y-100710739D01*
X145392588Y-100676493D01*
X145386889Y-100662837D01*
X145406177Y-100640919D01*
X145416611Y-100642247D01*
G37*
G36*
X143110915Y-100801003D02*
G01*
X143097560Y-100826054D01*
X143058670Y-100854364D01*
X143048274Y-100852900D01*
X143027698Y-100820433D01*
X143050618Y-100771357D01*
X143071787Y-100754637D01*
X143110273Y-100753722D01*
X143110915Y-100801003D01*
G37*
G36*
X145526712Y-100772698D02*
G01*
X145552672Y-100822989D01*
X145549932Y-100834951D01*
X145517098Y-100836577D01*
X145507484Y-100829307D01*
X145481524Y-100779016D01*
X145484265Y-100767055D01*
X145517098Y-100765428D01*
X145526712Y-100772698D01*
G37*
G36*
X144347869Y-95235533D02*
G01*
X144373932Y-95288812D01*
X144377287Y-95307984D01*
X144371832Y-95336185D01*
X144329465Y-95308189D01*
X144296536Y-95274651D01*
X144272000Y-95226315D01*
X144276951Y-95206955D01*
X144307910Y-95203568D01*
X144347869Y-95235533D01*
G37*
G36*
X144272218Y-95322769D02*
G01*
X144321760Y-95381137D01*
X144315864Y-95409827D01*
X144255747Y-95399231D01*
X144229233Y-95381546D01*
X144200852Y-95318174D01*
X144202734Y-95287984D01*
X144220771Y-95280845D01*
X144272218Y-95322769D01*
G37*
G36*
X143275922Y-95962907D02*
G01*
X143258135Y-95980694D01*
X143240348Y-95962907D01*
X143258135Y-95945120D01*
X143275922Y-95962907D01*
G37*
G36*
X143508200Y-95947688D02*
G01*
X143513083Y-95968836D01*
X143507869Y-95973094D01*
X143465651Y-95968836D01*
X143460086Y-95958136D01*
X143489367Y-95945120D01*
X143508200Y-95947688D01*
G37*
G36*
X145054633Y-95962907D02*
G01*
X145036846Y-95980694D01*
X145019059Y-95962907D01*
X145036846Y-95945120D01*
X145054633Y-95962907D01*
G37*
G36*
X142572488Y-96265696D02*
G01*
X142600011Y-96280976D01*
X142598374Y-96286682D01*
X142564437Y-96318650D01*
X142550657Y-96324208D01*
X142528863Y-96302962D01*
X142530230Y-96292636D01*
X142564437Y-96265288D01*
X142572488Y-96265696D01*
G37*
G36*
X144592168Y-96318650D02*
G01*
X144574381Y-96336437D01*
X144556594Y-96318650D01*
X144574381Y-96300863D01*
X144592168Y-96318650D01*
G37*
G36*
X144904736Y-96282360D02*
G01*
X144900478Y-96324579D01*
X144889778Y-96330144D01*
X144876762Y-96300863D01*
X144879329Y-96282030D01*
X144900478Y-96277146D01*
X144904736Y-96282360D01*
G37*
G36*
X145118181Y-96282360D02*
G01*
X145113924Y-96324579D01*
X145103224Y-96330144D01*
X145090208Y-96300863D01*
X145092775Y-96282030D01*
X145113924Y-96277146D01*
X145118181Y-96282360D01*
G37*
G36*
X145374801Y-96318650D02*
G01*
X145357014Y-96336437D01*
X145339227Y-96318650D01*
X145357014Y-96300863D01*
X145374801Y-96318650D01*
G37*
G36*
X146264157Y-96318650D02*
G01*
X146246370Y-96336437D01*
X146228583Y-96318650D01*
X146246370Y-96300863D01*
X146264157Y-96318650D01*
G37*
G36*
X142607154Y-96741047D02*
G01*
X142617171Y-96818647D01*
X142625105Y-96963475D01*
X142630873Y-97173118D01*
X142634394Y-97445161D01*
X142635586Y-97777193D01*
X142635135Y-97987888D01*
X142632505Y-98283401D01*
X142627595Y-98517445D01*
X142620489Y-98687607D01*
X142611267Y-98791474D01*
X142600011Y-98826633D01*
X142592869Y-98813339D01*
X142582852Y-98735739D01*
X142574918Y-98590911D01*
X142569150Y-98381269D01*
X142565629Y-98109225D01*
X142564437Y-97777193D01*
X142564888Y-97566498D01*
X142567518Y-97270985D01*
X142572428Y-97036941D01*
X142579534Y-96866779D01*
X142588756Y-96762912D01*
X142600011Y-96727753D01*
X142607154Y-96741047D01*
G37*
G36*
X146003607Y-97155801D02*
G01*
X146006184Y-97254672D01*
X146006333Y-97262260D01*
X146009588Y-97514340D01*
X146010643Y-97797736D01*
X146009498Y-98078303D01*
X146006155Y-98321899D01*
X146004321Y-98394843D01*
X146001881Y-98440935D01*
X145999717Y-98422345D01*
X145997903Y-98342875D01*
X145996516Y-98206325D01*
X145995632Y-98016498D01*
X145995325Y-97777193D01*
X145995491Y-97601845D01*
X145996227Y-97399329D01*
X145997482Y-97249843D01*
X145999180Y-97157011D01*
X146001247Y-97124456D01*
X146003607Y-97155801D01*
G37*
G36*
X144340794Y-98890392D02*
G01*
X144360936Y-98954107D01*
X144346268Y-98999400D01*
X144297194Y-99023240D01*
X144240847Y-99006970D01*
X144206098Y-98951143D01*
X144205674Y-98948911D01*
X144199872Y-98903352D01*
X144218553Y-98903849D01*
X144276759Y-98950199D01*
X144287269Y-98958850D01*
X144324696Y-98985594D01*
X144316468Y-98969765D01*
X144293106Y-98938443D01*
X144272000Y-98887702D01*
X144276087Y-98875943D01*
X144316468Y-98871101D01*
X144340794Y-98890392D01*
G37*
G36*
X143293886Y-98948162D02*
G01*
X143462924Y-98948983D01*
X143579722Y-98950731D01*
X143639554Y-98953239D01*
X143637692Y-98956339D01*
X143569409Y-98959861D01*
X143548215Y-98960571D01*
X143340789Y-98964317D01*
X143113295Y-98964080D01*
X142911286Y-98959861D01*
X142886216Y-98958886D01*
X142836187Y-98955460D01*
X142851313Y-98952503D01*
X142926867Y-98950181D01*
X143058120Y-98948665D01*
X143240348Y-98948122D01*
X143293886Y-98948162D01*
G37*
G36*
X145423576Y-98948237D02*
G01*
X145593284Y-98949081D01*
X145711187Y-98950824D01*
X145772450Y-98953306D01*
X145772237Y-98956363D01*
X145705711Y-98959836D01*
X145664042Y-98961155D01*
X145457992Y-98964412D01*
X145232647Y-98963995D01*
X145029800Y-98959898D01*
X144996712Y-98958666D01*
X144947575Y-98955337D01*
X144963532Y-98952463D01*
X145040087Y-98950206D01*
X145172746Y-98948726D01*
X145357014Y-98948184D01*
X145423576Y-98948237D01*
G37*
G36*
X143453793Y-98097361D02*
G01*
X143453793Y-98399742D01*
X143329283Y-98399742D01*
X143204773Y-98399742D01*
X143204773Y-98097361D01*
X143204773Y-97794980D01*
X143329283Y-97794980D01*
X143453793Y-97794980D01*
X143453793Y-98097361D01*
G37*
G36*
X145374801Y-98097361D02*
G01*
X145374801Y-98399742D01*
X145250292Y-98399742D01*
X145125782Y-98399742D01*
X145125782Y-98097361D01*
X145125782Y-97794980D01*
X145250292Y-97794980D01*
X145374801Y-97794980D01*
X145374801Y-98097361D01*
G37*
G36*
X142965742Y-99795263D02*
G01*
X143026902Y-99840498D01*
X143053255Y-99890283D01*
X143026902Y-99947221D01*
X142995852Y-99975438D01*
X142932494Y-100000582D01*
X142888927Y-99983368D01*
X142855389Y-99921134D01*
X142861896Y-99840498D01*
X142877065Y-99815842D01*
X142932494Y-99787137D01*
X142965742Y-99795263D01*
G37*
G36*
X145669383Y-99795263D02*
G01*
X145730544Y-99840498D01*
X145756896Y-99890283D01*
X145730544Y-99947221D01*
X145699493Y-99975438D01*
X145636136Y-100000582D01*
X145592568Y-99983368D01*
X145559031Y-99921134D01*
X145565537Y-99840498D01*
X145580706Y-99815842D01*
X145636136Y-99787137D01*
X145669383Y-99795263D01*
G37*
D11*
X156860000Y-104751000D02*
X156860000Y-101751000D01*
X153020000Y-100251000D02*
X153020000Y-105251000D01*
X151083742Y-95616500D02*
X151558258Y-95616500D01*
X151083742Y-96661500D02*
X151558258Y-96661500D01*
X148360000Y-90780000D02*
X148360000Y-92680000D01*
X150260000Y-90780000D02*
X148360000Y-90780000D01*
X150260000Y-92680000D02*
X150260000Y-90780000D01*
X148360000Y-92680000D02*
X150260000Y-92680000D01*
X141797000Y-102342000D02*
X139847000Y-102342000D01*
X141797000Y-107462000D02*
X139847000Y-107462000D01*
X141797000Y-102342000D02*
X145247000Y-102342000D01*
X141797000Y-107462000D02*
X143747000Y-107462000D01*
X145797000Y-88986379D02*
X145797000Y-89321621D01*
X146557000Y-88986379D02*
X146557000Y-89321621D01*
X156860000Y-95050000D02*
X156860000Y-90050000D01*
X153020000Y-90550000D02*
X153020000Y-93550000D01*
X135722379Y-103351600D02*
X136057621Y-103351600D01*
X135722379Y-102591600D02*
X136057621Y-102591600D01*
X129163542Y-98308900D02*
X129638058Y-98308900D01*
X129163542Y-99353900D02*
X129638058Y-99353900D01*
X144866379Y-94106000D02*
X145201621Y-94106000D01*
X144866379Y-93346000D02*
X145201621Y-93346000D01*
X151082742Y-98029500D02*
X151557258Y-98029500D01*
X151082742Y-99074500D02*
X151557258Y-99074500D01*
X141478000Y-87864000D02*
X139528000Y-87864000D01*
X141478000Y-92984000D02*
X139528000Y-92984000D01*
X141478000Y-87864000D02*
X144928000Y-87864000D01*
X141478000Y-92984000D02*
X143428000Y-92984000D01*
X136474000Y-94996164D02*
X136474000Y-95211836D01*
X135754000Y-94996164D02*
X135754000Y-95211836D01*
X148440000Y-105380000D02*
X148440000Y-107280000D01*
X150340000Y-105380000D02*
X148440000Y-105380000D01*
X150340000Y-107280000D02*
X150340000Y-105380000D01*
X148440000Y-107280000D02*
X150340000Y-107280000D01*
X148350000Y-87920000D02*
X148350000Y-89820000D01*
X150250000Y-87920000D02*
X148350000Y-87920000D01*
X150250000Y-89820000D02*
X150250000Y-87920000D01*
X148350000Y-89820000D02*
X150250000Y-89820000D01*
X148400000Y-104230000D02*
X150300000Y-104230000D01*
X150300000Y-104230000D02*
X150300000Y-102330000D01*
X150300000Y-102330000D02*
X148400000Y-102330000D01*
X148400000Y-102330000D02*
X148400000Y-104230000D01*
X146178000Y-102067379D02*
X146178000Y-102402621D01*
X146938000Y-102067379D02*
X146938000Y-102402621D01*
X140977742Y-93607500D02*
X141452258Y-93607500D01*
X140977742Y-94652500D02*
X141452258Y-94652500D01*
D12*
X135426000Y-93488000D02*
G75*
G03*
X135426000Y-93488000I-125000J0D01*
G01*
D11*
X131808000Y-98852000D02*
G75*
G03*
X132508000Y-99552000I700000J0D01*
G01*
X135208000Y-99552000D02*
G75*
G03*
X135908000Y-98852000I1J699999D01*
G01*
X132508000Y-97552000D02*
G75*
G03*
X131808000Y-98252000I0J-700000D01*
G01*
X135908000Y-98252000D02*
G75*
G03*
X135208000Y-97552000I-699999J1D01*
G01*
X135258000Y-97552000D02*
X132458000Y-97552000D01*
X131808000Y-98252000D02*
X131808000Y-98852000D01*
X135908000Y-98852000D02*
X135908000Y-98252000D01*
X132458000Y-99552000D02*
X135258000Y-99552000D01*
X140986742Y-100823500D02*
X141461258Y-100823500D01*
X140986742Y-101868500D02*
X141461258Y-101868500D01*
X132948000Y-95396164D02*
X132948000Y-95611836D01*
X132228000Y-95396164D02*
X132228000Y-95611836D01*
X129163542Y-100798100D02*
X129638058Y-100798100D01*
X129163542Y-101843100D02*
X129638058Y-101843100D01*
X146178000Y-105877379D02*
X146178000Y-106212621D01*
X146938000Y-105877379D02*
X146938000Y-106212621D01*
%LPC*%
D13*
X160512000Y-89154000D03*
D14*
X158512000Y-89154000D03*
D15*
X153670000Y-100101000D03*
X156210000Y-100101000D03*
X156210000Y-106401000D03*
X153670000Y-106401000D03*
D16*
X136403000Y-89255600D03*
D17*
X133863000Y-89255600D03*
D18*
X129692400Y-105257600D03*
X164591835Y-89984543D03*
D19*
X164338000Y-100330000D03*
X164338000Y-97790000D03*
X164338000Y-95250000D03*
D20*
X127113400Y-94662600D03*
X127113400Y-95512600D03*
X127113400Y-96362600D03*
X127113400Y-97212600D03*
X127113400Y-98062600D03*
X127113400Y-98912600D03*
X127113400Y-99762600D03*
X127113400Y-100612600D03*
X125763400Y-100612600D03*
X125763400Y-99762600D03*
X125763400Y-98912600D03*
X125763400Y-98062600D03*
X125763400Y-97212600D03*
X125763400Y-96362600D03*
X125763400Y-95512600D03*
X125763400Y-94662600D03*
D21*
X122753400Y-101962600D03*
X122753400Y-93312600D03*
D22*
X126133400Y-101962600D03*
X126133400Y-93312600D03*
D18*
X164589596Y-105258080D03*
X129692400Y-90017600D03*
D16*
X136403000Y-106019600D03*
D17*
X133863000Y-106019600D03*
D23*
X150496000Y-96139000D03*
X152146000Y-96139000D03*
D24*
X149310000Y-91730000D03*
D25*
X144272000Y-102997000D03*
X144272000Y-104267000D03*
X144272000Y-105537000D03*
X144272000Y-106807000D03*
X139322000Y-106807000D03*
X139322000Y-105537000D03*
X139322000Y-104267000D03*
X139322000Y-102997000D03*
D26*
X146177000Y-88556500D03*
X146177000Y-89751500D03*
D15*
X156210000Y-88900000D03*
X153670000Y-88900000D03*
X153670000Y-95200000D03*
X156210000Y-95200000D03*
D27*
X135292500Y-102971600D03*
X136487500Y-102971600D03*
D23*
X128575800Y-98831400D03*
X130225800Y-98831400D03*
D27*
X144436500Y-93726000D03*
X145631500Y-93726000D03*
D23*
X150495000Y-98552000D03*
X152145000Y-98552000D03*
D25*
X143953000Y-88519000D03*
X143953000Y-89789000D03*
X143953000Y-91059000D03*
X143953000Y-92329000D03*
X139003000Y-92329000D03*
X139003000Y-91059000D03*
X139003000Y-89789000D03*
X139003000Y-88519000D03*
D28*
X136114000Y-94624000D03*
X136114000Y-95584000D03*
D24*
X149390000Y-106330000D03*
X149300000Y-88870000D03*
X149350000Y-103280000D03*
D26*
X146558000Y-101637500D03*
X146558000Y-102832500D03*
D23*
X140390000Y-94130000D03*
X142040000Y-94130000D03*
D29*
X135001000Y-94088000D03*
X135001000Y-94488000D03*
X135001000Y-94888000D03*
X133701000Y-94888000D03*
X133701000Y-94488000D03*
X133701000Y-94088000D03*
D30*
X134351000Y-94488000D03*
D31*
X132558000Y-98552000D03*
D32*
X133858000Y-98552000D03*
D33*
X135158000Y-98552000D03*
D23*
X140399000Y-101346000D03*
X142049000Y-101346000D03*
D28*
X132588000Y-95024000D03*
X132588000Y-95984000D03*
D23*
X128575800Y-101320600D03*
X130225800Y-101320600D03*
D26*
X146558000Y-105447500D03*
X146558000Y-106642500D03*
D34*
X158597600Y-90195400D03*
X157903368Y-90281104D03*
X159766000Y-90332500D03*
X160512000Y-90449400D03*
X157327600Y-89814400D03*
X157220000Y-101220000D03*
X138416348Y-98142317D03*
X138320000Y-97500000D03*
X136361189Y-99023189D03*
X152146000Y-101346000D03*
X156464000Y-103886000D03*
X147066000Y-99732741D03*
X148212425Y-99255200D03*
X147066000Y-100432244D03*
X148609695Y-99833114D03*
X145375108Y-91880058D03*
X148590000Y-97155000D03*
X149225000Y-96520000D03*
X149225000Y-97790000D03*
X128270000Y-99822000D03*
X129032000Y-100330000D03*
X128778000Y-95504000D03*
X156083000Y-97917000D03*
X155702000Y-92964000D03*
X154940000Y-94488000D03*
X140970000Y-91440000D03*
X142494000Y-90424000D03*
X150876000Y-90932000D03*
X129413000Y-95123000D03*
X134393177Y-93475964D03*
X134707626Y-95870788D03*
X147580000Y-105650000D03*
X145465802Y-103619637D03*
X142708022Y-94930893D03*
X154620000Y-91531500D03*
X137569919Y-103813068D03*
X144463503Y-99822000D03*
X144870000Y-101690000D03*
X137351503Y-91694000D03*
X141275602Y-97246500D03*
X134112000Y-95504000D03*
X148093000Y-105167000D03*
X133701000Y-93375000D03*
X145288000Y-91186000D03*
X143764000Y-99822000D03*
X136652000Y-91694000D03*
X137160000Y-104394000D03*
X149225000Y-99314000D03*
X130048000Y-94742000D03*
X140716000Y-96647000D03*
X155194000Y-90932000D03*
X155267903Y-92020242D03*
X141519717Y-97902023D03*
X142367000Y-95547500D03*
X143406173Y-94974357D03*
X144117500Y-101796205D03*
X145440000Y-102120000D03*
%LPD*%
M02*
