G04 #@! TF.GenerationSoftware,KiCad,Pcbnew,7.0.6*
G04 #@! TF.CreationDate,2024-02-06T23:19:41+01:00*
G04 #@! TF.ProjectId,USB2CANv2,55534232-4341-44e7-9632-2e6b69636164,0_2*
G04 #@! TF.SameCoordinates,Original*
G04 #@! TF.FileFunction,Copper,L1,Top*
G04 #@! TF.FilePolarity,Positive*
%FSLAX46Y46*%
G04 Gerber Fmt 4.6, Leading zero omitted, Abs format (unit mm)*
G04 Created by KiCad (PCBNEW 7.0.6) date 2024-02-06 23:19:41*
%MOMM*%
%LPD*%
G01*
G04 APERTURE LIST*
G04 Aperture macros list*
%AMRoundRect*
0 Rectangle with rounded corners*
0 $1 Rounding radius*
0 $2 $3 $4 $5 $6 $7 $8 $9 X,Y pos of 4 corners*
0 Add a 4 corners polygon primitive as box body*
4,1,4,$2,$3,$4,$5,$6,$7,$8,$9,$2,$3,0*
0 Add four circle primitives for the rounded corners*
1,1,$1+$1,$2,$3*
1,1,$1+$1,$4,$5*
1,1,$1+$1,$6,$7*
1,1,$1+$1,$8,$9*
0 Add four rect primitives between the rounded corners*
20,1,$1+$1,$2,$3,$4,$5,0*
20,1,$1+$1,$4,$5,$6,$7,0*
20,1,$1+$1,$6,$7,$8,$9,0*
20,1,$1+$1,$8,$9,$2,$3,0*%
G04 Aperture macros list end*
G04 #@! TA.AperFunction,ComponentPad*
%ADD10O,1.350000X1.350000*%
G04 #@! TD*
G04 #@! TA.AperFunction,ComponentPad*
%ADD11R,1.350000X1.350000*%
G04 #@! TD*
G04 #@! TA.AperFunction,SMDPad,CuDef*
%ADD12RoundRect,0.200000X0.200000X0.275000X-0.200000X0.275000X-0.200000X-0.275000X0.200000X-0.275000X0*%
G04 #@! TD*
G04 #@! TA.AperFunction,SMDPad,CuDef*
%ADD13R,0.500000X0.375000*%
G04 #@! TD*
G04 #@! TA.AperFunction,SMDPad,CuDef*
%ADD14R,0.650000X0.300000*%
G04 #@! TD*
G04 #@! TA.AperFunction,SMDPad,CuDef*
%ADD15RoundRect,0.155000X0.155000X-0.212500X0.155000X0.212500X-0.155000X0.212500X-0.155000X-0.212500X0*%
G04 #@! TD*
G04 #@! TA.AperFunction,ComponentPad*
%ADD16R,1.700000X1.700000*%
G04 #@! TD*
G04 #@! TA.AperFunction,ComponentPad*
%ADD17O,1.700000X1.700000*%
G04 #@! TD*
G04 #@! TA.AperFunction,SMDPad,CuDef*
%ADD18RoundRect,0.155000X-0.212500X-0.155000X0.212500X-0.155000X0.212500X0.155000X-0.212500X0.155000X0*%
G04 #@! TD*
G04 #@! TA.AperFunction,SMDPad,CuDef*
%ADD19RoundRect,0.160000X-0.160000X0.197500X-0.160000X-0.197500X0.160000X-0.197500X0.160000X0.197500X0*%
G04 #@! TD*
G04 #@! TA.AperFunction,SMDPad,CuDef*
%ADD20RoundRect,0.250000X-0.325000X-0.450000X0.325000X-0.450000X0.325000X0.450000X-0.325000X0.450000X0*%
G04 #@! TD*
G04 #@! TA.AperFunction,SMDPad,CuDef*
%ADD21RoundRect,0.243750X-0.243750X-0.456250X0.243750X-0.456250X0.243750X0.456250X-0.243750X0.456250X0*%
G04 #@! TD*
G04 #@! TA.AperFunction,SMDPad,CuDef*
%ADD22RoundRect,0.381000X2.119000X0.381000X-2.119000X0.381000X-2.119000X-0.381000X2.119000X-0.381000X0*%
G04 #@! TD*
G04 #@! TA.AperFunction,SMDPad,CuDef*
%ADD23R,2.000000X2.400000*%
G04 #@! TD*
G04 #@! TA.AperFunction,SMDPad,CuDef*
%ADD24R,1.800000X1.000000*%
G04 #@! TD*
G04 #@! TA.AperFunction,ComponentPad*
%ADD25C,0.700000*%
G04 #@! TD*
G04 #@! TA.AperFunction,ComponentPad*
%ADD26O,1.700000X0.900000*%
G04 #@! TD*
G04 #@! TA.AperFunction,ComponentPad*
%ADD27O,2.400000X0.900000*%
G04 #@! TD*
G04 #@! TA.AperFunction,SMDPad,CuDef*
%ADD28RoundRect,0.075000X0.548008X0.441942X0.441942X0.548008X-0.548008X-0.441942X-0.441942X-0.548008X0*%
G04 #@! TD*
G04 #@! TA.AperFunction,SMDPad,CuDef*
%ADD29RoundRect,0.075000X0.548008X-0.441942X-0.441942X0.548008X-0.548008X0.441942X0.441942X-0.548008X0*%
G04 #@! TD*
G04 #@! TA.AperFunction,SMDPad,CuDef*
%ADD30RoundRect,0.155000X0.212500X0.155000X-0.212500X0.155000X-0.212500X-0.155000X0.212500X-0.155000X0*%
G04 #@! TD*
G04 #@! TA.AperFunction,SMDPad,CuDef*
%ADD31RoundRect,0.155000X-0.259862X0.040659X0.040659X-0.259862X0.259862X-0.040659X-0.040659X0.259862X0*%
G04 #@! TD*
G04 #@! TA.AperFunction,SMDPad,CuDef*
%ADD32RoundRect,0.200000X-0.200000X-0.275000X0.200000X-0.275000X0.200000X0.275000X-0.200000X0.275000X0*%
G04 #@! TD*
G04 #@! TA.AperFunction,SMDPad,CuDef*
%ADD33RoundRect,0.155000X-0.155000X0.212500X-0.155000X-0.212500X0.155000X-0.212500X0.155000X0.212500X0*%
G04 #@! TD*
G04 #@! TA.AperFunction,SMDPad,CuDef*
%ADD34RoundRect,0.243750X0.243750X0.456250X-0.243750X0.456250X-0.243750X-0.456250X0.243750X-0.456250X0*%
G04 #@! TD*
G04 #@! TA.AperFunction,SMDPad,CuDef*
%ADD35RoundRect,0.155000X-0.040659X-0.259862X0.259862X0.040659X0.040659X0.259862X-0.259862X-0.040659X0*%
G04 #@! TD*
G04 #@! TA.AperFunction,ViaPad*
%ADD36C,0.500000*%
G04 #@! TD*
G04 #@! TA.AperFunction,Conductor*
%ADD37C,0.400000*%
G04 #@! TD*
G04 #@! TA.AperFunction,Conductor*
%ADD38C,0.200000*%
G04 #@! TD*
G04 #@! TA.AperFunction,Conductor*
%ADD39C,0.300000*%
G04 #@! TD*
G04 APERTURE END LIST*
D10*
X160512000Y-89154000D03*
D11*
X158512000Y-89154000D03*
D12*
X131635000Y-96774000D03*
X129985000Y-96774000D03*
D13*
X134708000Y-98327500D03*
D14*
X134783000Y-97790000D03*
D13*
X134708000Y-97252500D03*
X133008000Y-97252500D03*
D14*
X132933000Y-97790000D03*
D13*
X133008000Y-98327500D03*
D15*
X158496000Y-105215500D03*
X158496000Y-104080500D03*
D16*
X136403000Y-89255600D03*
D17*
X133863000Y-89255600D03*
D18*
X154118500Y-98425000D03*
X155253500Y-98425000D03*
D19*
X139700000Y-105955500D03*
X139700000Y-107150500D03*
D20*
X154550000Y-95885000D03*
X156600000Y-95885000D03*
D15*
X156718000Y-92904500D03*
X156718000Y-94039500D03*
D19*
X139670000Y-89142500D03*
X139670000Y-90337500D03*
D12*
X131635000Y-99314000D03*
X129985000Y-99314000D03*
D21*
X141162500Y-88870000D03*
X143037500Y-88870000D03*
X141048500Y-106679999D03*
X142923500Y-106679999D03*
D22*
X164338000Y-100330000D03*
X164338000Y-97790000D03*
X164338000Y-95250000D03*
D23*
X152836000Y-105867200D03*
X156536000Y-105867200D03*
D24*
X158877000Y-99334000D03*
X158877000Y-101834000D03*
D19*
X152400000Y-91096500D03*
X152400000Y-92291500D03*
D25*
X127113400Y-94662600D03*
X127113400Y-95512600D03*
X127113400Y-96362600D03*
X127113400Y-97212600D03*
X127113400Y-98062600D03*
X127113400Y-98912600D03*
X127113400Y-99762600D03*
X127113400Y-100612600D03*
X125763400Y-100612600D03*
X125763400Y-99762600D03*
X125763400Y-98912600D03*
X125763400Y-98062600D03*
X125763400Y-97212600D03*
X125763400Y-96362600D03*
X125763400Y-95512600D03*
X125763400Y-94662600D03*
D26*
X122753400Y-101962600D03*
X122753400Y-93312600D03*
D27*
X126133400Y-101962600D03*
X126133400Y-93312600D03*
D28*
X144079219Y-104302081D03*
X143725666Y-103948528D03*
X143372113Y-103594975D03*
X143018559Y-103241421D03*
X142665006Y-102887868D03*
X142311452Y-102534314D03*
X141957899Y-102180761D03*
X141604346Y-101827208D03*
X141250792Y-101473654D03*
X140897239Y-101120101D03*
X140543686Y-100766548D03*
X140190132Y-100412994D03*
X139836579Y-100059441D03*
X139483025Y-99705887D03*
X139129472Y-99352334D03*
X138775919Y-98998781D03*
D29*
X138775919Y-96276419D03*
X139129472Y-95922866D03*
X139483025Y-95569313D03*
X139836579Y-95215759D03*
X140190132Y-94862206D03*
X140543686Y-94508652D03*
X140897239Y-94155099D03*
X141250792Y-93801546D03*
X141604346Y-93447992D03*
X141957899Y-93094439D03*
X142311452Y-92740886D03*
X142665006Y-92387332D03*
X143018559Y-92033779D03*
X143372113Y-91680225D03*
X143725666Y-91326672D03*
X144079219Y-90973119D03*
D28*
X146801581Y-90973119D03*
X147155134Y-91326672D03*
X147508687Y-91680225D03*
X147862241Y-92033779D03*
X148215794Y-92387332D03*
X148569348Y-92740886D03*
X148922901Y-93094439D03*
X149276454Y-93447992D03*
X149630008Y-93801546D03*
X149983561Y-94155099D03*
X150337114Y-94508652D03*
X150690668Y-94862206D03*
X151044221Y-95215759D03*
X151397775Y-95569313D03*
X151751328Y-95922866D03*
X152104881Y-96276419D03*
D29*
X152104881Y-98998781D03*
X151751328Y-99352334D03*
X151397775Y-99705887D03*
X151044221Y-100059441D03*
X150690668Y-100412994D03*
X150337114Y-100766548D03*
X149983561Y-101120101D03*
X149630008Y-101473654D03*
X149276454Y-101827208D03*
X148922901Y-102180761D03*
X148569348Y-102534314D03*
X148215794Y-102887868D03*
X147862241Y-103241421D03*
X147508687Y-103594975D03*
X147155134Y-103948528D03*
X146801581Y-104302081D03*
D30*
X137371900Y-98145600D03*
X136236900Y-98145600D03*
D31*
X152252717Y-93705717D03*
X153055283Y-94508283D03*
D30*
X137422700Y-95046800D03*
X136287700Y-95046800D03*
D31*
X148696717Y-90530717D03*
X149499283Y-91333283D03*
D21*
X133174500Y-92202000D03*
X135049500Y-92202000D03*
D32*
X132474200Y-102108000D03*
X134124200Y-102108000D03*
D30*
X149919500Y-106908600D03*
X148784500Y-106908600D03*
D33*
X160731200Y-100016500D03*
X160731200Y-101151500D03*
D18*
X154118500Y-97409000D03*
X155253500Y-97409000D03*
D30*
X137371900Y-96875600D03*
X136236900Y-96875600D03*
D33*
X146050000Y-105604500D03*
X146050000Y-106739500D03*
X144551400Y-105604500D03*
X144551400Y-106739500D03*
D16*
X136403000Y-106019600D03*
D17*
X133863000Y-106019600D03*
D34*
X152219900Y-88900000D03*
X150344900Y-88900000D03*
D33*
X155549600Y-100270500D03*
X155549600Y-101405500D03*
D19*
X129286000Y-92988200D03*
X129286000Y-94183200D03*
D35*
X146918717Y-89555283D03*
X147721283Y-88752717D03*
X150474717Y-102763283D03*
X151277283Y-101960717D03*
D36*
X158597600Y-90195400D03*
X157903368Y-90281104D03*
X159766000Y-90332500D03*
X160512000Y-90449400D03*
X157327600Y-89814400D03*
X157220000Y-101220000D03*
X138416348Y-98142317D03*
X138320000Y-97500000D03*
X136361189Y-99023189D03*
X152146000Y-101346000D03*
X156464000Y-103886000D03*
X147066000Y-99732741D03*
X148212425Y-99255200D03*
X147066000Y-100432244D03*
X148609695Y-99833114D03*
X145375108Y-91880058D03*
X148590000Y-97155000D03*
X149225000Y-96520000D03*
X149225000Y-97790000D03*
X128270000Y-99822000D03*
X129032000Y-100330000D03*
X128778000Y-95504000D03*
X156083000Y-97917000D03*
X155702000Y-92964000D03*
X154940000Y-94488000D03*
X140970000Y-91440000D03*
X142494000Y-90424000D03*
X150876000Y-90932000D03*
X129413000Y-95123000D03*
X134393177Y-93475964D03*
X134707626Y-95870788D03*
X147580000Y-105650000D03*
X145465802Y-103619637D03*
X142708022Y-94930893D03*
X154620000Y-91531500D03*
X137569919Y-103813068D03*
X144463503Y-99822000D03*
X144870000Y-101690000D03*
X137351503Y-91694000D03*
X141275602Y-97246500D03*
X134112000Y-95504000D03*
X148093000Y-105167000D03*
X133701000Y-93375000D03*
X145288000Y-91186000D03*
X143764000Y-99822000D03*
X136652000Y-91694000D03*
X137160000Y-104394000D03*
X149225000Y-99314000D03*
X130048000Y-94742000D03*
X140716000Y-96647000D03*
X155194000Y-90932000D03*
X155267903Y-92020242D03*
X141519717Y-97902023D03*
X142367000Y-95547500D03*
X143406173Y-94974357D03*
X144117500Y-101796205D03*
X145440000Y-102120000D03*
D37*
X137371900Y-101128399D02*
X142923500Y-106679999D01*
X137371900Y-98860300D02*
X137371900Y-101128399D01*
X140424499Y-106679999D02*
X139700000Y-105955500D01*
X141048500Y-106679999D02*
X140424499Y-106679999D01*
D38*
X138859500Y-107150500D02*
X139700000Y-107150500D01*
X137705400Y-105996400D02*
X138859500Y-107150500D01*
D37*
X143998999Y-105604500D02*
X142923500Y-106679999D01*
X144551400Y-105604500D02*
X143998999Y-105604500D01*
X161552700Y-100330000D02*
X160731200Y-101151500D01*
X164338000Y-100330000D02*
X161552700Y-100330000D01*
X156915420Y-92020242D02*
X155267903Y-92020242D01*
X162685178Y-97790000D02*
X156915420Y-92020242D01*
X164338000Y-97790000D02*
X162685178Y-97790000D01*
X160020000Y-90932000D02*
X155194000Y-90932000D01*
X164338000Y-95250000D02*
X160020000Y-90932000D01*
D39*
X158597600Y-89941400D02*
X158512000Y-89855800D01*
X158512000Y-89855800D02*
X158512000Y-88900000D01*
D37*
X160512000Y-90195400D02*
X160512000Y-88900000D01*
D39*
X136236900Y-98898900D02*
X136236900Y-98145600D01*
X136361189Y-99023189D02*
X136236900Y-98898900D01*
D37*
X147580000Y-105704100D02*
X148784500Y-106908600D01*
X147580000Y-105650000D02*
X147580000Y-105704100D01*
D39*
X142631479Y-88870000D02*
X143037500Y-88870000D01*
X139207479Y-92294000D02*
X142631479Y-88870000D01*
X135049500Y-92202000D02*
X135141500Y-92294000D01*
X135141500Y-92294000D02*
X139207479Y-92294000D01*
X140890000Y-89142500D02*
X141162500Y-88870000D01*
X139670000Y-89142500D02*
X140890000Y-89142500D01*
D38*
X138000896Y-90337500D02*
X139670000Y-90337500D01*
X136652000Y-91686396D02*
X138000896Y-90337500D01*
X136652000Y-91694000D02*
X136652000Y-91686396D01*
D37*
X143159900Y-88747600D02*
X143037500Y-88870000D01*
X144576062Y-88747600D02*
X143159900Y-88747600D01*
D39*
X157034500Y-101405500D02*
X157220000Y-101220000D01*
X155549600Y-101405500D02*
X157034500Y-101405500D01*
X152219900Y-90916400D02*
X152400000Y-91096500D01*
X152219900Y-88900000D02*
X152219900Y-90916400D01*
D37*
X137695600Y-96875600D02*
X138320000Y-97500000D01*
X137371900Y-96875600D02*
X137695600Y-96875600D01*
D39*
X145440000Y-102120000D02*
X145204906Y-102355094D01*
X144611994Y-102355094D02*
X143372113Y-103594975D01*
X145204906Y-102355094D02*
X144611994Y-102355094D01*
X129985000Y-97911183D02*
X129985000Y-96774000D01*
X130885000Y-100518800D02*
X130885000Y-98811183D01*
X130885000Y-98811183D02*
X129985000Y-97911183D01*
X132474200Y-102108000D02*
X130885000Y-100518800D01*
X150960900Y-105867200D02*
X152836000Y-105867200D01*
X149919500Y-106908600D02*
X150960900Y-105867200D01*
X151316396Y-104336000D02*
X151512396Y-104140000D01*
X148956820Y-104336000D02*
X151316396Y-104336000D01*
X151512396Y-104140000D02*
X154808800Y-104140000D01*
X147862241Y-103241421D02*
X148956820Y-104336000D01*
X154808800Y-104140000D02*
X156536000Y-105867200D01*
D38*
X152943000Y-102073000D02*
X158638000Y-102073000D01*
X151130000Y-103886000D02*
X152943000Y-102073000D01*
X149213926Y-103886000D02*
X151130000Y-103886000D01*
X148215794Y-102887868D02*
X149213926Y-103886000D01*
X158638000Y-102073000D02*
X158877000Y-101834000D01*
D39*
X149780912Y-106770012D02*
X149919500Y-106908600D01*
X149780912Y-105867200D02*
X149780912Y-106770012D01*
X147066000Y-100432244D02*
X148588598Y-100432244D01*
X148588598Y-100432244D02*
X149630008Y-101473654D01*
D38*
X137705400Y-104939400D02*
X137705400Y-105996400D01*
X137160000Y-104394000D02*
X137705400Y-104939400D01*
X143568000Y-101984874D02*
X142665006Y-102887868D01*
X143764000Y-99822000D02*
X143568000Y-100018000D01*
X143568000Y-100018000D02*
X143568000Y-101984874D01*
D39*
X144117500Y-101796205D02*
X144018000Y-101895705D01*
X144018000Y-101895705D02*
X144018000Y-102241980D01*
X144018000Y-102241980D02*
X143018559Y-103241421D01*
X148609695Y-99833114D02*
X148696574Y-99833114D01*
X148696574Y-99833114D02*
X149983561Y-101120101D01*
X141042414Y-98379326D02*
X139395374Y-98379326D01*
X139395374Y-98379326D02*
X138775919Y-98998781D01*
X141519717Y-97902023D02*
X141042414Y-98379326D01*
X140560712Y-96647000D02*
X139483025Y-95569313D01*
X140716000Y-96647000D02*
X140560712Y-96647000D01*
X143162278Y-95342000D02*
X143118000Y-95386278D01*
X143186850Y-95342000D02*
X143162278Y-95342000D01*
X143406173Y-95122677D02*
X143186850Y-95342000D01*
X143406173Y-94974357D02*
X143406173Y-95122677D01*
X143118000Y-95386278D02*
X143118000Y-101020660D01*
X143118000Y-101020660D02*
X141957899Y-102180761D01*
X142367000Y-101064554D02*
X141604346Y-101827208D01*
X142367000Y-95547500D02*
X142367000Y-101064554D01*
X132388300Y-92988200D02*
X129286000Y-92988200D01*
X133174500Y-92202000D02*
X132388300Y-92988200D01*
D37*
X135191500Y-92344000D02*
X135049500Y-92202000D01*
D39*
X138944600Y-93616674D02*
X140190132Y-94862206D01*
X135150797Y-93616674D02*
X138944600Y-93616674D01*
X133512000Y-95255471D02*
X135150797Y-93616674D01*
X133512000Y-95752529D02*
X133512000Y-95255471D01*
X134145500Y-98327500D02*
X133858000Y-98040000D01*
X133858000Y-98040000D02*
X133858000Y-96098529D01*
X134708000Y-98327500D02*
X134145500Y-98327500D01*
X133858000Y-96098529D02*
X133512000Y-95752529D01*
X136128148Y-94124674D02*
X138745494Y-94124674D01*
X138745494Y-94124674D02*
X139836579Y-95215759D01*
X135307626Y-94945196D02*
X136128148Y-94124674D01*
X135307626Y-96652874D02*
X135307626Y-94945196D01*
X134708000Y-97252500D02*
X135307626Y-96652874D01*
X135881300Y-97790000D02*
X136236900Y-98145600D01*
X134783000Y-97790000D02*
X135881300Y-97790000D01*
X129546400Y-97212600D02*
X127113400Y-97212600D01*
X129985000Y-96774000D02*
X129546400Y-97212600D01*
X130302000Y-95758000D02*
X129032000Y-95758000D01*
X129032000Y-95758000D02*
X128778000Y-95504000D01*
X130810000Y-97201817D02*
X130810000Y-96266000D01*
X131398183Y-97790000D02*
X130810000Y-97201817D01*
X130810000Y-96266000D02*
X130302000Y-95758000D01*
X132933000Y-97790000D02*
X131398183Y-97790000D01*
X132113500Y-97252500D02*
X131635000Y-96774000D01*
X133008000Y-97252500D02*
X132113500Y-97252500D01*
X128733600Y-98062600D02*
X127113400Y-98062600D01*
X129985000Y-99314000D02*
X128733600Y-98062600D01*
X132021500Y-99314000D02*
X133008000Y-98327500D01*
X131635000Y-99314000D02*
X132021500Y-99314000D01*
X160731200Y-102079800D02*
X160731200Y-101151500D01*
X158730500Y-104080500D02*
X160731200Y-102079800D01*
X158496000Y-104080500D02*
X158730500Y-104080500D01*
X156658500Y-104080500D02*
X156464000Y-103886000D01*
X158496000Y-104080500D02*
X156658500Y-104080500D01*
X157844300Y-105867200D02*
X158496000Y-105215500D01*
X156536000Y-105867200D02*
X157844300Y-105867200D01*
X151531283Y-101960717D02*
X152146000Y-101346000D01*
X151277283Y-101960717D02*
X151531283Y-101960717D01*
X151310122Y-101927878D02*
X151310122Y-101032448D01*
X151277283Y-101960717D02*
X151310122Y-101927878D01*
X151310122Y-101032448D02*
X150690668Y-100412994D01*
X150437784Y-102800216D02*
X150474717Y-102763283D01*
X149542356Y-102800216D02*
X150437784Y-102800216D01*
X148922901Y-102180761D02*
X149542356Y-102800216D01*
D38*
X150895000Y-103486000D02*
X154051000Y-100330000D01*
X149521034Y-103486000D02*
X150895000Y-103486000D01*
X148569348Y-102534314D02*
X149521034Y-103486000D01*
X154051000Y-100330000D02*
X155490100Y-100330000D01*
X155490100Y-100330000D02*
X155549600Y-100270500D01*
D39*
X146801581Y-104302081D02*
X146182126Y-103682626D01*
X146182126Y-103682626D02*
X146182126Y-96161340D01*
X145175238Y-103329073D02*
X144345121Y-103329073D01*
X145465802Y-103619637D02*
X145175238Y-103329073D01*
X144345121Y-103329073D02*
X143725666Y-103948528D01*
X150778320Y-97085209D02*
X150778320Y-96188768D01*
X148572786Y-98552000D02*
X149311529Y-98552000D01*
X149311529Y-98552000D02*
X150778320Y-97085209D01*
X150778320Y-96188768D02*
X151397775Y-95569313D01*
X146182126Y-91592574D02*
X146182126Y-96161340D01*
X146182126Y-96161340D02*
X148572786Y-98552000D01*
X146801581Y-90973119D02*
X146182126Y-91592574D01*
D37*
X149511579Y-90341488D02*
X149511579Y-91320987D01*
X147922808Y-88752717D02*
X149511579Y-90341488D01*
X149511579Y-91320987D02*
X149499283Y-91333283D01*
X147721283Y-88752717D02*
X147922808Y-88752717D01*
D39*
X147721283Y-88752717D02*
X147852098Y-88752717D01*
X147552764Y-87987855D02*
X149432755Y-87987855D01*
X146918717Y-88621902D02*
X147552764Y-87987855D01*
X146918717Y-89555283D02*
X146918717Y-88621902D01*
X149432755Y-87987855D02*
X150344900Y-88900000D01*
D38*
X147721283Y-88752717D02*
X147781388Y-88752717D01*
D37*
X146918717Y-90785271D02*
X146766225Y-90937763D01*
X146918717Y-89555283D02*
X146918717Y-90785271D01*
D39*
X151140054Y-92291500D02*
X152400000Y-92291500D01*
X149630008Y-93801546D02*
X151140054Y-92291500D01*
X150474717Y-91333283D02*
X150876000Y-90932000D01*
X149499283Y-91333283D02*
X150474717Y-91333283D01*
X148590000Y-90424000D02*
X148696717Y-90530717D01*
X148057806Y-90424000D02*
X148590000Y-90424000D01*
X147155134Y-91326672D02*
X148057806Y-90424000D01*
D37*
X144576062Y-88747600D02*
X146766225Y-90937763D01*
D38*
X146892786Y-92296126D02*
X147508687Y-91680225D01*
X146892786Y-96235604D02*
X146892786Y-92296126D01*
X148447182Y-97790000D02*
X146892786Y-96235604D01*
X149225000Y-97790000D02*
X148447182Y-97790000D01*
X147292786Y-92603234D02*
X147862241Y-92033779D01*
X147292786Y-94587786D02*
X147292786Y-92603234D01*
X149225000Y-96520000D02*
X147292786Y-94587786D01*
X127044161Y-97212600D02*
X127113400Y-97212600D01*
X126194161Y-98062600D02*
X127044161Y-97212600D01*
X125763400Y-98062600D02*
X126194161Y-98062600D01*
D39*
X156658500Y-92964000D02*
X156718000Y-92904500D01*
X155702000Y-92964000D02*
X156658500Y-92964000D01*
X155575000Y-98425000D02*
X155253500Y-98425000D01*
X155575000Y-97409000D02*
X155253500Y-97409000D01*
X156083000Y-97917000D02*
X155575000Y-98425000D01*
X156083000Y-97917000D02*
X155575000Y-97409000D01*
X154919717Y-94508283D02*
X154940000Y-94488000D01*
X153055283Y-94508283D02*
X154919717Y-94508283D01*
X151397775Y-95569313D02*
X152252717Y-94714371D01*
D37*
X137371900Y-98860300D02*
X137371900Y-98145600D01*
X137371900Y-98145600D02*
X137371900Y-96875600D01*
X152265013Y-93693421D02*
X152252717Y-93705717D01*
X156371921Y-93693421D02*
X152265013Y-93693421D01*
X137371900Y-96875600D02*
X138176738Y-96875600D01*
X146050000Y-105604500D02*
X146050000Y-105053662D01*
X134124200Y-102108000D02*
X137371900Y-98860300D01*
X156600000Y-95885000D02*
X156600000Y-94157500D01*
D39*
X152252717Y-94714371D02*
X152252717Y-93705717D01*
D37*
X144551400Y-104774262D02*
X144114575Y-104337437D01*
X144551400Y-105604500D02*
X144551400Y-104774262D01*
X138176738Y-96875600D02*
X138740563Y-96311775D01*
X156718000Y-94039500D02*
X156371921Y-93693421D01*
X146050000Y-105053662D02*
X146766225Y-104337437D01*
X144551400Y-105604500D02*
X146050000Y-105604500D01*
X156600000Y-94157500D02*
X156718000Y-94039500D01*
X136287700Y-95046800D02*
X136287700Y-98094800D01*
D39*
X153055283Y-94618911D02*
X153055283Y-94508283D01*
D37*
X148784500Y-106908600D02*
X148615400Y-106739500D01*
D39*
X151751328Y-95922866D02*
X153055283Y-94618911D01*
D37*
X148615400Y-106739500D02*
X144551400Y-106739500D01*
X136287700Y-98094800D02*
X136236900Y-98145600D01*
D39*
X138253406Y-95046800D02*
X139129472Y-95922866D01*
X137422700Y-95046800D02*
X138253406Y-95046800D01*
X149780912Y-105867200D02*
X147508687Y-103594975D01*
D38*
X158877000Y-101834000D02*
X158913700Y-101834000D01*
X158913700Y-101834000D02*
X160731200Y-100016500D01*
X156486100Y-99334000D02*
X158877000Y-99334000D01*
X155549600Y-100270500D02*
X156486100Y-99334000D01*
D39*
X149225000Y-99314000D02*
X149225000Y-99654434D01*
X129286000Y-94183200D02*
X129489200Y-94183200D01*
X149225000Y-99654434D02*
X150337114Y-100766548D01*
X129489200Y-94183200D02*
X130048000Y-94742000D01*
X151044221Y-100059441D02*
X151663677Y-100678895D01*
D37*
X154550000Y-95885000D02*
X154118500Y-96316500D01*
D39*
X151663677Y-100678895D02*
X152432105Y-100678895D01*
X152432105Y-100678895D02*
X154118500Y-98992500D01*
D37*
X154118500Y-96316500D02*
X154118500Y-98425000D01*
D39*
X154118500Y-98992500D02*
X154118500Y-98425000D01*
M02*
