G04 #@! TF.GenerationSoftware,KiCad,Pcbnew,9.0.1*
G04 #@! TF.CreationDate,2025-04-14T20:27:34+02:00*
G04 #@! TF.ProjectId,USB2CANv2,55534232-4341-44e7-9632-2e6b69636164,0_2*
G04 #@! TF.SameCoordinates,Original*
G04 #@! TF.FileFunction,Soldermask,Top*
G04 #@! TF.FilePolarity,Negative*
%FSLAX46Y46*%
G04 Gerber Fmt 4.6, Leading zero omitted, Abs format (unit mm)*
G04 Created by KiCad (PCBNEW 9.0.1) date 2025-04-14 20:27:34*
%MOMM*%
%LPD*%
G01*
G04 APERTURE LIST*
G04 Aperture macros list*
%AMRoundRect*
0 Rectangle with rounded corners*
0 $1 Rounding radius*
0 $2 $3 $4 $5 $6 $7 $8 $9 X,Y pos of 4 corners*
0 Add a 4 corners polygon primitive as box body*
4,1,4,$2,$3,$4,$5,$6,$7,$8,$9,$2,$3,0*
0 Add four circle primitives for the rounded corners*
1,1,$1+$1,$2,$3*
1,1,$1+$1,$4,$5*
1,1,$1+$1,$6,$7*
1,1,$1+$1,$8,$9*
0 Add four rect primitives between the rounded corners*
20,1,$1+$1,$2,$3,$4,$5,0*
20,1,$1+$1,$4,$5,$6,$7,0*
20,1,$1+$1,$6,$7,$8,$9,0*
20,1,$1+$1,$8,$9,$2,$3,0*%
G04 Aperture macros list end*
%ADD10RoundRect,0.155000X-0.212500X-0.155000X0.212500X-0.155000X0.212500X0.155000X-0.212500X0.155000X0*%
%ADD11RoundRect,0.160000X-0.160000X0.197500X-0.160000X-0.197500X0.160000X-0.197500X0.160000X0.197500X0*%
%ADD12RoundRect,0.250000X-0.325000X-0.450000X0.325000X-0.450000X0.325000X0.450000X-0.325000X0.450000X0*%
%ADD13C,2.100000*%
%ADD14RoundRect,0.155000X0.155000X-0.212500X0.155000X0.212500X-0.155000X0.212500X-0.155000X-0.212500X0*%
%ADD15RoundRect,0.200000X0.200000X0.275000X-0.200000X0.275000X-0.200000X-0.275000X0.200000X-0.275000X0*%
%ADD16RoundRect,0.243750X-0.243750X-0.456250X0.243750X-0.456250X0.243750X0.456250X-0.243750X0.456250X0*%
%ADD17RoundRect,0.381000X2.119000X0.381000X-2.119000X0.381000X-2.119000X-0.381000X2.119000X-0.381000X0*%
%ADD18R,0.500000X0.375000*%
%ADD19R,0.650000X0.300000*%
%ADD20R,2.400000X2.000000*%
%ADD21R,1.800000X1.000000*%
%ADD22C,0.700000*%
%ADD23O,2.400000X0.900000*%
%ADD24O,1.700000X0.900000*%
%ADD25R,1.700000X1.700000*%
%ADD26O,1.700000X1.700000*%
%ADD27RoundRect,0.155000X-0.155000X0.212500X-0.155000X-0.212500X0.155000X-0.212500X0.155000X0.212500X0*%
%ADD28RoundRect,0.075000X0.548008X-0.441942X-0.441942X0.548008X-0.548008X0.441942X0.441942X-0.548008X0*%
%ADD29RoundRect,0.075000X0.548008X0.441942X0.441942X0.548008X-0.548008X-0.441942X-0.441942X-0.548008X0*%
%ADD30RoundRect,0.155000X0.212500X0.155000X-0.212500X0.155000X-0.212500X-0.155000X0.212500X-0.155000X0*%
%ADD31RoundRect,0.155000X-0.259862X0.040659X0.040659X-0.259862X0.259862X-0.040659X-0.040659X0.259862X0*%
%ADD32RoundRect,0.200000X-0.200000X-0.275000X0.200000X-0.275000X0.200000X0.275000X-0.200000X0.275000X0*%
%ADD33C,1.700000*%
%ADD34RoundRect,0.155000X-0.040659X-0.259862X0.259862X0.040659X0.040659X0.259862X-0.259862X-0.040659X0*%
%ADD35RoundRect,0.243750X0.243750X0.456250X-0.243750X0.456250X-0.243750X-0.456250X0.243750X-0.456250X0*%
%ADD36C,0.500000*%
G04 APERTURE END LIST*
D10*
X154118500Y-98425000D03*
X155253500Y-98425000D03*
D11*
X139700000Y-105955500D03*
X139700000Y-107150500D03*
D12*
X154550000Y-95885000D03*
X156600000Y-95885000D03*
D13*
X129692400Y-105257600D03*
X164591835Y-89984543D03*
D14*
X156718000Y-94039500D03*
X156718000Y-92904500D03*
D11*
X139670000Y-89142500D03*
X139670000Y-90337500D03*
D15*
X131635000Y-99314000D03*
X129985000Y-99314000D03*
X131635000Y-96774000D03*
X129985000Y-96774000D03*
D16*
X141162500Y-88870000D03*
X143037500Y-88870000D03*
X141048500Y-106679999D03*
X142923500Y-106679999D03*
D17*
X164338000Y-100330000D03*
X164338000Y-97790000D03*
X164338000Y-95250000D03*
D18*
X134708000Y-98327500D03*
D19*
X134783000Y-97790000D03*
D18*
X134708000Y-97252500D03*
X133008000Y-97252500D03*
D19*
X132933000Y-97790000D03*
D18*
X133008000Y-98327500D03*
D20*
X156600000Y-104250000D03*
X156600000Y-100550000D03*
D21*
X152000000Y-106950000D03*
X152000000Y-104450000D03*
D11*
X152400000Y-91096500D03*
X152400000Y-92291500D03*
D22*
X127113400Y-94662600D03*
X127113400Y-95512600D03*
X127113400Y-96362600D03*
X127113400Y-97212600D03*
X127113400Y-98062600D03*
X127113400Y-98912600D03*
X127113400Y-99762600D03*
X127113400Y-100612600D03*
X125763400Y-100612600D03*
X125763400Y-99762600D03*
X125763400Y-98912600D03*
X125763400Y-98062600D03*
X125763400Y-97212600D03*
X125763400Y-96362600D03*
X125763400Y-95512600D03*
X125763400Y-94662600D03*
D23*
X126133400Y-93312600D03*
D24*
X122753400Y-93312600D03*
D23*
X126133400Y-101962600D03*
D24*
X122753400Y-101962600D03*
D25*
X136403000Y-89255600D03*
D26*
X133863000Y-89255600D03*
D27*
X154100000Y-100432500D03*
X154100000Y-101567500D03*
D28*
X146801581Y-104302081D03*
X147155134Y-103948528D03*
X147508687Y-103594975D03*
X147862241Y-103241421D03*
X148215794Y-102887868D03*
X148569348Y-102534314D03*
X148922901Y-102180761D03*
X149276454Y-101827208D03*
X149630008Y-101473654D03*
X149983561Y-101120101D03*
X150337114Y-100766548D03*
X150690668Y-100412994D03*
X151044221Y-100059441D03*
X151397775Y-99705887D03*
X151751328Y-99352334D03*
X152104881Y-98998781D03*
D29*
X152104881Y-96276419D03*
X151751328Y-95922866D03*
X151397775Y-95569313D03*
X151044221Y-95215759D03*
X150690668Y-94862206D03*
X150337114Y-94508652D03*
X149983561Y-94155099D03*
X149630008Y-93801546D03*
X149276454Y-93447992D03*
X148922901Y-93094439D03*
X148569348Y-92740886D03*
X148215794Y-92387332D03*
X147862241Y-92033779D03*
X147508687Y-91680225D03*
X147155134Y-91326672D03*
X146801581Y-90973119D03*
D28*
X144079219Y-90973119D03*
X143725666Y-91326672D03*
X143372113Y-91680225D03*
X143018559Y-92033779D03*
X142665006Y-92387332D03*
X142311452Y-92740886D03*
X141957899Y-93094439D03*
X141604346Y-93447992D03*
X141250792Y-93801546D03*
X140897239Y-94155099D03*
X140543686Y-94508652D03*
X140190132Y-94862206D03*
X139836579Y-95215759D03*
X139483025Y-95569313D03*
X139129472Y-95922866D03*
X138775919Y-96276419D03*
D29*
X138775919Y-98998781D03*
X139129472Y-99352334D03*
X139483025Y-99705887D03*
X139836579Y-100059441D03*
X140190132Y-100412994D03*
X140543686Y-100766548D03*
X140897239Y-101120101D03*
X141250792Y-101473654D03*
X141604346Y-101827208D03*
X141957899Y-102180761D03*
X142311452Y-102534314D03*
X142665006Y-102887868D03*
X143018559Y-103241421D03*
X143372113Y-103594975D03*
X143725666Y-103948528D03*
X144079219Y-104302081D03*
D30*
X137371900Y-98145600D03*
X136236900Y-98145600D03*
D13*
X164589596Y-105258080D03*
D31*
X152252717Y-93705717D03*
X153055283Y-94508283D03*
D30*
X137422700Y-95046800D03*
X136287700Y-95046800D03*
D31*
X148696717Y-90530717D03*
X149499283Y-91333283D03*
D16*
X133174500Y-92202000D03*
X135049500Y-92202000D03*
D13*
X129692400Y-90017600D03*
D32*
X132474200Y-102108000D03*
X134124200Y-102108000D03*
D14*
X154100000Y-103767500D03*
X154100000Y-102632500D03*
D31*
X148298717Y-105098717D03*
X149101283Y-105901283D03*
D25*
X158512000Y-89154000D03*
D33*
X161052000Y-89154000D03*
D10*
X154118500Y-97409000D03*
X155253500Y-97409000D03*
D30*
X137371900Y-96875600D03*
X136236900Y-96875600D03*
D27*
X146050000Y-105604500D03*
X146050000Y-106739500D03*
X144551400Y-105604500D03*
X144551400Y-106739500D03*
D34*
X150698717Y-102601283D03*
X151501283Y-101798717D03*
D25*
X136403000Y-106019600D03*
D26*
X133863000Y-106019600D03*
D35*
X152219900Y-88900000D03*
X150344900Y-88900000D03*
D31*
X148998717Y-104398717D03*
X149801283Y-105201283D03*
D11*
X129286000Y-92988200D03*
X129286000Y-94183200D03*
D34*
X146918717Y-89555283D03*
X147721283Y-88752717D03*
D36*
X138320000Y-97500000D03*
X132080000Y-104140000D03*
X160020000Y-104140000D03*
X155702000Y-92964000D03*
X150876000Y-90932000D03*
X129413000Y-95123000D03*
X134393177Y-93475964D03*
X159299250Y-90799250D03*
X124460000Y-96520000D03*
X145375108Y-91880058D03*
X134707626Y-95870788D03*
X160020000Y-101600000D03*
X156083000Y-97917000D03*
X154940000Y-94488000D03*
X132080000Y-91440000D03*
X154940000Y-102870000D03*
X147114856Y-106045468D03*
X121920000Y-99060000D03*
X132080000Y-106680000D03*
X145465802Y-103619637D03*
X160020000Y-99060000D03*
X142708022Y-94930893D03*
X150540002Y-105800000D03*
X140970000Y-91440000D03*
X134620000Y-104140000D03*
X156972000Y-90869242D03*
X154305000Y-91531500D03*
X137569919Y-103813068D03*
X147066000Y-99732741D03*
X154940000Y-106680000D03*
X132080000Y-88900000D03*
X144463503Y-99822000D03*
X162560000Y-106680000D03*
X142494000Y-90424000D03*
X127000000Y-91440000D03*
X121920000Y-96520000D03*
X144870000Y-101690000D03*
X129032000Y-100330000D03*
X136361189Y-99023189D03*
X152146000Y-101346000D03*
X162560000Y-104140000D03*
X137351503Y-91694000D03*
X160020000Y-92710000D03*
X141275602Y-97246500D03*
X138416348Y-98142317D03*
X160020000Y-106680000D03*
X148212425Y-99255200D03*
X160020000Y-96520000D03*
X134112000Y-95504000D03*
X156460041Y-90468741D03*
X128778000Y-95504000D03*
X147528621Y-105544168D03*
X133701000Y-93375000D03*
X158374985Y-90869242D03*
X128270000Y-99822000D03*
X145288000Y-91186000D03*
X143764000Y-99822000D03*
X149225000Y-96520000D03*
X149514355Y-97571356D03*
X136652000Y-91694000D03*
X148609695Y-99833114D03*
X137160000Y-104394000D03*
X147066000Y-100432244D03*
X149225000Y-99314000D03*
X130048000Y-94742000D03*
X140716000Y-96647000D03*
X154855457Y-90926707D03*
X155156871Y-92131274D03*
X141519717Y-97902023D03*
X142367000Y-95547500D03*
X143406173Y-94974357D03*
X144117500Y-101796205D03*
X145440000Y-102120000D03*
X160512000Y-90869242D03*
M02*
