M48
; DRILL file {KiCad 9.0.1} date 2025-04-14T20:27:41+0200
; FORMAT={-:-/ absolute / metric / decimal}
; #@! TF.CreationDate,2025-04-14T20:27:41+02:00
; #@! TF.GenerationSoftware,Kicad,Pcbnew,9.0.1
; #@! TF.FileFunction,Plated,1,4,PTH
FMAT,2
METRIC
; #@! TA.AperFunction,Plated,PTH,ViaDrill
T1C0.300
; #@! TA.AperFunction,Plated,PTH,ComponentDrill
T2C0.400
; #@! TA.AperFunction,Plated,PTH,ComponentDrill
T3C0.600
; #@! TA.AperFunction,Plated,PTH,ComponentDrill
T4C1.000
%
G90
G05
T1
X121.92Y-96.52
X121.92Y-99.06
X124.46Y-96.52
X127.0Y-91.44
X128.27Y-99.822
X128.778Y-95.504
X129.032Y-100.33
X129.413Y-95.123
X130.048Y-94.742
X132.08Y-88.9
X132.08Y-91.44
X132.08Y-104.14
X132.08Y-106.68
X133.701Y-93.375
X134.112Y-95.504
X134.393Y-93.476
X134.62Y-104.14
X134.708Y-95.871
X136.361Y-99.023
X136.652Y-91.694
X137.16Y-104.394
X137.352Y-91.694
X137.57Y-103.813
X138.32Y-97.5
X138.416Y-98.142
X140.716Y-96.647
X140.97Y-91.44
X141.276Y-97.246
X141.52Y-97.902
X142.367Y-95.547
X142.494Y-90.424
X142.708Y-94.931
X143.406Y-94.974
X143.764Y-99.822
X144.118Y-101.796
X144.464Y-99.822
X144.87Y-101.69
X145.288Y-91.186
X145.375Y-91.88
X145.44Y-102.12
X145.466Y-103.62
X147.066Y-99.733
X147.066Y-100.432
X147.115Y-106.045
X147.529Y-105.544
X148.212Y-99.255
X148.61Y-99.833
X149.225Y-96.52
X149.225Y-99.314
X149.514Y-97.571
X150.54Y-105.8
X150.876Y-90.932
X152.146Y-101.346
X154.305Y-91.531
X154.855Y-90.927
X154.94Y-94.488
X154.94Y-102.87
X154.94Y-106.68
X155.157Y-92.131
X155.702Y-92.964
X156.083Y-97.917
X156.46Y-90.469
X156.972Y-90.869
X158.375Y-90.869
X159.299Y-90.799
X160.02Y-92.71
X160.02Y-96.52
X160.02Y-99.06
X160.02Y-101.6
X160.02Y-104.14
X160.02Y-106.68
X160.512Y-90.869
X162.56Y-104.14
X162.56Y-106.68
T2
X125.763Y-94.663
X125.763Y-95.513
X125.763Y-96.363
X125.763Y-97.213
X125.763Y-98.063
X125.763Y-98.913
X125.763Y-99.763
X125.763Y-100.613
X127.113Y-94.663
X127.113Y-95.513
X127.113Y-96.363
X127.113Y-97.213
X127.113Y-98.063
X127.113Y-98.913
X127.113Y-99.763
X127.113Y-100.613
T4
X133.863Y-89.256
X133.863Y-106.02
X136.403Y-89.256
X136.403Y-106.02
X158.512Y-89.154
X161.052Y-89.154
T3
G00X123.153Y-93.313
M15
G01X122.353Y-93.313
M16
G05
G00X123.153Y-101.963
M15
G01X122.353Y-101.963
M16
G05
G00X126.883Y-93.313
M15
G01X125.383Y-93.313
M16
G05
G00X126.883Y-101.963
M15
G01X125.383Y-101.963
M16
G05
M30
