G04 #@! TF.GenerationSoftware,KiCad,Pcbnew,7.0.6*
G04 #@! TF.CreationDate,2024-02-06T23:19:41+01:00*
G04 #@! TF.ProjectId,USB2CANv2,55534232-4341-44e7-9632-2e6b69636164,0_2*
G04 #@! TF.SameCoordinates,Original*
G04 #@! TF.FileFunction,Copper,L2,Inr*
G04 #@! TF.FilePolarity,Positive*
%FSLAX46Y46*%
G04 Gerber Fmt 4.6, Leading zero omitted, Abs format (unit mm)*
G04 Created by KiCad (PCBNEW 7.0.6) date 2024-02-06 23:19:41*
%MOMM*%
%LPD*%
G01*
G04 APERTURE LIST*
G04 #@! TA.AperFunction,ComponentPad*
%ADD10O,1.350000X1.350000*%
G04 #@! TD*
G04 #@! TA.AperFunction,ComponentPad*
%ADD11R,1.350000X1.350000*%
G04 #@! TD*
G04 #@! TA.AperFunction,ComponentPad*
%ADD12R,1.700000X1.700000*%
G04 #@! TD*
G04 #@! TA.AperFunction,ComponentPad*
%ADD13O,1.700000X1.700000*%
G04 #@! TD*
G04 #@! TA.AperFunction,ComponentPad*
%ADD14C,0.700000*%
G04 #@! TD*
G04 #@! TA.AperFunction,ComponentPad*
%ADD15O,1.700000X0.900000*%
G04 #@! TD*
G04 #@! TA.AperFunction,ComponentPad*
%ADD16O,2.400000X0.900000*%
G04 #@! TD*
G04 #@! TA.AperFunction,ViaPad*
%ADD17C,0.500000*%
G04 #@! TD*
G04 #@! TA.AperFunction,Conductor*
%ADD18C,0.400000*%
G04 #@! TD*
G04 APERTURE END LIST*
D10*
X160512000Y-89154000D03*
D11*
X158512000Y-89154000D03*
D12*
X136403000Y-89255600D03*
D13*
X133863000Y-89255600D03*
D14*
X127113400Y-94662600D03*
X127113400Y-95512600D03*
X127113400Y-96362600D03*
X127113400Y-97212600D03*
X127113400Y-98062600D03*
X127113400Y-98912600D03*
X127113400Y-99762600D03*
X127113400Y-100612600D03*
X125763400Y-100612600D03*
X125763400Y-99762600D03*
X125763400Y-98912600D03*
X125763400Y-98062600D03*
X125763400Y-97212600D03*
X125763400Y-96362600D03*
X125763400Y-95512600D03*
X125763400Y-94662600D03*
D15*
X122753400Y-101962600D03*
X122753400Y-93312600D03*
D16*
X126133400Y-101962600D03*
X126133400Y-93312600D03*
D12*
X136403000Y-106019600D03*
D13*
X133863000Y-106019600D03*
D17*
X158597600Y-90195400D03*
X157903368Y-90281104D03*
X159766000Y-90332500D03*
X160512000Y-90449400D03*
X157327600Y-89814400D03*
X157220000Y-101220000D03*
X138416348Y-98142317D03*
X138320000Y-97500000D03*
X136361189Y-99023189D03*
X152146000Y-101346000D03*
X156464000Y-103886000D03*
X147066000Y-99732741D03*
X148212425Y-99255200D03*
X147066000Y-100432244D03*
X148609695Y-99833114D03*
X145375108Y-91880058D03*
X148590000Y-97155000D03*
X149225000Y-96520000D03*
X149225000Y-97790000D03*
X128270000Y-99822000D03*
X129032000Y-100330000D03*
X128778000Y-95504000D03*
X156083000Y-97917000D03*
X155702000Y-92964000D03*
X154940000Y-94488000D03*
X140970000Y-91440000D03*
X142494000Y-90424000D03*
X150876000Y-90932000D03*
X129413000Y-95123000D03*
X134393177Y-93475964D03*
X134707626Y-95870788D03*
X147580000Y-105650000D03*
X145465802Y-103619637D03*
X142708022Y-94930893D03*
X154620000Y-91531500D03*
X137569919Y-103813068D03*
X144463503Y-99822000D03*
X144870000Y-101690000D03*
X137351503Y-91694000D03*
X141275602Y-97246500D03*
X134112000Y-95504000D03*
X148093000Y-105167000D03*
X133701000Y-93375000D03*
X145288000Y-91186000D03*
X143764000Y-99822000D03*
X136652000Y-91694000D03*
X137160000Y-104394000D03*
X149225000Y-99314000D03*
X130048000Y-94742000D03*
X140716000Y-96647000D03*
X155194000Y-90932000D03*
X155267903Y-92020242D03*
X141519717Y-97902023D03*
X142367000Y-95547500D03*
X143406173Y-94974357D03*
X144117500Y-101796205D03*
X145440000Y-102120000D03*
D18*
X160512000Y-90449400D02*
X160512000Y-89154000D01*
G04 #@! TA.AperFunction,Conductor*
G36*
X164537738Y-87479647D02*
G01*
X164537750Y-87479651D01*
X164587856Y-87479651D01*
X164591332Y-87479749D01*
X164625100Y-87481644D01*
X164705077Y-87486135D01*
X164877312Y-87496555D01*
X164883913Y-87497313D01*
X165019754Y-87520393D01*
X165168853Y-87547717D01*
X165174831Y-87549121D01*
X165311475Y-87588488D01*
X165452479Y-87632427D01*
X165457719Y-87634324D01*
X165590850Y-87689467D01*
X165705482Y-87741059D01*
X165724297Y-87749527D01*
X165728836Y-87751798D01*
X165855843Y-87821991D01*
X165980667Y-87897450D01*
X165984452Y-87899931D01*
X166102122Y-87983421D01*
X166104458Y-87985163D01*
X166184733Y-88048055D01*
X166218110Y-88074204D01*
X166221187Y-88076780D01*
X166328817Y-88172962D01*
X166331345Y-88175352D01*
X166433447Y-88277454D01*
X166435819Y-88279964D01*
X166531907Y-88387485D01*
X166534484Y-88390563D01*
X166623710Y-88504451D01*
X166625469Y-88506809D01*
X166708708Y-88624119D01*
X166711199Y-88627919D01*
X166774098Y-88731966D01*
X166787013Y-88753329D01*
X166806354Y-88788322D01*
X166856831Y-88879651D01*
X166859106Y-88884198D01*
X166919663Y-89018749D01*
X166974309Y-89150671D01*
X166976222Y-89155956D01*
X167020758Y-89298876D01*
X167059549Y-89433518D01*
X167060958Y-89439510D01*
X167088957Y-89592289D01*
X167111403Y-89724388D01*
X167112167Y-89731035D01*
X167123322Y-89915434D01*
X167128998Y-90016485D01*
X167129096Y-90019963D01*
X167129096Y-105256338D01*
X167128998Y-105259815D01*
X167122619Y-105373411D01*
X167112194Y-105545770D01*
X167111430Y-105552416D01*
X167088366Y-105688169D01*
X167061026Y-105837349D01*
X167059618Y-105843340D01*
X167020294Y-105979842D01*
X166976318Y-106120967D01*
X166974405Y-106126251D01*
X166919310Y-106259264D01*
X166859210Y-106392799D01*
X166856936Y-106397345D01*
X166786772Y-106524299D01*
X166711299Y-106649145D01*
X166708805Y-106652948D01*
X166625314Y-106770618D01*
X166623555Y-106772977D01*
X166534571Y-106886557D01*
X166531995Y-106889635D01*
X166435725Y-106997361D01*
X166433335Y-106999888D01*
X166331391Y-107101833D01*
X166328864Y-107104222D01*
X166221176Y-107200459D01*
X166218097Y-107203036D01*
X166104422Y-107292094D01*
X166102063Y-107293853D01*
X165984519Y-107377256D01*
X165980715Y-107379750D01*
X165855692Y-107455331D01*
X165728933Y-107525387D01*
X165724387Y-107527662D01*
X165590519Y-107587912D01*
X165457871Y-107642856D01*
X165452588Y-107644769D01*
X165369877Y-107670543D01*
X165310845Y-107688938D01*
X165294611Y-107693615D01*
X165174975Y-107728080D01*
X165168985Y-107729488D01*
X165018683Y-107757033D01*
X164884061Y-107779906D01*
X164877414Y-107780670D01*
X164701447Y-107791314D01*
X164591612Y-107797482D01*
X164588137Y-107797580D01*
X129694187Y-107799129D01*
X129690619Y-107799027D01*
X129579601Y-107792633D01*
X129405417Y-107781829D01*
X129396980Y-107781305D01*
X129390167Y-107780503D01*
X129252826Y-107756562D01*
X129097993Y-107727448D01*
X129091858Y-107725968D01*
X128953182Y-107684943D01*
X128807605Y-107638349D01*
X128802204Y-107636339D01*
X128666989Y-107578741D01*
X128529941Y-107515278D01*
X128525306Y-107512890D01*
X128396461Y-107439503D01*
X128268933Y-107359980D01*
X128265070Y-107357364D01*
X128146070Y-107270086D01*
X128143681Y-107268243D01*
X128028289Y-107174648D01*
X128025193Y-107171962D01*
X127916816Y-107071431D01*
X127914290Y-107068949D01*
X127811433Y-106961896D01*
X127809052Y-106959271D01*
X127773278Y-106917472D01*
X127712932Y-106846961D01*
X127710364Y-106843751D01*
X127657504Y-106772977D01*
X127621460Y-106724716D01*
X127619717Y-106722260D01*
X127537263Y-106599862D01*
X127534804Y-106595898D01*
X127513556Y-106558580D01*
X127460437Y-106465285D01*
X127425259Y-106397345D01*
X127392260Y-106333613D01*
X127390066Y-106328899D01*
X127360668Y-106258125D01*
X127332128Y-106189416D01*
X127279979Y-106052005D01*
X127278197Y-106046561D01*
X127237460Y-105899247D01*
X127201997Y-105758995D01*
X127200766Y-105752820D01*
X127177859Y-105596909D01*
X127159429Y-105458740D01*
X127158904Y-105451953D01*
X127154881Y-105268909D01*
X127154682Y-105257601D01*
X128386932Y-105257601D01*
X128406764Y-105484286D01*
X128406766Y-105484297D01*
X128465658Y-105704088D01*
X128465661Y-105704097D01*
X128561831Y-105910332D01*
X128561832Y-105910334D01*
X128692354Y-106096741D01*
X128853258Y-106257645D01*
X128855570Y-106259264D01*
X129039666Y-106388168D01*
X129245904Y-106484339D01*
X129245909Y-106484340D01*
X129245911Y-106484341D01*
X129262967Y-106488911D01*
X129465708Y-106543235D01*
X129635616Y-106558100D01*
X129749184Y-106558100D01*
X129919092Y-106543235D01*
X130138896Y-106484339D01*
X130345134Y-106388168D01*
X130531539Y-106257647D01*
X130692447Y-106096739D01*
X130746460Y-106019600D01*
X132507341Y-106019600D01*
X132527936Y-106255003D01*
X132527938Y-106255013D01*
X132589094Y-106483255D01*
X132589096Y-106483259D01*
X132589097Y-106483263D01*
X132624218Y-106558580D01*
X132688965Y-106697430D01*
X132688967Y-106697434D01*
X132758275Y-106796415D01*
X132824505Y-106891001D01*
X132991599Y-107058095D01*
X133086708Y-107124691D01*
X133185165Y-107193632D01*
X133185167Y-107193633D01*
X133185170Y-107193635D01*
X133399337Y-107293503D01*
X133627592Y-107354663D01*
X133804034Y-107370100D01*
X133862999Y-107375259D01*
X133863000Y-107375259D01*
X133863001Y-107375259D01*
X133921966Y-107370100D01*
X134098408Y-107354663D01*
X134326663Y-107293503D01*
X134540830Y-107193635D01*
X134734401Y-107058095D01*
X134856329Y-106936166D01*
X134917648Y-106902684D01*
X134987340Y-106907668D01*
X135043274Y-106949539D01*
X135060189Y-106980517D01*
X135109202Y-107111928D01*
X135109206Y-107111935D01*
X135195452Y-107227144D01*
X135195455Y-107227147D01*
X135310664Y-107313393D01*
X135310671Y-107313397D01*
X135445517Y-107363691D01*
X135445516Y-107363691D01*
X135452444Y-107364435D01*
X135505127Y-107370100D01*
X137300872Y-107370099D01*
X137360483Y-107363691D01*
X137495331Y-107313396D01*
X137610546Y-107227146D01*
X137696796Y-107111931D01*
X137747091Y-106977083D01*
X137753500Y-106917473D01*
X137753499Y-105650002D01*
X146824751Y-105650002D01*
X146843685Y-105818056D01*
X146899545Y-105977694D01*
X146899547Y-105977697D01*
X146989518Y-106120884D01*
X146989523Y-106120890D01*
X147109109Y-106240476D01*
X147109115Y-106240481D01*
X147252302Y-106330452D01*
X147252305Y-106330454D01*
X147252309Y-106330455D01*
X147252310Y-106330456D01*
X147261367Y-106333625D01*
X147411943Y-106386314D01*
X147579997Y-106405249D01*
X147580000Y-106405249D01*
X147580003Y-106405249D01*
X147748056Y-106386314D01*
X147748059Y-106386313D01*
X147907690Y-106330456D01*
X147907692Y-106330454D01*
X147907694Y-106330454D01*
X147907697Y-106330452D01*
X148050884Y-106240481D01*
X148050885Y-106240480D01*
X148050890Y-106240477D01*
X148170477Y-106120890D01*
X148170481Y-106120884D01*
X148260452Y-105977697D01*
X148260454Y-105977694D01*
X148260454Y-105977692D01*
X148260456Y-105977690D01*
X148316313Y-105818059D01*
X148316313Y-105818058D01*
X148316314Y-105818056D01*
X148335249Y-105650002D01*
X148335249Y-105649997D01*
X148316314Y-105481943D01*
X148278337Y-105373411D01*
X148260456Y-105322310D01*
X148260455Y-105322309D01*
X148260454Y-105322305D01*
X148260452Y-105322302D01*
X148220099Y-105258081D01*
X163284128Y-105258081D01*
X163303960Y-105484766D01*
X163303962Y-105484777D01*
X163362854Y-105704568D01*
X163362857Y-105704577D01*
X163459027Y-105910812D01*
X163459028Y-105910814D01*
X163589550Y-106097221D01*
X163750454Y-106258125D01*
X163750457Y-106258127D01*
X163936862Y-106388648D01*
X164143100Y-106484819D01*
X164143105Y-106484820D01*
X164143107Y-106484821D01*
X164196011Y-106498996D01*
X164362904Y-106543715D01*
X164532812Y-106558580D01*
X164646380Y-106558580D01*
X164816288Y-106543715D01*
X165036092Y-106484819D01*
X165242330Y-106388648D01*
X165428735Y-106258127D01*
X165589643Y-106097219D01*
X165720164Y-105910814D01*
X165816335Y-105704576D01*
X165875231Y-105484772D01*
X165895064Y-105258080D01*
X165875231Y-105031388D01*
X165816461Y-104812054D01*
X165816337Y-104811591D01*
X165816334Y-104811582D01*
X165810299Y-104798639D01*
X165720164Y-104605346D01*
X165589643Y-104418941D01*
X165589641Y-104418938D01*
X165428737Y-104258034D01*
X165242330Y-104127512D01*
X165242328Y-104127511D01*
X165036093Y-104031341D01*
X165036084Y-104031338D01*
X164816293Y-103972446D01*
X164816283Y-103972444D01*
X164646380Y-103957580D01*
X164532812Y-103957580D01*
X164362908Y-103972444D01*
X164362898Y-103972446D01*
X164143107Y-104031338D01*
X164143098Y-104031341D01*
X163936863Y-104127511D01*
X163936861Y-104127512D01*
X163750454Y-104258034D01*
X163589550Y-104418938D01*
X163459028Y-104605345D01*
X163459027Y-104605347D01*
X163362857Y-104811582D01*
X163362854Y-104811591D01*
X163303962Y-105031382D01*
X163303960Y-105031393D01*
X163284128Y-105258078D01*
X163284128Y-105258081D01*
X148220099Y-105258081D01*
X148170481Y-105179115D01*
X148170476Y-105179109D01*
X148050890Y-105059523D01*
X148050884Y-105059518D01*
X147907697Y-104969547D01*
X147907694Y-104969545D01*
X147748056Y-104913685D01*
X147580003Y-104894751D01*
X147579997Y-104894751D01*
X147411943Y-104913685D01*
X147252305Y-104969545D01*
X147252302Y-104969547D01*
X147109115Y-105059518D01*
X147109109Y-105059523D01*
X146989523Y-105179109D01*
X146989518Y-105179115D01*
X146899547Y-105322302D01*
X146899545Y-105322305D01*
X146843685Y-105481943D01*
X146824751Y-105649997D01*
X146824751Y-105650002D01*
X137753499Y-105650002D01*
X137753499Y-105121728D01*
X137747091Y-105062117D01*
X137722280Y-104995597D01*
X137717297Y-104925908D01*
X137747185Y-104871171D01*
X137746136Y-104870334D01*
X137750476Y-104864891D01*
X137762619Y-104845567D01*
X137840456Y-104721690D01*
X137896313Y-104562059D01*
X137897837Y-104548523D01*
X137924899Y-104484110D01*
X137955085Y-104457408D01*
X138040809Y-104403545D01*
X138160396Y-104283958D01*
X138176987Y-104257554D01*
X138250371Y-104140765D01*
X138250373Y-104140762D01*
X138250373Y-104140760D01*
X138250375Y-104140758D01*
X138306232Y-103981127D01*
X138306232Y-103981126D01*
X138306233Y-103981124D01*
X138325168Y-103813070D01*
X138325168Y-103813065D01*
X138306233Y-103645011D01*
X138255762Y-103500773D01*
X138250375Y-103485378D01*
X138250374Y-103485377D01*
X138250373Y-103485373D01*
X138250371Y-103485370D01*
X138160400Y-103342183D01*
X138160395Y-103342177D01*
X138040809Y-103222591D01*
X138040803Y-103222586D01*
X137897616Y-103132615D01*
X137897613Y-103132613D01*
X137737975Y-103076753D01*
X137569922Y-103057819D01*
X137569916Y-103057819D01*
X137401862Y-103076753D01*
X137242224Y-103132613D01*
X137242221Y-103132615D01*
X137099034Y-103222586D01*
X137099028Y-103222591D01*
X136979442Y-103342177D01*
X136979437Y-103342183D01*
X136889466Y-103485370D01*
X136889463Y-103485375D01*
X136833604Y-103645013D01*
X136832079Y-103658553D01*
X136805010Y-103722966D01*
X136774832Y-103749658D01*
X136689113Y-103803520D01*
X136689111Y-103803521D01*
X136569523Y-103923109D01*
X136569518Y-103923115D01*
X136479547Y-104066302D01*
X136479545Y-104066305D01*
X136423685Y-104225943D01*
X136404751Y-104393997D01*
X136404751Y-104394003D01*
X136420211Y-104531217D01*
X136408156Y-104600038D01*
X136360807Y-104651418D01*
X136296991Y-104669100D01*
X135505129Y-104669100D01*
X135505123Y-104669101D01*
X135445516Y-104675508D01*
X135310671Y-104725802D01*
X135310664Y-104725806D01*
X135195455Y-104812052D01*
X135195452Y-104812055D01*
X135109206Y-104927264D01*
X135109203Y-104927269D01*
X135060189Y-105058683D01*
X135018317Y-105114616D01*
X134952853Y-105139033D01*
X134884580Y-105124181D01*
X134856326Y-105103030D01*
X134734402Y-104981106D01*
X134734395Y-104981101D01*
X134717891Y-104969545D01*
X134695521Y-104953881D01*
X134540834Y-104845567D01*
X134540830Y-104845565D01*
X134475105Y-104814917D01*
X134326663Y-104745697D01*
X134326659Y-104745696D01*
X134326655Y-104745694D01*
X134098413Y-104684538D01*
X134098403Y-104684536D01*
X133863001Y-104663941D01*
X133862999Y-104663941D01*
X133627596Y-104684536D01*
X133627586Y-104684538D01*
X133399344Y-104745694D01*
X133399335Y-104745698D01*
X133185171Y-104845564D01*
X133185169Y-104845565D01*
X132991597Y-104981105D01*
X132824505Y-105148197D01*
X132688965Y-105341769D01*
X132688964Y-105341771D01*
X132589098Y-105555935D01*
X132589094Y-105555944D01*
X132527938Y-105784186D01*
X132527936Y-105784196D01*
X132507341Y-106019599D01*
X132507341Y-106019600D01*
X130746460Y-106019600D01*
X130822968Y-105910334D01*
X130919139Y-105704096D01*
X130978035Y-105484292D01*
X130997868Y-105257600D01*
X130978035Y-105030908D01*
X130928373Y-104845565D01*
X130919141Y-104811111D01*
X130919138Y-104811102D01*
X130888639Y-104745697D01*
X130822968Y-104604866D01*
X130719717Y-104457407D01*
X130692445Y-104418458D01*
X130531541Y-104257554D01*
X130345134Y-104127032D01*
X130345132Y-104127031D01*
X130138897Y-104030861D01*
X130138888Y-104030858D01*
X129919097Y-103971966D01*
X129919087Y-103971964D01*
X129749184Y-103957100D01*
X129635616Y-103957100D01*
X129465712Y-103971964D01*
X129465702Y-103971966D01*
X129245911Y-104030858D01*
X129245902Y-104030861D01*
X129039667Y-104127031D01*
X129039665Y-104127032D01*
X128853258Y-104257554D01*
X128692354Y-104418458D01*
X128561832Y-104604865D01*
X128561831Y-104604867D01*
X128465661Y-104811102D01*
X128465658Y-104811111D01*
X128406766Y-105030902D01*
X128406764Y-105030913D01*
X128386932Y-105257598D01*
X128386932Y-105257601D01*
X127154682Y-105257601D01*
X127153725Y-105203061D01*
X127155572Y-105196334D01*
X127153190Y-105166059D01*
X127153010Y-105162308D01*
X127152931Y-105157771D01*
X127152971Y-105154226D01*
X127154221Y-105122960D01*
X127152900Y-105107372D01*
X127152900Y-105036067D01*
X127152900Y-105036066D01*
X127135097Y-104912243D01*
X127135510Y-104909371D01*
X127134123Y-104903596D01*
X127133042Y-104897957D01*
X127131222Y-104885299D01*
X127130784Y-104881351D01*
X127125556Y-104814917D01*
X127119964Y-104802729D01*
X127103218Y-104745698D01*
X127077795Y-104659115D01*
X127077795Y-104655938D01*
X127075863Y-104651274D01*
X127073658Y-104645026D01*
X127065247Y-104616383D01*
X127064459Y-104613426D01*
X127054193Y-104570664D01*
X127047423Y-104560253D01*
X126984099Y-104421592D01*
X126983510Y-104417496D01*
X126980450Y-104412502D01*
X126976912Y-104405855D01*
X126971499Y-104394003D01*
X126951539Y-104350295D01*
X126951538Y-104350294D01*
X126951111Y-104349358D01*
X126948846Y-104344628D01*
X126946882Y-104339887D01*
X126939400Y-104331406D01*
X126863752Y-104213697D01*
X126856301Y-104202103D01*
X126854829Y-104197089D01*
X126850498Y-104192018D01*
X126845480Y-104185265D01*
X126821856Y-104148505D01*
X126817668Y-104143672D01*
X126806180Y-104127978D01*
X126798300Y-104121319D01*
X126697302Y-104004760D01*
X126694692Y-103999045D01*
X126692762Y-103997397D01*
X126679579Y-103984308D01*
X126664775Y-103967223D01*
X126647691Y-103952420D01*
X126634675Y-103939311D01*
X126627236Y-103934696D01*
X126571034Y-103885997D01*
X126510678Y-103833698D01*
X126506739Y-103827568D01*
X126504737Y-103826342D01*
X126488328Y-103814331D01*
X126483500Y-103810148D01*
X126483494Y-103810143D01*
X126448565Y-103787696D01*
X126446732Y-103786517D01*
X126439981Y-103781502D01*
X126436570Y-103778588D01*
X126429894Y-103775696D01*
X126300592Y-103692598D01*
X126295226Y-103686405D01*
X126287398Y-103683163D01*
X126282665Y-103680899D01*
X126226146Y-103655088D01*
X126219500Y-103651551D01*
X126215987Y-103649398D01*
X126210403Y-103647898D01*
X126125607Y-103609173D01*
X126071749Y-103584577D01*
X126064929Y-103578668D01*
X126018549Y-103567533D01*
X126015567Y-103566737D01*
X126004511Y-103563491D01*
X125986993Y-103558347D01*
X125980734Y-103556139D01*
X125977306Y-103554719D01*
X125972880Y-103554203D01*
X125829264Y-103512033D01*
X125821051Y-103506755D01*
X125750637Y-103501213D01*
X125746673Y-103500773D01*
X125734067Y-103498960D01*
X125728418Y-103497878D01*
X125723839Y-103496778D01*
X125719756Y-103496902D01*
X125595935Y-103479100D01*
X125595934Y-103479100D01*
X125476099Y-103479100D01*
X125476062Y-103479099D01*
X125472023Y-103479097D01*
X125467197Y-103478906D01*
X125442817Y-103476988D01*
X125431028Y-103479092D01*
X124710978Y-103478966D01*
X124643942Y-103459270D01*
X124598197Y-103406458D01*
X124587000Y-103354966D01*
X124587000Y-102803743D01*
X124606685Y-102736704D01*
X124659489Y-102690949D01*
X124728647Y-102681005D01*
X124781835Y-102701967D01*
X124919742Y-102797953D01*
X125097388Y-102874187D01*
X125286744Y-102913100D01*
X126931607Y-102913100D01*
X127075722Y-102898445D01*
X127260159Y-102840577D01*
X127260160Y-102840576D01*
X127260168Y-102840574D01*
X127429191Y-102746759D01*
X127575868Y-102620840D01*
X127694196Y-102467973D01*
X127779330Y-102294416D01*
X127823480Y-102123899D01*
X127827783Y-102107282D01*
X127827784Y-102107276D01*
X127827785Y-102107274D01*
X127837576Y-101914210D01*
X127819499Y-101796207D01*
X143362251Y-101796207D01*
X143381185Y-101964261D01*
X143437045Y-102123899D01*
X143437047Y-102123902D01*
X143527018Y-102267089D01*
X143527023Y-102267095D01*
X143646609Y-102386681D01*
X143646615Y-102386686D01*
X143789802Y-102476657D01*
X143789805Y-102476659D01*
X143789809Y-102476660D01*
X143789810Y-102476661D01*
X143803845Y-102481572D01*
X143949443Y-102532519D01*
X144117497Y-102551454D01*
X144117500Y-102551454D01*
X144117503Y-102551454D01*
X144285556Y-102532519D01*
X144285559Y-102532518D01*
X144445190Y-102476661D01*
X144537930Y-102418387D01*
X144605167Y-102399387D01*
X144644857Y-102406339D01*
X144701938Y-102426312D01*
X144701941Y-102426313D01*
X144701943Y-102426313D01*
X144703418Y-102426650D01*
X144704279Y-102427131D01*
X144708513Y-102428613D01*
X144708253Y-102429354D01*
X144764400Y-102460751D01*
X144780831Y-102481569D01*
X144849523Y-102590890D01*
X144969110Y-102710477D01*
X145068505Y-102772931D01*
X145114795Y-102825265D01*
X145125443Y-102894318D01*
X145097068Y-102958167D01*
X145068505Y-102982917D01*
X144994914Y-103029158D01*
X144994911Y-103029160D01*
X144875325Y-103148746D01*
X144875320Y-103148752D01*
X144785349Y-103291939D01*
X144785347Y-103291942D01*
X144729487Y-103451580D01*
X144710553Y-103619634D01*
X144710553Y-103619639D01*
X144729487Y-103787693D01*
X144785347Y-103947331D01*
X144785349Y-103947334D01*
X144875320Y-104090521D01*
X144875325Y-104090527D01*
X144994911Y-104210113D01*
X144994917Y-104210118D01*
X145138104Y-104300089D01*
X145138107Y-104300091D01*
X145138111Y-104300092D01*
X145138112Y-104300093D01*
X145210715Y-104325497D01*
X145297745Y-104355951D01*
X145465799Y-104374886D01*
X145465802Y-104374886D01*
X145465805Y-104374886D01*
X145633858Y-104355951D01*
X145652700Y-104349358D01*
X145793492Y-104300093D01*
X145793494Y-104300091D01*
X145793496Y-104300091D01*
X145793499Y-104300089D01*
X145936686Y-104210118D01*
X145936687Y-104210117D01*
X145936692Y-104210114D01*
X146056279Y-104090527D01*
X146076391Y-104058519D01*
X146146254Y-103947334D01*
X146146256Y-103947331D01*
X146146256Y-103947329D01*
X146146258Y-103947327D01*
X146167716Y-103886002D01*
X155708751Y-103886002D01*
X155727685Y-104054056D01*
X155783545Y-104213694D01*
X155783547Y-104213697D01*
X155873518Y-104356884D01*
X155873523Y-104356890D01*
X155993109Y-104476476D01*
X155993115Y-104476481D01*
X156136302Y-104566452D01*
X156136305Y-104566454D01*
X156136309Y-104566455D01*
X156136310Y-104566456D01*
X156148336Y-104570664D01*
X156295943Y-104622314D01*
X156463997Y-104641249D01*
X156464000Y-104641249D01*
X156464003Y-104641249D01*
X156632056Y-104622314D01*
X156632059Y-104622313D01*
X156791690Y-104566456D01*
X156791692Y-104566454D01*
X156791694Y-104566454D01*
X156791697Y-104566452D01*
X156934884Y-104476481D01*
X156934885Y-104476480D01*
X156934890Y-104476477D01*
X157054477Y-104356890D01*
X157090165Y-104300093D01*
X157144452Y-104213697D01*
X157144454Y-104213694D01*
X157144454Y-104213692D01*
X157144456Y-104213690D01*
X157200313Y-104054059D01*
X157200313Y-104054058D01*
X157200314Y-104054056D01*
X157219249Y-103886002D01*
X157219249Y-103885997D01*
X157200314Y-103717943D01*
X157165914Y-103619634D01*
X157144456Y-103558310D01*
X157144455Y-103558309D01*
X157144454Y-103558305D01*
X157144452Y-103558302D01*
X157054481Y-103415115D01*
X157054476Y-103415109D01*
X156934890Y-103295523D01*
X156934884Y-103295518D01*
X156791697Y-103205547D01*
X156791694Y-103205545D01*
X156632056Y-103149685D01*
X156464003Y-103130751D01*
X156463997Y-103130751D01*
X156295943Y-103149685D01*
X156136305Y-103205545D01*
X156136302Y-103205547D01*
X155993115Y-103295518D01*
X155993109Y-103295523D01*
X155873523Y-103415109D01*
X155873518Y-103415115D01*
X155783547Y-103558302D01*
X155783545Y-103558305D01*
X155727685Y-103717943D01*
X155708751Y-103885997D01*
X155708751Y-103886002D01*
X146167716Y-103886002D01*
X146202115Y-103787696D01*
X146202115Y-103787695D01*
X146202116Y-103787693D01*
X146221051Y-103619639D01*
X146221051Y-103619634D01*
X146202116Y-103451580D01*
X146147509Y-103295523D01*
X146146258Y-103291947D01*
X146146257Y-103291946D01*
X146146256Y-103291942D01*
X146146254Y-103291939D01*
X146056283Y-103148752D01*
X146056278Y-103148746D01*
X145936692Y-103029160D01*
X145863097Y-102982917D01*
X145837296Y-102966705D01*
X145791006Y-102914371D01*
X145780358Y-102845318D01*
X145808733Y-102781469D01*
X145837293Y-102756720D01*
X145910890Y-102710477D01*
X146030477Y-102590890D01*
X146030481Y-102590884D01*
X146120452Y-102447697D01*
X146120454Y-102447694D01*
X146120454Y-102447692D01*
X146120456Y-102447690D01*
X146176313Y-102288059D01*
X146176313Y-102288058D01*
X146176314Y-102288056D01*
X146195249Y-102120002D01*
X146195249Y-102119997D01*
X146176314Y-101951943D01*
X146126813Y-101810477D01*
X146120456Y-101792310D01*
X146120455Y-101792309D01*
X146120454Y-101792305D01*
X146120452Y-101792302D01*
X146030481Y-101649115D01*
X146030476Y-101649109D01*
X145910890Y-101529523D01*
X145910884Y-101529518D01*
X145767697Y-101439547D01*
X145767692Y-101439544D01*
X145627921Y-101390637D01*
X145608059Y-101383687D01*
X145608058Y-101383686D01*
X145608053Y-101383685D01*
X145606557Y-101383344D01*
X145605688Y-101382858D01*
X145601487Y-101381388D01*
X145601744Y-101380651D01*
X145545581Y-101349230D01*
X145543034Y-101346002D01*
X151390751Y-101346002D01*
X151409685Y-101514056D01*
X151465545Y-101673694D01*
X151465547Y-101673697D01*
X151555518Y-101816884D01*
X151555523Y-101816890D01*
X151675109Y-101936476D01*
X151675115Y-101936481D01*
X151818302Y-102026452D01*
X151818305Y-102026454D01*
X151818309Y-102026455D01*
X151818310Y-102026456D01*
X151890913Y-102051860D01*
X151977943Y-102082314D01*
X152145997Y-102101249D01*
X152146000Y-102101249D01*
X152146003Y-102101249D01*
X152314056Y-102082314D01*
X152314059Y-102082313D01*
X152473690Y-102026456D01*
X152473692Y-102026454D01*
X152473694Y-102026454D01*
X152473697Y-102026452D01*
X152616884Y-101936481D01*
X152616885Y-101936480D01*
X152616890Y-101936477D01*
X152736477Y-101816890D01*
X152749473Y-101796207D01*
X152826452Y-101673697D01*
X152826454Y-101673694D01*
X152826454Y-101673692D01*
X152826456Y-101673690D01*
X152882313Y-101514059D01*
X152882313Y-101514058D01*
X152882314Y-101514056D01*
X152901249Y-101346002D01*
X152901249Y-101345997D01*
X152887053Y-101220002D01*
X156464751Y-101220002D01*
X156483685Y-101388056D01*
X156539545Y-101547694D01*
X156539547Y-101547697D01*
X156629518Y-101690884D01*
X156629523Y-101690890D01*
X156749109Y-101810476D01*
X156749115Y-101810481D01*
X156892302Y-101900452D01*
X156892305Y-101900454D01*
X156892309Y-101900455D01*
X156892310Y-101900456D01*
X156931614Y-101914209D01*
X157051943Y-101956314D01*
X157219997Y-101975249D01*
X157220000Y-101975249D01*
X157220003Y-101975249D01*
X157388056Y-101956314D01*
X157400548Y-101951943D01*
X157547690Y-101900456D01*
X157547692Y-101900454D01*
X157547694Y-101900454D01*
X157547697Y-101900452D01*
X157690884Y-101810481D01*
X157690885Y-101810480D01*
X157690890Y-101810477D01*
X157810477Y-101690890D01*
X157836726Y-101649115D01*
X157900452Y-101547697D01*
X157900454Y-101547694D01*
X157900454Y-101547692D01*
X157900456Y-101547690D01*
X157956313Y-101388059D01*
X157956313Y-101388058D01*
X157956314Y-101388056D01*
X157975249Y-101220002D01*
X157975249Y-101219997D01*
X157956314Y-101051943D01*
X157900454Y-100892305D01*
X157900452Y-100892302D01*
X157810481Y-100749115D01*
X157810476Y-100749109D01*
X157690890Y-100629523D01*
X157690884Y-100629518D01*
X157547697Y-100539547D01*
X157547694Y-100539545D01*
X157388056Y-100483685D01*
X157220003Y-100464751D01*
X157219997Y-100464751D01*
X157051943Y-100483685D01*
X156892305Y-100539545D01*
X156892302Y-100539547D01*
X156749115Y-100629518D01*
X156749109Y-100629523D01*
X156629523Y-100749109D01*
X156629518Y-100749115D01*
X156539547Y-100892302D01*
X156539545Y-100892305D01*
X156483685Y-101051943D01*
X156464751Y-101219997D01*
X156464751Y-101220002D01*
X152887053Y-101220002D01*
X152882314Y-101177943D01*
X152847995Y-101079866D01*
X152826456Y-101018310D01*
X152826455Y-101018309D01*
X152826454Y-101018305D01*
X152826452Y-101018302D01*
X152736481Y-100875115D01*
X152736476Y-100875109D01*
X152616890Y-100755523D01*
X152616884Y-100755518D01*
X152473697Y-100665547D01*
X152473694Y-100665545D01*
X152314056Y-100609685D01*
X152146003Y-100590751D01*
X152145997Y-100590751D01*
X151977943Y-100609685D01*
X151818305Y-100665545D01*
X151818302Y-100665547D01*
X151675115Y-100755518D01*
X151675109Y-100755523D01*
X151555523Y-100875109D01*
X151555518Y-100875115D01*
X151465547Y-101018302D01*
X151465545Y-101018305D01*
X151409685Y-101177943D01*
X151390751Y-101345997D01*
X151390751Y-101346002D01*
X145543034Y-101346002D01*
X145529168Y-101328431D01*
X145460477Y-101219110D01*
X145340890Y-101099523D01*
X145340884Y-101099518D01*
X145197697Y-101009547D01*
X145197694Y-101009545D01*
X145038056Y-100953685D01*
X144870003Y-100934751D01*
X144869997Y-100934751D01*
X144701943Y-100953685D01*
X144542305Y-101009545D01*
X144542302Y-101009547D01*
X144449568Y-101067817D01*
X144382332Y-101086818D01*
X144342642Y-101079866D01*
X144285557Y-101059891D01*
X144285554Y-101059890D01*
X144117503Y-101040956D01*
X144117497Y-101040956D01*
X143949443Y-101059890D01*
X143789805Y-101115750D01*
X143789802Y-101115752D01*
X143646615Y-101205723D01*
X143646609Y-101205728D01*
X143527023Y-101325314D01*
X143527018Y-101325320D01*
X143437047Y-101468507D01*
X143437045Y-101468510D01*
X143381185Y-101628148D01*
X143362251Y-101796202D01*
X143362251Y-101796207D01*
X127819499Y-101796207D01*
X127808303Y-101723126D01*
X127741164Y-101541847D01*
X127733482Y-101529523D01*
X127658910Y-101409882D01*
X127640154Y-101342577D01*
X127660763Y-101275816D01*
X127681174Y-101252137D01*
X127685616Y-101248135D01*
X127685630Y-101248126D01*
X127805259Y-101115265D01*
X127894650Y-100960435D01*
X127949897Y-100790403D01*
X127968585Y-100612600D01*
X127949897Y-100434797D01*
X127915847Y-100330002D01*
X128276751Y-100330002D01*
X128295685Y-100498056D01*
X128351545Y-100657694D01*
X128351547Y-100657697D01*
X128441518Y-100800884D01*
X128441523Y-100800890D01*
X128561109Y-100920476D01*
X128561115Y-100920481D01*
X128704302Y-101010452D01*
X128704305Y-101010454D01*
X128704309Y-101010455D01*
X128704310Y-101010456D01*
X128726756Y-101018310D01*
X128863943Y-101066314D01*
X129031997Y-101085249D01*
X129032000Y-101085249D01*
X129032003Y-101085249D01*
X129200056Y-101066314D01*
X129241126Y-101051943D01*
X129359690Y-101010456D01*
X129359692Y-101010454D01*
X129359694Y-101010454D01*
X129359697Y-101010452D01*
X129502884Y-100920481D01*
X129502885Y-100920480D01*
X129502890Y-100920477D01*
X129622477Y-100800890D01*
X129629065Y-100790405D01*
X129712452Y-100657697D01*
X129712454Y-100657694D01*
X129712454Y-100657692D01*
X129712456Y-100657690D01*
X129768313Y-100498059D01*
X129768313Y-100498058D01*
X129768314Y-100498056D01*
X129787249Y-100330002D01*
X129787249Y-100329997D01*
X129768314Y-100161943D01*
X129731889Y-100057848D01*
X129712456Y-100002310D01*
X129712455Y-100002309D01*
X129712454Y-100002305D01*
X129712452Y-100002302D01*
X129622481Y-99859115D01*
X129622476Y-99859109D01*
X129585369Y-99822002D01*
X143008751Y-99822002D01*
X143027685Y-99990056D01*
X143083545Y-100149694D01*
X143083547Y-100149697D01*
X143173518Y-100292884D01*
X143173523Y-100292890D01*
X143293109Y-100412476D01*
X143293115Y-100412481D01*
X143436302Y-100502452D01*
X143436305Y-100502454D01*
X143436309Y-100502455D01*
X143436310Y-100502456D01*
X143508913Y-100527860D01*
X143595943Y-100558314D01*
X143763997Y-100577249D01*
X143764000Y-100577249D01*
X143764003Y-100577249D01*
X143932059Y-100558313D01*
X143932060Y-100558313D01*
X144012708Y-100530092D01*
X144072796Y-100509066D01*
X144142574Y-100505504D01*
X144154706Y-100509067D01*
X144295442Y-100558313D01*
X144463500Y-100577249D01*
X144463503Y-100577249D01*
X144463506Y-100577249D01*
X144631559Y-100558314D01*
X144685192Y-100539547D01*
X144791193Y-100502456D01*
X144791195Y-100502454D01*
X144791197Y-100502454D01*
X144791200Y-100502452D01*
X144902931Y-100432246D01*
X146310751Y-100432246D01*
X146329685Y-100600300D01*
X146385545Y-100759938D01*
X146385547Y-100759941D01*
X146475518Y-100903128D01*
X146475523Y-100903134D01*
X146595109Y-101022720D01*
X146595115Y-101022725D01*
X146738302Y-101112696D01*
X146738305Y-101112698D01*
X146738309Y-101112699D01*
X146738310Y-101112700D01*
X146769764Y-101123706D01*
X146897943Y-101168558D01*
X147065997Y-101187493D01*
X147066000Y-101187493D01*
X147066003Y-101187493D01*
X147234056Y-101168558D01*
X147234059Y-101168557D01*
X147393690Y-101112700D01*
X147393692Y-101112698D01*
X147393694Y-101112698D01*
X147393697Y-101112696D01*
X147536884Y-101022725D01*
X147536885Y-101022724D01*
X147536890Y-101022721D01*
X147656477Y-100903134D01*
X147663278Y-100892310D01*
X147746452Y-100759941D01*
X147746454Y-100759938D01*
X147746454Y-100759936D01*
X147746456Y-100759934D01*
X147802313Y-100600303D01*
X147802313Y-100600302D01*
X147802314Y-100600300D01*
X147821249Y-100432246D01*
X147821249Y-100432242D01*
X147819504Y-100416757D01*
X147831558Y-100347935D01*
X147878906Y-100296555D01*
X147946517Y-100278930D01*
X148012923Y-100300656D01*
X148030405Y-100315191D01*
X148138804Y-100423590D01*
X148138810Y-100423595D01*
X148281997Y-100513566D01*
X148282000Y-100513568D01*
X148282004Y-100513569D01*
X148282005Y-100513570D01*
X148354608Y-100538974D01*
X148441638Y-100569428D01*
X148609692Y-100588363D01*
X148609695Y-100588363D01*
X148609698Y-100588363D01*
X148777751Y-100569428D01*
X148809516Y-100558313D01*
X148937385Y-100513570D01*
X148937387Y-100513568D01*
X148937389Y-100513568D01*
X148937392Y-100513566D01*
X149080579Y-100423595D01*
X149080580Y-100423594D01*
X149080585Y-100423591D01*
X149200172Y-100304004D01*
X149204853Y-100296555D01*
X149290147Y-100160811D01*
X149290149Y-100160807D01*
X149290148Y-100160807D01*
X149290151Y-100160804D01*
X149300601Y-100130936D01*
X149341320Y-100074162D01*
X149386510Y-100052684D01*
X149386486Y-100052613D01*
X149387148Y-100052381D01*
X149390063Y-100050996D01*
X149393049Y-100050314D01*
X149393059Y-100050313D01*
X149552690Y-99994456D01*
X149552693Y-99994453D01*
X149552697Y-99994452D01*
X149695884Y-99904481D01*
X149695885Y-99904480D01*
X149695890Y-99904477D01*
X149815477Y-99784890D01*
X149829483Y-99762600D01*
X149905452Y-99641697D01*
X149905454Y-99641694D01*
X149905454Y-99641692D01*
X149905456Y-99641690D01*
X149961313Y-99482059D01*
X149961313Y-99482058D01*
X149961314Y-99482056D01*
X149980249Y-99314002D01*
X149980249Y-99313997D01*
X149961314Y-99145943D01*
X149905454Y-98986305D01*
X149905452Y-98986302D01*
X149815481Y-98843115D01*
X149815476Y-98843109D01*
X149695890Y-98723523D01*
X149651282Y-98695494D01*
X149590009Y-98656993D01*
X149543719Y-98604659D01*
X149533071Y-98535605D01*
X149561446Y-98471757D01*
X149590010Y-98447006D01*
X149695890Y-98380477D01*
X149815477Y-98260890D01*
X149825656Y-98244690D01*
X149905452Y-98117697D01*
X149905454Y-98117694D01*
X149905455Y-98117691D01*
X149905456Y-98117690D01*
X149961313Y-97958059D01*
X149961313Y-97958058D01*
X149961314Y-97958056D01*
X149965940Y-97917002D01*
X155327751Y-97917002D01*
X155346685Y-98085056D01*
X155402545Y-98244694D01*
X155402547Y-98244697D01*
X155492518Y-98387884D01*
X155492523Y-98387890D01*
X155612109Y-98507476D01*
X155612115Y-98507481D01*
X155755302Y-98597452D01*
X155755305Y-98597454D01*
X155755309Y-98597455D01*
X155755310Y-98597456D01*
X155800307Y-98613201D01*
X155914943Y-98653314D01*
X156082997Y-98672249D01*
X156083000Y-98672249D01*
X156083003Y-98672249D01*
X156251056Y-98653314D01*
X156293858Y-98638337D01*
X156410690Y-98597456D01*
X156410692Y-98597454D01*
X156410694Y-98597454D01*
X156410697Y-98597452D01*
X156553884Y-98507481D01*
X156553885Y-98507480D01*
X156553890Y-98507477D01*
X156673477Y-98387890D01*
X156673481Y-98387884D01*
X156763452Y-98244697D01*
X156763454Y-98244694D01*
X156763454Y-98244692D01*
X156763456Y-98244690D01*
X156819313Y-98085059D01*
X156819313Y-98085058D01*
X156819314Y-98085056D01*
X156838249Y-97917002D01*
X156838249Y-97916997D01*
X156819314Y-97748943D01*
X156763454Y-97589305D01*
X156763452Y-97589302D01*
X156673481Y-97446115D01*
X156673476Y-97446109D01*
X156553890Y-97326523D01*
X156553884Y-97326518D01*
X156410697Y-97236547D01*
X156410694Y-97236545D01*
X156251056Y-97180685D01*
X156083003Y-97161751D01*
X156082997Y-97161751D01*
X155914943Y-97180685D01*
X155755305Y-97236545D01*
X155755302Y-97236547D01*
X155612115Y-97326518D01*
X155612109Y-97326523D01*
X155492523Y-97446109D01*
X155492518Y-97446115D01*
X155402547Y-97589302D01*
X155402545Y-97589305D01*
X155346685Y-97748943D01*
X155327751Y-97916997D01*
X155327751Y-97917002D01*
X149965940Y-97917002D01*
X149980249Y-97790002D01*
X149980249Y-97789997D01*
X149961314Y-97621943D01*
X149912590Y-97482697D01*
X149905456Y-97462310D01*
X149905455Y-97462309D01*
X149905454Y-97462305D01*
X149905452Y-97462302D01*
X149815481Y-97319115D01*
X149815476Y-97319109D01*
X149739048Y-97242681D01*
X149705563Y-97181358D01*
X149710547Y-97111666D01*
X149739048Y-97067319D01*
X149777258Y-97029109D01*
X149815477Y-96990890D01*
X149817957Y-96986943D01*
X149905452Y-96847697D01*
X149905454Y-96847694D01*
X149905454Y-96847692D01*
X149905456Y-96847690D01*
X149961313Y-96688059D01*
X149961313Y-96688058D01*
X149961314Y-96688056D01*
X149980249Y-96520002D01*
X149980249Y-96519997D01*
X149961314Y-96351943D01*
X149917928Y-96227954D01*
X149905456Y-96192310D01*
X149905455Y-96192309D01*
X149905454Y-96192305D01*
X149905452Y-96192302D01*
X149815481Y-96049115D01*
X149815476Y-96049109D01*
X149695890Y-95929523D01*
X149695884Y-95929518D01*
X149552697Y-95839547D01*
X149552694Y-95839545D01*
X149393056Y-95783685D01*
X149225003Y-95764751D01*
X149224997Y-95764751D01*
X149056943Y-95783685D01*
X148897305Y-95839545D01*
X148897302Y-95839547D01*
X148754115Y-95929518D01*
X148754109Y-95929523D01*
X148634523Y-96049109D01*
X148634518Y-96049115D01*
X148544547Y-96192302D01*
X148544542Y-96192313D01*
X148491107Y-96345021D01*
X148450386Y-96401797D01*
X148415021Y-96421107D01*
X148262313Y-96474542D01*
X148262302Y-96474547D01*
X148119115Y-96564518D01*
X148119109Y-96564523D01*
X147999523Y-96684109D01*
X147999518Y-96684115D01*
X147909547Y-96827302D01*
X147909545Y-96827305D01*
X147853685Y-96986943D01*
X147834751Y-97154997D01*
X147834751Y-97155002D01*
X147853685Y-97323056D01*
X147909545Y-97482694D01*
X147909547Y-97482697D01*
X147999518Y-97625884D01*
X147999523Y-97625890D01*
X148119109Y-97745476D01*
X148119115Y-97745481D01*
X148262302Y-97835452D01*
X148262305Y-97835454D01*
X148262309Y-97835455D01*
X148262310Y-97835456D01*
X148389737Y-97880044D01*
X148415022Y-97888892D01*
X148471798Y-97929614D01*
X148491109Y-97964980D01*
X148544544Y-98117691D01*
X148544547Y-98117697D01*
X148634518Y-98260884D01*
X148634523Y-98260890D01*
X148754111Y-98380478D01*
X148859990Y-98447007D01*
X148906280Y-98499342D01*
X148916928Y-98568395D01*
X148888553Y-98632243D01*
X148859989Y-98656994D01*
X148830249Y-98675681D01*
X148763013Y-98694681D01*
X148696177Y-98674313D01*
X148686959Y-98667630D01*
X148683306Y-98664716D01*
X148540122Y-98574747D01*
X148540119Y-98574745D01*
X148380481Y-98518885D01*
X148212428Y-98499951D01*
X148212422Y-98499951D01*
X148044368Y-98518885D01*
X147884730Y-98574745D01*
X147884727Y-98574747D01*
X147741540Y-98664718D01*
X147741534Y-98664723D01*
X147621948Y-98784309D01*
X147621943Y-98784315D01*
X147531972Y-98927502D01*
X147531970Y-98927505D01*
X147518942Y-98964740D01*
X147478220Y-99021516D01*
X147413267Y-99047263D01*
X147360946Y-99040827D01*
X147234057Y-98996427D01*
X147066003Y-98977492D01*
X147065997Y-98977492D01*
X146897943Y-98996426D01*
X146738305Y-99052286D01*
X146738302Y-99052288D01*
X146595115Y-99142259D01*
X146595109Y-99142264D01*
X146475523Y-99261850D01*
X146475518Y-99261856D01*
X146385547Y-99405043D01*
X146385545Y-99405046D01*
X146329685Y-99564684D01*
X146310751Y-99732738D01*
X146310751Y-99732743D01*
X146329685Y-99900797D01*
X146378933Y-100041537D01*
X146382494Y-100111316D01*
X146378933Y-100123446D01*
X146329686Y-100264186D01*
X146310751Y-100432241D01*
X146310751Y-100432246D01*
X144902931Y-100432246D01*
X144934387Y-100412481D01*
X144934388Y-100412480D01*
X144934393Y-100412477D01*
X145053980Y-100292890D01*
X145071652Y-100264765D01*
X145143955Y-100149697D01*
X145143957Y-100149694D01*
X145143957Y-100149692D01*
X145143959Y-100149690D01*
X145199816Y-99990059D01*
X145199816Y-99990058D01*
X145199817Y-99990056D01*
X145218752Y-99822002D01*
X145218752Y-99821997D01*
X145199817Y-99653943D01*
X145143957Y-99494305D01*
X145143955Y-99494302D01*
X145053984Y-99351115D01*
X145053979Y-99351109D01*
X144934393Y-99231523D01*
X144934387Y-99231518D01*
X144791200Y-99141547D01*
X144791197Y-99141545D01*
X144631559Y-99085685D01*
X144463506Y-99066751D01*
X144463500Y-99066751D01*
X144295445Y-99085686D01*
X144154705Y-99134933D01*
X144084927Y-99138494D01*
X144072800Y-99134934D01*
X144042496Y-99124330D01*
X143932056Y-99085685D01*
X143764003Y-99066751D01*
X143763997Y-99066751D01*
X143595943Y-99085685D01*
X143436305Y-99141545D01*
X143436302Y-99141547D01*
X143293115Y-99231518D01*
X143293109Y-99231523D01*
X143173523Y-99351109D01*
X143173518Y-99351115D01*
X143083547Y-99494302D01*
X143083545Y-99494305D01*
X143027685Y-99653943D01*
X143008751Y-99821997D01*
X143008751Y-99822002D01*
X129585369Y-99822002D01*
X129502890Y-99739523D01*
X129502884Y-99739518D01*
X129359697Y-99649547D01*
X129359694Y-99649545D01*
X129200056Y-99593685D01*
X129032003Y-99574751D01*
X129031997Y-99574751D01*
X128863943Y-99593685D01*
X128704305Y-99649545D01*
X128704302Y-99649547D01*
X128561115Y-99739518D01*
X128561109Y-99739523D01*
X128441523Y-99859109D01*
X128441518Y-99859115D01*
X128351547Y-100002302D01*
X128351545Y-100002305D01*
X128295685Y-100161943D01*
X128276751Y-100329997D01*
X128276751Y-100330002D01*
X127915847Y-100330002D01*
X127894650Y-100264765D01*
X127894315Y-100264185D01*
X127885606Y-100249099D01*
X127869133Y-100181198D01*
X127885607Y-100125097D01*
X127894191Y-100110228D01*
X127949403Y-99940302D01*
X127949404Y-99940300D01*
X127968081Y-99762600D01*
X127949404Y-99584899D01*
X127949403Y-99584897D01*
X127894193Y-99414975D01*
X127894191Y-99414971D01*
X127885606Y-99400102D01*
X127869132Y-99332202D01*
X127885604Y-99276101D01*
X127894650Y-99260435D01*
X127949897Y-99090403D01*
X127956961Y-99023191D01*
X135605940Y-99023191D01*
X135624874Y-99191245D01*
X135680734Y-99350883D01*
X135680736Y-99350886D01*
X135770707Y-99494073D01*
X135770712Y-99494079D01*
X135890298Y-99613665D01*
X135890304Y-99613670D01*
X136033491Y-99703641D01*
X136033494Y-99703643D01*
X136033498Y-99703644D01*
X136033499Y-99703645D01*
X136071526Y-99716951D01*
X136193132Y-99759503D01*
X136361186Y-99778438D01*
X136361189Y-99778438D01*
X136361192Y-99778438D01*
X136529245Y-99759503D01*
X136529248Y-99759502D01*
X136688879Y-99703645D01*
X136688881Y-99703643D01*
X136688883Y-99703643D01*
X136688886Y-99703641D01*
X136832073Y-99613670D01*
X136832074Y-99613669D01*
X136832079Y-99613666D01*
X136951666Y-99494079D01*
X136989424Y-99433988D01*
X137041641Y-99350886D01*
X137041643Y-99350883D01*
X137041643Y-99350881D01*
X137041645Y-99350879D01*
X137097502Y-99191248D01*
X137097502Y-99191247D01*
X137097503Y-99191245D01*
X137116438Y-99023191D01*
X137116438Y-99023186D01*
X137097503Y-98855132D01*
X137041643Y-98695494D01*
X137041641Y-98695491D01*
X136951670Y-98552304D01*
X136951665Y-98552298D01*
X136832079Y-98432712D01*
X136832073Y-98432707D01*
X136688886Y-98342736D01*
X136688883Y-98342734D01*
X136529245Y-98286874D01*
X136361192Y-98267940D01*
X136361186Y-98267940D01*
X136193132Y-98286874D01*
X136033494Y-98342734D01*
X136033491Y-98342736D01*
X135890304Y-98432707D01*
X135890298Y-98432712D01*
X135770712Y-98552298D01*
X135770707Y-98552304D01*
X135680736Y-98695491D01*
X135680734Y-98695494D01*
X135624874Y-98855132D01*
X135605940Y-99023186D01*
X135605940Y-99023191D01*
X127956961Y-99023191D01*
X127968585Y-98912600D01*
X127949897Y-98734797D01*
X127894650Y-98564765D01*
X127885894Y-98549599D01*
X127869421Y-98481703D01*
X127885893Y-98425600D01*
X127894650Y-98410435D01*
X127949897Y-98240403D01*
X127968585Y-98062600D01*
X127949897Y-97884797D01*
X127894650Y-97714765D01*
X127885894Y-97699599D01*
X127869421Y-97631703D01*
X127885893Y-97575600D01*
X127894650Y-97560435D01*
X127914286Y-97500002D01*
X137564751Y-97500002D01*
X137583685Y-97668056D01*
X137639545Y-97827692D01*
X137666722Y-97870944D01*
X137685722Y-97938181D01*
X137680634Y-97967252D01*
X137681584Y-97967469D01*
X137680034Y-97974258D01*
X137661099Y-98142314D01*
X137661099Y-98142319D01*
X137680033Y-98310373D01*
X137735893Y-98470011D01*
X137735895Y-98470014D01*
X137825866Y-98613201D01*
X137825871Y-98613207D01*
X137945457Y-98732793D01*
X137945463Y-98732798D01*
X138088650Y-98822769D01*
X138088653Y-98822771D01*
X138088657Y-98822772D01*
X138088658Y-98822773D01*
X138161261Y-98848177D01*
X138248291Y-98878631D01*
X138416345Y-98897566D01*
X138416348Y-98897566D01*
X138416351Y-98897566D01*
X138584404Y-98878631D01*
X138584407Y-98878630D01*
X138744038Y-98822773D01*
X138744040Y-98822771D01*
X138744042Y-98822771D01*
X138744045Y-98822769D01*
X138887232Y-98732798D01*
X138887233Y-98732797D01*
X138887238Y-98732794D01*
X139006825Y-98613207D01*
X139016722Y-98597456D01*
X139096800Y-98470014D01*
X139096802Y-98470011D01*
X139096802Y-98470009D01*
X139096804Y-98470007D01*
X139152661Y-98310376D01*
X139152661Y-98310375D01*
X139152662Y-98310373D01*
X139171597Y-98142319D01*
X139171597Y-98142314D01*
X139152661Y-97974259D01*
X139150209Y-97967252D01*
X139115036Y-97866731D01*
X139096805Y-97814629D01*
X139081331Y-97790002D01*
X139069624Y-97771372D01*
X139050624Y-97704136D01*
X139055720Y-97675062D01*
X139054764Y-97674844D01*
X139056311Y-97668063D01*
X139056313Y-97668059D01*
X139059745Y-97637600D01*
X139075249Y-97500002D01*
X139075249Y-97499997D01*
X139056314Y-97331943D01*
X139003387Y-97180687D01*
X139000456Y-97172310D01*
X139000455Y-97172309D01*
X139000454Y-97172305D01*
X139000452Y-97172302D01*
X138910481Y-97029115D01*
X138910476Y-97029109D01*
X138790890Y-96909523D01*
X138790884Y-96909518D01*
X138647697Y-96819547D01*
X138647694Y-96819545D01*
X138488056Y-96763685D01*
X138320003Y-96744751D01*
X138319997Y-96744751D01*
X138151943Y-96763685D01*
X137992305Y-96819545D01*
X137992302Y-96819547D01*
X137849115Y-96909518D01*
X137849109Y-96909523D01*
X137729523Y-97029109D01*
X137729518Y-97029115D01*
X137639547Y-97172302D01*
X137639545Y-97172305D01*
X137583685Y-97331943D01*
X137564751Y-97499997D01*
X137564751Y-97500002D01*
X127914286Y-97500002D01*
X127949897Y-97390403D01*
X127968585Y-97212600D01*
X127949897Y-97034797D01*
X127894650Y-96864765D01*
X127885894Y-96849599D01*
X127869421Y-96781703D01*
X127885893Y-96725600D01*
X127894650Y-96710435D01*
X127915261Y-96647002D01*
X139960751Y-96647002D01*
X139979685Y-96815056D01*
X140035545Y-96974694D01*
X140035547Y-96974697D01*
X140125518Y-97117884D01*
X140125523Y-97117890D01*
X140245109Y-97237476D01*
X140245115Y-97237481D01*
X140388302Y-97327452D01*
X140388307Y-97327455D01*
X140388310Y-97327456D01*
X140469259Y-97355780D01*
X140526034Y-97396501D01*
X140545346Y-97431868D01*
X140595146Y-97574191D01*
X140595149Y-97574197D01*
X140685120Y-97717384D01*
X140685125Y-97717390D01*
X140732904Y-97765169D01*
X140766389Y-97826492D01*
X140768444Y-97866731D01*
X140765798Y-97890210D01*
X140764469Y-97902020D01*
X140764468Y-97902025D01*
X140783402Y-98070079D01*
X140839262Y-98229717D01*
X140839264Y-98229720D01*
X140929235Y-98372907D01*
X140929240Y-98372913D01*
X141048826Y-98492499D01*
X141048832Y-98492504D01*
X141192019Y-98582475D01*
X141192022Y-98582477D01*
X141192026Y-98582478D01*
X141192027Y-98582479D01*
X141234829Y-98597456D01*
X141351660Y-98638337D01*
X141519714Y-98657272D01*
X141519717Y-98657272D01*
X141519720Y-98657272D01*
X141687773Y-98638337D01*
X141705189Y-98632243D01*
X141847407Y-98582479D01*
X141847409Y-98582477D01*
X141847411Y-98582477D01*
X141847414Y-98582475D01*
X141990601Y-98492504D01*
X141990602Y-98492503D01*
X141990607Y-98492500D01*
X142110194Y-98372913D01*
X142129157Y-98342734D01*
X142200169Y-98229720D01*
X142200171Y-98229717D01*
X142200171Y-98229715D01*
X142200173Y-98229713D01*
X142256030Y-98070082D01*
X142256030Y-98070081D01*
X142256031Y-98070079D01*
X142274966Y-97902025D01*
X142274966Y-97902020D01*
X142256031Y-97733966D01*
X142222311Y-97637600D01*
X142200173Y-97574333D01*
X142200172Y-97574332D01*
X142200171Y-97574328D01*
X142200169Y-97574325D01*
X142110198Y-97431138D01*
X142110193Y-97431132D01*
X142062413Y-97383352D01*
X142028928Y-97322029D01*
X142026874Y-97281790D01*
X142030851Y-97246500D01*
X142029835Y-97237481D01*
X142011916Y-97078443D01*
X141975614Y-96974697D01*
X141956058Y-96918810D01*
X141956057Y-96918809D01*
X141956056Y-96918805D01*
X141956054Y-96918802D01*
X141866083Y-96775615D01*
X141866078Y-96775609D01*
X141746492Y-96656023D01*
X141746486Y-96656018D01*
X141603299Y-96566047D01*
X141603296Y-96566045D01*
X141530025Y-96540407D01*
X141522342Y-96537718D01*
X141465567Y-96496997D01*
X141446256Y-96461631D01*
X141411604Y-96362600D01*
X141396456Y-96319310D01*
X141396453Y-96319305D01*
X141396452Y-96319302D01*
X141306481Y-96176115D01*
X141306476Y-96176109D01*
X141186890Y-96056523D01*
X141186884Y-96056518D01*
X141043697Y-95966547D01*
X141043694Y-95966545D01*
X140884056Y-95910685D01*
X140716003Y-95891751D01*
X140715997Y-95891751D01*
X140547943Y-95910685D01*
X140388305Y-95966545D01*
X140388302Y-95966547D01*
X140245115Y-96056518D01*
X140245109Y-96056523D01*
X140125523Y-96176109D01*
X140125518Y-96176115D01*
X140035547Y-96319302D01*
X140035545Y-96319305D01*
X139979685Y-96478943D01*
X139960751Y-96646997D01*
X139960751Y-96647002D01*
X127915261Y-96647002D01*
X127949897Y-96540403D01*
X127968585Y-96362600D01*
X127949897Y-96184797D01*
X127894650Y-96014765D01*
X127894649Y-96014763D01*
X127885606Y-95999099D01*
X127869133Y-95931198D01*
X127885607Y-95875097D01*
X127894191Y-95860228D01*
X127949403Y-95690302D01*
X127949404Y-95690300D01*
X127968081Y-95512600D01*
X127949404Y-95334899D01*
X127949403Y-95334897D01*
X127894193Y-95164975D01*
X127894191Y-95164971D01*
X127885606Y-95150102D01*
X127879031Y-95123002D01*
X128657751Y-95123002D01*
X128676685Y-95291056D01*
X128732544Y-95450690D01*
X128732547Y-95450697D01*
X128822518Y-95593884D01*
X128822523Y-95593890D01*
X128942109Y-95713476D01*
X128942115Y-95713481D01*
X129085302Y-95803452D01*
X129085305Y-95803454D01*
X129085309Y-95803455D01*
X129085310Y-95803456D01*
X129157913Y-95828860D01*
X129244943Y-95859314D01*
X129412997Y-95878249D01*
X129413000Y-95878249D01*
X129413003Y-95878249D01*
X129479204Y-95870790D01*
X133952377Y-95870790D01*
X133971311Y-96038844D01*
X134027171Y-96198482D01*
X134027173Y-96198485D01*
X134117144Y-96341672D01*
X134117149Y-96341678D01*
X134236735Y-96461264D01*
X134236741Y-96461269D01*
X134379928Y-96551240D01*
X134379931Y-96551242D01*
X134379935Y-96551243D01*
X134379936Y-96551244D01*
X134422232Y-96566044D01*
X134539569Y-96607102D01*
X134707623Y-96626037D01*
X134707626Y-96626037D01*
X134707629Y-96626037D01*
X134875682Y-96607102D01*
X134875685Y-96607101D01*
X135035316Y-96551244D01*
X135035318Y-96551242D01*
X135035320Y-96551242D01*
X135035323Y-96551240D01*
X135178510Y-96461269D01*
X135178511Y-96461268D01*
X135178516Y-96461265D01*
X135298103Y-96341678D01*
X135369561Y-96227954D01*
X135388078Y-96198485D01*
X135388080Y-96198482D01*
X135388080Y-96198480D01*
X135388082Y-96198478D01*
X135443939Y-96038847D01*
X135443939Y-96038846D01*
X135443940Y-96038844D01*
X135462875Y-95870790D01*
X135462875Y-95870785D01*
X135443940Y-95702731D01*
X135395687Y-95564833D01*
X135389623Y-95547502D01*
X141611751Y-95547502D01*
X141630685Y-95715556D01*
X141686545Y-95875194D01*
X141686547Y-95875197D01*
X141776518Y-96018384D01*
X141776523Y-96018390D01*
X141896109Y-96137976D01*
X141896115Y-96137981D01*
X142039302Y-96227952D01*
X142039305Y-96227954D01*
X142039309Y-96227955D01*
X142039310Y-96227956D01*
X142111913Y-96253360D01*
X142198943Y-96283814D01*
X142366997Y-96302749D01*
X142367000Y-96302749D01*
X142367003Y-96302749D01*
X142535056Y-96283814D01*
X142535059Y-96283813D01*
X142694690Y-96227956D01*
X142694692Y-96227954D01*
X142694694Y-96227954D01*
X142694697Y-96227952D01*
X142837884Y-96137981D01*
X142837885Y-96137980D01*
X142837890Y-96137977D01*
X142957477Y-96018390D01*
X142959756Y-96014763D01*
X143047452Y-95875197D01*
X143047455Y-95875192D01*
X143047456Y-95875190D01*
X143078587Y-95786219D01*
X143119309Y-95729445D01*
X143184261Y-95703697D01*
X143231250Y-95709478D01*
X143231332Y-95709122D01*
X143234816Y-95709917D01*
X143236585Y-95710135D01*
X143238114Y-95710670D01*
X143238121Y-95710670D01*
X143238122Y-95710671D01*
X143406170Y-95729606D01*
X143406173Y-95729606D01*
X143406176Y-95729606D01*
X143574229Y-95710671D01*
X143576384Y-95709917D01*
X143733863Y-95654813D01*
X143733865Y-95654811D01*
X143733867Y-95654811D01*
X143733870Y-95654809D01*
X143877057Y-95564838D01*
X143877058Y-95564837D01*
X143877063Y-95564834D01*
X143996650Y-95445247D01*
X144010973Y-95422452D01*
X144086625Y-95302054D01*
X144086627Y-95302051D01*
X144086627Y-95302049D01*
X144086629Y-95302047D01*
X144142486Y-95142416D01*
X144142486Y-95142415D01*
X144142487Y-95142413D01*
X144161422Y-94974359D01*
X144161422Y-94974354D01*
X144142487Y-94806300D01*
X144088535Y-94652115D01*
X144086629Y-94646667D01*
X144086628Y-94646666D01*
X144086627Y-94646662D01*
X144086625Y-94646659D01*
X143996654Y-94503472D01*
X143996649Y-94503466D01*
X143877063Y-94383880D01*
X143877057Y-94383875D01*
X143733870Y-94293904D01*
X143733867Y-94293902D01*
X143574229Y-94238042D01*
X143406176Y-94219108D01*
X143406170Y-94219108D01*
X143238118Y-94238042D01*
X143238111Y-94238044D01*
X143151803Y-94268244D01*
X143082024Y-94271805D01*
X143044878Y-94256196D01*
X143035711Y-94250436D01*
X142876079Y-94194579D01*
X142708025Y-94175644D01*
X142708019Y-94175644D01*
X142539965Y-94194578D01*
X142380327Y-94250438D01*
X142380324Y-94250440D01*
X142237137Y-94340411D01*
X142237131Y-94340416D01*
X142117545Y-94460002D01*
X142117540Y-94460008D01*
X142027569Y-94603195D01*
X142027566Y-94603200D01*
X141971707Y-94762839D01*
X141960606Y-94861359D01*
X141933539Y-94925773D01*
X141903366Y-94952463D01*
X141896112Y-94957021D01*
X141896107Y-94957025D01*
X141776523Y-95076609D01*
X141776518Y-95076615D01*
X141686547Y-95219802D01*
X141686545Y-95219805D01*
X141630685Y-95379443D01*
X141611751Y-95547497D01*
X141611751Y-95547502D01*
X135389623Y-95547502D01*
X135388082Y-95543098D01*
X135388081Y-95543097D01*
X135388080Y-95543093D01*
X135388078Y-95543090D01*
X135298107Y-95399903D01*
X135298102Y-95399897D01*
X135178516Y-95280311D01*
X135178510Y-95280306D01*
X135035323Y-95190335D01*
X135035320Y-95190333D01*
X134875682Y-95134473D01*
X134707629Y-95115539D01*
X134707623Y-95115539D01*
X134539569Y-95134473D01*
X134379931Y-95190333D01*
X134379928Y-95190335D01*
X134236741Y-95280306D01*
X134236735Y-95280311D01*
X134117149Y-95399897D01*
X134117144Y-95399903D01*
X134027173Y-95543090D01*
X134027171Y-95543093D01*
X133971311Y-95702731D01*
X133952377Y-95870785D01*
X133952377Y-95870790D01*
X129479204Y-95870790D01*
X129581056Y-95859314D01*
X129581059Y-95859313D01*
X129740690Y-95803456D01*
X129740692Y-95803454D01*
X129740694Y-95803454D01*
X129740697Y-95803452D01*
X129883884Y-95713481D01*
X129883885Y-95713480D01*
X129883890Y-95713477D01*
X130003477Y-95593890D01*
X130033664Y-95545846D01*
X130085998Y-95499555D01*
X130124776Y-95488598D01*
X130216055Y-95478314D01*
X130216057Y-95478313D01*
X130216059Y-95478313D01*
X130375690Y-95422456D01*
X130375693Y-95422453D01*
X130375697Y-95422452D01*
X130518884Y-95332481D01*
X130518885Y-95332480D01*
X130518890Y-95332477D01*
X130638477Y-95212890D01*
X130638481Y-95212884D01*
X130728452Y-95069697D01*
X130728454Y-95069694D01*
X130728454Y-95069692D01*
X130728456Y-95069690D01*
X130784313Y-94910059D01*
X130784313Y-94910058D01*
X130784314Y-94910056D01*
X130803249Y-94742002D01*
X130803249Y-94741997D01*
X130784314Y-94573943D01*
X130744446Y-94460008D01*
X130728456Y-94414310D01*
X130728455Y-94414309D01*
X130728454Y-94414305D01*
X130728452Y-94414302D01*
X130638481Y-94271115D01*
X130638476Y-94271109D01*
X130518890Y-94151523D01*
X130518884Y-94151518D01*
X130375697Y-94061547D01*
X130375694Y-94061545D01*
X130216056Y-94005685D01*
X130048003Y-93986751D01*
X130047997Y-93986751D01*
X129879943Y-94005685D01*
X129720305Y-94061545D01*
X129720302Y-94061547D01*
X129577115Y-94151518D01*
X129577109Y-94151523D01*
X129457522Y-94271110D01*
X129427333Y-94319155D01*
X129374997Y-94365444D01*
X129336226Y-94376400D01*
X129244946Y-94386685D01*
X129085307Y-94442544D01*
X129085302Y-94442547D01*
X128942115Y-94532518D01*
X128942109Y-94532523D01*
X128822523Y-94652109D01*
X128822518Y-94652115D01*
X128732547Y-94795302D01*
X128732545Y-94795305D01*
X128676685Y-94954943D01*
X128657751Y-95122997D01*
X128657751Y-95123002D01*
X127879031Y-95123002D01*
X127869132Y-95082202D01*
X127885604Y-95026101D01*
X127894650Y-95010435D01*
X127949897Y-94840403D01*
X127968585Y-94662600D01*
X127949897Y-94484797D01*
X127914677Y-94376400D01*
X127894652Y-94314770D01*
X127894649Y-94314764D01*
X127894643Y-94314753D01*
X127805259Y-94159935D01*
X127721080Y-94066445D01*
X127685630Y-94027073D01*
X127680842Y-94022762D01*
X127644193Y-93963276D01*
X127645523Y-93893419D01*
X127665756Y-93854713D01*
X127694196Y-93817973D01*
X127779330Y-93644416D01*
X127822945Y-93475966D01*
X133637928Y-93475966D01*
X133656862Y-93644020D01*
X133712722Y-93803658D01*
X133712724Y-93803661D01*
X133802695Y-93946848D01*
X133802700Y-93946854D01*
X133922286Y-94066440D01*
X133922292Y-94066445D01*
X134065479Y-94156416D01*
X134065482Y-94156418D01*
X134065486Y-94156419D01*
X134065487Y-94156420D01*
X134138090Y-94181824D01*
X134225120Y-94212278D01*
X134393174Y-94231213D01*
X134393177Y-94231213D01*
X134393180Y-94231213D01*
X134561233Y-94212278D01*
X134561236Y-94212277D01*
X134720867Y-94156420D01*
X134720869Y-94156418D01*
X134720871Y-94156418D01*
X134720874Y-94156416D01*
X134864061Y-94066445D01*
X134864062Y-94066444D01*
X134864067Y-94066441D01*
X134983654Y-93946854D01*
X135071187Y-93807547D01*
X135073629Y-93803661D01*
X135073631Y-93803658D01*
X135073631Y-93803656D01*
X135073633Y-93803654D01*
X135129490Y-93644023D01*
X135129490Y-93644022D01*
X135129491Y-93644020D01*
X135148426Y-93475966D01*
X135148426Y-93475961D01*
X135129491Y-93307907D01*
X135073631Y-93148269D01*
X135073629Y-93148266D01*
X134983658Y-93005079D01*
X134983653Y-93005073D01*
X134864067Y-92885487D01*
X134864061Y-92885482D01*
X134720874Y-92795511D01*
X134720871Y-92795509D01*
X134561233Y-92739649D01*
X134393180Y-92720715D01*
X134393174Y-92720715D01*
X134225120Y-92739649D01*
X134065482Y-92795509D01*
X134065479Y-92795511D01*
X133922292Y-92885482D01*
X133922286Y-92885487D01*
X133802700Y-93005073D01*
X133802695Y-93005079D01*
X133712724Y-93148266D01*
X133712722Y-93148269D01*
X133656862Y-93307907D01*
X133637928Y-93475961D01*
X133637928Y-93475966D01*
X127822945Y-93475966D01*
X127827785Y-93457274D01*
X127837576Y-93264210D01*
X127808303Y-93073126D01*
X127741164Y-92891847D01*
X127681118Y-92795511D01*
X127638911Y-92727796D01*
X127638910Y-92727795D01*
X127638909Y-92727793D01*
X127505723Y-92587681D01*
X127503685Y-92586262D01*
X127347057Y-92477246D01*
X127169412Y-92401013D01*
X126980056Y-92362100D01*
X125335194Y-92362100D01*
X125335193Y-92362100D01*
X125191077Y-92376754D01*
X125006640Y-92434622D01*
X125006625Y-92434629D01*
X124837611Y-92528439D01*
X124837606Y-92528442D01*
X124791770Y-92567792D01*
X124728081Y-92596524D01*
X124658969Y-92586262D01*
X124606377Y-92540264D01*
X124587000Y-92473706D01*
X124587000Y-92207752D01*
X124587000Y-91922259D01*
X124606683Y-91855224D01*
X124659487Y-91809469D01*
X124710972Y-91798264D01*
X125435378Y-91798138D01*
X125442604Y-91800258D01*
X125467199Y-91798323D01*
X125472039Y-91798131D01*
X125476099Y-91798131D01*
X125476100Y-91798130D01*
X125488154Y-91798129D01*
X125488450Y-91798100D01*
X125595930Y-91798100D01*
X125595933Y-91798100D01*
X125721146Y-91780097D01*
X125723747Y-91780471D01*
X125728717Y-91779278D01*
X125734355Y-91778198D01*
X125746221Y-91776492D01*
X125750174Y-91776053D01*
X125819752Y-91770577D01*
X125829503Y-91766560D01*
X125829107Y-91765212D01*
X125864398Y-91754849D01*
X125973641Y-91722773D01*
X125976673Y-91722773D01*
X125980982Y-91720988D01*
X125987232Y-91718782D01*
X126015024Y-91710622D01*
X126018017Y-91709824D01*
X126061153Y-91699468D01*
X126069557Y-91694002D01*
X135896751Y-91694002D01*
X135915685Y-91862056D01*
X135971545Y-92021694D01*
X135971547Y-92021697D01*
X136061518Y-92164884D01*
X136061523Y-92164890D01*
X136181109Y-92284476D01*
X136181115Y-92284481D01*
X136324302Y-92374452D01*
X136324305Y-92374454D01*
X136324309Y-92374455D01*
X136324310Y-92374456D01*
X136396913Y-92399860D01*
X136483943Y-92430314D01*
X136651997Y-92449249D01*
X136652000Y-92449249D01*
X136652003Y-92449249D01*
X136820059Y-92430313D01*
X136820060Y-92430313D01*
X136903794Y-92401013D01*
X136960796Y-92381066D01*
X137030574Y-92377504D01*
X137042706Y-92381067D01*
X137183442Y-92430313D01*
X137351500Y-92449249D01*
X137351503Y-92449249D01*
X137351506Y-92449249D01*
X137519559Y-92430314D01*
X137519562Y-92430313D01*
X137679193Y-92374456D01*
X137679195Y-92374454D01*
X137679197Y-92374454D01*
X137679200Y-92374452D01*
X137822387Y-92284481D01*
X137822388Y-92284480D01*
X137822393Y-92284477D01*
X137941980Y-92164890D01*
X137969901Y-92120454D01*
X138031955Y-92021697D01*
X138031957Y-92021694D01*
X138031957Y-92021692D01*
X138031959Y-92021690D01*
X138087816Y-91862059D01*
X138087816Y-91862058D01*
X138087817Y-91862056D01*
X138106752Y-91694002D01*
X138106752Y-91693997D01*
X138087817Y-91525943D01*
X138057745Y-91440002D01*
X140214751Y-91440002D01*
X140233685Y-91608056D01*
X140289545Y-91767694D01*
X140289547Y-91767697D01*
X140379518Y-91910884D01*
X140379523Y-91910890D01*
X140499109Y-92030476D01*
X140499115Y-92030481D01*
X140642302Y-92120452D01*
X140642305Y-92120454D01*
X140642309Y-92120455D01*
X140642310Y-92120456D01*
X140714913Y-92145860D01*
X140801943Y-92176314D01*
X140969997Y-92195249D01*
X140970000Y-92195249D01*
X140970003Y-92195249D01*
X141138056Y-92176314D01*
X141170721Y-92164884D01*
X141297690Y-92120456D01*
X141297692Y-92120454D01*
X141297694Y-92120454D01*
X141297697Y-92120452D01*
X141440884Y-92030481D01*
X141440885Y-92030480D01*
X141440890Y-92030477D01*
X141560477Y-91910890D01*
X141579849Y-91880060D01*
X144619859Y-91880060D01*
X144638793Y-92048114D01*
X144694653Y-92207752D01*
X144694655Y-92207755D01*
X144784626Y-92350942D01*
X144784631Y-92350948D01*
X144904217Y-92470534D01*
X144904223Y-92470539D01*
X145047410Y-92560510D01*
X145047413Y-92560512D01*
X145047417Y-92560513D01*
X145047418Y-92560514D01*
X145120021Y-92585918D01*
X145207051Y-92616372D01*
X145375105Y-92635307D01*
X145375108Y-92635307D01*
X145375111Y-92635307D01*
X145543164Y-92616372D01*
X145543167Y-92616371D01*
X145702798Y-92560514D01*
X145702800Y-92560512D01*
X145702802Y-92560512D01*
X145702805Y-92560510D01*
X145845992Y-92470539D01*
X145845993Y-92470538D01*
X145845998Y-92470535D01*
X145965585Y-92350948D01*
X145965589Y-92350942D01*
X146055560Y-92207755D01*
X146055562Y-92207752D01*
X146055562Y-92207750D01*
X146055564Y-92207748D01*
X146111421Y-92048117D01*
X146111421Y-92048116D01*
X146111422Y-92048114D01*
X146130357Y-91880060D01*
X146130357Y-91880055D01*
X146111422Y-91712001D01*
X146070197Y-91594187D01*
X146055564Y-91552368D01*
X146055563Y-91552367D01*
X146055562Y-91552363D01*
X146055560Y-91552360D01*
X145965589Y-91409173D01*
X145965584Y-91409167D01*
X145845998Y-91289581D01*
X145845992Y-91289576D01*
X145702805Y-91199605D01*
X145702802Y-91199603D01*
X145543164Y-91143743D01*
X145375111Y-91124809D01*
X145375105Y-91124809D01*
X145207051Y-91143743D01*
X145047413Y-91199603D01*
X145047410Y-91199605D01*
X144904223Y-91289576D01*
X144904217Y-91289581D01*
X144784631Y-91409167D01*
X144784626Y-91409173D01*
X144694655Y-91552360D01*
X144694653Y-91552363D01*
X144638793Y-91712001D01*
X144619859Y-91880055D01*
X144619859Y-91880060D01*
X141579849Y-91880060D01*
X141592960Y-91859194D01*
X141650452Y-91767697D01*
X141650454Y-91767694D01*
X141650454Y-91767692D01*
X141650456Y-91767690D01*
X141706313Y-91608059D01*
X141706313Y-91608058D01*
X141706314Y-91608056D01*
X141725249Y-91440002D01*
X141725249Y-91439997D01*
X141706314Y-91271943D01*
X141663003Y-91148167D01*
X141650456Y-91112310D01*
X141650455Y-91112309D01*
X141650454Y-91112305D01*
X141650452Y-91112302D01*
X141560481Y-90969115D01*
X141560476Y-90969109D01*
X141440890Y-90849523D01*
X141440884Y-90849518D01*
X141297697Y-90759547D01*
X141297694Y-90759545D01*
X141138056Y-90703685D01*
X140970003Y-90684751D01*
X140969997Y-90684751D01*
X140801943Y-90703685D01*
X140642305Y-90759545D01*
X140642302Y-90759547D01*
X140499115Y-90849518D01*
X140499109Y-90849523D01*
X140379523Y-90969109D01*
X140379518Y-90969115D01*
X140289547Y-91112302D01*
X140289545Y-91112305D01*
X140233685Y-91271943D01*
X140214751Y-91439997D01*
X140214751Y-91440002D01*
X138057745Y-91440002D01*
X138046957Y-91409173D01*
X138031959Y-91366310D01*
X138031958Y-91366309D01*
X138031957Y-91366305D01*
X138031955Y-91366302D01*
X137941984Y-91223115D01*
X137941979Y-91223109D01*
X137822393Y-91103523D01*
X137822387Y-91103518D01*
X137679200Y-91013547D01*
X137679197Y-91013545D01*
X137519559Y-90957685D01*
X137351506Y-90938751D01*
X137351500Y-90938751D01*
X137183445Y-90957686D01*
X137042705Y-91006933D01*
X136972927Y-91010494D01*
X136960800Y-91006934D01*
X136930496Y-90996330D01*
X136820056Y-90957685D01*
X136652003Y-90938751D01*
X136651997Y-90938751D01*
X136483943Y-90957685D01*
X136324305Y-91013545D01*
X136324302Y-91013547D01*
X136181115Y-91103518D01*
X136181109Y-91103523D01*
X136061523Y-91223109D01*
X136061518Y-91223115D01*
X135971547Y-91366302D01*
X135971545Y-91366305D01*
X135915685Y-91525943D01*
X135896751Y-91693997D01*
X135896751Y-91694002D01*
X126069557Y-91694002D01*
X126071517Y-91692727D01*
X126210885Y-91629081D01*
X126214888Y-91628506D01*
X126219701Y-91625557D01*
X126226334Y-91622026D01*
X126281697Y-91596744D01*
X126281701Y-91596740D01*
X126283287Y-91596017D01*
X126287105Y-91594187D01*
X126291929Y-91592188D01*
X126300360Y-91584749D01*
X126430206Y-91501303D01*
X126435153Y-91499850D01*
X126440113Y-91495615D01*
X126446869Y-91490596D01*
X126483482Y-91467066D01*
X126483482Y-91467065D01*
X126483485Y-91467064D01*
X126488209Y-91462970D01*
X126503830Y-91451534D01*
X126510453Y-91443696D01*
X126627426Y-91342340D01*
X126633105Y-91339747D01*
X126634698Y-91337882D01*
X126647788Y-91324697D01*
X126664765Y-91309987D01*
X126679487Y-91292996D01*
X126692514Y-91280063D01*
X126697096Y-91272675D01*
X126798412Y-91155752D01*
X126804512Y-91151832D01*
X126805711Y-91149876D01*
X126817724Y-91133465D01*
X126821845Y-91128710D01*
X126845403Y-91092052D01*
X126850419Y-91085302D01*
X126853271Y-91081962D01*
X126856128Y-91075365D01*
X126939453Y-90945713D01*
X126945631Y-90940360D01*
X126948900Y-90932470D01*
X126950947Y-90928198D01*
X126953332Y-90922977D01*
X126976854Y-90871470D01*
X126980392Y-90864823D01*
X126982485Y-90861406D01*
X126983962Y-90855906D01*
X127047444Y-90716905D01*
X127053346Y-90710095D01*
X127064502Y-90663627D01*
X127065295Y-90660651D01*
X127073624Y-90632285D01*
X127075828Y-90626042D01*
X127077196Y-90622739D01*
X127077703Y-90618396D01*
X127118757Y-90478587D01*
X127118757Y-90478580D01*
X127119964Y-90474473D01*
X127125244Y-90466256D01*
X127130789Y-90395809D01*
X127131229Y-90391849D01*
X127133030Y-90379323D01*
X127134109Y-90373690D01*
X127135169Y-90369275D01*
X127135049Y-90365284D01*
X127152897Y-90241164D01*
X127152898Y-90171646D01*
X127154675Y-90165594D01*
X127152971Y-90122990D01*
X127152931Y-90119416D01*
X127153010Y-90114948D01*
X127153191Y-90111176D01*
X127155338Y-90083889D01*
X127153721Y-90074344D01*
X127154717Y-90017601D01*
X128386932Y-90017601D01*
X128406764Y-90244286D01*
X128406766Y-90244297D01*
X128465658Y-90464088D01*
X128465661Y-90464097D01*
X128561831Y-90670332D01*
X128561832Y-90670334D01*
X128692354Y-90856741D01*
X128853258Y-91017645D01*
X128853261Y-91017647D01*
X129039666Y-91148168D01*
X129245904Y-91244339D01*
X129465708Y-91303235D01*
X129635616Y-91318100D01*
X129749184Y-91318100D01*
X129919092Y-91303235D01*
X130138896Y-91244339D01*
X130345134Y-91148168D01*
X130531539Y-91017647D01*
X130692447Y-90856739D01*
X130822968Y-90670334D01*
X130919139Y-90464096D01*
X130978035Y-90244292D01*
X130997868Y-90017600D01*
X130997770Y-90016485D01*
X130985521Y-89876478D01*
X130978035Y-89790908D01*
X130924987Y-89592928D01*
X130919141Y-89571111D01*
X130919138Y-89571102D01*
X130904311Y-89539306D01*
X130822968Y-89364866D01*
X130746460Y-89255600D01*
X132507341Y-89255600D01*
X132527936Y-89491003D01*
X132527938Y-89491013D01*
X132589094Y-89719255D01*
X132589096Y-89719259D01*
X132589097Y-89719263D01*
X132655475Y-89861610D01*
X132688965Y-89933430D01*
X132688967Y-89933434D01*
X132749556Y-90019963D01*
X132824505Y-90127001D01*
X132991599Y-90294095D01*
X133069562Y-90348685D01*
X133185165Y-90429632D01*
X133185167Y-90429633D01*
X133185170Y-90429635D01*
X133399337Y-90529503D01*
X133627592Y-90590663D01*
X133804034Y-90606100D01*
X133862999Y-90611259D01*
X133863000Y-90611259D01*
X133863001Y-90611259D01*
X133921966Y-90606100D01*
X134098408Y-90590663D01*
X134326663Y-90529503D01*
X134540830Y-90429635D01*
X134734401Y-90294095D01*
X134856329Y-90172166D01*
X134917648Y-90138684D01*
X134987340Y-90143668D01*
X135043274Y-90185539D01*
X135060189Y-90216517D01*
X135109202Y-90347928D01*
X135109206Y-90347935D01*
X135195452Y-90463144D01*
X135195455Y-90463147D01*
X135310664Y-90549393D01*
X135310671Y-90549397D01*
X135445517Y-90599691D01*
X135445516Y-90599691D01*
X135452444Y-90600435D01*
X135505127Y-90606100D01*
X137300872Y-90606099D01*
X137360483Y-90599691D01*
X137495331Y-90549396D01*
X137610546Y-90463146D01*
X137639849Y-90424002D01*
X141738751Y-90424002D01*
X141757685Y-90592056D01*
X141813545Y-90751694D01*
X141813547Y-90751697D01*
X141903518Y-90894884D01*
X141903523Y-90894890D01*
X142023109Y-91014476D01*
X142023115Y-91014481D01*
X142166302Y-91104452D01*
X142166305Y-91104454D01*
X142166309Y-91104455D01*
X142166310Y-91104456D01*
X142224476Y-91124809D01*
X142325943Y-91160314D01*
X142493997Y-91179249D01*
X142494000Y-91179249D01*
X142494003Y-91179249D01*
X142662056Y-91160314D01*
X142691886Y-91149876D01*
X142821690Y-91104456D01*
X142821692Y-91104454D01*
X142821694Y-91104454D01*
X142821697Y-91104452D01*
X142964884Y-91014481D01*
X142964885Y-91014480D01*
X142964890Y-91014477D01*
X143047365Y-90932002D01*
X150120751Y-90932002D01*
X150139685Y-91100056D01*
X150195545Y-91259694D01*
X150195547Y-91259697D01*
X150285518Y-91402884D01*
X150285523Y-91402890D01*
X150405109Y-91522476D01*
X150405115Y-91522481D01*
X150548302Y-91612452D01*
X150548305Y-91612454D01*
X150548309Y-91612455D01*
X150548310Y-91612456D01*
X150575640Y-91622019D01*
X150707943Y-91668314D01*
X150875997Y-91687249D01*
X150876000Y-91687249D01*
X150876003Y-91687249D01*
X151044056Y-91668314D01*
X151108809Y-91645656D01*
X151203690Y-91612456D01*
X151203692Y-91612454D01*
X151203694Y-91612454D01*
X151203697Y-91612452D01*
X151332527Y-91531502D01*
X153864751Y-91531502D01*
X153883685Y-91699556D01*
X153939545Y-91859194D01*
X153939547Y-91859197D01*
X154029518Y-92002384D01*
X154029523Y-92002390D01*
X154149109Y-92121976D01*
X154149115Y-92121981D01*
X154292302Y-92211952D01*
X154292305Y-92211954D01*
X154292309Y-92211955D01*
X154292310Y-92211956D01*
X154451941Y-92267813D01*
X154486398Y-92271695D01*
X154550810Y-92298760D01*
X154581822Y-92342919D01*
X154584429Y-92341664D01*
X154587451Y-92347941D01*
X154677421Y-92491126D01*
X154677426Y-92491132D01*
X154797014Y-92610720D01*
X154908053Y-92680491D01*
X154954343Y-92732825D01*
X154965300Y-92799367D01*
X154946751Y-92963996D01*
X154946751Y-92964002D01*
X154965685Y-93132056D01*
X155021545Y-93291694D01*
X155021547Y-93291697D01*
X155111518Y-93434884D01*
X155111523Y-93434890D01*
X155218687Y-93542054D01*
X155252172Y-93603377D01*
X155247188Y-93673069D01*
X155205316Y-93729002D01*
X155139852Y-93753419D01*
X155115085Y-93751521D01*
X155114979Y-93752466D01*
X154940003Y-93732751D01*
X154939997Y-93732751D01*
X154771943Y-93751685D01*
X154612305Y-93807545D01*
X154612302Y-93807547D01*
X154469115Y-93897518D01*
X154469109Y-93897523D01*
X154349523Y-94017109D01*
X154349518Y-94017115D01*
X154259547Y-94160302D01*
X154259545Y-94160305D01*
X154203685Y-94319943D01*
X154184751Y-94487997D01*
X154184751Y-94488002D01*
X154203685Y-94656056D01*
X154259545Y-94815694D01*
X154259547Y-94815697D01*
X154349518Y-94958884D01*
X154349523Y-94958890D01*
X154469109Y-95078476D01*
X154469115Y-95078481D01*
X154612302Y-95168452D01*
X154612305Y-95168454D01*
X154612309Y-95168455D01*
X154612310Y-95168456D01*
X154656698Y-95183988D01*
X154771943Y-95224314D01*
X154939997Y-95243249D01*
X154940000Y-95243249D01*
X154940003Y-95243249D01*
X155108056Y-95224314D01*
X155120942Y-95219805D01*
X155267690Y-95168456D01*
X155267692Y-95168454D01*
X155267694Y-95168454D01*
X155267697Y-95168452D01*
X155410884Y-95078481D01*
X155410885Y-95078480D01*
X155410890Y-95078477D01*
X155530477Y-94958890D01*
X155531650Y-94957023D01*
X155620452Y-94815697D01*
X155620454Y-94815694D01*
X155620454Y-94815692D01*
X155620456Y-94815690D01*
X155676313Y-94656059D01*
X155676313Y-94656058D01*
X155676314Y-94656056D01*
X155695249Y-94488002D01*
X155695249Y-94487997D01*
X155676314Y-94319943D01*
X155635232Y-94202539D01*
X155620456Y-94160310D01*
X155620455Y-94160309D01*
X155620454Y-94160305D01*
X155620452Y-94160302D01*
X155530481Y-94017115D01*
X155530476Y-94017109D01*
X155423312Y-93909945D01*
X155389827Y-93848622D01*
X155394811Y-93778930D01*
X155436683Y-93722997D01*
X155502147Y-93698580D01*
X155526914Y-93700482D01*
X155527021Y-93699534D01*
X155701997Y-93719249D01*
X155702000Y-93719249D01*
X155702003Y-93719249D01*
X155870056Y-93700314D01*
X155872285Y-93699534D01*
X156029690Y-93644456D01*
X156029692Y-93644454D01*
X156029694Y-93644454D01*
X156029697Y-93644452D01*
X156172884Y-93554481D01*
X156172885Y-93554480D01*
X156172890Y-93554477D01*
X156292477Y-93434890D01*
X156338912Y-93360990D01*
X156382452Y-93291697D01*
X156382454Y-93291694D01*
X156382454Y-93291692D01*
X156382456Y-93291690D01*
X156438313Y-93132059D01*
X156438313Y-93132058D01*
X156438314Y-93132056D01*
X156457249Y-92964002D01*
X156457249Y-92963997D01*
X156438314Y-92795943D01*
X156404986Y-92700698D01*
X156382456Y-92636310D01*
X156382455Y-92636309D01*
X156382454Y-92636305D01*
X156382452Y-92636302D01*
X156292481Y-92493115D01*
X156292476Y-92493109D01*
X156172888Y-92373521D01*
X156061849Y-92303750D01*
X156015559Y-92251415D01*
X156004602Y-92184873D01*
X156005567Y-92176314D01*
X156020012Y-92048114D01*
X156023152Y-92020244D01*
X156023152Y-92020239D01*
X156004217Y-91852185D01*
X155950779Y-91699468D01*
X155948359Y-91692552D01*
X155948358Y-91692551D01*
X155948357Y-91692547D01*
X155948355Y-91692544D01*
X155858384Y-91549357D01*
X155858379Y-91549351D01*
X155826401Y-91517373D01*
X155792916Y-91456050D01*
X155797900Y-91386358D01*
X155809085Y-91363725D01*
X155874456Y-91259690D01*
X155930313Y-91100059D01*
X155930313Y-91100058D01*
X155930314Y-91100056D01*
X155949249Y-90932002D01*
X155949249Y-90931997D01*
X155930314Y-90763943D01*
X155894012Y-90660197D01*
X155874456Y-90604310D01*
X155874455Y-90604309D01*
X155874454Y-90604305D01*
X155874452Y-90604302D01*
X155784481Y-90461115D01*
X155784476Y-90461109D01*
X155664890Y-90341523D01*
X155664884Y-90341518D01*
X155568740Y-90281106D01*
X157148119Y-90281106D01*
X157167053Y-90449160D01*
X157222913Y-90608798D01*
X157222915Y-90608801D01*
X157312886Y-90751988D01*
X157312891Y-90751994D01*
X157432477Y-90871580D01*
X157432483Y-90871585D01*
X157575670Y-90961556D01*
X157575673Y-90961558D01*
X157575677Y-90961559D01*
X157575678Y-90961560D01*
X157641489Y-90984588D01*
X157735311Y-91017418D01*
X157903365Y-91036353D01*
X157903368Y-91036353D01*
X157903371Y-91036353D01*
X158071424Y-91017418D01*
X158071427Y-91017417D01*
X158231058Y-90961560D01*
X158231060Y-90961558D01*
X158231062Y-90961558D01*
X158231065Y-90961556D01*
X158374252Y-90871585D01*
X158374253Y-90871584D01*
X158374258Y-90871581D01*
X158493845Y-90751994D01*
X158500822Y-90740891D01*
X158583820Y-90608801D01*
X158583822Y-90608798D01*
X158583822Y-90608796D01*
X158583824Y-90608794D01*
X158639681Y-90449163D01*
X158640112Y-90445330D01*
X158640814Y-90439114D01*
X158667882Y-90374700D01*
X158725478Y-90335147D01*
X158764034Y-90329000D01*
X158899543Y-90329000D01*
X158966582Y-90348685D01*
X159012337Y-90401489D01*
X159022763Y-90439116D01*
X159029685Y-90500555D01*
X159085545Y-90660194D01*
X159085547Y-90660197D01*
X159175518Y-90803384D01*
X159175523Y-90803390D01*
X159295109Y-90922976D01*
X159295115Y-90922981D01*
X159438302Y-91012952D01*
X159438305Y-91012954D01*
X159438309Y-91012955D01*
X159438310Y-91012956D01*
X159479606Y-91027406D01*
X159597943Y-91068814D01*
X159765997Y-91087749D01*
X159766000Y-91087749D01*
X159766003Y-91087749D01*
X159934052Y-91068814D01*
X159934052Y-91068813D01*
X159934059Y-91068813D01*
X159976034Y-91054124D01*
X160045809Y-91050562D01*
X160082958Y-91066172D01*
X160156373Y-91112302D01*
X160184307Y-91129854D01*
X160184305Y-91129854D01*
X160184309Y-91129855D01*
X160184310Y-91129856D01*
X160223997Y-91143743D01*
X160343943Y-91185714D01*
X160511997Y-91204649D01*
X160512000Y-91204649D01*
X160512003Y-91204649D01*
X160680056Y-91185714D01*
X160698532Y-91179249D01*
X160839690Y-91129856D01*
X160839692Y-91129854D01*
X160839694Y-91129854D01*
X160839697Y-91129852D01*
X160982884Y-91039881D01*
X160982885Y-91039880D01*
X160982890Y-91039877D01*
X161102477Y-90920290D01*
X161133153Y-90871470D01*
X161192452Y-90777097D01*
X161192454Y-90777094D01*
X161192454Y-90777092D01*
X161192456Y-90777090D01*
X161248313Y-90617459D01*
X161248313Y-90617458D01*
X161248314Y-90617456D01*
X161267249Y-90449402D01*
X161267249Y-90449397D01*
X161248314Y-90281345D01*
X161248313Y-90281342D01*
X161248230Y-90281106D01*
X161220221Y-90201060D01*
X161216661Y-90131283D01*
X161251390Y-90070655D01*
X161253662Y-90068528D01*
X161345790Y-89984544D01*
X163286366Y-89984544D01*
X163306199Y-90211229D01*
X163306201Y-90211240D01*
X163365093Y-90431031D01*
X163365096Y-90431040D01*
X163461266Y-90637275D01*
X163461267Y-90637277D01*
X163591789Y-90823684D01*
X163752693Y-90984588D01*
X163793204Y-91012954D01*
X163939101Y-91115111D01*
X164145339Y-91211282D01*
X164365143Y-91270178D01*
X164535051Y-91285043D01*
X164648619Y-91285043D01*
X164818527Y-91270178D01*
X165038331Y-91211282D01*
X165244569Y-91115111D01*
X165430974Y-90984590D01*
X165591882Y-90823682D01*
X165722403Y-90637277D01*
X165818574Y-90431039D01*
X165877470Y-90211235D01*
X165897303Y-89984543D01*
X165877470Y-89757851D01*
X165818574Y-89538047D01*
X165722403Y-89331809D01*
X165591882Y-89145404D01*
X165591880Y-89145401D01*
X165430976Y-88984497D01*
X165244569Y-88853975D01*
X165244567Y-88853974D01*
X165038332Y-88757804D01*
X165038323Y-88757801D01*
X164818532Y-88698909D01*
X164818522Y-88698907D01*
X164648619Y-88684043D01*
X164535051Y-88684043D01*
X164365147Y-88698907D01*
X164365137Y-88698909D01*
X164145346Y-88757801D01*
X164145337Y-88757804D01*
X163939102Y-88853974D01*
X163939100Y-88853975D01*
X163752693Y-88984497D01*
X163591789Y-89145401D01*
X163461267Y-89331808D01*
X163461266Y-89331810D01*
X163365096Y-89538045D01*
X163365093Y-89538054D01*
X163306201Y-89757845D01*
X163306199Y-89757856D01*
X163286366Y-89984541D01*
X163286366Y-89984544D01*
X161345790Y-89984544D01*
X161384427Y-89949322D01*
X161515712Y-89775472D01*
X161612817Y-89580459D01*
X161672435Y-89370923D01*
X161692536Y-89154000D01*
X161691739Y-89145404D01*
X161676829Y-88984496D01*
X161672435Y-88937077D01*
X161612817Y-88727541D01*
X161515712Y-88532528D01*
X161384427Y-88358678D01*
X161383379Y-88357723D01*
X161250849Y-88236906D01*
X161223432Y-88211912D01*
X161223428Y-88211909D01*
X161223423Y-88211906D01*
X161038213Y-88097229D01*
X161038207Y-88097226D01*
X160942112Y-88059999D01*
X160835069Y-88018530D01*
X160620926Y-87978500D01*
X160403074Y-87978500D01*
X160188931Y-88018530D01*
X160149809Y-88033686D01*
X159985792Y-88097226D01*
X159985786Y-88097229D01*
X159800565Y-88211913D01*
X159789214Y-88222261D01*
X159726408Y-88252875D01*
X159657021Y-88244674D01*
X159606414Y-88204932D01*
X159544187Y-88121809D01*
X159429093Y-88035649D01*
X159429086Y-88035645D01*
X159294379Y-87985403D01*
X159294372Y-87985401D01*
X159234844Y-87979000D01*
X158762000Y-87979000D01*
X158762000Y-88838314D01*
X158750045Y-88826359D01*
X158637148Y-88768835D01*
X158543481Y-88754000D01*
X158480519Y-88754000D01*
X158386852Y-88768835D01*
X158273955Y-88826359D01*
X158262000Y-88838314D01*
X158262000Y-87979000D01*
X157789155Y-87979000D01*
X157729627Y-87985401D01*
X157729620Y-87985403D01*
X157594913Y-88035645D01*
X157594906Y-88035649D01*
X157479812Y-88121809D01*
X157479809Y-88121812D01*
X157393649Y-88236906D01*
X157393645Y-88236913D01*
X157343403Y-88371620D01*
X157343401Y-88371627D01*
X157337000Y-88431155D01*
X157337000Y-88904000D01*
X158196314Y-88904000D01*
X158184359Y-88915955D01*
X158126835Y-89028852D01*
X158107014Y-89154000D01*
X158126835Y-89279148D01*
X158184359Y-89392045D01*
X158196314Y-89404000D01*
X157337000Y-89404000D01*
X157337000Y-89736593D01*
X157317315Y-89803632D01*
X157314982Y-89806884D01*
X157222915Y-89953406D01*
X157222913Y-89953409D01*
X157167053Y-90113047D01*
X157148119Y-90281101D01*
X157148119Y-90281106D01*
X155568740Y-90281106D01*
X155521697Y-90251547D01*
X155521694Y-90251545D01*
X155362056Y-90195685D01*
X155194003Y-90176751D01*
X155193997Y-90176751D01*
X155025943Y-90195685D01*
X154866305Y-90251545D01*
X154866302Y-90251547D01*
X154723115Y-90341518D01*
X154723109Y-90341523D01*
X154603523Y-90461109D01*
X154603518Y-90461115D01*
X154513547Y-90604302D01*
X154513542Y-90604313D01*
X154465751Y-90740891D01*
X154425030Y-90797667D01*
X154389665Y-90816977D01*
X154292313Y-90851042D01*
X154292302Y-90851047D01*
X154149115Y-90941018D01*
X154149109Y-90941023D01*
X154029523Y-91060609D01*
X154029518Y-91060615D01*
X153939547Y-91203802D01*
X153939545Y-91203805D01*
X153883685Y-91363443D01*
X153864751Y-91531497D01*
X153864751Y-91531502D01*
X151332527Y-91531502D01*
X151346884Y-91522481D01*
X151346885Y-91522480D01*
X151346890Y-91522477D01*
X151466477Y-91402890D01*
X151491090Y-91363719D01*
X151556452Y-91259697D01*
X151556454Y-91259694D01*
X151556454Y-91259692D01*
X151556456Y-91259690D01*
X151612313Y-91100059D01*
X151612313Y-91100058D01*
X151612314Y-91100056D01*
X151631249Y-90932002D01*
X151631249Y-90931997D01*
X151612314Y-90763943D01*
X151576012Y-90660197D01*
X151556456Y-90604310D01*
X151556455Y-90604309D01*
X151556454Y-90604305D01*
X151556452Y-90604302D01*
X151466481Y-90461115D01*
X151466476Y-90461109D01*
X151346890Y-90341523D01*
X151346884Y-90341518D01*
X151203697Y-90251547D01*
X151203694Y-90251545D01*
X151044056Y-90195685D01*
X150876003Y-90176751D01*
X150875997Y-90176751D01*
X150707943Y-90195685D01*
X150548305Y-90251545D01*
X150548302Y-90251547D01*
X150405115Y-90341518D01*
X150405109Y-90341523D01*
X150285523Y-90461109D01*
X150285518Y-90461115D01*
X150195547Y-90604302D01*
X150195545Y-90604305D01*
X150139685Y-90763943D01*
X150120751Y-90931997D01*
X150120751Y-90932002D01*
X143047365Y-90932002D01*
X143084477Y-90894890D01*
X143099193Y-90871470D01*
X143174452Y-90751697D01*
X143174454Y-90751694D01*
X143174454Y-90751692D01*
X143174456Y-90751690D01*
X143230313Y-90592059D01*
X143230313Y-90592058D01*
X143230314Y-90592056D01*
X143249249Y-90424002D01*
X143249249Y-90423997D01*
X143230314Y-90255943D01*
X143189283Y-90138684D01*
X143174456Y-90096310D01*
X143174455Y-90096309D01*
X143174454Y-90096305D01*
X143174452Y-90096302D01*
X143084481Y-89953115D01*
X143084476Y-89953109D01*
X142964890Y-89833523D01*
X142964884Y-89833518D01*
X142821697Y-89743547D01*
X142821694Y-89743545D01*
X142662056Y-89687685D01*
X142494003Y-89668751D01*
X142493997Y-89668751D01*
X142325943Y-89687685D01*
X142166305Y-89743545D01*
X142166302Y-89743547D01*
X142023115Y-89833518D01*
X142023109Y-89833523D01*
X141903523Y-89953109D01*
X141903518Y-89953115D01*
X141813547Y-90096302D01*
X141813545Y-90096305D01*
X141757685Y-90255943D01*
X141738751Y-90423997D01*
X141738751Y-90424002D01*
X137639849Y-90424002D01*
X137696796Y-90347931D01*
X137747091Y-90213083D01*
X137753500Y-90153473D01*
X137753499Y-88357728D01*
X137747091Y-88298117D01*
X137745810Y-88294683D01*
X137696797Y-88163271D01*
X137696793Y-88163264D01*
X137610547Y-88048055D01*
X137610544Y-88048052D01*
X137495335Y-87961806D01*
X137495328Y-87961802D01*
X137360482Y-87911508D01*
X137360483Y-87911508D01*
X137300883Y-87905101D01*
X137300881Y-87905100D01*
X137300873Y-87905100D01*
X137300864Y-87905100D01*
X135505129Y-87905100D01*
X135505123Y-87905101D01*
X135445516Y-87911508D01*
X135310671Y-87961802D01*
X135310664Y-87961806D01*
X135195455Y-88048052D01*
X135195452Y-88048055D01*
X135109206Y-88163264D01*
X135109203Y-88163269D01*
X135060189Y-88294683D01*
X135018317Y-88350616D01*
X134952853Y-88375033D01*
X134884580Y-88360181D01*
X134856326Y-88339030D01*
X134734402Y-88217106D01*
X134734395Y-88217101D01*
X134726984Y-88211912D01*
X134674772Y-88175352D01*
X134540834Y-88081567D01*
X134540830Y-88081565D01*
X134525044Y-88074204D01*
X134326663Y-87981697D01*
X134326659Y-87981696D01*
X134326655Y-87981694D01*
X134098413Y-87920538D01*
X134098403Y-87920536D01*
X133863001Y-87899941D01*
X133862999Y-87899941D01*
X133627596Y-87920536D01*
X133627586Y-87920538D01*
X133399344Y-87981694D01*
X133399337Y-87981696D01*
X133399337Y-87981697D01*
X133391904Y-87985163D01*
X133185171Y-88081564D01*
X133185169Y-88081565D01*
X132991597Y-88217105D01*
X132824505Y-88384197D01*
X132688965Y-88577769D01*
X132688964Y-88577771D01*
X132589098Y-88791935D01*
X132589094Y-88791944D01*
X132527938Y-89020186D01*
X132527936Y-89020196D01*
X132507341Y-89255599D01*
X132507341Y-89255600D01*
X130746460Y-89255600D01*
X130692447Y-89178461D01*
X130692445Y-89178458D01*
X130531541Y-89017554D01*
X130345134Y-88887032D01*
X130345132Y-88887031D01*
X130138897Y-88790861D01*
X130138888Y-88790858D01*
X129919097Y-88731966D01*
X129919087Y-88731964D01*
X129749184Y-88717100D01*
X129635616Y-88717100D01*
X129465712Y-88731964D01*
X129465702Y-88731966D01*
X129245911Y-88790858D01*
X129245902Y-88790861D01*
X129039667Y-88887031D01*
X129039665Y-88887032D01*
X128853258Y-89017554D01*
X128692354Y-89178458D01*
X128561832Y-89364865D01*
X128561831Y-89364867D01*
X128465661Y-89571102D01*
X128465658Y-89571111D01*
X128406766Y-89790902D01*
X128406764Y-89790913D01*
X128386932Y-90017598D01*
X128386932Y-90017601D01*
X127154717Y-90017601D01*
X127154873Y-90008705D01*
X127158905Y-89825246D01*
X127159433Y-89818440D01*
X127177799Y-89680739D01*
X127200782Y-89524311D01*
X127202006Y-89518173D01*
X127237356Y-89378358D01*
X127278237Y-89230526D01*
X127280005Y-89225126D01*
X127331972Y-89088191D01*
X127390149Y-88948134D01*
X127392330Y-88943451D01*
X127441415Y-88848652D01*
X127460232Y-88812310D01*
X127491266Y-88757804D01*
X127534955Y-88681072D01*
X127537385Y-88677155D01*
X127619493Y-88555269D01*
X127621181Y-88552890D01*
X127710600Y-88433167D01*
X127713110Y-88430029D01*
X127808796Y-88318226D01*
X127811141Y-88315640D01*
X127914608Y-88207952D01*
X127917096Y-88205508D01*
X128024917Y-88105490D01*
X128027962Y-88102849D01*
X128144136Y-88008619D01*
X128146472Y-88006816D01*
X128264773Y-87920051D01*
X128268593Y-87917464D01*
X128397054Y-87837357D01*
X128525019Y-87764471D01*
X128529593Y-87762114D01*
X128667846Y-87698093D01*
X128801916Y-87640982D01*
X128807268Y-87638990D01*
X128954455Y-87591879D01*
X129091602Y-87551305D01*
X129097650Y-87549846D01*
X129255215Y-87520219D01*
X129389893Y-87496742D01*
X129396654Y-87495946D01*
X129587003Y-87484137D01*
X129690059Y-87478201D01*
X129693585Y-87478100D01*
X164537738Y-87479647D01*
G37*
G04 #@! TD.AperFunction*
M02*
