%TF.GenerationSoftware,KiCad,Pcbnew,7.0.6*%
%TF.CreationDate,2024-02-06T23:20:28+01:00*%
%TF.ProjectId,USB2CANv2,55534232-4341-44e7-9632-2e6b69636164,0_2*%
%TF.SameCoordinates,Original*%
%TF.FileFunction,Drillmap*%
%TF.FilePolarity,Positive*%
%FSLAX45Y45*%
G04 Gerber Fmt 4.5, Leading zero omitted, Abs format (unit mm)*
G04 Created by KiCad (PCBNEW 7.0.6) date 2024-02-06 23:20:28*
%MOMM*%
%LPD*%
G01*
G04 APERTURE LIST*
%ADD10C,0.100000*%
%ADD11C,0.200000*%
%ADD12C,0.210000*%
G04 APERTURE END LIST*
D10*
X16712960Y-9001915D02*
X16712960Y-10525808D01*
X16712960Y-9001915D02*
G75*
G03*
X16458960Y-8747915I-254000J0D01*
G01*
X12969240Y-8747760D02*
X16458960Y-8747915D01*
X12969240Y-10779963D02*
X16458960Y-10779808D01*
X12099847Y-9179841D02*
X12099847Y-10347882D01*
X12547600Y-9179763D02*
X12099847Y-9179841D01*
X12547600Y-9179763D02*
G75*
G03*
X12715240Y-9012123I0J167640D01*
G01*
X12547600Y-10347960D02*
X12099847Y-10347882D01*
X12715240Y-10515600D02*
G75*
G03*
X12547600Y-10347960I-167640J0D01*
G01*
X12969240Y-8747760D02*
G75*
G03*
X12715240Y-9012123I0J-254204D01*
G01*
X12715240Y-10515600D02*
G75*
G03*
X12969240Y-10779963I254000J-10160D01*
G01*
X16458960Y-10779808D02*
G75*
G03*
X16712960Y-10525808I0J254000D01*
G01*
D11*
D12*
X12864240Y-8896760D02*
X13074240Y-9106760D01*
X13074240Y-8896760D02*
X12864240Y-9106760D01*
X12864240Y-10420760D02*
X13074240Y-10630760D01*
X13074240Y-10420760D02*
X12864240Y-10630760D01*
X16353960Y-10420808D02*
X16563960Y-10630808D01*
X16563960Y-10420808D02*
X16353960Y-10630808D01*
X16354183Y-8893454D02*
X16564183Y-9103454D01*
X16564183Y-8893454D02*
X16354183Y-9103454D01*
D11*
X12355624Y-11096447D02*
X12355624Y-10896447D01*
X12355624Y-10896447D02*
X12403243Y-10896447D01*
X12403243Y-10896447D02*
X12431814Y-10905971D01*
X12431814Y-10905971D02*
X12450862Y-10925018D01*
X12450862Y-10925018D02*
X12460385Y-10944066D01*
X12460385Y-10944066D02*
X12469909Y-10982161D01*
X12469909Y-10982161D02*
X12469909Y-11010733D01*
X12469909Y-11010733D02*
X12460385Y-11048828D01*
X12460385Y-11048828D02*
X12450862Y-11067875D01*
X12450862Y-11067875D02*
X12431814Y-11086923D01*
X12431814Y-11086923D02*
X12403243Y-11096447D01*
X12403243Y-11096447D02*
X12355624Y-11096447D01*
X12555624Y-11096447D02*
X12555624Y-10963114D01*
X12555624Y-11001209D02*
X12565147Y-10982161D01*
X12565147Y-10982161D02*
X12574671Y-10972637D01*
X12574671Y-10972637D02*
X12593719Y-10963114D01*
X12593719Y-10963114D02*
X12612766Y-10963114D01*
X12679433Y-11096447D02*
X12679433Y-10963114D01*
X12679433Y-10896447D02*
X12669909Y-10905971D01*
X12669909Y-10905971D02*
X12679433Y-10915495D01*
X12679433Y-10915495D02*
X12688957Y-10905971D01*
X12688957Y-10905971D02*
X12679433Y-10896447D01*
X12679433Y-10896447D02*
X12679433Y-10915495D01*
X12803243Y-11096447D02*
X12784195Y-11086923D01*
X12784195Y-11086923D02*
X12774671Y-11067875D01*
X12774671Y-11067875D02*
X12774671Y-10896447D01*
X12908004Y-11096447D02*
X12888957Y-11086923D01*
X12888957Y-11086923D02*
X12879433Y-11067875D01*
X12879433Y-11067875D02*
X12879433Y-10896447D01*
X13136576Y-11096447D02*
X13136576Y-10896447D01*
X13136576Y-10896447D02*
X13203243Y-11039304D01*
X13203243Y-11039304D02*
X13269909Y-10896447D01*
X13269909Y-10896447D02*
X13269909Y-11096447D01*
X13450862Y-11096447D02*
X13450862Y-10991685D01*
X13450862Y-10991685D02*
X13441338Y-10972637D01*
X13441338Y-10972637D02*
X13422290Y-10963114D01*
X13422290Y-10963114D02*
X13384195Y-10963114D01*
X13384195Y-10963114D02*
X13365147Y-10972637D01*
X13450862Y-11086923D02*
X13431814Y-11096447D01*
X13431814Y-11096447D02*
X13384195Y-11096447D01*
X13384195Y-11096447D02*
X13365147Y-11086923D01*
X13365147Y-11086923D02*
X13355624Y-11067875D01*
X13355624Y-11067875D02*
X13355624Y-11048828D01*
X13355624Y-11048828D02*
X13365147Y-11029780D01*
X13365147Y-11029780D02*
X13384195Y-11020256D01*
X13384195Y-11020256D02*
X13431814Y-11020256D01*
X13431814Y-11020256D02*
X13450862Y-11010733D01*
X13546100Y-10963114D02*
X13546100Y-11163114D01*
X13546100Y-10972637D02*
X13565147Y-10963114D01*
X13565147Y-10963114D02*
X13603243Y-10963114D01*
X13603243Y-10963114D02*
X13622290Y-10972637D01*
X13622290Y-10972637D02*
X13631814Y-10982161D01*
X13631814Y-10982161D02*
X13641338Y-11001209D01*
X13641338Y-11001209D02*
X13641338Y-11058352D01*
X13641338Y-11058352D02*
X13631814Y-11077399D01*
X13631814Y-11077399D02*
X13622290Y-11086923D01*
X13622290Y-11086923D02*
X13603243Y-11096447D01*
X13603243Y-11096447D02*
X13565147Y-11096447D01*
X13565147Y-11096447D02*
X13546100Y-11086923D01*
X13727052Y-11077399D02*
X13736576Y-11086923D01*
X13736576Y-11086923D02*
X13727052Y-11096447D01*
X13727052Y-11096447D02*
X13717528Y-11086923D01*
X13717528Y-11086923D02*
X13727052Y-11077399D01*
X13727052Y-11077399D02*
X13727052Y-11096447D01*
X13727052Y-10972637D02*
X13736576Y-10982161D01*
X13736576Y-10982161D02*
X13727052Y-10991685D01*
X13727052Y-10991685D02*
X13717528Y-10982161D01*
X13717528Y-10982161D02*
X13727052Y-10972637D01*
X13727052Y-10972637D02*
X13727052Y-10991685D01*
X11894847Y-11324963D02*
X12094847Y-11524963D01*
X12094847Y-11324963D02*
X11894847Y-11524963D01*
X12346100Y-11335494D02*
X12355624Y-11325971D01*
X12355624Y-11325971D02*
X12374671Y-11316447D01*
X12374671Y-11316447D02*
X12422290Y-11316447D01*
X12422290Y-11316447D02*
X12441338Y-11325971D01*
X12441338Y-11325971D02*
X12450862Y-11335494D01*
X12450862Y-11335494D02*
X12460385Y-11354542D01*
X12460385Y-11354542D02*
X12460385Y-11373590D01*
X12460385Y-11373590D02*
X12450862Y-11402161D01*
X12450862Y-11402161D02*
X12336576Y-11516447D01*
X12336576Y-11516447D02*
X12460385Y-11516447D01*
X12546100Y-11497399D02*
X12555624Y-11506923D01*
X12555624Y-11506923D02*
X12546100Y-11516447D01*
X12546100Y-11516447D02*
X12536576Y-11506923D01*
X12536576Y-11506923D02*
X12546100Y-11497399D01*
X12546100Y-11497399D02*
X12546100Y-11516447D01*
X12746100Y-11516447D02*
X12631814Y-11516447D01*
X12688957Y-11516447D02*
X12688957Y-11316447D01*
X12688957Y-11316447D02*
X12669909Y-11345018D01*
X12669909Y-11345018D02*
X12650862Y-11364066D01*
X12650862Y-11364066D02*
X12631814Y-11373590D01*
X12869909Y-11316447D02*
X12888957Y-11316447D01*
X12888957Y-11316447D02*
X12908005Y-11325971D01*
X12908005Y-11325971D02*
X12917528Y-11335494D01*
X12917528Y-11335494D02*
X12927052Y-11354542D01*
X12927052Y-11354542D02*
X12936576Y-11392637D01*
X12936576Y-11392637D02*
X12936576Y-11440256D01*
X12936576Y-11440256D02*
X12927052Y-11478352D01*
X12927052Y-11478352D02*
X12917528Y-11497399D01*
X12917528Y-11497399D02*
X12908005Y-11506923D01*
X12908005Y-11506923D02*
X12888957Y-11516447D01*
X12888957Y-11516447D02*
X12869909Y-11516447D01*
X12869909Y-11516447D02*
X12850862Y-11506923D01*
X12850862Y-11506923D02*
X12841338Y-11497399D01*
X12841338Y-11497399D02*
X12831814Y-11478352D01*
X12831814Y-11478352D02*
X12822290Y-11440256D01*
X12822290Y-11440256D02*
X12822290Y-11392637D01*
X12822290Y-11392637D02*
X12831814Y-11354542D01*
X12831814Y-11354542D02*
X12841338Y-11335494D01*
X12841338Y-11335494D02*
X12850862Y-11325971D01*
X12850862Y-11325971D02*
X12869909Y-11316447D01*
X13060385Y-11316447D02*
X13079433Y-11316447D01*
X13079433Y-11316447D02*
X13098481Y-11325971D01*
X13098481Y-11325971D02*
X13108005Y-11335494D01*
X13108005Y-11335494D02*
X13117528Y-11354542D01*
X13117528Y-11354542D02*
X13127052Y-11392637D01*
X13127052Y-11392637D02*
X13127052Y-11440256D01*
X13127052Y-11440256D02*
X13117528Y-11478352D01*
X13117528Y-11478352D02*
X13108005Y-11497399D01*
X13108005Y-11497399D02*
X13098481Y-11506923D01*
X13098481Y-11506923D02*
X13079433Y-11516447D01*
X13079433Y-11516447D02*
X13060385Y-11516447D01*
X13060385Y-11516447D02*
X13041338Y-11506923D01*
X13041338Y-11506923D02*
X13031814Y-11497399D01*
X13031814Y-11497399D02*
X13022290Y-11478352D01*
X13022290Y-11478352D02*
X13012766Y-11440256D01*
X13012766Y-11440256D02*
X13012766Y-11392637D01*
X13012766Y-11392637D02*
X13022290Y-11354542D01*
X13022290Y-11354542D02*
X13031814Y-11335494D01*
X13031814Y-11335494D02*
X13041338Y-11325971D01*
X13041338Y-11325971D02*
X13060385Y-11316447D01*
X13212766Y-11516447D02*
X13212766Y-11383113D01*
X13212766Y-11402161D02*
X13222290Y-11392637D01*
X13222290Y-11392637D02*
X13241338Y-11383113D01*
X13241338Y-11383113D02*
X13269909Y-11383113D01*
X13269909Y-11383113D02*
X13288957Y-11392637D01*
X13288957Y-11392637D02*
X13298481Y-11411685D01*
X13298481Y-11411685D02*
X13298481Y-11516447D01*
X13298481Y-11411685D02*
X13308005Y-11392637D01*
X13308005Y-11392637D02*
X13327052Y-11383113D01*
X13327052Y-11383113D02*
X13355624Y-11383113D01*
X13355624Y-11383113D02*
X13374671Y-11392637D01*
X13374671Y-11392637D02*
X13384195Y-11411685D01*
X13384195Y-11411685D02*
X13384195Y-11516447D01*
X13479433Y-11516447D02*
X13479433Y-11383113D01*
X13479433Y-11402161D02*
X13488957Y-11392637D01*
X13488957Y-11392637D02*
X13508005Y-11383113D01*
X13508005Y-11383113D02*
X13536576Y-11383113D01*
X13536576Y-11383113D02*
X13555624Y-11392637D01*
X13555624Y-11392637D02*
X13565147Y-11411685D01*
X13565147Y-11411685D02*
X13565147Y-11516447D01*
X13565147Y-11411685D02*
X13574671Y-11392637D01*
X13574671Y-11392637D02*
X13593719Y-11383113D01*
X13593719Y-11383113D02*
X13622290Y-11383113D01*
X13622290Y-11383113D02*
X13641338Y-11392637D01*
X13641338Y-11392637D02*
X13650862Y-11411685D01*
X13650862Y-11411685D02*
X13650862Y-11516447D01*
X14041338Y-11306923D02*
X13869909Y-11564066D01*
X14298481Y-11316447D02*
X14317529Y-11316447D01*
X14317529Y-11316447D02*
X14336576Y-11325971D01*
X14336576Y-11325971D02*
X14346100Y-11335494D01*
X14346100Y-11335494D02*
X14355624Y-11354542D01*
X14355624Y-11354542D02*
X14365148Y-11392637D01*
X14365148Y-11392637D02*
X14365148Y-11440256D01*
X14365148Y-11440256D02*
X14355624Y-11478352D01*
X14355624Y-11478352D02*
X14346100Y-11497399D01*
X14346100Y-11497399D02*
X14336576Y-11506923D01*
X14336576Y-11506923D02*
X14317529Y-11516447D01*
X14317529Y-11516447D02*
X14298481Y-11516447D01*
X14298481Y-11516447D02*
X14279433Y-11506923D01*
X14279433Y-11506923D02*
X14269909Y-11497399D01*
X14269909Y-11497399D02*
X14260386Y-11478352D01*
X14260386Y-11478352D02*
X14250862Y-11440256D01*
X14250862Y-11440256D02*
X14250862Y-11392637D01*
X14250862Y-11392637D02*
X14260386Y-11354542D01*
X14260386Y-11354542D02*
X14269909Y-11335494D01*
X14269909Y-11335494D02*
X14279433Y-11325971D01*
X14279433Y-11325971D02*
X14298481Y-11316447D01*
X14450862Y-11497399D02*
X14460386Y-11506923D01*
X14460386Y-11506923D02*
X14450862Y-11516447D01*
X14450862Y-11516447D02*
X14441338Y-11506923D01*
X14441338Y-11506923D02*
X14450862Y-11497399D01*
X14450862Y-11497399D02*
X14450862Y-11516447D01*
X14584195Y-11316447D02*
X14603243Y-11316447D01*
X14603243Y-11316447D02*
X14622290Y-11325971D01*
X14622290Y-11325971D02*
X14631814Y-11335494D01*
X14631814Y-11335494D02*
X14641338Y-11354542D01*
X14641338Y-11354542D02*
X14650862Y-11392637D01*
X14650862Y-11392637D02*
X14650862Y-11440256D01*
X14650862Y-11440256D02*
X14641338Y-11478352D01*
X14641338Y-11478352D02*
X14631814Y-11497399D01*
X14631814Y-11497399D02*
X14622290Y-11506923D01*
X14622290Y-11506923D02*
X14603243Y-11516447D01*
X14603243Y-11516447D02*
X14584195Y-11516447D01*
X14584195Y-11516447D02*
X14565148Y-11506923D01*
X14565148Y-11506923D02*
X14555624Y-11497399D01*
X14555624Y-11497399D02*
X14546100Y-11478352D01*
X14546100Y-11478352D02*
X14536576Y-11440256D01*
X14536576Y-11440256D02*
X14536576Y-11392637D01*
X14536576Y-11392637D02*
X14546100Y-11354542D01*
X14546100Y-11354542D02*
X14555624Y-11335494D01*
X14555624Y-11335494D02*
X14565148Y-11325971D01*
X14565148Y-11325971D02*
X14584195Y-11316447D01*
X14765148Y-11402161D02*
X14746100Y-11392637D01*
X14746100Y-11392637D02*
X14736576Y-11383113D01*
X14736576Y-11383113D02*
X14727052Y-11364066D01*
X14727052Y-11364066D02*
X14727052Y-11354542D01*
X14727052Y-11354542D02*
X14736576Y-11335494D01*
X14736576Y-11335494D02*
X14746100Y-11325971D01*
X14746100Y-11325971D02*
X14765148Y-11316447D01*
X14765148Y-11316447D02*
X14803243Y-11316447D01*
X14803243Y-11316447D02*
X14822290Y-11325971D01*
X14822290Y-11325971D02*
X14831814Y-11335494D01*
X14831814Y-11335494D02*
X14841338Y-11354542D01*
X14841338Y-11354542D02*
X14841338Y-11364066D01*
X14841338Y-11364066D02*
X14831814Y-11383113D01*
X14831814Y-11383113D02*
X14822290Y-11392637D01*
X14822290Y-11392637D02*
X14803243Y-11402161D01*
X14803243Y-11402161D02*
X14765148Y-11402161D01*
X14765148Y-11402161D02*
X14746100Y-11411685D01*
X14746100Y-11411685D02*
X14736576Y-11421209D01*
X14736576Y-11421209D02*
X14727052Y-11440256D01*
X14727052Y-11440256D02*
X14727052Y-11478352D01*
X14727052Y-11478352D02*
X14736576Y-11497399D01*
X14736576Y-11497399D02*
X14746100Y-11506923D01*
X14746100Y-11506923D02*
X14765148Y-11516447D01*
X14765148Y-11516447D02*
X14803243Y-11516447D01*
X14803243Y-11516447D02*
X14822290Y-11506923D01*
X14822290Y-11506923D02*
X14831814Y-11497399D01*
X14831814Y-11497399D02*
X14841338Y-11478352D01*
X14841338Y-11478352D02*
X14841338Y-11440256D01*
X14841338Y-11440256D02*
X14831814Y-11421209D01*
X14831814Y-11421209D02*
X14822290Y-11411685D01*
X14822290Y-11411685D02*
X14803243Y-11402161D01*
X14917529Y-11335494D02*
X14927052Y-11325971D01*
X14927052Y-11325971D02*
X14946100Y-11316447D01*
X14946100Y-11316447D02*
X14993719Y-11316447D01*
X14993719Y-11316447D02*
X15012767Y-11325971D01*
X15012767Y-11325971D02*
X15022290Y-11335494D01*
X15022290Y-11335494D02*
X15031814Y-11354542D01*
X15031814Y-11354542D02*
X15031814Y-11373590D01*
X15031814Y-11373590D02*
X15022290Y-11402161D01*
X15022290Y-11402161D02*
X14908005Y-11516447D01*
X14908005Y-11516447D02*
X15031814Y-11516447D01*
X15098481Y-11316447D02*
X15231814Y-11316447D01*
X15231814Y-11316447D02*
X15146100Y-11516447D01*
X15298481Y-11316447D02*
X15298481Y-11354542D01*
X15374671Y-11316447D02*
X15374671Y-11354542D01*
X15669910Y-11592637D02*
X15660386Y-11583113D01*
X15660386Y-11583113D02*
X15641338Y-11554542D01*
X15641338Y-11554542D02*
X15631814Y-11535494D01*
X15631814Y-11535494D02*
X15622291Y-11506923D01*
X15622291Y-11506923D02*
X15612767Y-11459304D01*
X15612767Y-11459304D02*
X15612767Y-11421209D01*
X15612767Y-11421209D02*
X15622291Y-11373590D01*
X15622291Y-11373590D02*
X15631814Y-11345018D01*
X15631814Y-11345018D02*
X15641338Y-11325971D01*
X15641338Y-11325971D02*
X15660386Y-11297399D01*
X15660386Y-11297399D02*
X15669910Y-11287875D01*
X15831814Y-11383113D02*
X15831814Y-11516447D01*
X15784195Y-11306923D02*
X15736576Y-11449780D01*
X15736576Y-11449780D02*
X15860386Y-11449780D01*
X16088957Y-11516447D02*
X16088957Y-11316447D01*
X16174672Y-11516447D02*
X16174672Y-11411685D01*
X16174672Y-11411685D02*
X16165148Y-11392637D01*
X16165148Y-11392637D02*
X16146100Y-11383113D01*
X16146100Y-11383113D02*
X16117529Y-11383113D01*
X16117529Y-11383113D02*
X16098481Y-11392637D01*
X16098481Y-11392637D02*
X16088957Y-11402161D01*
X16298481Y-11516447D02*
X16279433Y-11506923D01*
X16279433Y-11506923D02*
X16269910Y-11497399D01*
X16269910Y-11497399D02*
X16260386Y-11478352D01*
X16260386Y-11478352D02*
X16260386Y-11421209D01*
X16260386Y-11421209D02*
X16269910Y-11402161D01*
X16269910Y-11402161D02*
X16279433Y-11392637D01*
X16279433Y-11392637D02*
X16298481Y-11383113D01*
X16298481Y-11383113D02*
X16327053Y-11383113D01*
X16327053Y-11383113D02*
X16346100Y-11392637D01*
X16346100Y-11392637D02*
X16355624Y-11402161D01*
X16355624Y-11402161D02*
X16365148Y-11421209D01*
X16365148Y-11421209D02*
X16365148Y-11478352D01*
X16365148Y-11478352D02*
X16355624Y-11497399D01*
X16355624Y-11497399D02*
X16346100Y-11506923D01*
X16346100Y-11506923D02*
X16327053Y-11516447D01*
X16327053Y-11516447D02*
X16298481Y-11516447D01*
X16479433Y-11516447D02*
X16460386Y-11506923D01*
X16460386Y-11506923D02*
X16450862Y-11487875D01*
X16450862Y-11487875D02*
X16450862Y-11316447D01*
X16631814Y-11506923D02*
X16612767Y-11516447D01*
X16612767Y-11516447D02*
X16574672Y-11516447D01*
X16574672Y-11516447D02*
X16555624Y-11506923D01*
X16555624Y-11506923D02*
X16546100Y-11487875D01*
X16546100Y-11487875D02*
X16546100Y-11411685D01*
X16546100Y-11411685D02*
X16555624Y-11392637D01*
X16555624Y-11392637D02*
X16574672Y-11383113D01*
X16574672Y-11383113D02*
X16612767Y-11383113D01*
X16612767Y-11383113D02*
X16631814Y-11392637D01*
X16631814Y-11392637D02*
X16641338Y-11411685D01*
X16641338Y-11411685D02*
X16641338Y-11430733D01*
X16641338Y-11430733D02*
X16546100Y-11449780D01*
X16717529Y-11506923D02*
X16736576Y-11516447D01*
X16736576Y-11516447D02*
X16774672Y-11516447D01*
X16774672Y-11516447D02*
X16793719Y-11506923D01*
X16793719Y-11506923D02*
X16803243Y-11487875D01*
X16803243Y-11487875D02*
X16803243Y-11478352D01*
X16803243Y-11478352D02*
X16793719Y-11459304D01*
X16793719Y-11459304D02*
X16774672Y-11449780D01*
X16774672Y-11449780D02*
X16746100Y-11449780D01*
X16746100Y-11449780D02*
X16727053Y-11440256D01*
X16727053Y-11440256D02*
X16717529Y-11421209D01*
X16717529Y-11421209D02*
X16717529Y-11411685D01*
X16717529Y-11411685D02*
X16727053Y-11392637D01*
X16727053Y-11392637D02*
X16746100Y-11383113D01*
X16746100Y-11383113D02*
X16774672Y-11383113D01*
X16774672Y-11383113D02*
X16793719Y-11392637D01*
X16869910Y-11592637D02*
X16879434Y-11583113D01*
X16879434Y-11583113D02*
X16898481Y-11554542D01*
X16898481Y-11554542D02*
X16908005Y-11535494D01*
X16908005Y-11535494D02*
X16917529Y-11506923D01*
X16917529Y-11506923D02*
X16927053Y-11459304D01*
X16927053Y-11459304D02*
X16927053Y-11421209D01*
X16927053Y-11421209D02*
X16917529Y-11373590D01*
X16917529Y-11373590D02*
X16908005Y-11345018D01*
X16908005Y-11345018D02*
X16898481Y-11325971D01*
X16898481Y-11325971D02*
X16879434Y-11297399D01*
X16879434Y-11297399D02*
X16869910Y-11287875D01*
X17231815Y-11592637D02*
X17222291Y-11583113D01*
X17222291Y-11583113D02*
X17203243Y-11554542D01*
X17203243Y-11554542D02*
X17193719Y-11535494D01*
X17193719Y-11535494D02*
X17184196Y-11506923D01*
X17184196Y-11506923D02*
X17174672Y-11459304D01*
X17174672Y-11459304D02*
X17174672Y-11421209D01*
X17174672Y-11421209D02*
X17184196Y-11373590D01*
X17184196Y-11373590D02*
X17193719Y-11345018D01*
X17193719Y-11345018D02*
X17203243Y-11325971D01*
X17203243Y-11325971D02*
X17222291Y-11297399D01*
X17222291Y-11297399D02*
X17231815Y-11287875D01*
X17308005Y-11383113D02*
X17308005Y-11516447D01*
X17308005Y-11402161D02*
X17317529Y-11392637D01*
X17317529Y-11392637D02*
X17336576Y-11383113D01*
X17336576Y-11383113D02*
X17365148Y-11383113D01*
X17365148Y-11383113D02*
X17384196Y-11392637D01*
X17384196Y-11392637D02*
X17393719Y-11411685D01*
X17393719Y-11411685D02*
X17393719Y-11516447D01*
X17517529Y-11516447D02*
X17498481Y-11506923D01*
X17498481Y-11506923D02*
X17488957Y-11497399D01*
X17488957Y-11497399D02*
X17479434Y-11478352D01*
X17479434Y-11478352D02*
X17479434Y-11421209D01*
X17479434Y-11421209D02*
X17488957Y-11402161D01*
X17488957Y-11402161D02*
X17498481Y-11392637D01*
X17498481Y-11392637D02*
X17517529Y-11383113D01*
X17517529Y-11383113D02*
X17546100Y-11383113D01*
X17546100Y-11383113D02*
X17565148Y-11392637D01*
X17565148Y-11392637D02*
X17574672Y-11402161D01*
X17574672Y-11402161D02*
X17584196Y-11421209D01*
X17584196Y-11421209D02*
X17584196Y-11478352D01*
X17584196Y-11478352D02*
X17574672Y-11497399D01*
X17574672Y-11497399D02*
X17565148Y-11506923D01*
X17565148Y-11506923D02*
X17546100Y-11516447D01*
X17546100Y-11516447D02*
X17517529Y-11516447D01*
X17641338Y-11383113D02*
X17717529Y-11383113D01*
X17669910Y-11316447D02*
X17669910Y-11487875D01*
X17669910Y-11487875D02*
X17679434Y-11506923D01*
X17679434Y-11506923D02*
X17698481Y-11516447D01*
X17698481Y-11516447D02*
X17717529Y-11516447D01*
X17936577Y-11383113D02*
X17936577Y-11583113D01*
X17936577Y-11392637D02*
X17955624Y-11383113D01*
X17955624Y-11383113D02*
X17993719Y-11383113D01*
X17993719Y-11383113D02*
X18012767Y-11392637D01*
X18012767Y-11392637D02*
X18022291Y-11402161D01*
X18022291Y-11402161D02*
X18031815Y-11421209D01*
X18031815Y-11421209D02*
X18031815Y-11478352D01*
X18031815Y-11478352D02*
X18022291Y-11497399D01*
X18022291Y-11497399D02*
X18012767Y-11506923D01*
X18012767Y-11506923D02*
X17993719Y-11516447D01*
X17993719Y-11516447D02*
X17955624Y-11516447D01*
X17955624Y-11516447D02*
X17936577Y-11506923D01*
X18146100Y-11516447D02*
X18127053Y-11506923D01*
X18127053Y-11506923D02*
X18117529Y-11487875D01*
X18117529Y-11487875D02*
X18117529Y-11316447D01*
X18308005Y-11516447D02*
X18308005Y-11411685D01*
X18308005Y-11411685D02*
X18298481Y-11392637D01*
X18298481Y-11392637D02*
X18279434Y-11383113D01*
X18279434Y-11383113D02*
X18241338Y-11383113D01*
X18241338Y-11383113D02*
X18222291Y-11392637D01*
X18308005Y-11506923D02*
X18288958Y-11516447D01*
X18288958Y-11516447D02*
X18241338Y-11516447D01*
X18241338Y-11516447D02*
X18222291Y-11506923D01*
X18222291Y-11506923D02*
X18212767Y-11487875D01*
X18212767Y-11487875D02*
X18212767Y-11468828D01*
X18212767Y-11468828D02*
X18222291Y-11449780D01*
X18222291Y-11449780D02*
X18241338Y-11440256D01*
X18241338Y-11440256D02*
X18288958Y-11440256D01*
X18288958Y-11440256D02*
X18308005Y-11430733D01*
X18374672Y-11383113D02*
X18450862Y-11383113D01*
X18403243Y-11316447D02*
X18403243Y-11487875D01*
X18403243Y-11487875D02*
X18412767Y-11506923D01*
X18412767Y-11506923D02*
X18431815Y-11516447D01*
X18431815Y-11516447D02*
X18450862Y-11516447D01*
X18593719Y-11506923D02*
X18574672Y-11516447D01*
X18574672Y-11516447D02*
X18536577Y-11516447D01*
X18536577Y-11516447D02*
X18517529Y-11506923D01*
X18517529Y-11506923D02*
X18508005Y-11487875D01*
X18508005Y-11487875D02*
X18508005Y-11411685D01*
X18508005Y-11411685D02*
X18517529Y-11392637D01*
X18517529Y-11392637D02*
X18536577Y-11383113D01*
X18536577Y-11383113D02*
X18574672Y-11383113D01*
X18574672Y-11383113D02*
X18593719Y-11392637D01*
X18593719Y-11392637D02*
X18603243Y-11411685D01*
X18603243Y-11411685D02*
X18603243Y-11430733D01*
X18603243Y-11430733D02*
X18508005Y-11449780D01*
X18774672Y-11516447D02*
X18774672Y-11316447D01*
X18774672Y-11506923D02*
X18755624Y-11516447D01*
X18755624Y-11516447D02*
X18717529Y-11516447D01*
X18717529Y-11516447D02*
X18698481Y-11506923D01*
X18698481Y-11506923D02*
X18688958Y-11497399D01*
X18688958Y-11497399D02*
X18679434Y-11478352D01*
X18679434Y-11478352D02*
X18679434Y-11421209D01*
X18679434Y-11421209D02*
X18688958Y-11402161D01*
X18688958Y-11402161D02*
X18698481Y-11392637D01*
X18698481Y-11392637D02*
X18717529Y-11383113D01*
X18717529Y-11383113D02*
X18755624Y-11383113D01*
X18755624Y-11383113D02*
X18774672Y-11392637D01*
X18850862Y-11592637D02*
X18860386Y-11583113D01*
X18860386Y-11583113D02*
X18879434Y-11554542D01*
X18879434Y-11554542D02*
X18888958Y-11535494D01*
X18888958Y-11535494D02*
X18898481Y-11506923D01*
X18898481Y-11506923D02*
X18908005Y-11459304D01*
X18908005Y-11459304D02*
X18908005Y-11421209D01*
X18908005Y-11421209D02*
X18898481Y-11373590D01*
X18898481Y-11373590D02*
X18888958Y-11345018D01*
X18888958Y-11345018D02*
X18879434Y-11325971D01*
X18879434Y-11325971D02*
X18860386Y-11297399D01*
X18860386Y-11297399D02*
X18850862Y-11287875D01*
M02*
