G04 #@! TF.GenerationSoftware,KiCad,Pcbnew,7.0.6*
G04 #@! TF.CreationDate,2024-02-06T23:19:41+01:00*
G04 #@! TF.ProjectId,USB2CANv2,55534232-4341-44e7-9632-2e6b69636164,0_2*
G04 #@! TF.SameCoordinates,Original*
G04 #@! TF.FileFunction,Copper,L4,Bot*
G04 #@! TF.FilePolarity,Positive*
%FSLAX46Y46*%
G04 Gerber Fmt 4.6, Leading zero omitted, Abs format (unit mm)*
G04 Created by KiCad (PCBNEW 7.0.6) date 2024-02-06 23:19:41*
%MOMM*%
%LPD*%
G01*
G04 APERTURE LIST*
G04 Aperture macros list*
%AMRoundRect*
0 Rectangle with rounded corners*
0 $1 Rounding radius*
0 $2 $3 $4 $5 $6 $7 $8 $9 X,Y pos of 4 corners*
0 Add a 4 corners polygon primitive as box body*
4,1,4,$2,$3,$4,$5,$6,$7,$8,$9,$2,$3,0*
0 Add four circle primitives for the rounded corners*
1,1,$1+$1,$2,$3*
1,1,$1+$1,$4,$5*
1,1,$1+$1,$6,$7*
1,1,$1+$1,$8,$9*
0 Add four rect primitives between the rounded corners*
20,1,$1+$1,$2,$3,$4,$5,0*
20,1,$1+$1,$4,$5,$6,$7,0*
20,1,$1+$1,$6,$7,$8,$9,0*
20,1,$1+$1,$8,$9,$2,$3,0*%
%AMFreePoly0*
4,1,19,0.000000,0.744911,0.071157,0.744911,0.207708,0.704816,0.327430,0.627875,0.420627,0.520320,0.479746,0.390866,0.500000,0.250000,0.500000,-0.250000,0.479746,-0.390866,0.420627,-0.520320,0.327430,-0.627875,0.207708,-0.704816,0.071157,-0.744911,0.000000,-0.744911,0.000000,-0.750000,-0.550000,-0.750000,-0.550000,0.750000,0.000000,0.750000,0.000000,0.744911,0.000000,0.744911,
$1*%
%AMFreePoly1*
4,1,19,0.550000,-0.750000,0.000000,-0.750000,0.000000,-0.744911,-0.071157,-0.744911,-0.207708,-0.704816,-0.327430,-0.627875,-0.420627,-0.520320,-0.479746,-0.390866,-0.500000,-0.250000,-0.500000,0.250000,-0.479746,0.390866,-0.420627,0.520320,-0.327430,0.627875,-0.207708,0.704816,-0.071157,0.744911,0.000000,0.744911,0.000000,0.750000,0.550000,0.750000,0.550000,-0.750000,0.550000,-0.750000,
$1*%
G04 Aperture macros list end*
G04 #@! TA.AperFunction,ComponentPad*
%ADD10O,1.350000X1.350000*%
G04 #@! TD*
G04 #@! TA.AperFunction,ComponentPad*
%ADD11R,1.350000X1.350000*%
G04 #@! TD*
G04 #@! TA.AperFunction,SMDPad,CuDef*
%ADD12R,0.800000X1.200000*%
G04 #@! TD*
G04 #@! TA.AperFunction,ComponentPad*
%ADD13R,1.700000X1.700000*%
G04 #@! TD*
G04 #@! TA.AperFunction,ComponentPad*
%ADD14O,1.700000X1.700000*%
G04 #@! TD*
G04 #@! TA.AperFunction,SMDPad,CuDef*
%ADD15RoundRect,0.381000X2.119000X0.381000X-2.119000X0.381000X-2.119000X-0.381000X2.119000X-0.381000X0*%
G04 #@! TD*
G04 #@! TA.AperFunction,ComponentPad*
%ADD16C,0.700000*%
G04 #@! TD*
G04 #@! TA.AperFunction,ComponentPad*
%ADD17O,1.700000X0.900000*%
G04 #@! TD*
G04 #@! TA.AperFunction,ComponentPad*
%ADD18O,2.400000X0.900000*%
G04 #@! TD*
G04 #@! TA.AperFunction,SMDPad,CuDef*
%ADD19RoundRect,0.200000X-0.200000X-0.275000X0.200000X-0.275000X0.200000X0.275000X-0.200000X0.275000X0*%
G04 #@! TD*
G04 #@! TA.AperFunction,SMDPad,CuDef*
%ADD20R,1.500000X1.500000*%
G04 #@! TD*
G04 #@! TA.AperFunction,SMDPad,CuDef*
%ADD21RoundRect,0.150000X0.825000X0.150000X-0.825000X0.150000X-0.825000X-0.150000X0.825000X-0.150000X0*%
G04 #@! TD*
G04 #@! TA.AperFunction,SMDPad,CuDef*
%ADD22RoundRect,0.160000X-0.160000X0.197500X-0.160000X-0.197500X0.160000X-0.197500X0.160000X0.197500X0*%
G04 #@! TD*
G04 #@! TA.AperFunction,SMDPad,CuDef*
%ADD23RoundRect,0.160000X-0.197500X-0.160000X0.197500X-0.160000X0.197500X0.160000X-0.197500X0.160000X0*%
G04 #@! TD*
G04 #@! TA.AperFunction,SMDPad,CuDef*
%ADD24RoundRect,0.140000X-0.170000X0.140000X-0.170000X-0.140000X0.170000X-0.140000X0.170000X0.140000X0*%
G04 #@! TD*
G04 #@! TA.AperFunction,SMDPad,CuDef*
%ADD25R,0.600000X0.200000*%
G04 #@! TD*
G04 #@! TA.AperFunction,SMDPad,CuDef*
%ADD26R,0.350000X0.990000*%
G04 #@! TD*
G04 #@! TA.AperFunction,SMDPad,CuDef*
%ADD27FreePoly0,180.000000*%
G04 #@! TD*
G04 #@! TA.AperFunction,SMDPad,CuDef*
%ADD28R,1.000000X1.500000*%
G04 #@! TD*
G04 #@! TA.AperFunction,SMDPad,CuDef*
%ADD29FreePoly1,180.000000*%
G04 #@! TD*
G04 #@! TA.AperFunction,ViaPad*
%ADD30C,0.500000*%
G04 #@! TD*
G04 #@! TA.AperFunction,Conductor*
%ADD31C,0.200000*%
G04 #@! TD*
G04 #@! TA.AperFunction,Conductor*
%ADD32C,0.400000*%
G04 #@! TD*
G04 #@! TA.AperFunction,Conductor*
%ADD33C,0.300000*%
G04 #@! TD*
G04 APERTURE END LIST*
D10*
X160512000Y-89154000D03*
D11*
X158512000Y-89154000D03*
D12*
X153670000Y-100101000D03*
X156210000Y-100101000D03*
X156210000Y-106401000D03*
X153670000Y-106401000D03*
D13*
X136403000Y-89255600D03*
D14*
X133863000Y-89255600D03*
D15*
X164338000Y-100330000D03*
X164338000Y-97790000D03*
X164338000Y-95250000D03*
D16*
X127113400Y-94662600D03*
X127113400Y-95512600D03*
X127113400Y-96362600D03*
X127113400Y-97212600D03*
X127113400Y-98062600D03*
X127113400Y-98912600D03*
X127113400Y-99762600D03*
X127113400Y-100612600D03*
X125763400Y-100612600D03*
X125763400Y-99762600D03*
X125763400Y-98912600D03*
X125763400Y-98062600D03*
X125763400Y-97212600D03*
X125763400Y-96362600D03*
X125763400Y-95512600D03*
X125763400Y-94662600D03*
D17*
X122753400Y-101962600D03*
X122753400Y-93312600D03*
D18*
X126133400Y-101962600D03*
X126133400Y-93312600D03*
D13*
X136403000Y-106019600D03*
D14*
X133863000Y-106019600D03*
D19*
X150496000Y-96139000D03*
X152146000Y-96139000D03*
D20*
X149310000Y-91730000D03*
D21*
X144272000Y-102997000D03*
X144272000Y-104267000D03*
X144272000Y-105537000D03*
X144272000Y-106807000D03*
X139322000Y-106807000D03*
X139322000Y-105537000D03*
X139322000Y-104267000D03*
X139322000Y-102997000D03*
D22*
X146177000Y-88556500D03*
X146177000Y-89751500D03*
D12*
X156210000Y-88900000D03*
X153670000Y-88900000D03*
X153670000Y-95200000D03*
X156210000Y-95200000D03*
D23*
X135292500Y-102971600D03*
X136487500Y-102971600D03*
D19*
X128575800Y-98831400D03*
X130225800Y-98831400D03*
D23*
X144436500Y-93726000D03*
X145631500Y-93726000D03*
D19*
X150495000Y-98552000D03*
X152145000Y-98552000D03*
D21*
X143953000Y-88519000D03*
X143953000Y-89789000D03*
X143953000Y-91059000D03*
X143953000Y-92329000D03*
X139003000Y-92329000D03*
X139003000Y-91059000D03*
X139003000Y-89789000D03*
X139003000Y-88519000D03*
D24*
X136114000Y-94624000D03*
X136114000Y-95584000D03*
D20*
X149390000Y-106330000D03*
X149300000Y-88870000D03*
X149350000Y-103280000D03*
D22*
X146558000Y-101637500D03*
X146558000Y-102832500D03*
D19*
X140390000Y-94130000D03*
X142040000Y-94130000D03*
D25*
X135001000Y-94088000D03*
X135001000Y-94488000D03*
X135001000Y-94888000D03*
X133701000Y-94888000D03*
X133701000Y-94488000D03*
X133701000Y-94088000D03*
D26*
X134351000Y-94488000D03*
D27*
X132558000Y-98552000D03*
D28*
X133858000Y-98552000D03*
D29*
X135158000Y-98552000D03*
D19*
X140399000Y-101346000D03*
X142049000Y-101346000D03*
D24*
X132588000Y-95024000D03*
X132588000Y-95984000D03*
D19*
X128575800Y-101320600D03*
X130225800Y-101320600D03*
D22*
X146558000Y-105447500D03*
X146558000Y-106642500D03*
D30*
X158597600Y-90195400D03*
X157903368Y-90281104D03*
X159766000Y-90332500D03*
X160512000Y-90449400D03*
X157327600Y-89814400D03*
X157220000Y-101220000D03*
X138416348Y-98142317D03*
X138320000Y-97500000D03*
X136361189Y-99023189D03*
X152146000Y-101346000D03*
X156464000Y-103886000D03*
X147066000Y-99732741D03*
X148212425Y-99255200D03*
X147066000Y-100432244D03*
X148609695Y-99833114D03*
X145375108Y-91880058D03*
X148590000Y-97155000D03*
X149225000Y-96520000D03*
X149225000Y-97790000D03*
X128270000Y-99822000D03*
X129032000Y-100330000D03*
X128778000Y-95504000D03*
X156083000Y-97917000D03*
X155702000Y-92964000D03*
X154940000Y-94488000D03*
X140970000Y-91440000D03*
X142494000Y-90424000D03*
X150876000Y-90932000D03*
X129413000Y-95123000D03*
X134393177Y-93475964D03*
X134707626Y-95870788D03*
X147580000Y-105650000D03*
X145465802Y-103619637D03*
X142708022Y-94930893D03*
X154620000Y-91531500D03*
X137569919Y-103813068D03*
X144463503Y-99822000D03*
X144870000Y-101690000D03*
X137351503Y-91694000D03*
X141275602Y-97246500D03*
X134112000Y-95504000D03*
X148093000Y-105167000D03*
X133701000Y-93375000D03*
X145288000Y-91186000D03*
X143764000Y-99822000D03*
X136652000Y-91694000D03*
X137160000Y-104394000D03*
X149225000Y-99314000D03*
X130048000Y-94742000D03*
X140716000Y-96647000D03*
X155194000Y-90932000D03*
X155267903Y-92020242D03*
X141519717Y-97902023D03*
X142367000Y-95547500D03*
X143406173Y-94974357D03*
X144117500Y-101796205D03*
X145440000Y-102120000D03*
D31*
X137569919Y-103813068D02*
X138385987Y-102997000D01*
X138385987Y-102997000D02*
X139322000Y-102997000D01*
D32*
X159766000Y-90332500D02*
X157134500Y-92964000D01*
X157134500Y-92964000D02*
X155702000Y-92964000D01*
D33*
X155702000Y-93726000D02*
X154940000Y-94488000D01*
X155702000Y-92964000D02*
X155702000Y-93726000D01*
D32*
X157903368Y-90762632D02*
X155702000Y-92964000D01*
X157903368Y-90281104D02*
X157903368Y-90762632D01*
X160512000Y-91424000D02*
X160512000Y-90449400D01*
X164338000Y-95250000D02*
X160512000Y-91424000D01*
X157327600Y-89814400D02*
X157988000Y-89154000D01*
X157988000Y-89154000D02*
X158512000Y-89154000D01*
X135292500Y-100494500D02*
X133858000Y-99060000D01*
X133858000Y-99060000D02*
X133858000Y-98552000D01*
X135292500Y-102971600D02*
X135292500Y-100494500D01*
X135890000Y-98552000D02*
X136361189Y-99023189D01*
X135158000Y-98552000D02*
X135890000Y-98552000D01*
X136224000Y-96604000D02*
X136824000Y-96004000D01*
X133856000Y-96604000D02*
X136224000Y-96604000D01*
X132558000Y-98552000D02*
X132558000Y-97902000D01*
X132558000Y-97902000D02*
X133856000Y-96604000D01*
X138320000Y-97500000D02*
X136824000Y-96004000D01*
X136824000Y-95220325D02*
X136227675Y-94624000D01*
X136227675Y-94624000D02*
X136114000Y-94624000D01*
X136824000Y-96004000D02*
X136824000Y-95220325D01*
D33*
X140390000Y-90763893D02*
X139415107Y-89789000D01*
X139415107Y-89789000D02*
X139003000Y-89789000D01*
X140390000Y-94130000D02*
X140390000Y-90763893D01*
D31*
X141867000Y-94303000D02*
X142040000Y-94130000D01*
X141867000Y-95754607D02*
X141867000Y-94303000D01*
X142159893Y-96047500D02*
X141867000Y-95754607D01*
X147293500Y-96047500D02*
X142159893Y-96047500D01*
X147343000Y-96097000D02*
X147293500Y-96047500D01*
D33*
X147005500Y-103280000D02*
X146558000Y-102832500D01*
X149350000Y-103280000D02*
X147005500Y-103280000D01*
X145631500Y-93726000D02*
X147627500Y-91730000D01*
X147627500Y-91730000D02*
X149310000Y-91730000D01*
X147058500Y-88870000D02*
X149300000Y-88870000D01*
X146177000Y-89751500D02*
X147058500Y-88870000D01*
D31*
X152958000Y-90482000D02*
X147343000Y-96097000D01*
X154628000Y-90482000D02*
X152958000Y-90482000D01*
X156210000Y-88900000D02*
X154628000Y-90482000D01*
D33*
X153278000Y-90932000D02*
X155194000Y-90932000D01*
X147563000Y-96647000D02*
X153278000Y-90932000D01*
X140716000Y-96647000D02*
X147563000Y-96647000D01*
X155156871Y-92131274D02*
X155267903Y-92020242D01*
X152718726Y-92131274D02*
X155156871Y-92131274D01*
X142274740Y-97147000D02*
X147703000Y-97147000D01*
X147703000Y-97147000D02*
X152718726Y-92131274D01*
X141519717Y-97902023D02*
X142274740Y-97147000D01*
X149077500Y-106642500D02*
X149390000Y-106330000D01*
X146558000Y-106642500D02*
X149077500Y-106642500D01*
X144684107Y-105537000D02*
X144272000Y-105537000D01*
X145481107Y-104740000D02*
X144684107Y-105537000D01*
X147666000Y-104740000D02*
X145481107Y-104740000D01*
X148093000Y-105167000D02*
X147666000Y-104740000D01*
D31*
X153670000Y-104580000D02*
X153670000Y-106401000D01*
X150070000Y-100980000D02*
X153670000Y-104580000D01*
X142415000Y-100980000D02*
X150070000Y-100980000D01*
X142049000Y-101346000D02*
X142415000Y-100980000D01*
D33*
X144563000Y-102997000D02*
X145440000Y-102120000D01*
X144272000Y-102997000D02*
X144563000Y-102997000D01*
X145440000Y-102120000D02*
X145922500Y-101637500D01*
X145922500Y-101637500D02*
X146558000Y-101637500D01*
D31*
X137070419Y-104304419D02*
X137160000Y-104394000D01*
X137070419Y-103492474D02*
X137070419Y-104304419D01*
X147066000Y-100432244D02*
X140130649Y-100432244D01*
X140130649Y-100432244D02*
X137070419Y-103492474D01*
D33*
X152157000Y-96150000D02*
X152146000Y-96139000D01*
X155260000Y-96150000D02*
X152157000Y-96150000D01*
X156210000Y-95200000D02*
X155260000Y-96150000D01*
X156210000Y-98044000D02*
X156083000Y-97917000D01*
X156210000Y-100101000D02*
X156210000Y-98044000D01*
X152145000Y-98576000D02*
X153670000Y-100101000D01*
X152145000Y-98552000D02*
X152145000Y-98576000D01*
D31*
X148640581Y-99864000D02*
X148609695Y-99833114D01*
X149452818Y-99864000D02*
X148640581Y-99864000D01*
X149775000Y-99541818D02*
X149452818Y-99864000D01*
X149775000Y-99086182D02*
X149775000Y-99541818D01*
X149452818Y-98764000D02*
X149775000Y-99086182D01*
X149311396Y-98764000D02*
X149452818Y-98764000D01*
X148699973Y-98152577D02*
X149311396Y-98764000D01*
X147830829Y-98152577D02*
X148699973Y-98152577D01*
X147502703Y-98480703D02*
X147830829Y-98152577D01*
X141320579Y-98480703D02*
X147502703Y-98480703D01*
X138938000Y-96098124D02*
X141320579Y-98480703D01*
X138938000Y-94058315D02*
X138938000Y-96098124D01*
X136652000Y-91772315D02*
X138938000Y-94058315D01*
X136652000Y-91694000D02*
X136652000Y-91772315D01*
X139637100Y-99822000D02*
X143764000Y-99822000D01*
X136487500Y-102971600D02*
X139637100Y-99822000D01*
D33*
X140970000Y-101917000D02*
X140399000Y-101346000D01*
X139734107Y-104267000D02*
X140970000Y-103031107D01*
X139322000Y-104267000D02*
X139734107Y-104267000D01*
X140970000Y-103031107D02*
X140970000Y-101917000D01*
X143859893Y-106807000D02*
X144272000Y-106807000D01*
X142494000Y-102730000D02*
X142494000Y-105441107D01*
X143002000Y-102222000D02*
X142494000Y-102730000D01*
X143558000Y-102222000D02*
X143002000Y-102222000D01*
X143926000Y-101854000D02*
X143558000Y-102222000D01*
X144059705Y-101854000D02*
X143926000Y-101854000D01*
X144117500Y-101796205D02*
X144059705Y-101854000D01*
X142494000Y-105441107D02*
X143859893Y-106807000D01*
X148513577Y-98602577D02*
X149225000Y-99314000D01*
X140733183Y-99060000D02*
X147559802Y-99060000D01*
X148017225Y-98602577D02*
X148513577Y-98602577D01*
X137605000Y-94431817D02*
X137605000Y-95931817D01*
X137605000Y-95931817D02*
X140733183Y-99060000D01*
X147559802Y-99060000D02*
X148017225Y-98602577D01*
X135283183Y-92110000D02*
X137605000Y-94431817D01*
X130048000Y-94742000D02*
X132680000Y-92110000D01*
X132680000Y-92110000D02*
X135283183Y-92110000D01*
X144371500Y-94857559D02*
X144371500Y-92747500D01*
X144371500Y-92747500D02*
X143953000Y-92329000D01*
X143654702Y-95574357D02*
X144371500Y-94857559D01*
X142393857Y-95574357D02*
X143654702Y-95574357D01*
X142367000Y-95547500D02*
X142393857Y-95574357D01*
X143540893Y-88519000D02*
X143953000Y-88519000D01*
X141732000Y-90327893D02*
X143540893Y-88519000D01*
X141732000Y-91790107D02*
X141732000Y-90327893D01*
X143406173Y-93464280D02*
X141732000Y-91790107D01*
X143406173Y-94974357D02*
X143406173Y-93464280D01*
X134351000Y-93518141D02*
X134351000Y-94488000D01*
X134393177Y-93475964D02*
X134351000Y-93518141D01*
D32*
X133701000Y-93375000D02*
X133701000Y-93988000D01*
D33*
X132708000Y-96104000D02*
X134474414Y-96104000D01*
X132588000Y-95984000D02*
X132708000Y-96104000D01*
X134474414Y-96104000D02*
X134707626Y-95870788D01*
X132588000Y-95984000D02*
X130274000Y-95984000D01*
X130274000Y-95984000D02*
X129413000Y-95123000D01*
X132674000Y-94938000D02*
X133701000Y-94938000D01*
X132588000Y-95024000D02*
X132674000Y-94938000D01*
D32*
X144754817Y-105537000D02*
X144272000Y-105537000D01*
D33*
X144818439Y-104267000D02*
X144272000Y-104267000D01*
X145465802Y-103619637D02*
X144818439Y-104267000D01*
D32*
X145161000Y-91059000D02*
X143953000Y-91059000D01*
X145288000Y-91186000D02*
X145161000Y-91059000D01*
D31*
X149733000Y-97790000D02*
X150495000Y-98552000D01*
X149225000Y-97790000D02*
X149733000Y-97790000D01*
X150115000Y-96520000D02*
X150496000Y-96139000D01*
X149225000Y-96520000D02*
X150115000Y-96520000D01*
X128803400Y-102743000D02*
X130225800Y-101320600D01*
X121603400Y-102273260D02*
X122073140Y-102743000D01*
X121603400Y-101651940D02*
X121603400Y-102273260D01*
X125763400Y-98912600D02*
X124342740Y-98912600D01*
X124342740Y-98912600D02*
X121603400Y-101651940D01*
X122073140Y-102743000D02*
X128803400Y-102743000D01*
X127757000Y-96362600D02*
X127113400Y-96362600D01*
X130225800Y-98831400D02*
X127757000Y-96362600D01*
X127044161Y-98062600D02*
X127113400Y-98062600D01*
X126194161Y-97212600D02*
X127044161Y-98062600D01*
X125763400Y-97212600D02*
X126194161Y-97212600D01*
D33*
X129032000Y-99287600D02*
X128575800Y-98831400D01*
X129032000Y-100330000D02*
X129032000Y-99287600D01*
X128210600Y-99762600D02*
X128270000Y-99822000D01*
X127113400Y-99762600D02*
X128210600Y-99762600D01*
X128952600Y-94662600D02*
X129413000Y-95123000D01*
X127113400Y-94662600D02*
X128952600Y-94662600D01*
X128575800Y-100786200D02*
X129032000Y-100330000D01*
X128575800Y-101320600D02*
X128575800Y-100786200D01*
X128769400Y-95512600D02*
X128778000Y-95504000D01*
X127113400Y-95512600D02*
X128769400Y-95512600D01*
X125763400Y-95512600D02*
X127113400Y-95512600D01*
X125763400Y-99762600D02*
X127113400Y-99762600D01*
X127113400Y-94292600D02*
X126133400Y-93312600D01*
X127113400Y-94662600D02*
X127113400Y-94292600D01*
X125763400Y-94662600D02*
X127113400Y-94662600D01*
X122753400Y-93312600D02*
X126133400Y-93312600D01*
X127933800Y-101962600D02*
X128575800Y-101320600D01*
X126133400Y-101962600D02*
X127933800Y-101962600D01*
X126133400Y-101962600D02*
X122753400Y-101962600D01*
X127867800Y-100612600D02*
X128575800Y-101320600D01*
X127113400Y-100612600D02*
X127867800Y-100612600D01*
X125763400Y-100612600D02*
X127113400Y-100612600D01*
X153670000Y-95200000D02*
X154228000Y-95200000D01*
X154228000Y-95200000D02*
X154940000Y-94488000D01*
X140970000Y-90073893D02*
X140970000Y-91440000D01*
X139415107Y-88519000D02*
X140970000Y-90073893D01*
X139003000Y-88519000D02*
X139415107Y-88519000D01*
X143129000Y-89789000D02*
X143953000Y-89789000D01*
X142494000Y-90424000D02*
X143129000Y-89789000D01*
X144272000Y-93890500D02*
X144436500Y-93726000D01*
X143990500Y-88556500D02*
X143953000Y-88519000D01*
X146177000Y-88556500D02*
X143990500Y-88556500D01*
D31*
X152620000Y-87850000D02*
X153670000Y-88900000D01*
X135268600Y-87850000D02*
X152620000Y-87850000D01*
X133863000Y-89255600D02*
X135268600Y-87850000D01*
D33*
X135666400Y-91059000D02*
X139003000Y-91059000D01*
X133863000Y-89255600D02*
X135666400Y-91059000D01*
X139003000Y-89789000D02*
X136936400Y-89789000D01*
X136936400Y-89789000D02*
X136403000Y-89255600D01*
X135063000Y-107219600D02*
X133863000Y-106019600D01*
X137755400Y-107219600D02*
X135063000Y-107219600D01*
X137755400Y-106128599D02*
X137755400Y-107219600D01*
X139322000Y-105537000D02*
X138346999Y-105537000D01*
X138346999Y-105537000D02*
X137755400Y-106128599D01*
X138849000Y-104740000D02*
X137682600Y-104740000D01*
X137682600Y-104740000D02*
X136403000Y-106019600D01*
X139322000Y-104267000D02*
X138849000Y-104740000D01*
X144117500Y-88556500D02*
X143953000Y-88392000D01*
D32*
X135578000Y-94088000D02*
X135001000Y-94088000D01*
X136114000Y-94624000D02*
X135578000Y-94088000D01*
X135001000Y-94088000D02*
X135001000Y-94388000D01*
D31*
X135001000Y-95577414D02*
X134707626Y-95870788D01*
X134707626Y-95870788D02*
X135827212Y-95870788D01*
X135827212Y-95870788D02*
X136114000Y-95584000D01*
X135001000Y-94888000D02*
X135001000Y-95577414D01*
D32*
X134112000Y-95504000D02*
X133701000Y-95093000D01*
X133701000Y-95093000D02*
X133701000Y-94988000D01*
D33*
X136961800Y-89662000D02*
X136555400Y-89255600D01*
X139322000Y-104267000D02*
X140080000Y-104267000D01*
X143383000Y-88392000D02*
X143953000Y-88392000D01*
X145198500Y-106807000D02*
X144272000Y-106807000D01*
X146558000Y-105447500D02*
X145198500Y-106807000D01*
D31*
X155204000Y-107407000D02*
X141533396Y-107407000D01*
X141533396Y-107407000D02*
X139663396Y-105537000D01*
X139663396Y-105537000D02*
X139322000Y-105537000D01*
X156210000Y-106401000D02*
X155204000Y-107407000D01*
M02*
