G04 #@! TF.GenerationSoftware,KiCad,Pcbnew,7.0.6*
G04 #@! TF.CreationDate,2024-02-06T23:19:41+01:00*
G04 #@! TF.ProjectId,USB2CANv2,55534232-4341-44e7-9632-2e6b69636164,0_2*
G04 #@! TF.SameCoordinates,Original*
G04 #@! TF.FileFunction,Paste,Top*
G04 #@! TF.FilePolarity,Positive*
%FSLAX46Y46*%
G04 Gerber Fmt 4.6, Leading zero omitted, Abs format (unit mm)*
G04 Created by KiCad (PCBNEW 7.0.6) date 2024-02-06 23:19:41*
%MOMM*%
%LPD*%
G01*
G04 APERTURE LIST*
G04 Aperture macros list*
%AMRoundRect*
0 Rectangle with rounded corners*
0 $1 Rounding radius*
0 $2 $3 $4 $5 $6 $7 $8 $9 X,Y pos of 4 corners*
0 Add a 4 corners polygon primitive as box body*
4,1,4,$2,$3,$4,$5,$6,$7,$8,$9,$2,$3,0*
0 Add four circle primitives for the rounded corners*
1,1,$1+$1,$2,$3*
1,1,$1+$1,$4,$5*
1,1,$1+$1,$6,$7*
1,1,$1+$1,$8,$9*
0 Add four rect primitives between the rounded corners*
20,1,$1+$1,$2,$3,$4,$5,0*
20,1,$1+$1,$4,$5,$6,$7,0*
20,1,$1+$1,$6,$7,$8,$9,0*
20,1,$1+$1,$8,$9,$2,$3,0*%
G04 Aperture macros list end*
%ADD10RoundRect,0.200000X0.200000X0.275000X-0.200000X0.275000X-0.200000X-0.275000X0.200000X-0.275000X0*%
%ADD11R,0.500000X0.375000*%
%ADD12R,0.650000X0.300000*%
%ADD13RoundRect,0.155000X0.155000X-0.212500X0.155000X0.212500X-0.155000X0.212500X-0.155000X-0.212500X0*%
%ADD14RoundRect,0.155000X-0.212500X-0.155000X0.212500X-0.155000X0.212500X0.155000X-0.212500X0.155000X0*%
%ADD15RoundRect,0.160000X-0.160000X0.197500X-0.160000X-0.197500X0.160000X-0.197500X0.160000X0.197500X0*%
%ADD16RoundRect,0.250000X-0.325000X-0.450000X0.325000X-0.450000X0.325000X0.450000X-0.325000X0.450000X0*%
%ADD17RoundRect,0.243750X-0.243750X-0.456250X0.243750X-0.456250X0.243750X0.456250X-0.243750X0.456250X0*%
%ADD18RoundRect,0.381000X2.119000X0.381000X-2.119000X0.381000X-2.119000X-0.381000X2.119000X-0.381000X0*%
%ADD19R,2.000000X2.400000*%
%ADD20R,1.800000X1.000000*%
%ADD21RoundRect,0.075000X0.548008X0.441942X0.441942X0.548008X-0.548008X-0.441942X-0.441942X-0.548008X0*%
%ADD22RoundRect,0.075000X0.548008X-0.441942X-0.441942X0.548008X-0.548008X0.441942X0.441942X-0.548008X0*%
%ADD23RoundRect,0.155000X0.212500X0.155000X-0.212500X0.155000X-0.212500X-0.155000X0.212500X-0.155000X0*%
%ADD24RoundRect,0.155000X-0.259862X0.040659X0.040659X-0.259862X0.259862X-0.040659X-0.040659X0.259862X0*%
%ADD25RoundRect,0.200000X-0.200000X-0.275000X0.200000X-0.275000X0.200000X0.275000X-0.200000X0.275000X0*%
%ADD26RoundRect,0.155000X-0.155000X0.212500X-0.155000X-0.212500X0.155000X-0.212500X0.155000X0.212500X0*%
%ADD27RoundRect,0.243750X0.243750X0.456250X-0.243750X0.456250X-0.243750X-0.456250X0.243750X-0.456250X0*%
%ADD28RoundRect,0.155000X-0.040659X-0.259862X0.259862X0.040659X0.040659X0.259862X-0.259862X-0.040659X0*%
G04 APERTURE END LIST*
D10*
X131635000Y-96774000D03*
X129985000Y-96774000D03*
D11*
X134708000Y-98327500D03*
D12*
X134783000Y-97790000D03*
D11*
X134708000Y-97252500D03*
X133008000Y-97252500D03*
D12*
X132933000Y-97790000D03*
D11*
X133008000Y-98327500D03*
D13*
X158496000Y-105215500D03*
X158496000Y-104080500D03*
D14*
X154118500Y-98425000D03*
X155253500Y-98425000D03*
D15*
X139700000Y-105955500D03*
X139700000Y-107150500D03*
D16*
X154550000Y-95885000D03*
X156600000Y-95885000D03*
D13*
X156718000Y-92904500D03*
X156718000Y-94039500D03*
D15*
X139670000Y-89142500D03*
X139670000Y-90337500D03*
D10*
X131635000Y-99314000D03*
X129985000Y-99314000D03*
D17*
X141162500Y-88870000D03*
X143037500Y-88870000D03*
X141048500Y-106679999D03*
X142923500Y-106679999D03*
D18*
X164338000Y-100330000D03*
X164338000Y-97790000D03*
X164338000Y-95250000D03*
D19*
X152836000Y-105867200D03*
X156536000Y-105867200D03*
D20*
X158877000Y-99334000D03*
X158877000Y-101834000D03*
D15*
X152400000Y-91096500D03*
X152400000Y-92291500D03*
D21*
X144079219Y-104302081D03*
X143725666Y-103948528D03*
X143372113Y-103594975D03*
X143018559Y-103241421D03*
X142665006Y-102887868D03*
X142311452Y-102534314D03*
X141957899Y-102180761D03*
X141604346Y-101827208D03*
X141250792Y-101473654D03*
X140897239Y-101120101D03*
X140543686Y-100766548D03*
X140190132Y-100412994D03*
X139836579Y-100059441D03*
X139483025Y-99705887D03*
X139129472Y-99352334D03*
X138775919Y-98998781D03*
D22*
X138775919Y-96276419D03*
X139129472Y-95922866D03*
X139483025Y-95569313D03*
X139836579Y-95215759D03*
X140190132Y-94862206D03*
X140543686Y-94508652D03*
X140897239Y-94155099D03*
X141250792Y-93801546D03*
X141604346Y-93447992D03*
X141957899Y-93094439D03*
X142311452Y-92740886D03*
X142665006Y-92387332D03*
X143018559Y-92033779D03*
X143372113Y-91680225D03*
X143725666Y-91326672D03*
X144079219Y-90973119D03*
D21*
X146801581Y-90973119D03*
X147155134Y-91326672D03*
X147508687Y-91680225D03*
X147862241Y-92033779D03*
X148215794Y-92387332D03*
X148569348Y-92740886D03*
X148922901Y-93094439D03*
X149276454Y-93447992D03*
X149630008Y-93801546D03*
X149983561Y-94155099D03*
X150337114Y-94508652D03*
X150690668Y-94862206D03*
X151044221Y-95215759D03*
X151397775Y-95569313D03*
X151751328Y-95922866D03*
X152104881Y-96276419D03*
D22*
X152104881Y-98998781D03*
X151751328Y-99352334D03*
X151397775Y-99705887D03*
X151044221Y-100059441D03*
X150690668Y-100412994D03*
X150337114Y-100766548D03*
X149983561Y-101120101D03*
X149630008Y-101473654D03*
X149276454Y-101827208D03*
X148922901Y-102180761D03*
X148569348Y-102534314D03*
X148215794Y-102887868D03*
X147862241Y-103241421D03*
X147508687Y-103594975D03*
X147155134Y-103948528D03*
X146801581Y-104302081D03*
D23*
X137371900Y-98145600D03*
X136236900Y-98145600D03*
D24*
X152252717Y-93705717D03*
X153055283Y-94508283D03*
D23*
X137422700Y-95046800D03*
X136287700Y-95046800D03*
D24*
X148696717Y-90530717D03*
X149499283Y-91333283D03*
D17*
X133174500Y-92202000D03*
X135049500Y-92202000D03*
D25*
X132474200Y-102108000D03*
X134124200Y-102108000D03*
D23*
X149919500Y-106908600D03*
X148784500Y-106908600D03*
D26*
X160731200Y-100016500D03*
X160731200Y-101151500D03*
D14*
X154118500Y-97409000D03*
X155253500Y-97409000D03*
D23*
X137371900Y-96875600D03*
X136236900Y-96875600D03*
D26*
X146050000Y-105604500D03*
X146050000Y-106739500D03*
X144551400Y-105604500D03*
X144551400Y-106739500D03*
D27*
X152219900Y-88900000D03*
X150344900Y-88900000D03*
D26*
X155549600Y-100270500D03*
X155549600Y-101405500D03*
D15*
X129286000Y-92988200D03*
X129286000Y-94183200D03*
D28*
X146918717Y-89555283D03*
X147721283Y-88752717D03*
X150474717Y-102763283D03*
X151277283Y-101960717D03*
M02*
