G04 #@! TF.GenerationSoftware,KiCad,Pcbnew,7.0.6*
G04 #@! TF.CreationDate,2024-02-06T23:19:41+01:00*
G04 #@! TF.ProjectId,USB2CANv2,55534232-4341-44e7-9632-2e6b69636164,0_2*
G04 #@! TF.SameCoordinates,Original*
G04 #@! TF.FileFunction,Copper,L3,Inr*
G04 #@! TF.FilePolarity,Positive*
%FSLAX46Y46*%
G04 Gerber Fmt 4.6, Leading zero omitted, Abs format (unit mm)*
G04 Created by KiCad (PCBNEW 7.0.6) date 2024-02-06 23:19:41*
%MOMM*%
%LPD*%
G01*
G04 APERTURE LIST*
G04 #@! TA.AperFunction,ComponentPad*
%ADD10O,1.350000X1.350000*%
G04 #@! TD*
G04 #@! TA.AperFunction,ComponentPad*
%ADD11R,1.350000X1.350000*%
G04 #@! TD*
G04 #@! TA.AperFunction,ComponentPad*
%ADD12R,1.700000X1.700000*%
G04 #@! TD*
G04 #@! TA.AperFunction,ComponentPad*
%ADD13O,1.700000X1.700000*%
G04 #@! TD*
G04 #@! TA.AperFunction,ComponentPad*
%ADD14C,0.700000*%
G04 #@! TD*
G04 #@! TA.AperFunction,ComponentPad*
%ADD15O,1.700000X0.900000*%
G04 #@! TD*
G04 #@! TA.AperFunction,ComponentPad*
%ADD16O,2.400000X0.900000*%
G04 #@! TD*
G04 #@! TA.AperFunction,ViaPad*
%ADD17C,0.500000*%
G04 #@! TD*
G04 APERTURE END LIST*
D10*
X160512000Y-89154000D03*
D11*
X158512000Y-89154000D03*
D12*
X136403000Y-89255600D03*
D13*
X133863000Y-89255600D03*
D14*
X127113400Y-94662600D03*
X127113400Y-95512600D03*
X127113400Y-96362600D03*
X127113400Y-97212600D03*
X127113400Y-98062600D03*
X127113400Y-98912600D03*
X127113400Y-99762600D03*
X127113400Y-100612600D03*
X125763400Y-100612600D03*
X125763400Y-99762600D03*
X125763400Y-98912600D03*
X125763400Y-98062600D03*
X125763400Y-97212600D03*
X125763400Y-96362600D03*
X125763400Y-95512600D03*
X125763400Y-94662600D03*
D15*
X122753400Y-101962600D03*
X122753400Y-93312600D03*
D16*
X126133400Y-101962600D03*
X126133400Y-93312600D03*
D12*
X136403000Y-106019600D03*
D13*
X133863000Y-106019600D03*
D17*
X158597600Y-90195400D03*
X157903368Y-90281104D03*
X159766000Y-90332500D03*
X160512000Y-90449400D03*
X157327600Y-89814400D03*
X157220000Y-101220000D03*
X138416348Y-98142317D03*
X138320000Y-97500000D03*
X136361189Y-99023189D03*
X152146000Y-101346000D03*
X156464000Y-103886000D03*
X147066000Y-99732741D03*
X148212425Y-99255200D03*
X147066000Y-100432244D03*
X148609695Y-99833114D03*
X145375108Y-91880058D03*
X148590000Y-97155000D03*
X149225000Y-96520000D03*
X149225000Y-97790000D03*
X128270000Y-99822000D03*
X129032000Y-100330000D03*
X128778000Y-95504000D03*
X156083000Y-97917000D03*
X155702000Y-92964000D03*
X154940000Y-94488000D03*
X140970000Y-91440000D03*
X142494000Y-90424000D03*
X150876000Y-90932000D03*
X129413000Y-95123000D03*
X134393177Y-93475964D03*
X134707626Y-95870788D03*
X147580000Y-105650000D03*
X145465802Y-103619637D03*
X142708022Y-94930893D03*
X154620000Y-91531500D03*
X137569919Y-103813068D03*
X144463503Y-99822000D03*
X144870000Y-101690000D03*
X137351503Y-91694000D03*
X141275602Y-97246500D03*
X134112000Y-95504000D03*
X148093000Y-105167000D03*
X133701000Y-93375000D03*
X145288000Y-91186000D03*
X143764000Y-99822000D03*
X136652000Y-91694000D03*
X137160000Y-104394000D03*
X149225000Y-99314000D03*
X130048000Y-94742000D03*
X140716000Y-96647000D03*
X155194000Y-90932000D03*
X155267903Y-92020242D03*
X141519717Y-97902023D03*
X142367000Y-95547500D03*
X143406173Y-94974357D03*
X144117500Y-101796205D03*
X145440000Y-102120000D03*
G04 #@! TA.AperFunction,Conductor*
G36*
X164537738Y-87479647D02*
G01*
X164537750Y-87479651D01*
X164587856Y-87479651D01*
X164591332Y-87479749D01*
X164625100Y-87481644D01*
X164705077Y-87486135D01*
X164877312Y-87496555D01*
X164883913Y-87497313D01*
X165019754Y-87520393D01*
X165168853Y-87547717D01*
X165174831Y-87549121D01*
X165311475Y-87588488D01*
X165452479Y-87632427D01*
X165457719Y-87634324D01*
X165590850Y-87689467D01*
X165705482Y-87741059D01*
X165724297Y-87749527D01*
X165728836Y-87751798D01*
X165855843Y-87821991D01*
X165980667Y-87897450D01*
X165984452Y-87899931D01*
X166102122Y-87983421D01*
X166104458Y-87985163D01*
X166184733Y-88048055D01*
X166218110Y-88074204D01*
X166221187Y-88076780D01*
X166328817Y-88172962D01*
X166331345Y-88175352D01*
X166433447Y-88277454D01*
X166435819Y-88279964D01*
X166531907Y-88387485D01*
X166534484Y-88390563D01*
X166623710Y-88504451D01*
X166625469Y-88506809D01*
X166708708Y-88624119D01*
X166711199Y-88627919D01*
X166774098Y-88731966D01*
X166787018Y-88753337D01*
X166856831Y-88879651D01*
X166859106Y-88884198D01*
X166919663Y-89018749D01*
X166974309Y-89150671D01*
X166976222Y-89155956D01*
X167020758Y-89298876D01*
X167059549Y-89433518D01*
X167060958Y-89439510D01*
X167088957Y-89592289D01*
X167111403Y-89724388D01*
X167112167Y-89731035D01*
X167123322Y-89915434D01*
X167128998Y-90016485D01*
X167129096Y-90019963D01*
X167129096Y-105256338D01*
X167128998Y-105259815D01*
X167122619Y-105373411D01*
X167112194Y-105545770D01*
X167111430Y-105552416D01*
X167088366Y-105688169D01*
X167061026Y-105837349D01*
X167059618Y-105843340D01*
X167020294Y-105979842D01*
X166976318Y-106120967D01*
X166974405Y-106126251D01*
X166919310Y-106259264D01*
X166859210Y-106392799D01*
X166856936Y-106397345D01*
X166786772Y-106524299D01*
X166711299Y-106649145D01*
X166708805Y-106652948D01*
X166625314Y-106770618D01*
X166623555Y-106772977D01*
X166534571Y-106886557D01*
X166531995Y-106889635D01*
X166435725Y-106997361D01*
X166433335Y-106999888D01*
X166331391Y-107101833D01*
X166328864Y-107104222D01*
X166221176Y-107200459D01*
X166218097Y-107203036D01*
X166104422Y-107292094D01*
X166102063Y-107293853D01*
X165984519Y-107377256D01*
X165980715Y-107379750D01*
X165855692Y-107455331D01*
X165728933Y-107525387D01*
X165724387Y-107527662D01*
X165590519Y-107587912D01*
X165457871Y-107642856D01*
X165452588Y-107644769D01*
X165369877Y-107670543D01*
X165310845Y-107688938D01*
X165294611Y-107693615D01*
X165174975Y-107728080D01*
X165168985Y-107729488D01*
X165018683Y-107757033D01*
X164884061Y-107779906D01*
X164877414Y-107780670D01*
X164701447Y-107791314D01*
X164591612Y-107797482D01*
X164588137Y-107797580D01*
X129694187Y-107799129D01*
X129690619Y-107799027D01*
X129579601Y-107792633D01*
X129405417Y-107781829D01*
X129396980Y-107781305D01*
X129390167Y-107780503D01*
X129252826Y-107756562D01*
X129097993Y-107727448D01*
X129091858Y-107725968D01*
X128953182Y-107684943D01*
X128807605Y-107638349D01*
X128802204Y-107636339D01*
X128666989Y-107578741D01*
X128529941Y-107515278D01*
X128525306Y-107512890D01*
X128396461Y-107439503D01*
X128268933Y-107359980D01*
X128265070Y-107357364D01*
X128146070Y-107270086D01*
X128143681Y-107268243D01*
X128028289Y-107174648D01*
X128025193Y-107171962D01*
X127916816Y-107071431D01*
X127914290Y-107068949D01*
X127811433Y-106961896D01*
X127809052Y-106959271D01*
X127773278Y-106917472D01*
X127712932Y-106846961D01*
X127710364Y-106843751D01*
X127657504Y-106772977D01*
X127621460Y-106724716D01*
X127619717Y-106722260D01*
X127537263Y-106599862D01*
X127534804Y-106595898D01*
X127513556Y-106558580D01*
X127460437Y-106465285D01*
X127425259Y-106397345D01*
X127392260Y-106333613D01*
X127390066Y-106328899D01*
X127360668Y-106258125D01*
X127332128Y-106189416D01*
X127279979Y-106052005D01*
X127278197Y-106046561D01*
X127237460Y-105899247D01*
X127201997Y-105758995D01*
X127200766Y-105752820D01*
X127177859Y-105596909D01*
X127159429Y-105458740D01*
X127158904Y-105451953D01*
X127154881Y-105268909D01*
X127154682Y-105257601D01*
X128386932Y-105257601D01*
X128406764Y-105484286D01*
X128406766Y-105484297D01*
X128465658Y-105704088D01*
X128465661Y-105704097D01*
X128561831Y-105910332D01*
X128561832Y-105910334D01*
X128692354Y-106096741D01*
X128853258Y-106257645D01*
X128855570Y-106259264D01*
X129039666Y-106388168D01*
X129245904Y-106484339D01*
X129245909Y-106484340D01*
X129245911Y-106484341D01*
X129262967Y-106488911D01*
X129465708Y-106543235D01*
X129635616Y-106558100D01*
X129749184Y-106558100D01*
X129919092Y-106543235D01*
X130138896Y-106484339D01*
X130345134Y-106388168D01*
X130531539Y-106257647D01*
X130692447Y-106096739D01*
X130746460Y-106019600D01*
X132507341Y-106019600D01*
X132527936Y-106255003D01*
X132527938Y-106255013D01*
X132589094Y-106483255D01*
X132589096Y-106483259D01*
X132589097Y-106483263D01*
X132624218Y-106558580D01*
X132688965Y-106697430D01*
X132688967Y-106697434D01*
X132758275Y-106796415D01*
X132824505Y-106891001D01*
X132991599Y-107058095D01*
X133086708Y-107124691D01*
X133185165Y-107193632D01*
X133185167Y-107193633D01*
X133185170Y-107193635D01*
X133399337Y-107293503D01*
X133627592Y-107354663D01*
X133804034Y-107370100D01*
X133862999Y-107375259D01*
X133863000Y-107375259D01*
X133863001Y-107375259D01*
X133921966Y-107370100D01*
X134098408Y-107354663D01*
X134326663Y-107293503D01*
X134540830Y-107193635D01*
X134734401Y-107058095D01*
X134856329Y-106936166D01*
X134917648Y-106902684D01*
X134987340Y-106907668D01*
X135043274Y-106949539D01*
X135060189Y-106980517D01*
X135109202Y-107111928D01*
X135109206Y-107111935D01*
X135195452Y-107227144D01*
X135195455Y-107227147D01*
X135310664Y-107313393D01*
X135310671Y-107313397D01*
X135445517Y-107363691D01*
X135445516Y-107363691D01*
X135452444Y-107364435D01*
X135505127Y-107370100D01*
X137300872Y-107370099D01*
X137360483Y-107363691D01*
X137495331Y-107313396D01*
X137610546Y-107227146D01*
X137696796Y-107111931D01*
X137747091Y-106977083D01*
X137753500Y-106917473D01*
X137753499Y-105167002D01*
X147337751Y-105167002D01*
X147356685Y-105335056D01*
X147412545Y-105494694D01*
X147412547Y-105494697D01*
X147502518Y-105637884D01*
X147502523Y-105637890D01*
X147622109Y-105757476D01*
X147622115Y-105757481D01*
X147765302Y-105847452D01*
X147765305Y-105847454D01*
X147765309Y-105847455D01*
X147765310Y-105847456D01*
X147837913Y-105872860D01*
X147924943Y-105903314D01*
X148092997Y-105922249D01*
X148093000Y-105922249D01*
X148093003Y-105922249D01*
X148261056Y-105903314D01*
X148261059Y-105903313D01*
X148420690Y-105847456D01*
X148420692Y-105847454D01*
X148420694Y-105847454D01*
X148420697Y-105847452D01*
X148563884Y-105757481D01*
X148563885Y-105757480D01*
X148563890Y-105757477D01*
X148683477Y-105637890D01*
X148709257Y-105596862D01*
X148773452Y-105494697D01*
X148773454Y-105494694D01*
X148773454Y-105494692D01*
X148773456Y-105494690D01*
X148829313Y-105335059D01*
X148829313Y-105335058D01*
X148829314Y-105335056D01*
X148837987Y-105258081D01*
X163284128Y-105258081D01*
X163303960Y-105484766D01*
X163303962Y-105484777D01*
X163362854Y-105704568D01*
X163362857Y-105704577D01*
X163459027Y-105910812D01*
X163459028Y-105910814D01*
X163589550Y-106097221D01*
X163750454Y-106258125D01*
X163750457Y-106258127D01*
X163936862Y-106388648D01*
X164143100Y-106484819D01*
X164143105Y-106484820D01*
X164143107Y-106484821D01*
X164196011Y-106498996D01*
X164362904Y-106543715D01*
X164532812Y-106558580D01*
X164646380Y-106558580D01*
X164816288Y-106543715D01*
X165036092Y-106484819D01*
X165242330Y-106388648D01*
X165428735Y-106258127D01*
X165589643Y-106097219D01*
X165720164Y-105910814D01*
X165816335Y-105704576D01*
X165875231Y-105484772D01*
X165895064Y-105258080D01*
X165875231Y-105031388D01*
X165816461Y-104812054D01*
X165816337Y-104811591D01*
X165816334Y-104811582D01*
X165810299Y-104798639D01*
X165720164Y-104605346D01*
X165589643Y-104418941D01*
X165589641Y-104418938D01*
X165428737Y-104258034D01*
X165242330Y-104127512D01*
X165242328Y-104127511D01*
X165036093Y-104031341D01*
X165036084Y-104031338D01*
X164816293Y-103972446D01*
X164816283Y-103972444D01*
X164646380Y-103957580D01*
X164532812Y-103957580D01*
X164362908Y-103972444D01*
X164362898Y-103972446D01*
X164143107Y-104031338D01*
X164143098Y-104031341D01*
X163936863Y-104127511D01*
X163936861Y-104127512D01*
X163750454Y-104258034D01*
X163589550Y-104418938D01*
X163459028Y-104605345D01*
X163459027Y-104605347D01*
X163362857Y-104811582D01*
X163362854Y-104811591D01*
X163303962Y-105031382D01*
X163303960Y-105031393D01*
X163284128Y-105258078D01*
X163284128Y-105258081D01*
X148837987Y-105258081D01*
X148848249Y-105167002D01*
X148848249Y-105166997D01*
X148829314Y-104998943D01*
X148797971Y-104909371D01*
X148773456Y-104839310D01*
X148773455Y-104839309D01*
X148773454Y-104839305D01*
X148773452Y-104839302D01*
X148683481Y-104696115D01*
X148683476Y-104696109D01*
X148563890Y-104576523D01*
X148563884Y-104576518D01*
X148420697Y-104486547D01*
X148420694Y-104486545D01*
X148261056Y-104430685D01*
X148093003Y-104411751D01*
X148092997Y-104411751D01*
X147924943Y-104430685D01*
X147765305Y-104486545D01*
X147765302Y-104486547D01*
X147622115Y-104576518D01*
X147622109Y-104576523D01*
X147502523Y-104696109D01*
X147502518Y-104696115D01*
X147412547Y-104839302D01*
X147412545Y-104839305D01*
X147356685Y-104998943D01*
X147337751Y-105166997D01*
X147337751Y-105167002D01*
X137753499Y-105167002D01*
X137753499Y-105121728D01*
X137747091Y-105062117D01*
X137722280Y-104995597D01*
X137717297Y-104925908D01*
X137747185Y-104871171D01*
X137746136Y-104870334D01*
X137750476Y-104864891D01*
X137750477Y-104864890D01*
X137840456Y-104721690D01*
X137896313Y-104562059D01*
X137896313Y-104562058D01*
X137896314Y-104562056D01*
X137915249Y-104394002D01*
X137915249Y-104393997D01*
X137896314Y-104225943D01*
X137840454Y-104066305D01*
X137840452Y-104066302D01*
X137750481Y-103923115D01*
X137750476Y-103923109D01*
X137630890Y-103803523D01*
X137630884Y-103803518D01*
X137487697Y-103713547D01*
X137487694Y-103713545D01*
X137328056Y-103657685D01*
X137160003Y-103638751D01*
X137159997Y-103638751D01*
X136991943Y-103657685D01*
X136832305Y-103713545D01*
X136832302Y-103713547D01*
X136689115Y-103803518D01*
X136689109Y-103803523D01*
X136569523Y-103923109D01*
X136569518Y-103923115D01*
X136479547Y-104066302D01*
X136479545Y-104066305D01*
X136423685Y-104225943D01*
X136404751Y-104393997D01*
X136404751Y-104394003D01*
X136420211Y-104531217D01*
X136408156Y-104600038D01*
X136360807Y-104651418D01*
X136296991Y-104669100D01*
X135505129Y-104669100D01*
X135505123Y-104669101D01*
X135445516Y-104675508D01*
X135310671Y-104725802D01*
X135310664Y-104725806D01*
X135195455Y-104812052D01*
X135195452Y-104812055D01*
X135109206Y-104927264D01*
X135109203Y-104927269D01*
X135060189Y-105058683D01*
X135018317Y-105114616D01*
X134952853Y-105139033D01*
X134884580Y-105124181D01*
X134856326Y-105103030D01*
X134734402Y-104981106D01*
X134734395Y-104981101D01*
X134540834Y-104845567D01*
X134540830Y-104845565D01*
X134475105Y-104814917D01*
X134326663Y-104745697D01*
X134326659Y-104745696D01*
X134326655Y-104745694D01*
X134098413Y-104684538D01*
X134098403Y-104684536D01*
X133863001Y-104663941D01*
X133862999Y-104663941D01*
X133627596Y-104684536D01*
X133627586Y-104684538D01*
X133399344Y-104745694D01*
X133399335Y-104745698D01*
X133185171Y-104845564D01*
X133185169Y-104845565D01*
X132991597Y-104981105D01*
X132824505Y-105148197D01*
X132688965Y-105341769D01*
X132688964Y-105341771D01*
X132589098Y-105555935D01*
X132589094Y-105555944D01*
X132527938Y-105784186D01*
X132527936Y-105784196D01*
X132507341Y-106019599D01*
X132507341Y-106019600D01*
X130746460Y-106019600D01*
X130822968Y-105910334D01*
X130919139Y-105704096D01*
X130978035Y-105484292D01*
X130997868Y-105257600D01*
X130978035Y-105030908D01*
X130928373Y-104845565D01*
X130919141Y-104811111D01*
X130919138Y-104811102D01*
X130888639Y-104745697D01*
X130822968Y-104604866D01*
X130701006Y-104430685D01*
X130692445Y-104418458D01*
X130531541Y-104257554D01*
X130345134Y-104127032D01*
X130345132Y-104127031D01*
X130138897Y-104030861D01*
X130138888Y-104030858D01*
X129919097Y-103971966D01*
X129919087Y-103971964D01*
X129749184Y-103957100D01*
X129635616Y-103957100D01*
X129465712Y-103971964D01*
X129465702Y-103971966D01*
X129245911Y-104030858D01*
X129245902Y-104030861D01*
X129039667Y-104127031D01*
X129039665Y-104127032D01*
X128853258Y-104257554D01*
X128692354Y-104418458D01*
X128561832Y-104604865D01*
X128561831Y-104604867D01*
X128465661Y-104811102D01*
X128465658Y-104811111D01*
X128406766Y-105030902D01*
X128406764Y-105030913D01*
X128386932Y-105257598D01*
X128386932Y-105257601D01*
X127154682Y-105257601D01*
X127153725Y-105203061D01*
X127155572Y-105196334D01*
X127153190Y-105166059D01*
X127153010Y-105162308D01*
X127152931Y-105157771D01*
X127152971Y-105154226D01*
X127154221Y-105122960D01*
X127152900Y-105107372D01*
X127152900Y-105036067D01*
X127152900Y-105036066D01*
X127135097Y-104912243D01*
X127135510Y-104909371D01*
X127134123Y-104903596D01*
X127133042Y-104897957D01*
X127131222Y-104885299D01*
X127130784Y-104881351D01*
X127125556Y-104814917D01*
X127119964Y-104802729D01*
X127103218Y-104745698D01*
X127077795Y-104659115D01*
X127077795Y-104655938D01*
X127075863Y-104651274D01*
X127073658Y-104645026D01*
X127065247Y-104616383D01*
X127064459Y-104613426D01*
X127054193Y-104570664D01*
X127047423Y-104560253D01*
X126984099Y-104421592D01*
X126983510Y-104417496D01*
X126980450Y-104412502D01*
X126976912Y-104405855D01*
X126971499Y-104394003D01*
X126951539Y-104350295D01*
X126951538Y-104350294D01*
X126951111Y-104349358D01*
X126948846Y-104344628D01*
X126946882Y-104339887D01*
X126939400Y-104331406D01*
X126856302Y-104202104D01*
X126854829Y-104197089D01*
X126850498Y-104192018D01*
X126845480Y-104185265D01*
X126821856Y-104148505D01*
X126817668Y-104143672D01*
X126806180Y-104127978D01*
X126798300Y-104121319D01*
X126697302Y-104004760D01*
X126694692Y-103999045D01*
X126692762Y-103997397D01*
X126679579Y-103984308D01*
X126664775Y-103967223D01*
X126647691Y-103952420D01*
X126634675Y-103939311D01*
X126627236Y-103934696D01*
X126510678Y-103833698D01*
X126506739Y-103827568D01*
X126504737Y-103826342D01*
X126488328Y-103814331D01*
X126483500Y-103810148D01*
X126483494Y-103810143D01*
X126446735Y-103786520D01*
X126439981Y-103781502D01*
X126436570Y-103778588D01*
X126429894Y-103775696D01*
X126300592Y-103692598D01*
X126295226Y-103686405D01*
X126287398Y-103683163D01*
X126282665Y-103680899D01*
X126226146Y-103655088D01*
X126219500Y-103651551D01*
X126215987Y-103649398D01*
X126210403Y-103647898D01*
X126125607Y-103609173D01*
X126071749Y-103584577D01*
X126064929Y-103578668D01*
X126018549Y-103567533D01*
X126015567Y-103566737D01*
X126004511Y-103563491D01*
X125986993Y-103558347D01*
X125980734Y-103556139D01*
X125977306Y-103554719D01*
X125972880Y-103554203D01*
X125829264Y-103512033D01*
X125821051Y-103506755D01*
X125750637Y-103501213D01*
X125746673Y-103500773D01*
X125734067Y-103498960D01*
X125728418Y-103497878D01*
X125723839Y-103496778D01*
X125719756Y-103496902D01*
X125595935Y-103479100D01*
X125595934Y-103479100D01*
X125476099Y-103479100D01*
X125476062Y-103479099D01*
X125472023Y-103479097D01*
X125467197Y-103478906D01*
X125442817Y-103476988D01*
X125431028Y-103479092D01*
X121122946Y-103478341D01*
X121055910Y-103458645D01*
X121010165Y-103405833D01*
X120998968Y-103354341D01*
X120998968Y-102212600D01*
X121432929Y-102212600D01*
X121496085Y-102383127D01*
X121496087Y-102383131D01*
X121598292Y-102547103D01*
X121731402Y-102687134D01*
X121731403Y-102687135D01*
X121889986Y-102797513D01*
X122067537Y-102873706D01*
X122256794Y-102912600D01*
X122503400Y-102912600D01*
X122503400Y-102262600D01*
X123003400Y-102262600D01*
X123003399Y-102912600D01*
X123201576Y-102912600D01*
X123345621Y-102897952D01*
X123529961Y-102840115D01*
X123529971Y-102840110D01*
X123698898Y-102746348D01*
X123698905Y-102746343D01*
X123845505Y-102620492D01*
X123963768Y-102467709D01*
X123963770Y-102467705D01*
X124048857Y-102294243D01*
X124069996Y-102212600D01*
X124462929Y-102212600D01*
X124526085Y-102383127D01*
X124526087Y-102383131D01*
X124628292Y-102547103D01*
X124761402Y-102687134D01*
X124761403Y-102687135D01*
X124919986Y-102797513D01*
X125097537Y-102873706D01*
X125286794Y-102912600D01*
X125883399Y-102912600D01*
X125883400Y-102262600D01*
X126383400Y-102262600D01*
X126383400Y-102912600D01*
X126931576Y-102912600D01*
X127075621Y-102897952D01*
X127259961Y-102840115D01*
X127259971Y-102840110D01*
X127428898Y-102746348D01*
X127428905Y-102746343D01*
X127575505Y-102620492D01*
X127693768Y-102467709D01*
X127693770Y-102467705D01*
X127778857Y-102294243D01*
X127799996Y-102212600D01*
X127049511Y-102212600D01*
X127089010Y-102188143D01*
X127156601Y-102098638D01*
X127187295Y-101990760D01*
X127176946Y-101879079D01*
X127135680Y-101796207D01*
X143362251Y-101796207D01*
X143381185Y-101964261D01*
X143437045Y-102123899D01*
X143437047Y-102123902D01*
X143527018Y-102267089D01*
X143527023Y-102267095D01*
X143646609Y-102386681D01*
X143646615Y-102386686D01*
X143789802Y-102476657D01*
X143789805Y-102476659D01*
X143789809Y-102476660D01*
X143789810Y-102476661D01*
X143862413Y-102502065D01*
X143949443Y-102532519D01*
X144117497Y-102551454D01*
X144117500Y-102551454D01*
X144117503Y-102551454D01*
X144285556Y-102532519D01*
X144285559Y-102532518D01*
X144445190Y-102476661D01*
X144579740Y-102392116D01*
X144646977Y-102373116D01*
X144713812Y-102393483D01*
X144757432Y-102443306D01*
X144759545Y-102447694D01*
X144849518Y-102590884D01*
X144849523Y-102590890D01*
X144969109Y-102710476D01*
X144969115Y-102710481D01*
X145112302Y-102800452D01*
X145112305Y-102800454D01*
X145112309Y-102800455D01*
X145112310Y-102800456D01*
X145184913Y-102825860D01*
X145271943Y-102856314D01*
X145439997Y-102875249D01*
X145440000Y-102875249D01*
X145440003Y-102875249D01*
X145608056Y-102856314D01*
X145654350Y-102840115D01*
X145767690Y-102800456D01*
X145767692Y-102800454D01*
X145767694Y-102800454D01*
X145767697Y-102800452D01*
X145910884Y-102710481D01*
X145910885Y-102710480D01*
X145910890Y-102710477D01*
X146030477Y-102590890D01*
X146030481Y-102590884D01*
X146120452Y-102447697D01*
X146120454Y-102447694D01*
X146120454Y-102447692D01*
X146120456Y-102447690D01*
X146176313Y-102288059D01*
X146176313Y-102288058D01*
X146176314Y-102288056D01*
X146195249Y-102120002D01*
X146195249Y-102119997D01*
X146176314Y-101951943D01*
X146132441Y-101826562D01*
X146120456Y-101792310D01*
X146120455Y-101792309D01*
X146120454Y-101792305D01*
X146120452Y-101792302D01*
X146030481Y-101649115D01*
X146030476Y-101649109D01*
X145910890Y-101529523D01*
X145910884Y-101529518D01*
X145767697Y-101439547D01*
X145767694Y-101439545D01*
X145608056Y-101383685D01*
X145440003Y-101364751D01*
X145439997Y-101364751D01*
X145271943Y-101383685D01*
X145112307Y-101439545D01*
X144977758Y-101524089D01*
X144910522Y-101543089D01*
X144843686Y-101522721D01*
X144800063Y-101472891D01*
X144797951Y-101468505D01*
X144707981Y-101325320D01*
X144707976Y-101325314D01*
X144588390Y-101205728D01*
X144588384Y-101205723D01*
X144445197Y-101115752D01*
X144445194Y-101115750D01*
X144285556Y-101059890D01*
X144117503Y-101040956D01*
X144117497Y-101040956D01*
X143949443Y-101059890D01*
X143789805Y-101115750D01*
X143789802Y-101115752D01*
X143646615Y-101205723D01*
X143646609Y-101205728D01*
X143527023Y-101325314D01*
X143527018Y-101325320D01*
X143437047Y-101468507D01*
X143437045Y-101468510D01*
X143381185Y-101628148D01*
X143362251Y-101796202D01*
X143362251Y-101796207D01*
X127135680Y-101796207D01*
X127126952Y-101778678D01*
X127054469Y-101712600D01*
X127803871Y-101712600D01*
X127740714Y-101542072D01*
X127740712Y-101542068D01*
X127638511Y-101378102D01*
X127622933Y-101361714D01*
X127597992Y-101361399D01*
X127592305Y-101364505D01*
X127522613Y-101359521D01*
X127478266Y-101331020D01*
X126972028Y-100824781D01*
X126938543Y-100763458D01*
X126941843Y-100717310D01*
X126953013Y-100740505D01*
X127024392Y-100797427D01*
X127090868Y-100812600D01*
X127135932Y-100812600D01*
X127202408Y-100797427D01*
X127273787Y-100740505D01*
X127313400Y-100658249D01*
X127313400Y-100589589D01*
X127355206Y-100580703D01*
X127424871Y-100586019D01*
X127468666Y-100614312D01*
X127865051Y-101010697D01*
X127894191Y-100960228D01*
X127949403Y-100790302D01*
X127949404Y-100790300D01*
X127962228Y-100668289D01*
X127988813Y-100603675D01*
X128046110Y-100563690D01*
X128099433Y-100558031D01*
X128269997Y-100577249D01*
X128270000Y-100577249D01*
X128270003Y-100577249D01*
X128438056Y-100558314D01*
X128438865Y-100558031D01*
X128597690Y-100502456D01*
X128597692Y-100502454D01*
X128597694Y-100502454D01*
X128597697Y-100502452D01*
X128740884Y-100412481D01*
X128740885Y-100412480D01*
X128740890Y-100412477D01*
X128860477Y-100292890D01*
X128878020Y-100264971D01*
X128950452Y-100149697D01*
X128950454Y-100149694D01*
X128950454Y-100149692D01*
X128950456Y-100149690D01*
X129006313Y-99990059D01*
X129006313Y-99990058D01*
X129006314Y-99990056D01*
X129025249Y-99822002D01*
X143008751Y-99822002D01*
X143027685Y-99990056D01*
X143083545Y-100149694D01*
X143083547Y-100149697D01*
X143173518Y-100292884D01*
X143173523Y-100292890D01*
X143293109Y-100412476D01*
X143293115Y-100412481D01*
X143436302Y-100502452D01*
X143436305Y-100502454D01*
X143436309Y-100502455D01*
X143436310Y-100502456D01*
X143508913Y-100527860D01*
X143595943Y-100558314D01*
X143763997Y-100577249D01*
X143764000Y-100577249D01*
X143764003Y-100577249D01*
X143932056Y-100558314D01*
X143932865Y-100558031D01*
X144091690Y-100502456D01*
X144091692Y-100502454D01*
X144091694Y-100502454D01*
X144091697Y-100502452D01*
X144203428Y-100432246D01*
X146310751Y-100432246D01*
X146329685Y-100600300D01*
X146385545Y-100759938D01*
X146385547Y-100759941D01*
X146475518Y-100903128D01*
X146475523Y-100903134D01*
X146595109Y-101022720D01*
X146595115Y-101022725D01*
X146738302Y-101112696D01*
X146738305Y-101112698D01*
X146738309Y-101112699D01*
X146738310Y-101112700D01*
X146781138Y-101127686D01*
X146897943Y-101168558D01*
X147065997Y-101187493D01*
X147066000Y-101187493D01*
X147066003Y-101187493D01*
X147234056Y-101168558D01*
X147234059Y-101168557D01*
X147393690Y-101112700D01*
X147393692Y-101112698D01*
X147393694Y-101112698D01*
X147393697Y-101112696D01*
X147536884Y-101022725D01*
X147536885Y-101022724D01*
X147536890Y-101022721D01*
X147656477Y-100903134D01*
X147713364Y-100812600D01*
X147746452Y-100759941D01*
X147746454Y-100759938D01*
X147746454Y-100759936D01*
X147746456Y-100759934D01*
X147802313Y-100600303D01*
X147802313Y-100600302D01*
X147802314Y-100600300D01*
X147821249Y-100432246D01*
X147821249Y-100432242D01*
X147819504Y-100416757D01*
X147831558Y-100347935D01*
X147878906Y-100296555D01*
X147946517Y-100278930D01*
X148012923Y-100300656D01*
X148030405Y-100315191D01*
X148138804Y-100423590D01*
X148138810Y-100423595D01*
X148281997Y-100513566D01*
X148282000Y-100513568D01*
X148282004Y-100513569D01*
X148282005Y-100513570D01*
X148354608Y-100538974D01*
X148441638Y-100569428D01*
X148609692Y-100588363D01*
X148609695Y-100588363D01*
X148609698Y-100588363D01*
X148777751Y-100569428D01*
X148810322Y-100558031D01*
X148937385Y-100513570D01*
X148937387Y-100513568D01*
X148937389Y-100513568D01*
X148937392Y-100513566D01*
X149080579Y-100423595D01*
X149080580Y-100423594D01*
X149080585Y-100423591D01*
X149200172Y-100304004D01*
X149204853Y-100296555D01*
X149290147Y-100160811D01*
X149290149Y-100160807D01*
X149290148Y-100160807D01*
X149290151Y-100160804D01*
X149300601Y-100130936D01*
X149341320Y-100074162D01*
X149386510Y-100052684D01*
X149386486Y-100052613D01*
X149387148Y-100052381D01*
X149390063Y-100050996D01*
X149393049Y-100050314D01*
X149393059Y-100050313D01*
X149552690Y-99994456D01*
X149552693Y-99994453D01*
X149552697Y-99994452D01*
X149695884Y-99904481D01*
X149695885Y-99904480D01*
X149695890Y-99904477D01*
X149815477Y-99784890D01*
X149836276Y-99751789D01*
X149905452Y-99641697D01*
X149905454Y-99641694D01*
X149905454Y-99641692D01*
X149905456Y-99641690D01*
X149961313Y-99482059D01*
X149961313Y-99482058D01*
X149961314Y-99482056D01*
X149980249Y-99314002D01*
X149980249Y-99313997D01*
X149961314Y-99145943D01*
X149905454Y-98986305D01*
X149905452Y-98986302D01*
X149815481Y-98843115D01*
X149815476Y-98843109D01*
X149695890Y-98723523D01*
X149695887Y-98723521D01*
X149590009Y-98656993D01*
X149543719Y-98604659D01*
X149533071Y-98535605D01*
X149561446Y-98471757D01*
X149590010Y-98447006D01*
X149695890Y-98380477D01*
X149815477Y-98260890D01*
X149815481Y-98260884D01*
X149905452Y-98117697D01*
X149905454Y-98117694D01*
X149905454Y-98117692D01*
X149905456Y-98117690D01*
X149961313Y-97958059D01*
X149961313Y-97958058D01*
X149961314Y-97958056D01*
X149980249Y-97790002D01*
X149980249Y-97789997D01*
X149961314Y-97621943D01*
X149905454Y-97462305D01*
X149905452Y-97462302D01*
X149815481Y-97319115D01*
X149815476Y-97319109D01*
X149739048Y-97242681D01*
X149705563Y-97181358D01*
X149710547Y-97111666D01*
X149739048Y-97067319D01*
X149777258Y-97029109D01*
X149815477Y-96990890D01*
X149815481Y-96990884D01*
X149905452Y-96847697D01*
X149905454Y-96847694D01*
X149905454Y-96847692D01*
X149905456Y-96847690D01*
X149961313Y-96688059D01*
X149961313Y-96688058D01*
X149961314Y-96688056D01*
X149980249Y-96520002D01*
X149980249Y-96519997D01*
X149961314Y-96351943D01*
X149917928Y-96227954D01*
X149905456Y-96192310D01*
X149905455Y-96192309D01*
X149905454Y-96192305D01*
X149905452Y-96192302D01*
X149815481Y-96049115D01*
X149815476Y-96049109D01*
X149695890Y-95929523D01*
X149695884Y-95929518D01*
X149552697Y-95839547D01*
X149552694Y-95839545D01*
X149393056Y-95783685D01*
X149225003Y-95764751D01*
X149224997Y-95764751D01*
X149056943Y-95783685D01*
X148897305Y-95839545D01*
X148897302Y-95839547D01*
X148754115Y-95929518D01*
X148754109Y-95929523D01*
X148634523Y-96049109D01*
X148634518Y-96049115D01*
X148544547Y-96192302D01*
X148544545Y-96192305D01*
X148488685Y-96351943D01*
X148469751Y-96519997D01*
X148469751Y-96520002D01*
X148488685Y-96688056D01*
X148544545Y-96847694D01*
X148544547Y-96847697D01*
X148634518Y-96990884D01*
X148634523Y-96990890D01*
X148710952Y-97067319D01*
X148744437Y-97128642D01*
X148739453Y-97198334D01*
X148710952Y-97242681D01*
X148634523Y-97319109D01*
X148634518Y-97319115D01*
X148544547Y-97462302D01*
X148544545Y-97462305D01*
X148488685Y-97621943D01*
X148469751Y-97789997D01*
X148469751Y-97790002D01*
X148488685Y-97958056D01*
X148544545Y-98117694D01*
X148544547Y-98117697D01*
X148634518Y-98260884D01*
X148634523Y-98260890D01*
X148754111Y-98380478D01*
X148859990Y-98447007D01*
X148906280Y-98499342D01*
X148916928Y-98568395D01*
X148888553Y-98632243D01*
X148859990Y-98656993D01*
X148754111Y-98723521D01*
X148634523Y-98843109D01*
X148634518Y-98843115D01*
X148544548Y-98986300D01*
X148544543Y-98986311D01*
X148534091Y-99016180D01*
X148493368Y-99072955D01*
X148448185Y-99094432D01*
X148448209Y-99094501D01*
X148447572Y-99094723D01*
X148444654Y-99096111D01*
X148441643Y-99096798D01*
X148282000Y-99152659D01*
X148281997Y-99152661D01*
X148138810Y-99242632D01*
X148138804Y-99242637D01*
X148019218Y-99362223D01*
X148019213Y-99362229D01*
X147929242Y-99505416D01*
X147929240Y-99505419D01*
X147873380Y-99665057D01*
X147854446Y-99833111D01*
X147854446Y-99833113D01*
X147856191Y-99848605D01*
X147844134Y-99917427D01*
X147796783Y-99968805D01*
X147729173Y-99986427D01*
X147662767Y-99964698D01*
X147645289Y-99950166D01*
X147536890Y-99841767D01*
X147536884Y-99841762D01*
X147393697Y-99751791D01*
X147393694Y-99751789D01*
X147234056Y-99695929D01*
X147066003Y-99676995D01*
X147065997Y-99676995D01*
X146897943Y-99695929D01*
X146738305Y-99751789D01*
X146738302Y-99751791D01*
X146595115Y-99841762D01*
X146595109Y-99841767D01*
X146475523Y-99961353D01*
X146475518Y-99961359D01*
X146385547Y-100104546D01*
X146385545Y-100104549D01*
X146329685Y-100264187D01*
X146310751Y-100432241D01*
X146310751Y-100432246D01*
X144203428Y-100432246D01*
X144234884Y-100412481D01*
X144234885Y-100412480D01*
X144234890Y-100412477D01*
X144354477Y-100292890D01*
X144372020Y-100264971D01*
X144444452Y-100149697D01*
X144444454Y-100149694D01*
X144444454Y-100149692D01*
X144444456Y-100149690D01*
X144500313Y-99990059D01*
X144500313Y-99990058D01*
X144500314Y-99990056D01*
X144519249Y-99822002D01*
X144519249Y-99821997D01*
X144500314Y-99653943D01*
X144444454Y-99494305D01*
X144444452Y-99494302D01*
X144354481Y-99351115D01*
X144354476Y-99351109D01*
X144234890Y-99231523D01*
X144234884Y-99231518D01*
X144091697Y-99141547D01*
X144091694Y-99141545D01*
X143932056Y-99085685D01*
X143764003Y-99066751D01*
X143763997Y-99066751D01*
X143595943Y-99085685D01*
X143436305Y-99141545D01*
X143436302Y-99141547D01*
X143293115Y-99231518D01*
X143293109Y-99231523D01*
X143173523Y-99351109D01*
X143173518Y-99351115D01*
X143083547Y-99494302D01*
X143083545Y-99494305D01*
X143027685Y-99653943D01*
X143008751Y-99821997D01*
X143008751Y-99822002D01*
X129025249Y-99822002D01*
X129025249Y-99821997D01*
X129006314Y-99653943D01*
X128950454Y-99494305D01*
X128950452Y-99494302D01*
X128860481Y-99351115D01*
X128860476Y-99351109D01*
X128740890Y-99231523D01*
X128740884Y-99231518D01*
X128597697Y-99141547D01*
X128597694Y-99141545D01*
X128438056Y-99085685D01*
X128270003Y-99066751D01*
X128269996Y-99066751D01*
X128101909Y-99085689D01*
X128033087Y-99073634D01*
X127981708Y-99026285D01*
X127964084Y-98958675D01*
X127964703Y-98949532D01*
X127968585Y-98912600D01*
X127949897Y-98734797D01*
X127894650Y-98564765D01*
X127885894Y-98549599D01*
X127869421Y-98481703D01*
X127885893Y-98425600D01*
X127894650Y-98410435D01*
X127949897Y-98240403D01*
X127968585Y-98062600D01*
X127949897Y-97884797D01*
X127894650Y-97714765D01*
X127885894Y-97699599D01*
X127869421Y-97631703D01*
X127885893Y-97575600D01*
X127894650Y-97560435D01*
X127914286Y-97500002D01*
X137564751Y-97500002D01*
X137583685Y-97668056D01*
X137639545Y-97827694D01*
X137639547Y-97827697D01*
X137729518Y-97970884D01*
X137729523Y-97970890D01*
X137849109Y-98090476D01*
X137849115Y-98090481D01*
X137992302Y-98180452D01*
X137992305Y-98180454D01*
X137992309Y-98180455D01*
X137992310Y-98180456D01*
X138064913Y-98205860D01*
X138151943Y-98236314D01*
X138319997Y-98255249D01*
X138320000Y-98255249D01*
X138320003Y-98255249D01*
X138488056Y-98236314D01*
X138488059Y-98236313D01*
X138647690Y-98180456D01*
X138647692Y-98180454D01*
X138647694Y-98180454D01*
X138647697Y-98180452D01*
X138790884Y-98090481D01*
X138790885Y-98090480D01*
X138790890Y-98090477D01*
X138910477Y-97970890D01*
X138910481Y-97970884D01*
X139000452Y-97827697D01*
X139000454Y-97827694D01*
X139000454Y-97827692D01*
X139000456Y-97827690D01*
X139056313Y-97668059D01*
X139056313Y-97668058D01*
X139056314Y-97668056D01*
X139075249Y-97500002D01*
X139075249Y-97499997D01*
X139056314Y-97331943D01*
X139017692Y-97221567D01*
X139000456Y-97172310D01*
X139000455Y-97172309D01*
X139000454Y-97172305D01*
X139000452Y-97172302D01*
X138910481Y-97029115D01*
X138910476Y-97029109D01*
X138790890Y-96909523D01*
X138790884Y-96909518D01*
X138647697Y-96819547D01*
X138647694Y-96819545D01*
X138488056Y-96763685D01*
X138320003Y-96744751D01*
X138319997Y-96744751D01*
X138151943Y-96763685D01*
X137992305Y-96819545D01*
X137992302Y-96819547D01*
X137849115Y-96909518D01*
X137849109Y-96909523D01*
X137729523Y-97029109D01*
X137729518Y-97029115D01*
X137639547Y-97172302D01*
X137639545Y-97172305D01*
X137583685Y-97331943D01*
X137564751Y-97499997D01*
X137564751Y-97500002D01*
X127914286Y-97500002D01*
X127949897Y-97390403D01*
X127968585Y-97212600D01*
X127949897Y-97034797D01*
X127894650Y-96864765D01*
X127885894Y-96849599D01*
X127869421Y-96781703D01*
X127885893Y-96725600D01*
X127894650Y-96710435D01*
X127915261Y-96647002D01*
X139960751Y-96647002D01*
X139979685Y-96815056D01*
X140035545Y-96974694D01*
X140035547Y-96974697D01*
X140125518Y-97117884D01*
X140125523Y-97117890D01*
X140245109Y-97237476D01*
X140245115Y-97237481D01*
X140388302Y-97327452D01*
X140388305Y-97327454D01*
X140388309Y-97327455D01*
X140388310Y-97327456D01*
X140404880Y-97333254D01*
X140547943Y-97383314D01*
X140715997Y-97402249D01*
X140722964Y-97402249D01*
X140722963Y-97404915D01*
X140779779Y-97414841D01*
X140831180Y-97462167D01*
X140848835Y-97529769D01*
X140839739Y-97567123D01*
X140841561Y-97567761D01*
X140783402Y-97733966D01*
X140764468Y-97902020D01*
X140764468Y-97902025D01*
X140783402Y-98070079D01*
X140839262Y-98229717D01*
X140839264Y-98229720D01*
X140929235Y-98372907D01*
X140929240Y-98372913D01*
X141048826Y-98492499D01*
X141048832Y-98492504D01*
X141192019Y-98582475D01*
X141192022Y-98582477D01*
X141192026Y-98582478D01*
X141192027Y-98582479D01*
X141255414Y-98604659D01*
X141351660Y-98638337D01*
X141519714Y-98657272D01*
X141519717Y-98657272D01*
X141519720Y-98657272D01*
X141687773Y-98638337D01*
X141705189Y-98632243D01*
X141847407Y-98582479D01*
X141847409Y-98582477D01*
X141847411Y-98582477D01*
X141847414Y-98582475D01*
X141990601Y-98492504D01*
X141990602Y-98492503D01*
X141990607Y-98492500D01*
X142110194Y-98372913D01*
X142184128Y-98255249D01*
X142200169Y-98229720D01*
X142200171Y-98229717D01*
X142200171Y-98229715D01*
X142200173Y-98229713D01*
X142256030Y-98070082D01*
X142256030Y-98070081D01*
X142256031Y-98070079D01*
X142274966Y-97902025D01*
X142274966Y-97902020D01*
X142256031Y-97733966D01*
X142222311Y-97637600D01*
X142200173Y-97574333D01*
X142200172Y-97574332D01*
X142200171Y-97574328D01*
X142200169Y-97574325D01*
X142110198Y-97431138D01*
X142110193Y-97431132D01*
X141990607Y-97311546D01*
X141990601Y-97311541D01*
X141847414Y-97221570D01*
X141847411Y-97221568D01*
X141687773Y-97165708D01*
X141519720Y-97146774D01*
X141512753Y-97146774D01*
X141512753Y-97144119D01*
X141455873Y-97134150D01*
X141404500Y-97086795D01*
X141386884Y-97019182D01*
X141396001Y-96981907D01*
X141394156Y-96981262D01*
X141419261Y-96909518D01*
X141452313Y-96815059D01*
X141452313Y-96815058D01*
X141452314Y-96815056D01*
X141471249Y-96647002D01*
X141471249Y-96646997D01*
X141452314Y-96478943D01*
X141396454Y-96319305D01*
X141396452Y-96319302D01*
X141306481Y-96176115D01*
X141306476Y-96176109D01*
X141186890Y-96056523D01*
X141186884Y-96056518D01*
X141043697Y-95966547D01*
X141043694Y-95966545D01*
X140884056Y-95910685D01*
X140716003Y-95891751D01*
X140715997Y-95891751D01*
X140547943Y-95910685D01*
X140388305Y-95966545D01*
X140388302Y-95966547D01*
X140245115Y-96056518D01*
X140245109Y-96056523D01*
X140125523Y-96176109D01*
X140125518Y-96176115D01*
X140035547Y-96319302D01*
X140035545Y-96319305D01*
X139979685Y-96478943D01*
X139960751Y-96646997D01*
X139960751Y-96647002D01*
X127915261Y-96647002D01*
X127949897Y-96540403D01*
X127968585Y-96362600D01*
X127949897Y-96184797D01*
X127894650Y-96014765D01*
X127885894Y-95999599D01*
X127869421Y-95931703D01*
X127885893Y-95875602D01*
X127886131Y-95875190D01*
X127894650Y-95860435D01*
X127894650Y-95860432D01*
X127897559Y-95855395D01*
X127948125Y-95807178D01*
X128016732Y-95793954D01*
X128081597Y-95819921D01*
X128109940Y-95851420D01*
X128187521Y-95974887D01*
X128187523Y-95974890D01*
X128307109Y-96094476D01*
X128307115Y-96094481D01*
X128450302Y-96184452D01*
X128450305Y-96184454D01*
X128450309Y-96184455D01*
X128450310Y-96184456D01*
X128472756Y-96192310D01*
X128609943Y-96240314D01*
X128777997Y-96259249D01*
X128778000Y-96259249D01*
X128778003Y-96259249D01*
X128946056Y-96240314D01*
X128981379Y-96227954D01*
X129105690Y-96184456D01*
X129105692Y-96184454D01*
X129105694Y-96184454D01*
X129105697Y-96184452D01*
X129248884Y-96094481D01*
X129248885Y-96094480D01*
X129248890Y-96094477D01*
X129368477Y-95974890D01*
X129368481Y-95974884D01*
X129458452Y-95831697D01*
X129458454Y-95831694D01*
X129458454Y-95831692D01*
X129458456Y-95831690D01*
X129514313Y-95672059D01*
X129514313Y-95672057D01*
X129514314Y-95672055D01*
X129526394Y-95564838D01*
X129532101Y-95514183D01*
X129536379Y-95504002D01*
X133356751Y-95504002D01*
X133375685Y-95672056D01*
X133431545Y-95831694D01*
X133431547Y-95831697D01*
X133521518Y-95974884D01*
X133521523Y-95974890D01*
X133641109Y-96094476D01*
X133641115Y-96094481D01*
X133784302Y-96184452D01*
X133784305Y-96184454D01*
X133784309Y-96184455D01*
X133784310Y-96184456D01*
X133806756Y-96192310D01*
X133943943Y-96240314D01*
X134111997Y-96259249D01*
X134112000Y-96259249D01*
X134112003Y-96259249D01*
X134280056Y-96240314D01*
X134315379Y-96227954D01*
X134439690Y-96184456D01*
X134439692Y-96184454D01*
X134439694Y-96184454D01*
X134439697Y-96184452D01*
X134582884Y-96094481D01*
X134582885Y-96094480D01*
X134582890Y-96094477D01*
X134702477Y-95974890D01*
X134702481Y-95974884D01*
X134792452Y-95831697D01*
X134792454Y-95831694D01*
X134792454Y-95831692D01*
X134792456Y-95831690D01*
X134848313Y-95672059D01*
X134848313Y-95672058D01*
X134848314Y-95672056D01*
X134862348Y-95547502D01*
X141611751Y-95547502D01*
X141630685Y-95715556D01*
X141686545Y-95875194D01*
X141686547Y-95875197D01*
X141776518Y-96018384D01*
X141776523Y-96018390D01*
X141896109Y-96137976D01*
X141896115Y-96137981D01*
X142039302Y-96227952D01*
X142039305Y-96227954D01*
X142039309Y-96227955D01*
X142039310Y-96227956D01*
X142111913Y-96253360D01*
X142198943Y-96283814D01*
X142366997Y-96302749D01*
X142367000Y-96302749D01*
X142367003Y-96302749D01*
X142535056Y-96283814D01*
X142535059Y-96283813D01*
X142694690Y-96227956D01*
X142694692Y-96227954D01*
X142694694Y-96227954D01*
X142694697Y-96227952D01*
X142837884Y-96137981D01*
X142837885Y-96137980D01*
X142837890Y-96137977D01*
X142957477Y-96018390D01*
X142984814Y-95974884D01*
X143047452Y-95875197D01*
X143047455Y-95875192D01*
X143052621Y-95860429D01*
X143078587Y-95786219D01*
X143119309Y-95729445D01*
X143184261Y-95703697D01*
X143231250Y-95709478D01*
X143231332Y-95709122D01*
X143234816Y-95709917D01*
X143236585Y-95710135D01*
X143238114Y-95710670D01*
X143238121Y-95710670D01*
X143238122Y-95710671D01*
X143406170Y-95729606D01*
X143406173Y-95729606D01*
X143406176Y-95729606D01*
X143574229Y-95710671D01*
X143576384Y-95709917D01*
X143733863Y-95654813D01*
X143733865Y-95654811D01*
X143733867Y-95654811D01*
X143733870Y-95654809D01*
X143877057Y-95564838D01*
X143877058Y-95564837D01*
X143877063Y-95564834D01*
X143996650Y-95445247D01*
X144012608Y-95419850D01*
X144086625Y-95302054D01*
X144086627Y-95302051D01*
X144086627Y-95302049D01*
X144086629Y-95302047D01*
X144142486Y-95142416D01*
X144142486Y-95142415D01*
X144142487Y-95142413D01*
X144161422Y-94974359D01*
X144161422Y-94974354D01*
X144142487Y-94806300D01*
X144086627Y-94646662D01*
X144086625Y-94646659D01*
X143996654Y-94503472D01*
X143996649Y-94503466D01*
X143877063Y-94383880D01*
X143877057Y-94383875D01*
X143733870Y-94293904D01*
X143733867Y-94293902D01*
X143574229Y-94238042D01*
X143406176Y-94219108D01*
X143406170Y-94219108D01*
X143238116Y-94238042D01*
X143078478Y-94293902D01*
X143078475Y-94293904D01*
X142935288Y-94383875D01*
X142935282Y-94383880D01*
X142815696Y-94503466D01*
X142815691Y-94503472D01*
X142725720Y-94646659D01*
X142725717Y-94646665D01*
X142694586Y-94735635D01*
X142653864Y-94792411D01*
X142588911Y-94818159D01*
X142541922Y-94812379D01*
X142541841Y-94812735D01*
X142538369Y-94811942D01*
X142536594Y-94811724D01*
X142535056Y-94811186D01*
X142367003Y-94792251D01*
X142366997Y-94792251D01*
X142198943Y-94811185D01*
X142039305Y-94867045D01*
X142039302Y-94867047D01*
X141896115Y-94957018D01*
X141896109Y-94957023D01*
X141776523Y-95076609D01*
X141776518Y-95076615D01*
X141686547Y-95219802D01*
X141686545Y-95219805D01*
X141630685Y-95379443D01*
X141611751Y-95547497D01*
X141611751Y-95547502D01*
X134862348Y-95547502D01*
X134867249Y-95504002D01*
X134867249Y-95503997D01*
X134848314Y-95335943D01*
X134805254Y-95212884D01*
X134792456Y-95176310D01*
X134792455Y-95176309D01*
X134792454Y-95176305D01*
X134792452Y-95176302D01*
X134702481Y-95033115D01*
X134702476Y-95033109D01*
X134582890Y-94913523D01*
X134582884Y-94913518D01*
X134439697Y-94823547D01*
X134439694Y-94823545D01*
X134280056Y-94767685D01*
X134112003Y-94748751D01*
X134111997Y-94748751D01*
X133943943Y-94767685D01*
X133784305Y-94823545D01*
X133784302Y-94823547D01*
X133641115Y-94913518D01*
X133641109Y-94913523D01*
X133521523Y-95033109D01*
X133521518Y-95033115D01*
X133431547Y-95176302D01*
X133431545Y-95176305D01*
X133375685Y-95335943D01*
X133356751Y-95503997D01*
X133356751Y-95504002D01*
X129536379Y-95504002D01*
X129559167Y-95449771D01*
X129616762Y-95410216D01*
X129686599Y-95408078D01*
X129713833Y-95419850D01*
X129714034Y-95419434D01*
X129720305Y-95422454D01*
X129720309Y-95422455D01*
X129720310Y-95422456D01*
X129785426Y-95445241D01*
X129879943Y-95478314D01*
X130047997Y-95497249D01*
X130048000Y-95497249D01*
X130048003Y-95497249D01*
X130216056Y-95478314D01*
X130216059Y-95478313D01*
X130375690Y-95422456D01*
X130375692Y-95422454D01*
X130375694Y-95422454D01*
X130375697Y-95422452D01*
X130518884Y-95332481D01*
X130518885Y-95332480D01*
X130518890Y-95332477D01*
X130638477Y-95212890D01*
X130668685Y-95164815D01*
X130728452Y-95069697D01*
X130728454Y-95069694D01*
X130728454Y-95069692D01*
X130728456Y-95069690D01*
X130784313Y-94910059D01*
X130784313Y-94910058D01*
X130784314Y-94910056D01*
X130803249Y-94742002D01*
X130803249Y-94741997D01*
X130784314Y-94573943D01*
X130728454Y-94414305D01*
X130728452Y-94414302D01*
X130638481Y-94271115D01*
X130638476Y-94271109D01*
X130518890Y-94151523D01*
X130518884Y-94151518D01*
X130375697Y-94061547D01*
X130375694Y-94061545D01*
X130216056Y-94005685D01*
X130048003Y-93986751D01*
X130047997Y-93986751D01*
X129879943Y-94005685D01*
X129720305Y-94061545D01*
X129720302Y-94061547D01*
X129577115Y-94151518D01*
X129577109Y-94151523D01*
X129457523Y-94271109D01*
X129457518Y-94271115D01*
X129367547Y-94414302D01*
X129367545Y-94414305D01*
X129311685Y-94573943D01*
X129293898Y-94731815D01*
X129266831Y-94796229D01*
X129209236Y-94835784D01*
X129139400Y-94837921D01*
X129112166Y-94826150D01*
X129111966Y-94826566D01*
X129105694Y-94823545D01*
X128946056Y-94767685D01*
X128778003Y-94748751D01*
X128777997Y-94748751D01*
X128609943Y-94767685D01*
X128450305Y-94823545D01*
X128450302Y-94823547D01*
X128307115Y-94913518D01*
X128307109Y-94913523D01*
X128187523Y-95033109D01*
X128187521Y-95033112D01*
X128104765Y-95164815D01*
X128052430Y-95211106D01*
X127983376Y-95221753D01*
X127919528Y-95193377D01*
X127892382Y-95160836D01*
X127885603Y-95149093D01*
X127869134Y-95081192D01*
X127885607Y-95025097D01*
X127894191Y-95010228D01*
X127949403Y-94840302D01*
X127949404Y-94840300D01*
X127968081Y-94662600D01*
X127949404Y-94484899D01*
X127949403Y-94484897D01*
X127894190Y-94314968D01*
X127865051Y-94264500D01*
X127468665Y-94660887D01*
X127407342Y-94694372D01*
X127355203Y-94694496D01*
X127313400Y-94685610D01*
X127313400Y-94616951D01*
X127273787Y-94534695D01*
X127202408Y-94477773D01*
X127135932Y-94462600D01*
X127090868Y-94462600D01*
X127024392Y-94477773D01*
X126953013Y-94534695D01*
X126942236Y-94557072D01*
X126936971Y-94520453D01*
X126965996Y-94456897D01*
X126972028Y-94450419D01*
X127478267Y-93944179D01*
X127539590Y-93910694D01*
X127584771Y-93913925D01*
X127621072Y-93911623D01*
X127693769Y-93817707D01*
X127778857Y-93644243D01*
X127799996Y-93562600D01*
X127049511Y-93562600D01*
X127089010Y-93538143D01*
X127156601Y-93448638D01*
X127177552Y-93375002D01*
X132945751Y-93375002D01*
X132964685Y-93543056D01*
X133020545Y-93702694D01*
X133020547Y-93702697D01*
X133110518Y-93845884D01*
X133110523Y-93845890D01*
X133230109Y-93965476D01*
X133230115Y-93965481D01*
X133373302Y-94055452D01*
X133373305Y-94055454D01*
X133373309Y-94055455D01*
X133373310Y-94055456D01*
X133445913Y-94080860D01*
X133532943Y-94111314D01*
X133700997Y-94130249D01*
X133701000Y-94130249D01*
X133701003Y-94130249D01*
X133869056Y-94111314D01*
X133869059Y-94111313D01*
X134028690Y-94055456D01*
X134028692Y-94055454D01*
X134028694Y-94055454D01*
X134028697Y-94055452D01*
X134171884Y-93965481D01*
X134171885Y-93965480D01*
X134171890Y-93965477D01*
X134291477Y-93845890D01*
X134291481Y-93845884D01*
X134381452Y-93702697D01*
X134381454Y-93702694D01*
X134381454Y-93702692D01*
X134381456Y-93702690D01*
X134437313Y-93543059D01*
X134437313Y-93543058D01*
X134437314Y-93543056D01*
X134456249Y-93375002D01*
X134456249Y-93374997D01*
X134437314Y-93206943D01*
X134386806Y-93062600D01*
X134381456Y-93047310D01*
X134381455Y-93047309D01*
X134381454Y-93047305D01*
X134381452Y-93047302D01*
X134291481Y-92904115D01*
X134291476Y-92904109D01*
X134171890Y-92784523D01*
X134171884Y-92784518D01*
X134028697Y-92694547D01*
X134028694Y-92694545D01*
X133869056Y-92638685D01*
X133701003Y-92619751D01*
X133700997Y-92619751D01*
X133532943Y-92638685D01*
X133373305Y-92694545D01*
X133373302Y-92694547D01*
X133230115Y-92784518D01*
X133230109Y-92784523D01*
X133110523Y-92904109D01*
X133110518Y-92904115D01*
X133020547Y-93047302D01*
X133020545Y-93047305D01*
X132964685Y-93206943D01*
X132945751Y-93374997D01*
X132945751Y-93375002D01*
X127177552Y-93375002D01*
X127187295Y-93340760D01*
X127176946Y-93229079D01*
X127126952Y-93128678D01*
X127054469Y-93062600D01*
X127803871Y-93062600D01*
X127740714Y-92892072D01*
X127740712Y-92892068D01*
X127638507Y-92728096D01*
X127505397Y-92588065D01*
X127505396Y-92588064D01*
X127346813Y-92477686D01*
X127169262Y-92401493D01*
X126980006Y-92362600D01*
X126383400Y-92362600D01*
X126383400Y-93012600D01*
X125883399Y-93012600D01*
X125883400Y-92362600D01*
X125335224Y-92362600D01*
X125191178Y-92377247D01*
X125006838Y-92435084D01*
X125006828Y-92435089D01*
X124837901Y-92528851D01*
X124837894Y-92528856D01*
X124691294Y-92654707D01*
X124573031Y-92807490D01*
X124573029Y-92807494D01*
X124487942Y-92980956D01*
X124466804Y-93062600D01*
X125217289Y-93062600D01*
X125177790Y-93087057D01*
X125110199Y-93176562D01*
X125079505Y-93284440D01*
X125089854Y-93396121D01*
X125139848Y-93496522D01*
X125212331Y-93562600D01*
X124462929Y-93562600D01*
X124526085Y-93733127D01*
X124526087Y-93733131D01*
X124628292Y-93897103D01*
X124761402Y-94037134D01*
X124761403Y-94037135D01*
X124919988Y-94147514D01*
X124925486Y-94150566D01*
X124924866Y-94151681D01*
X124973500Y-94191896D01*
X124994725Y-94258463D01*
X124984044Y-94311744D01*
X124982611Y-94314963D01*
X124927396Y-94484897D01*
X124927395Y-94484899D01*
X124908718Y-94662599D01*
X124927395Y-94840300D01*
X124927396Y-94840302D01*
X124982609Y-95010231D01*
X124982611Y-95010235D01*
X124991194Y-95025102D01*
X125007665Y-95093003D01*
X124991196Y-95149096D01*
X124982149Y-95164766D01*
X124926904Y-95334792D01*
X124926903Y-95334794D01*
X124908215Y-95512599D01*
X124926903Y-95690405D01*
X124926904Y-95690407D01*
X124982147Y-95860429D01*
X124982149Y-95860432D01*
X124982150Y-95860435D01*
X124990673Y-95875197D01*
X124990906Y-95875600D01*
X125007377Y-95943500D01*
X124990907Y-95999595D01*
X124982151Y-96014761D01*
X124982150Y-96014763D01*
X124926904Y-96184792D01*
X124926903Y-96184794D01*
X124908215Y-96362600D01*
X124926903Y-96540405D01*
X124926904Y-96540407D01*
X124982150Y-96710436D01*
X124990906Y-96725603D01*
X125007376Y-96793504D01*
X124990906Y-96849597D01*
X124982150Y-96864763D01*
X124926904Y-97034792D01*
X124926903Y-97034794D01*
X124912450Y-97172305D01*
X124908215Y-97212600D01*
X124909158Y-97221568D01*
X124926903Y-97390405D01*
X124926904Y-97390407D01*
X124982150Y-97560436D01*
X124990906Y-97575603D01*
X125007376Y-97643504D01*
X124990906Y-97699597D01*
X124982150Y-97714763D01*
X124926904Y-97884792D01*
X124926903Y-97884794D01*
X124908215Y-98062600D01*
X124926903Y-98240405D01*
X124926904Y-98240407D01*
X124982149Y-98410434D01*
X124990905Y-98425600D01*
X125007376Y-98493500D01*
X124990907Y-98549593D01*
X124982152Y-98564758D01*
X124982150Y-98564762D01*
X124926904Y-98734792D01*
X124926903Y-98734794D01*
X124908215Y-98912599D01*
X124926903Y-99090405D01*
X124926904Y-99090407D01*
X124982150Y-99260436D01*
X124990906Y-99275603D01*
X125007376Y-99343504D01*
X124990906Y-99399597D01*
X124982150Y-99414763D01*
X124926904Y-99584792D01*
X124926903Y-99584794D01*
X124908215Y-99762600D01*
X124926903Y-99940405D01*
X124926904Y-99940407D01*
X124982149Y-100110433D01*
X124991196Y-100126104D01*
X125007665Y-100194005D01*
X124991196Y-100250096D01*
X124982608Y-100264971D01*
X124927396Y-100434897D01*
X124927395Y-100434899D01*
X124908718Y-100612599D01*
X124927395Y-100790300D01*
X124927396Y-100790302D01*
X124982606Y-100960224D01*
X124985250Y-100966160D01*
X124982816Y-100967243D01*
X124996494Y-101023682D01*
X124973626Y-101089703D01*
X124932814Y-101126169D01*
X124837908Y-101178846D01*
X124837894Y-101178856D01*
X124691294Y-101304707D01*
X124573031Y-101457490D01*
X124573029Y-101457494D01*
X124487942Y-101630956D01*
X124466804Y-101712600D01*
X125217289Y-101712600D01*
X125177790Y-101737057D01*
X125110199Y-101826562D01*
X125079505Y-101934440D01*
X125089854Y-102046121D01*
X125139848Y-102146522D01*
X125212331Y-102212600D01*
X124462929Y-102212600D01*
X124069996Y-102212600D01*
X123319511Y-102212600D01*
X123359010Y-102188143D01*
X123426601Y-102098638D01*
X123457295Y-101990760D01*
X123446946Y-101879079D01*
X123396952Y-101778678D01*
X123324469Y-101712600D01*
X124073871Y-101712600D01*
X124010714Y-101542072D01*
X124010712Y-101542068D01*
X123908507Y-101378096D01*
X123775397Y-101238065D01*
X123775396Y-101238064D01*
X123616813Y-101127686D01*
X123439262Y-101051493D01*
X123250006Y-101012600D01*
X123003400Y-101012600D01*
X123003399Y-101662600D01*
X122503400Y-101662600D01*
X122503400Y-101012600D01*
X122305224Y-101012600D01*
X122161178Y-101027247D01*
X121976838Y-101085084D01*
X121976828Y-101085089D01*
X121807901Y-101178851D01*
X121807894Y-101178856D01*
X121661294Y-101304707D01*
X121543031Y-101457490D01*
X121543029Y-101457494D01*
X121457942Y-101630956D01*
X121436804Y-101712600D01*
X122187289Y-101712600D01*
X122147790Y-101737057D01*
X122080199Y-101826562D01*
X122049505Y-101934440D01*
X122059854Y-102046121D01*
X122109848Y-102146522D01*
X122182331Y-102212600D01*
X121432929Y-102212600D01*
X120998968Y-102212600D01*
X120998968Y-93562600D01*
X121432929Y-93562600D01*
X121496085Y-93733127D01*
X121496087Y-93733131D01*
X121598292Y-93897103D01*
X121731402Y-94037134D01*
X121731403Y-94037135D01*
X121889986Y-94147513D01*
X122067537Y-94223706D01*
X122256794Y-94262600D01*
X122503400Y-94262600D01*
X122503400Y-93612600D01*
X123003400Y-93612600D01*
X123003399Y-94262599D01*
X123003400Y-94262600D01*
X123201576Y-94262600D01*
X123345621Y-94247952D01*
X123529961Y-94190115D01*
X123529971Y-94190110D01*
X123698898Y-94096348D01*
X123698905Y-94096343D01*
X123845505Y-93970492D01*
X123963768Y-93817709D01*
X123963770Y-93817705D01*
X124048857Y-93644243D01*
X124069996Y-93562600D01*
X123319511Y-93562600D01*
X123359010Y-93538143D01*
X123426601Y-93448638D01*
X123457295Y-93340760D01*
X123446946Y-93229079D01*
X123396952Y-93128678D01*
X123324469Y-93062600D01*
X124073871Y-93062600D01*
X124010714Y-92892072D01*
X124010712Y-92892068D01*
X123908507Y-92728096D01*
X123775397Y-92588065D01*
X123775396Y-92588064D01*
X123616813Y-92477686D01*
X123439262Y-92401493D01*
X123250006Y-92362600D01*
X123003400Y-92362600D01*
X123003399Y-93012600D01*
X122503400Y-93012600D01*
X122503400Y-92362600D01*
X122305224Y-92362600D01*
X122161178Y-92377247D01*
X121976838Y-92435084D01*
X121976828Y-92435089D01*
X121807901Y-92528851D01*
X121807894Y-92528856D01*
X121661294Y-92654707D01*
X121543031Y-92807490D01*
X121543029Y-92807494D01*
X121457942Y-92980956D01*
X121436804Y-93062600D01*
X122187289Y-93062600D01*
X122147790Y-93087057D01*
X122080199Y-93176562D01*
X122049505Y-93284440D01*
X122059854Y-93396121D01*
X122109848Y-93496522D01*
X122182331Y-93562600D01*
X121432929Y-93562600D01*
X120998968Y-93562600D01*
X120998968Y-91922888D01*
X121018653Y-91855849D01*
X121071457Y-91810094D01*
X121122944Y-91798888D01*
X125435377Y-91798138D01*
X125442603Y-91800258D01*
X125467199Y-91798323D01*
X125472039Y-91798131D01*
X125476099Y-91798131D01*
X125476100Y-91798130D01*
X125488155Y-91798129D01*
X125488451Y-91798100D01*
X125595930Y-91798100D01*
X125595933Y-91798100D01*
X125721146Y-91780097D01*
X125723747Y-91780471D01*
X125728717Y-91779278D01*
X125734355Y-91778198D01*
X125746221Y-91776492D01*
X125750174Y-91776053D01*
X125819752Y-91770577D01*
X125829503Y-91766560D01*
X125829107Y-91765212D01*
X125864398Y-91754849D01*
X125973641Y-91722773D01*
X125976673Y-91722773D01*
X125980982Y-91720988D01*
X125987232Y-91718782D01*
X126015024Y-91710622D01*
X126018017Y-91709824D01*
X126061153Y-91699468D01*
X126069557Y-91694002D01*
X135896751Y-91694002D01*
X135915685Y-91862056D01*
X135971545Y-92021694D01*
X135971547Y-92021697D01*
X136061518Y-92164884D01*
X136061523Y-92164890D01*
X136181109Y-92284476D01*
X136181115Y-92284481D01*
X136324302Y-92374452D01*
X136324305Y-92374454D01*
X136324309Y-92374455D01*
X136324310Y-92374456D01*
X136396913Y-92399860D01*
X136483943Y-92430314D01*
X136651997Y-92449249D01*
X136652000Y-92449249D01*
X136652003Y-92449249D01*
X136820056Y-92430314D01*
X136820059Y-92430313D01*
X136979690Y-92374456D01*
X136979692Y-92374454D01*
X136979694Y-92374454D01*
X136979697Y-92374452D01*
X137122884Y-92284481D01*
X137122885Y-92284480D01*
X137122890Y-92284477D01*
X137242477Y-92164890D01*
X137332452Y-92021697D01*
X137332454Y-92021694D01*
X137332454Y-92021692D01*
X137332456Y-92021690D01*
X137388313Y-91862059D01*
X137388313Y-91862058D01*
X137388314Y-91862056D01*
X137407249Y-91694002D01*
X137407249Y-91693997D01*
X137388314Y-91525943D01*
X137332454Y-91366305D01*
X137332452Y-91366302D01*
X137242481Y-91223115D01*
X137242476Y-91223109D01*
X137205369Y-91186002D01*
X144532751Y-91186002D01*
X144551685Y-91354056D01*
X144607545Y-91513694D01*
X144607547Y-91513697D01*
X144697518Y-91656884D01*
X144697523Y-91656890D01*
X144817109Y-91776476D01*
X144817115Y-91776481D01*
X144960302Y-91866452D01*
X144960305Y-91866454D01*
X144960309Y-91866455D01*
X144960310Y-91866456D01*
X145032913Y-91891860D01*
X145119943Y-91922314D01*
X145287997Y-91941249D01*
X145288000Y-91941249D01*
X145288003Y-91941249D01*
X145456056Y-91922314D01*
X145456059Y-91922313D01*
X145615690Y-91866456D01*
X145615692Y-91866454D01*
X145615694Y-91866454D01*
X145615697Y-91866452D01*
X145758884Y-91776481D01*
X145758885Y-91776480D01*
X145758890Y-91776477D01*
X145878477Y-91656890D01*
X145900388Y-91622019D01*
X145968452Y-91513697D01*
X145968454Y-91513694D01*
X145968454Y-91513692D01*
X145968456Y-91513690D01*
X146024313Y-91354059D01*
X146024313Y-91354058D01*
X146024314Y-91354056D01*
X146043249Y-91186002D01*
X146043249Y-91185997D01*
X146024314Y-91017943D01*
X145994242Y-90932002D01*
X154438751Y-90932002D01*
X154457685Y-91100056D01*
X154513545Y-91259694D01*
X154513547Y-91259697D01*
X154603518Y-91402884D01*
X154603523Y-91402890D01*
X154635501Y-91434868D01*
X154668986Y-91496191D01*
X154664002Y-91565883D01*
X154652814Y-91588521D01*
X154587448Y-91692549D01*
X154531588Y-91852185D01*
X154512654Y-92020239D01*
X154512654Y-92020244D01*
X154531588Y-92188298D01*
X154587448Y-92347936D01*
X154587450Y-92347939D01*
X154677421Y-92491126D01*
X154677426Y-92491132D01*
X154797012Y-92610718D01*
X154797018Y-92610723D01*
X154940205Y-92700694D01*
X154940208Y-92700696D01*
X154940212Y-92700697D01*
X154940213Y-92700698D01*
X155012816Y-92726102D01*
X155099846Y-92756556D01*
X155267900Y-92775491D01*
X155267903Y-92775491D01*
X155267906Y-92775491D01*
X155435959Y-92756556D01*
X155435962Y-92756555D01*
X155595593Y-92700698D01*
X155595595Y-92700696D01*
X155595597Y-92700696D01*
X155595600Y-92700694D01*
X155738787Y-92610723D01*
X155738788Y-92610722D01*
X155738793Y-92610719D01*
X155858380Y-92491132D01*
X155884697Y-92449249D01*
X155948355Y-92347939D01*
X155948357Y-92347936D01*
X155948357Y-92347934D01*
X155948359Y-92347932D01*
X156004216Y-92188301D01*
X156004216Y-92188300D01*
X156004217Y-92188298D01*
X156023152Y-92020244D01*
X156023152Y-92020239D01*
X156004217Y-91852185D01*
X155950779Y-91699468D01*
X155948359Y-91692552D01*
X155948358Y-91692551D01*
X155948357Y-91692547D01*
X155948355Y-91692544D01*
X155858384Y-91549357D01*
X155858379Y-91549351D01*
X155826401Y-91517373D01*
X155792916Y-91456050D01*
X155797900Y-91386358D01*
X155809085Y-91363725D01*
X155874456Y-91259690D01*
X155930313Y-91100059D01*
X155930313Y-91100058D01*
X155930314Y-91100056D01*
X155949249Y-90932002D01*
X155949249Y-90931997D01*
X155930314Y-90763943D01*
X155896144Y-90666290D01*
X155874456Y-90604310D01*
X155874455Y-90604309D01*
X155874454Y-90604305D01*
X155874452Y-90604302D01*
X155784481Y-90461115D01*
X155784476Y-90461109D01*
X155664890Y-90341523D01*
X155664884Y-90341518D01*
X155521697Y-90251547D01*
X155521694Y-90251545D01*
X155362056Y-90195685D01*
X155194003Y-90176751D01*
X155193997Y-90176751D01*
X155025943Y-90195685D01*
X154866305Y-90251545D01*
X154866302Y-90251547D01*
X154723115Y-90341518D01*
X154723109Y-90341523D01*
X154603523Y-90461109D01*
X154603518Y-90461115D01*
X154513547Y-90604302D01*
X154513545Y-90604305D01*
X154457685Y-90763943D01*
X154438751Y-90931997D01*
X154438751Y-90932002D01*
X145994242Y-90932002D01*
X145990144Y-90920290D01*
X145968456Y-90858310D01*
X145968455Y-90858309D01*
X145968454Y-90858305D01*
X145968452Y-90858302D01*
X145878481Y-90715115D01*
X145878476Y-90715109D01*
X145758890Y-90595523D01*
X145758884Y-90595518D01*
X145615697Y-90505547D01*
X145615694Y-90505545D01*
X145456056Y-90449685D01*
X145288003Y-90430751D01*
X145287997Y-90430751D01*
X145119943Y-90449685D01*
X144960305Y-90505545D01*
X144960302Y-90505547D01*
X144817115Y-90595518D01*
X144817109Y-90595523D01*
X144697523Y-90715109D01*
X144697518Y-90715115D01*
X144607547Y-90858302D01*
X144607545Y-90858305D01*
X144551685Y-91017943D01*
X144532751Y-91185997D01*
X144532751Y-91186002D01*
X137205369Y-91186002D01*
X137122890Y-91103523D01*
X137122884Y-91103518D01*
X136979697Y-91013547D01*
X136979694Y-91013545D01*
X136820056Y-90957685D01*
X136652003Y-90938751D01*
X136651997Y-90938751D01*
X136483943Y-90957685D01*
X136324305Y-91013545D01*
X136324302Y-91013547D01*
X136181115Y-91103518D01*
X136181109Y-91103523D01*
X136061523Y-91223109D01*
X136061518Y-91223115D01*
X135971547Y-91366302D01*
X135971545Y-91366305D01*
X135915685Y-91525943D01*
X135896751Y-91693997D01*
X135896751Y-91694002D01*
X126069557Y-91694002D01*
X126071517Y-91692727D01*
X126210885Y-91629081D01*
X126214888Y-91628506D01*
X126219701Y-91625557D01*
X126226334Y-91622026D01*
X126281697Y-91596744D01*
X126281701Y-91596740D01*
X126283287Y-91596017D01*
X126287105Y-91594187D01*
X126291929Y-91592188D01*
X126300360Y-91584749D01*
X126430206Y-91501303D01*
X126435153Y-91499850D01*
X126440113Y-91495615D01*
X126446869Y-91490596D01*
X126483482Y-91467066D01*
X126483482Y-91467065D01*
X126483485Y-91467064D01*
X126488209Y-91462970D01*
X126503830Y-91451534D01*
X126510453Y-91443696D01*
X126627426Y-91342340D01*
X126633105Y-91339747D01*
X126634698Y-91337882D01*
X126647788Y-91324697D01*
X126664765Y-91309987D01*
X126679487Y-91292996D01*
X126692514Y-91280063D01*
X126697096Y-91272675D01*
X126798412Y-91155752D01*
X126804512Y-91151832D01*
X126805711Y-91149876D01*
X126817724Y-91133465D01*
X126821845Y-91128710D01*
X126845403Y-91092052D01*
X126850419Y-91085302D01*
X126853271Y-91081962D01*
X126856128Y-91075365D01*
X126939453Y-90945713D01*
X126945631Y-90940360D01*
X126948900Y-90932470D01*
X126950947Y-90928198D01*
X126954562Y-90920284D01*
X126976854Y-90871470D01*
X126980392Y-90864823D01*
X126982485Y-90861406D01*
X126983962Y-90855906D01*
X127047444Y-90716905D01*
X127053346Y-90710095D01*
X127064502Y-90663627D01*
X127065295Y-90660651D01*
X127073624Y-90632285D01*
X127075828Y-90626042D01*
X127077196Y-90622739D01*
X127077703Y-90618396D01*
X127118757Y-90478587D01*
X127118757Y-90478580D01*
X127119964Y-90474473D01*
X127125244Y-90466256D01*
X127130789Y-90395809D01*
X127131229Y-90391849D01*
X127133030Y-90379323D01*
X127134109Y-90373690D01*
X127135169Y-90369275D01*
X127135049Y-90365284D01*
X127152897Y-90241164D01*
X127152898Y-90171646D01*
X127154675Y-90165594D01*
X127152971Y-90122990D01*
X127152931Y-90119416D01*
X127152973Y-90117071D01*
X127153010Y-90114948D01*
X127153191Y-90111176D01*
X127155338Y-90083889D01*
X127153721Y-90074344D01*
X127154717Y-90017601D01*
X128386932Y-90017601D01*
X128406764Y-90244286D01*
X128406766Y-90244297D01*
X128465658Y-90464088D01*
X128465661Y-90464097D01*
X128561831Y-90670332D01*
X128561832Y-90670334D01*
X128692354Y-90856741D01*
X128853258Y-91017645D01*
X128853261Y-91017647D01*
X129039666Y-91148168D01*
X129245904Y-91244339D01*
X129465708Y-91303235D01*
X129635616Y-91318100D01*
X129749184Y-91318100D01*
X129919092Y-91303235D01*
X130138896Y-91244339D01*
X130345134Y-91148168D01*
X130531539Y-91017647D01*
X130692447Y-90856739D01*
X130822968Y-90670334D01*
X130919139Y-90464096D01*
X130978035Y-90244292D01*
X130997868Y-90017600D01*
X130997770Y-90016485D01*
X130981039Y-89825246D01*
X130978035Y-89790908D01*
X130924987Y-89592928D01*
X130919141Y-89571111D01*
X130919138Y-89571102D01*
X130897319Y-89524311D01*
X130822968Y-89364866D01*
X130746460Y-89255600D01*
X132507341Y-89255600D01*
X132527936Y-89491003D01*
X132527938Y-89491013D01*
X132589094Y-89719255D01*
X132589096Y-89719259D01*
X132589097Y-89719263D01*
X132662408Y-89876478D01*
X132688965Y-89933430D01*
X132688967Y-89933434D01*
X132749556Y-90019963D01*
X132824505Y-90127001D01*
X132991599Y-90294095D01*
X133081274Y-90356886D01*
X133185165Y-90429632D01*
X133185167Y-90429633D01*
X133185170Y-90429635D01*
X133399337Y-90529503D01*
X133627592Y-90590663D01*
X133804034Y-90606100D01*
X133862999Y-90611259D01*
X133863000Y-90611259D01*
X133863001Y-90611259D01*
X133921966Y-90606100D01*
X134098408Y-90590663D01*
X134326663Y-90529503D01*
X134540830Y-90429635D01*
X134734401Y-90294095D01*
X134856329Y-90172166D01*
X134917648Y-90138684D01*
X134987340Y-90143668D01*
X135043274Y-90185539D01*
X135060189Y-90216517D01*
X135109202Y-90347928D01*
X135109206Y-90347935D01*
X135195452Y-90463144D01*
X135195455Y-90463147D01*
X135310664Y-90549393D01*
X135310671Y-90549397D01*
X135445517Y-90599691D01*
X135445516Y-90599691D01*
X135452444Y-90600435D01*
X135505127Y-90606100D01*
X137300872Y-90606099D01*
X137360483Y-90599691D01*
X137495331Y-90549396D01*
X137610546Y-90463146D01*
X137696796Y-90347931D01*
X137747091Y-90213083D01*
X137753500Y-90153473D01*
X137753500Y-89814402D01*
X156572351Y-89814402D01*
X156591285Y-89982456D01*
X156647145Y-90142094D01*
X156647147Y-90142097D01*
X156737118Y-90285284D01*
X156737123Y-90285290D01*
X156856709Y-90404876D01*
X156856715Y-90404881D01*
X156999902Y-90494852D01*
X156999905Y-90494854D01*
X156999909Y-90494855D01*
X156999910Y-90494856D01*
X157072513Y-90520260D01*
X157159543Y-90550714D01*
X157327597Y-90569649D01*
X157327600Y-90569649D01*
X157327603Y-90569649D01*
X157495656Y-90550714D01*
X157499431Y-90549393D01*
X157655290Y-90494856D01*
X157730190Y-90447792D01*
X157797425Y-90428792D01*
X157864261Y-90449159D01*
X157909475Y-90502426D01*
X157913202Y-90511828D01*
X157917141Y-90523085D01*
X157917147Y-90523097D01*
X158007118Y-90666284D01*
X158007123Y-90666290D01*
X158126709Y-90785876D01*
X158126715Y-90785881D01*
X158269902Y-90875852D01*
X158269905Y-90875854D01*
X158269909Y-90875855D01*
X158269910Y-90875856D01*
X158342513Y-90901260D01*
X158429543Y-90931714D01*
X158597597Y-90950649D01*
X158597600Y-90950649D01*
X158597603Y-90950649D01*
X158765656Y-90931714D01*
X158798321Y-90920284D01*
X158925290Y-90875856D01*
X158925292Y-90875854D01*
X158925294Y-90875854D01*
X158925297Y-90875852D01*
X159068484Y-90785881D01*
X159068485Y-90785880D01*
X159068490Y-90785877D01*
X159188077Y-90666290D01*
X159188081Y-90666284D01*
X159278052Y-90523097D01*
X159278055Y-90523091D01*
X159278056Y-90523090D01*
X159333913Y-90363459D01*
X159333913Y-90363458D01*
X159336213Y-90356886D01*
X159338765Y-90357778D01*
X159366823Y-90307547D01*
X159410325Y-90279884D01*
X159429331Y-90272796D01*
X159467416Y-90244286D01*
X159509097Y-90213083D01*
X159544546Y-90186546D01*
X159558947Y-90167307D01*
X159614880Y-90125438D01*
X159684571Y-90120454D01*
X159745894Y-90153939D01*
X159779379Y-90215262D01*
X159775767Y-90274215D01*
X159777236Y-90274551D01*
X159775686Y-90281340D01*
X159756751Y-90449397D01*
X159756751Y-90449402D01*
X159775685Y-90617456D01*
X159831545Y-90777094D01*
X159831547Y-90777097D01*
X159921518Y-90920284D01*
X159921523Y-90920290D01*
X160041109Y-91039876D01*
X160041115Y-91039881D01*
X160184302Y-91129852D01*
X160184305Y-91129854D01*
X160184309Y-91129855D01*
X160184310Y-91129856D01*
X160236640Y-91148167D01*
X160343943Y-91185714D01*
X160511997Y-91204649D01*
X160512000Y-91204649D01*
X160512003Y-91204649D01*
X160680056Y-91185714D01*
X160680059Y-91185713D01*
X160839690Y-91129856D01*
X160839692Y-91129854D01*
X160839694Y-91129854D01*
X160839697Y-91129852D01*
X160982884Y-91039881D01*
X160982885Y-91039880D01*
X160982890Y-91039877D01*
X161102477Y-90920290D01*
X161130398Y-90875854D01*
X161192452Y-90777097D01*
X161192454Y-90777094D01*
X161192454Y-90777092D01*
X161192456Y-90777090D01*
X161248313Y-90617459D01*
X161248313Y-90617458D01*
X161248314Y-90617456D01*
X161267249Y-90449402D01*
X161267249Y-90449397D01*
X161248313Y-90281340D01*
X161248313Y-90281339D01*
X161220223Y-90201063D01*
X161216661Y-90131284D01*
X161251389Y-90070657D01*
X161253666Y-90068525D01*
X161345790Y-89984544D01*
X163286366Y-89984544D01*
X163306199Y-90211229D01*
X163306201Y-90211240D01*
X163365093Y-90431031D01*
X163365096Y-90431040D01*
X163461266Y-90637275D01*
X163461267Y-90637277D01*
X163591789Y-90823684D01*
X163752693Y-90984588D01*
X163752696Y-90984590D01*
X163939101Y-91115111D01*
X164145339Y-91211282D01*
X164365143Y-91270178D01*
X164535051Y-91285043D01*
X164648619Y-91285043D01*
X164818527Y-91270178D01*
X165038331Y-91211282D01*
X165244569Y-91115111D01*
X165430974Y-90984590D01*
X165591882Y-90823682D01*
X165722403Y-90637277D01*
X165818574Y-90431039D01*
X165877470Y-90211235D01*
X165897303Y-89984543D01*
X165877470Y-89757851D01*
X165818574Y-89538047D01*
X165722403Y-89331809D01*
X165591882Y-89145404D01*
X165591880Y-89145401D01*
X165430976Y-88984497D01*
X165244569Y-88853975D01*
X165244567Y-88853974D01*
X165038332Y-88757804D01*
X165038323Y-88757801D01*
X164818532Y-88698909D01*
X164818522Y-88698907D01*
X164648619Y-88684043D01*
X164535051Y-88684043D01*
X164365147Y-88698907D01*
X164365137Y-88698909D01*
X164145346Y-88757801D01*
X164145337Y-88757804D01*
X163939102Y-88853974D01*
X163939100Y-88853975D01*
X163752693Y-88984497D01*
X163591789Y-89145401D01*
X163461267Y-89331808D01*
X163461266Y-89331810D01*
X163365096Y-89538045D01*
X163365093Y-89538054D01*
X163306201Y-89757845D01*
X163306199Y-89757856D01*
X163286366Y-89984541D01*
X163286366Y-89984544D01*
X161345790Y-89984544D01*
X161384427Y-89949322D01*
X161515712Y-89775472D01*
X161612817Y-89580459D01*
X161672435Y-89370923D01*
X161692536Y-89154000D01*
X161691739Y-89145404D01*
X161685501Y-89078086D01*
X161672435Y-88937077D01*
X161612817Y-88727541D01*
X161515712Y-88532528D01*
X161384427Y-88358678D01*
X161383379Y-88357723D01*
X161267996Y-88252537D01*
X161223432Y-88211912D01*
X161223428Y-88211909D01*
X161223423Y-88211906D01*
X161038213Y-88097229D01*
X161038207Y-88097226D01*
X160942112Y-88059999D01*
X160835069Y-88018530D01*
X160620926Y-87978500D01*
X160403074Y-87978500D01*
X160188931Y-88018530D01*
X160149809Y-88033686D01*
X159985792Y-88097226D01*
X159985786Y-88097229D01*
X159800565Y-88211913D01*
X159789585Y-88221923D01*
X159726780Y-88252537D01*
X159657393Y-88244336D01*
X159606785Y-88204594D01*
X159575845Y-88163264D01*
X159544546Y-88121454D01*
X159544544Y-88121453D01*
X159544544Y-88121452D01*
X159429335Y-88035206D01*
X159429328Y-88035202D01*
X159294482Y-87984908D01*
X159294483Y-87984908D01*
X159234883Y-87978501D01*
X159234881Y-87978500D01*
X159234873Y-87978500D01*
X159234864Y-87978500D01*
X157789129Y-87978500D01*
X157789123Y-87978501D01*
X157729516Y-87984908D01*
X157594671Y-88035202D01*
X157594664Y-88035206D01*
X157479455Y-88121452D01*
X157479452Y-88121455D01*
X157393206Y-88236664D01*
X157393202Y-88236671D01*
X157342908Y-88371517D01*
X157336501Y-88431116D01*
X157336500Y-88431135D01*
X157336500Y-88947334D01*
X157316815Y-89014373D01*
X157264011Y-89060128D01*
X157226385Y-89070554D01*
X157159543Y-89078086D01*
X156999905Y-89133945D01*
X156999902Y-89133947D01*
X156856715Y-89223918D01*
X156856709Y-89223923D01*
X156737123Y-89343509D01*
X156737118Y-89343515D01*
X156647147Y-89486702D01*
X156647145Y-89486705D01*
X156591285Y-89646343D01*
X156572351Y-89814397D01*
X156572351Y-89814402D01*
X137753500Y-89814402D01*
X137753499Y-88357728D01*
X137747091Y-88298117D01*
X137745810Y-88294683D01*
X137696797Y-88163271D01*
X137696793Y-88163264D01*
X137610547Y-88048055D01*
X137610544Y-88048052D01*
X137495335Y-87961806D01*
X137495328Y-87961802D01*
X137360482Y-87911508D01*
X137360483Y-87911508D01*
X137300883Y-87905101D01*
X137300881Y-87905100D01*
X137300873Y-87905100D01*
X137300864Y-87905100D01*
X135505129Y-87905100D01*
X135505123Y-87905101D01*
X135445516Y-87911508D01*
X135310671Y-87961802D01*
X135310664Y-87961806D01*
X135195455Y-88048052D01*
X135195452Y-88048055D01*
X135109206Y-88163264D01*
X135109203Y-88163269D01*
X135060189Y-88294683D01*
X135018317Y-88350616D01*
X134952853Y-88375033D01*
X134884580Y-88360181D01*
X134856326Y-88339030D01*
X134734402Y-88217106D01*
X134734395Y-88217101D01*
X134726984Y-88211912D01*
X134674772Y-88175352D01*
X134540834Y-88081567D01*
X134540830Y-88081565D01*
X134525044Y-88074204D01*
X134326663Y-87981697D01*
X134326659Y-87981696D01*
X134326655Y-87981694D01*
X134098413Y-87920538D01*
X134098403Y-87920536D01*
X133863001Y-87899941D01*
X133862999Y-87899941D01*
X133627596Y-87920536D01*
X133627586Y-87920538D01*
X133399344Y-87981694D01*
X133399337Y-87981696D01*
X133399337Y-87981697D01*
X133392451Y-87984908D01*
X133185171Y-88081564D01*
X133185169Y-88081565D01*
X132991597Y-88217105D01*
X132824505Y-88384197D01*
X132688965Y-88577769D01*
X132688964Y-88577771D01*
X132589098Y-88791935D01*
X132589094Y-88791944D01*
X132527938Y-89020186D01*
X132527936Y-89020196D01*
X132507341Y-89255599D01*
X132507341Y-89255600D01*
X130746460Y-89255600D01*
X130692447Y-89178461D01*
X130692445Y-89178458D01*
X130531541Y-89017554D01*
X130345134Y-88887032D01*
X130345132Y-88887031D01*
X130138897Y-88790861D01*
X130138888Y-88790858D01*
X129919097Y-88731966D01*
X129919087Y-88731964D01*
X129749184Y-88717100D01*
X129635616Y-88717100D01*
X129465712Y-88731964D01*
X129465702Y-88731966D01*
X129245911Y-88790858D01*
X129245902Y-88790861D01*
X129039667Y-88887031D01*
X129039665Y-88887032D01*
X128853258Y-89017554D01*
X128692354Y-89178458D01*
X128561832Y-89364865D01*
X128561831Y-89364867D01*
X128465661Y-89571102D01*
X128465658Y-89571111D01*
X128406766Y-89790902D01*
X128406764Y-89790913D01*
X128386932Y-90017598D01*
X128386932Y-90017601D01*
X127154717Y-90017601D01*
X127154873Y-90008705D01*
X127158905Y-89825246D01*
X127159433Y-89818440D01*
X127177799Y-89680739D01*
X127200782Y-89524311D01*
X127202006Y-89518173D01*
X127237356Y-89378358D01*
X127278237Y-89230526D01*
X127280005Y-89225126D01*
X127331972Y-89088191D01*
X127390149Y-88948134D01*
X127392330Y-88943451D01*
X127441415Y-88848652D01*
X127460232Y-88812310D01*
X127491266Y-88757804D01*
X127534955Y-88681072D01*
X127537385Y-88677155D01*
X127619493Y-88555269D01*
X127621181Y-88552890D01*
X127710600Y-88433167D01*
X127713110Y-88430029D01*
X127808796Y-88318226D01*
X127811141Y-88315640D01*
X127914608Y-88207952D01*
X127917096Y-88205508D01*
X128024917Y-88105490D01*
X128027962Y-88102849D01*
X128144136Y-88008619D01*
X128146472Y-88006816D01*
X128264773Y-87920051D01*
X128268593Y-87917464D01*
X128397054Y-87837357D01*
X128525019Y-87764471D01*
X128529593Y-87762114D01*
X128667846Y-87698093D01*
X128801916Y-87640982D01*
X128807268Y-87638990D01*
X128954455Y-87591879D01*
X129091602Y-87551305D01*
X129097650Y-87549846D01*
X129255215Y-87520219D01*
X129389893Y-87496742D01*
X129396654Y-87495946D01*
X129587003Y-87484137D01*
X129690059Y-87478201D01*
X129693585Y-87478100D01*
X164537738Y-87479647D01*
G37*
G04 #@! TD.AperFunction*
M02*
