G04 #@! TF.GenerationSoftware,KiCad,Pcbnew,9.0.1*
G04 #@! TF.CreationDate,2025-04-14T20:27:34+02:00*
G04 #@! TF.ProjectId,USB2CANv2,55534232-4341-44e7-9632-2e6b69636164,0_2*
G04 #@! TF.SameCoordinates,Original*
G04 #@! TF.FileFunction,Copper,L4,Bot*
G04 #@! TF.FilePolarity,Positive*
%FSLAX46Y46*%
G04 Gerber Fmt 4.6, Leading zero omitted, Abs format (unit mm)*
G04 Created by KiCad (PCBNEW 9.0.1) date 2025-04-14 20:27:34*
%MOMM*%
%LPD*%
G01*
G04 APERTURE LIST*
G04 Aperture macros list*
%AMRoundRect*
0 Rectangle with rounded corners*
0 $1 Rounding radius*
0 $2 $3 $4 $5 $6 $7 $8 $9 X,Y pos of 4 corners*
0 Add a 4 corners polygon primitive as box body*
4,1,4,$2,$3,$4,$5,$6,$7,$8,$9,$2,$3,0*
0 Add four circle primitives for the rounded corners*
1,1,$1+$1,$2,$3*
1,1,$1+$1,$4,$5*
1,1,$1+$1,$6,$7*
1,1,$1+$1,$8,$9*
0 Add four rect primitives between the rounded corners*
20,1,$1+$1,$2,$3,$4,$5,0*
20,1,$1+$1,$4,$5,$6,$7,0*
20,1,$1+$1,$6,$7,$8,$9,0*
20,1,$1+$1,$8,$9,$2,$3,0*%
%AMFreePoly0*
4,1,23,0.550000,-0.750000,0.000000,-0.750000,0.000000,-0.745722,-0.065263,-0.745722,-0.191342,-0.711940,-0.304381,-0.646677,-0.396677,-0.554381,-0.461940,-0.441342,-0.495722,-0.315263,-0.495722,-0.250000,-0.500000,-0.250000,-0.500000,0.250000,-0.495722,0.250000,-0.495722,0.315263,-0.461940,0.441342,-0.396677,0.554381,-0.304381,0.646677,-0.191342,0.711940,-0.065263,0.745722,0.000000,0.745722,
0.000000,0.750000,0.550000,0.750000,0.550000,-0.750000,0.550000,-0.750000,$1*%
%AMFreePoly1*
4,1,23,0.000000,0.745722,0.065263,0.745722,0.191342,0.711940,0.304381,0.646677,0.396677,0.554381,0.461940,0.441342,0.495722,0.315263,0.495722,0.250000,0.500000,0.250000,0.500000,-0.250000,0.495722,-0.250000,0.495722,-0.315263,0.461940,-0.441342,0.396677,-0.554381,0.304381,-0.646677,0.191342,-0.711940,0.065263,-0.745722,0.000000,-0.745722,0.000000,-0.750000,-0.550000,-0.750000,
-0.550000,0.750000,0.000000,0.750000,0.000000,0.745722,0.000000,0.745722,$1*%
G04 Aperture macros list end*
G04 #@! TA.AperFunction,SMDPad,CuDef*
%ADD10RoundRect,0.381000X2.119000X0.381000X-2.119000X0.381000X-2.119000X-0.381000X2.119000X-0.381000X0*%
G04 #@! TD*
G04 #@! TA.AperFunction,ComponentPad*
%ADD11C,0.700000*%
G04 #@! TD*
G04 #@! TA.AperFunction,ComponentPad*
%ADD12O,2.400000X0.900000*%
G04 #@! TD*
G04 #@! TA.AperFunction,ComponentPad*
%ADD13O,1.700000X0.900000*%
G04 #@! TD*
G04 #@! TA.AperFunction,ComponentPad*
%ADD14R,1.700000X1.700000*%
G04 #@! TD*
G04 #@! TA.AperFunction,ComponentPad*
%ADD15O,1.700000X1.700000*%
G04 #@! TD*
G04 #@! TA.AperFunction,ComponentPad*
%ADD16C,1.700000*%
G04 #@! TD*
G04 #@! TA.AperFunction,SMDPad,CuDef*
%ADD17RoundRect,0.200000X-0.200000X-0.275000X0.200000X-0.275000X0.200000X0.275000X-0.200000X0.275000X0*%
G04 #@! TD*
G04 #@! TA.AperFunction,SMDPad,CuDef*
%ADD18R,1.500000X1.500000*%
G04 #@! TD*
G04 #@! TA.AperFunction,SMDPad,CuDef*
%ADD19RoundRect,0.150000X0.825000X0.150000X-0.825000X0.150000X-0.825000X-0.150000X0.825000X-0.150000X0*%
G04 #@! TD*
G04 #@! TA.AperFunction,SMDPad,CuDef*
%ADD20RoundRect,0.160000X-0.160000X0.197500X-0.160000X-0.197500X0.160000X-0.197500X0.160000X0.197500X0*%
G04 #@! TD*
G04 #@! TA.AperFunction,SMDPad,CuDef*
%ADD21R,0.800000X1.200000*%
G04 #@! TD*
G04 #@! TA.AperFunction,SMDPad,CuDef*
%ADD22RoundRect,0.160000X-0.197500X-0.160000X0.197500X-0.160000X0.197500X0.160000X-0.197500X0.160000X0*%
G04 #@! TD*
G04 #@! TA.AperFunction,SMDPad,CuDef*
%ADD23RoundRect,0.140000X-0.170000X0.140000X-0.170000X-0.140000X0.170000X-0.140000X0.170000X0.140000X0*%
G04 #@! TD*
G04 #@! TA.AperFunction,SMDPad,CuDef*
%ADD24R,0.600000X0.200000*%
G04 #@! TD*
G04 #@! TA.AperFunction,SMDPad,CuDef*
%ADD25R,0.350000X0.990000*%
G04 #@! TD*
G04 #@! TA.AperFunction,SMDPad,CuDef*
%ADD26FreePoly0,180.000000*%
G04 #@! TD*
G04 #@! TA.AperFunction,SMDPad,CuDef*
%ADD27R,1.000000X1.500000*%
G04 #@! TD*
G04 #@! TA.AperFunction,SMDPad,CuDef*
%ADD28FreePoly1,180.000000*%
G04 #@! TD*
G04 #@! TA.AperFunction,ViaPad*
%ADD29C,0.500000*%
G04 #@! TD*
G04 #@! TA.AperFunction,Conductor*
%ADD30C,0.300000*%
G04 #@! TD*
G04 #@! TA.AperFunction,Conductor*
%ADD31C,0.200000*%
G04 #@! TD*
G04 #@! TA.AperFunction,Conductor*
%ADD32C,0.400000*%
G04 #@! TD*
G04 APERTURE END LIST*
D10*
X164338000Y-100330000D03*
X164338000Y-97790000D03*
X164338000Y-95250000D03*
D11*
X127113400Y-94662600D03*
X127113400Y-95512600D03*
X127113400Y-96362600D03*
X127113400Y-97212600D03*
X127113400Y-98062600D03*
X127113400Y-98912600D03*
X127113400Y-99762600D03*
X127113400Y-100612600D03*
X125763400Y-100612600D03*
X125763400Y-99762600D03*
X125763400Y-98912600D03*
X125763400Y-98062600D03*
X125763400Y-97212600D03*
X125763400Y-96362600D03*
X125763400Y-95512600D03*
X125763400Y-94662600D03*
D12*
X126133400Y-93312600D03*
D13*
X122753400Y-93312600D03*
D12*
X126133400Y-101962600D03*
D13*
X122753400Y-101962600D03*
D14*
X136403000Y-89255600D03*
D15*
X133863000Y-89255600D03*
D14*
X158512000Y-89154000D03*
D16*
X161052000Y-89154000D03*
D14*
X136403000Y-106019600D03*
D15*
X133863000Y-106019600D03*
D17*
X150496000Y-96139000D03*
X152146000Y-96139000D03*
D18*
X149310000Y-91730000D03*
D19*
X144272000Y-102997000D03*
X144272000Y-104267000D03*
X144272000Y-105537000D03*
X144272000Y-106807000D03*
X139322000Y-106807000D03*
X139322000Y-105537000D03*
X139322000Y-104267000D03*
X139322000Y-102997000D03*
D20*
X146177000Y-88556500D03*
X146177000Y-89751500D03*
D21*
X153670000Y-100101000D03*
X156210000Y-100101000D03*
X156210000Y-106401000D03*
X153670000Y-106401000D03*
X156210000Y-95200000D03*
X153670000Y-95200000D03*
X153670000Y-88900000D03*
X156210000Y-88900000D03*
D22*
X135292500Y-102971600D03*
X136487500Y-102971600D03*
D17*
X128575800Y-98831400D03*
X130225800Y-98831400D03*
D22*
X144436500Y-93726000D03*
X145631500Y-93726000D03*
D17*
X150495000Y-98552000D03*
X152145000Y-98552000D03*
D19*
X143953000Y-88519000D03*
X143953000Y-89789000D03*
X143953000Y-91059000D03*
X143953000Y-92329000D03*
X139003000Y-92329000D03*
X139003000Y-91059000D03*
X139003000Y-89789000D03*
X139003000Y-88519000D03*
D23*
X136114000Y-94624000D03*
X136114000Y-95584000D03*
D18*
X149390000Y-106330000D03*
X149300000Y-88870000D03*
X149350000Y-103280000D03*
D20*
X146558000Y-101637500D03*
X146558000Y-102832500D03*
D17*
X140390000Y-94130000D03*
X142040000Y-94130000D03*
D24*
X135001000Y-94088000D03*
X135001000Y-94488000D03*
X135001000Y-94888000D03*
X133701000Y-94888000D03*
X133701000Y-94488000D03*
X133701000Y-94088000D03*
D25*
X134351000Y-94488000D03*
D26*
X135158000Y-98552000D03*
D27*
X133858000Y-98552000D03*
D28*
X132558000Y-98552000D03*
D17*
X140399000Y-101346000D03*
X142049000Y-101346000D03*
D23*
X132588000Y-95024000D03*
X132588000Y-95984000D03*
D17*
X128575800Y-101320600D03*
X130225800Y-101320600D03*
D20*
X146558000Y-105447500D03*
X146558000Y-106642500D03*
D29*
X138320000Y-97500000D03*
X132080000Y-104140000D03*
X160020000Y-104140000D03*
X155702000Y-92964000D03*
X150876000Y-90932000D03*
X129413000Y-95123000D03*
X134393177Y-93475964D03*
X159299250Y-90799250D03*
X124460000Y-96520000D03*
X145375108Y-91880058D03*
X134707626Y-95870788D03*
X160020000Y-101600000D03*
X156083000Y-97917000D03*
X154940000Y-94488000D03*
X132080000Y-91440000D03*
X154940000Y-102870000D03*
X147114856Y-106045468D03*
X121920000Y-99060000D03*
X132080000Y-106680000D03*
X145465802Y-103619637D03*
X160020000Y-99060000D03*
X142708022Y-94930893D03*
X150540002Y-105800000D03*
X140970000Y-91440000D03*
X134620000Y-104140000D03*
X156972000Y-90869242D03*
X154305000Y-91531500D03*
X137569919Y-103813068D03*
X147066000Y-99732741D03*
X154940000Y-106680000D03*
X132080000Y-88900000D03*
X144463503Y-99822000D03*
X162560000Y-106680000D03*
X142494000Y-90424000D03*
X127000000Y-91440000D03*
X121920000Y-96520000D03*
X144870000Y-101690000D03*
X129032000Y-100330000D03*
X136361189Y-99023189D03*
X152146000Y-101346000D03*
X162560000Y-104140000D03*
X137351503Y-91694000D03*
X160020000Y-92710000D03*
X141275602Y-97246500D03*
X138416348Y-98142317D03*
X160020000Y-106680000D03*
X148212425Y-99255200D03*
X160020000Y-96520000D03*
X134112000Y-95504000D03*
X156460041Y-90468741D03*
X128778000Y-95504000D03*
X147528621Y-105544168D03*
X133701000Y-93375000D03*
X158374985Y-90869242D03*
X128270000Y-99822000D03*
X145288000Y-91186000D03*
X143764000Y-99822000D03*
X149225000Y-96520000D03*
X149514355Y-97571356D03*
X136652000Y-91694000D03*
X148609695Y-99833114D03*
X137160000Y-104394000D03*
X147066000Y-100432244D03*
X149225000Y-99314000D03*
X130048000Y-94742000D03*
X140716000Y-96647000D03*
X154855457Y-90926707D03*
X155156871Y-92131274D03*
X141519717Y-97902023D03*
X142367000Y-95547500D03*
X143406173Y-94974357D03*
X144117500Y-101796205D03*
X145440000Y-102120000D03*
X160512000Y-90869242D03*
D30*
X140970000Y-89486946D02*
X140970000Y-91440000D01*
X140002054Y-88519000D02*
X140970000Y-89486946D01*
X139003000Y-88519000D02*
X140002054Y-88519000D01*
D31*
X141097000Y-105537000D02*
X139322000Y-105537000D01*
X142967000Y-107407000D02*
X141097000Y-105537000D01*
X155204000Y-107407000D02*
X142967000Y-107407000D01*
X156210000Y-106401000D02*
X155204000Y-107407000D01*
D30*
X140970000Y-101917000D02*
X140399000Y-101346000D01*
X140970000Y-103585554D02*
X140970000Y-101917000D01*
X140288554Y-104267000D02*
X140970000Y-103585554D01*
X139322000Y-104267000D02*
X140288554Y-104267000D01*
X138155600Y-104267000D02*
X136403000Y-106019600D01*
X139322000Y-104267000D02*
X138155600Y-104267000D01*
D32*
X136824000Y-95220325D02*
X136227675Y-94624000D01*
X136224000Y-96604000D02*
X136824000Y-96004000D01*
X132558000Y-97902000D02*
X133856000Y-96604000D01*
X138320000Y-97500000D02*
X136824000Y-96004000D01*
X132558000Y-98552000D02*
X132558000Y-97902000D01*
X135578000Y-94088000D02*
X135001000Y-94088000D01*
X136824000Y-96004000D02*
X136824000Y-95220325D01*
X136114000Y-94624000D02*
X135578000Y-94088000D01*
X135001000Y-94088000D02*
X135001000Y-94388000D01*
X133856000Y-96604000D02*
X136224000Y-96604000D01*
X136227675Y-94624000D02*
X136114000Y-94624000D01*
D30*
X127113400Y-94292600D02*
X126133400Y-93312600D01*
X128952600Y-94662600D02*
X129413000Y-95123000D01*
X156210000Y-98044000D02*
X156083000Y-97917000D01*
X128575800Y-100786200D02*
X129032000Y-100330000D01*
X125763400Y-94662600D02*
X127113400Y-94662600D01*
X155702000Y-93726000D02*
X154940000Y-94488000D01*
D31*
X135001000Y-95577414D02*
X134707626Y-95870788D01*
D30*
X129032000Y-100330000D02*
X129032000Y-99287600D01*
X129032000Y-99287600D02*
X128575800Y-98831400D01*
X134474414Y-96104000D02*
X134707626Y-95870788D01*
D32*
X135158000Y-98552000D02*
X135890000Y-98552000D01*
D31*
X134707626Y-95870788D02*
X135827212Y-95870788D01*
D32*
X157636000Y-92964000D02*
X155702000Y-92964000D01*
D30*
X127933800Y-101962600D02*
X128575800Y-101320600D01*
X127113400Y-100612600D02*
X127867800Y-100612600D01*
X130274000Y-95984000D02*
X129413000Y-95123000D01*
X128575800Y-101320600D02*
X128575800Y-100786200D01*
X127113400Y-94662600D02*
X128952600Y-94662600D01*
X155702000Y-92964000D02*
X155702000Y-93726000D01*
X145465802Y-103619637D02*
X144818439Y-104267000D01*
X142494000Y-90424000D02*
X143129000Y-89789000D01*
X127113400Y-94662600D02*
X127113400Y-94292600D01*
D32*
X159299250Y-91300750D02*
X157636000Y-92964000D01*
D31*
X135827212Y-95870788D02*
X136114000Y-95584000D01*
D30*
X125763400Y-100612600D02*
X127113400Y-100612600D01*
D31*
X135001000Y-94888000D02*
X135001000Y-95577414D01*
X138385987Y-102997000D02*
X139322000Y-102997000D01*
D32*
X159299250Y-90799250D02*
X159299250Y-91300750D01*
D30*
X134351000Y-93518141D02*
X134351000Y-94488000D01*
X126133400Y-101962600D02*
X122753400Y-101962600D01*
X154228000Y-95200000D02*
X154940000Y-94488000D01*
X144818439Y-104267000D02*
X144272000Y-104267000D01*
X156210000Y-100101000D02*
X156210000Y-98044000D01*
X132708000Y-96104000D02*
X134474414Y-96104000D01*
X126133400Y-101962600D02*
X127933800Y-101962600D01*
D32*
X156972000Y-90869242D02*
X156972000Y-91694000D01*
D30*
X132588000Y-95984000D02*
X132708000Y-96104000D01*
X143129000Y-89789000D02*
X143953000Y-89789000D01*
X122753400Y-93312600D02*
X126133400Y-93312600D01*
D32*
X156972000Y-91694000D02*
X155702000Y-92964000D01*
D30*
X127867800Y-100612600D02*
X128575800Y-101320600D01*
D32*
X135890000Y-98552000D02*
X136361189Y-99023189D01*
D31*
X137569919Y-103813068D02*
X138385987Y-102997000D01*
D30*
X134393177Y-93475964D02*
X134351000Y-93518141D01*
X132588000Y-95984000D02*
X130274000Y-95984000D01*
X153670000Y-95200000D02*
X154228000Y-95200000D01*
X132674000Y-94938000D02*
X133701000Y-94938000D01*
D32*
X133701000Y-93375000D02*
X133701000Y-93988000D01*
X156831881Y-89832129D02*
X157510010Y-89154000D01*
D30*
X128210600Y-99762600D02*
X128270000Y-99822000D01*
X147600000Y-105472789D02*
X147600000Y-105400000D01*
X146940000Y-104740000D02*
X145481107Y-104740000D01*
X125763400Y-99762600D02*
X127113400Y-99762600D01*
X127113400Y-95512600D02*
X128769400Y-95512600D01*
D32*
X156831881Y-90096901D02*
X156831881Y-89832129D01*
D30*
X147528621Y-105544168D02*
X147600000Y-105472789D01*
X127113400Y-99762600D02*
X128210600Y-99762600D01*
D32*
X157510010Y-89154000D02*
X158512000Y-89154000D01*
D30*
X147600000Y-105400000D02*
X146940000Y-104740000D01*
X128769400Y-95512600D02*
X128778000Y-95504000D01*
X125763400Y-95512600D02*
X127113400Y-95512600D01*
D32*
X134112000Y-95504000D02*
X133701000Y-95093000D01*
D30*
X145481107Y-104740000D02*
X144684107Y-105537000D01*
D32*
X156460041Y-90468741D02*
X156831881Y-90096901D01*
D30*
X144684107Y-105537000D02*
X144272000Y-105537000D01*
D32*
X145161000Y-91059000D02*
X143953000Y-91059000D01*
X133701000Y-95093000D02*
X133701000Y-94988000D01*
X144754817Y-105537000D02*
X144272000Y-105537000D01*
X145288000Y-91186000D02*
X145161000Y-91059000D01*
D30*
X132588000Y-95024000D02*
X132674000Y-94938000D01*
D31*
X127757000Y-96362600D02*
X127113400Y-96362600D01*
X130225800Y-98831400D02*
X127757000Y-96362600D01*
X126194161Y-97212600D02*
X127044161Y-98062600D01*
X127044161Y-98062600D02*
X127113400Y-98062600D01*
X125763400Y-97212600D02*
X126194161Y-97212600D01*
X128803400Y-102743000D02*
X130225800Y-101320600D01*
X122073140Y-102743000D02*
X128803400Y-102743000D01*
X125763400Y-98912600D02*
X124342740Y-98912600D01*
X124342740Y-98912600D02*
X121603400Y-101651940D01*
X121603400Y-101651940D02*
X121603400Y-102273260D01*
X121603400Y-102273260D02*
X122073140Y-102743000D01*
D32*
X135292500Y-102971600D02*
X135292500Y-100494500D01*
X133858000Y-99060000D02*
X133858000Y-98552000D01*
X135292500Y-100494500D02*
X133858000Y-99060000D01*
D31*
X139637100Y-99822000D02*
X143764000Y-99822000D01*
X136487500Y-102971600D02*
X139637100Y-99822000D01*
D30*
X136936400Y-89789000D02*
X136403000Y-89255600D01*
X139003000Y-89789000D02*
X136936400Y-89789000D01*
X136961800Y-89662000D02*
X136555400Y-89255600D01*
D31*
X147343000Y-96097000D02*
X147293500Y-96047500D01*
X141867000Y-95754607D02*
X141867000Y-94303000D01*
X141867000Y-94303000D02*
X142040000Y-94130000D01*
X152958000Y-90482000D02*
X147343000Y-96097000D01*
X156210000Y-88900000D02*
X154628000Y-90482000D01*
X142159893Y-96047500D02*
X141867000Y-95754607D01*
X154628000Y-90482000D02*
X152958000Y-90482000D01*
X147293500Y-96047500D02*
X142159893Y-96047500D01*
X150115000Y-96520000D02*
X150496000Y-96139000D01*
X149225000Y-96520000D02*
X150115000Y-96520000D01*
D30*
X156210000Y-95200000D02*
X155260000Y-96150000D01*
X155260000Y-96150000D02*
X152157000Y-96150000D01*
X152157000Y-96150000D02*
X152146000Y-96139000D01*
D31*
X149514355Y-97571356D02*
X150495000Y-98552000D01*
D30*
X152145000Y-98576000D02*
X153670000Y-100101000D01*
X152145000Y-98552000D02*
X152145000Y-98576000D01*
X139322000Y-104267000D02*
X140080000Y-104267000D01*
D31*
X142415000Y-100980000D02*
X150070000Y-100980000D01*
X150070000Y-100980000D02*
X153670000Y-104580000D01*
X153670000Y-104580000D02*
X153670000Y-106401000D01*
X142049000Y-101346000D02*
X142415000Y-100980000D01*
X148841395Y-98152577D02*
X149775000Y-99086182D01*
X149775000Y-99086182D02*
X149775000Y-99541818D01*
X138938000Y-94058315D02*
X138938000Y-96098124D01*
X136652000Y-91772315D02*
X138938000Y-94058315D01*
X148640581Y-99864000D02*
X148609695Y-99833114D01*
X136652000Y-91694000D02*
X136652000Y-91772315D01*
X147502703Y-98480703D02*
X147830829Y-98152577D01*
X149452818Y-99864000D02*
X148640581Y-99864000D01*
X141320579Y-98480703D02*
X147502703Y-98480703D01*
X147830829Y-98152577D02*
X148841395Y-98152577D01*
X138938000Y-96098124D02*
X141320579Y-98480703D01*
X149775000Y-99541818D02*
X149452818Y-99864000D01*
X137070419Y-104304419D02*
X137160000Y-104394000D01*
X147066000Y-100432244D02*
X140130649Y-100432244D01*
X137070419Y-103492474D02*
X137070419Y-104304419D01*
X140130649Y-100432244D02*
X137070419Y-103492474D01*
D30*
X132680000Y-92110000D02*
X135283183Y-92110000D01*
X148017225Y-98602577D02*
X148513577Y-98602577D01*
X140733183Y-99060000D02*
X147559802Y-99060000D01*
X137605000Y-95931817D02*
X140733183Y-99060000D01*
X137605000Y-94431817D02*
X137605000Y-95931817D01*
X148513577Y-98602577D02*
X149225000Y-99314000D01*
X147559802Y-99060000D02*
X148017225Y-98602577D01*
X135283183Y-92110000D02*
X137605000Y-94431817D01*
X130048000Y-94742000D02*
X132680000Y-92110000D01*
X153283293Y-90926707D02*
X147563000Y-96647000D01*
X147563000Y-96647000D02*
X140716000Y-96647000D01*
X154855457Y-90926707D02*
X153283293Y-90926707D01*
X152718726Y-92131274D02*
X147703000Y-97147000D01*
X147703000Y-97147000D02*
X142274740Y-97147000D01*
X142274740Y-97147000D02*
X141519717Y-97902023D01*
X155156871Y-92131274D02*
X152718726Y-92131274D01*
X144371500Y-94857559D02*
X144371500Y-92747500D01*
X142367000Y-95547500D02*
X142393857Y-95574357D01*
X142393857Y-95574357D02*
X143654702Y-95574357D01*
X144272000Y-93890500D02*
X144436500Y-93726000D01*
X144371500Y-92747500D02*
X143953000Y-92329000D01*
X143654702Y-95574357D02*
X144371500Y-94857559D01*
X143406173Y-94974357D02*
X143406173Y-93464280D01*
X143383000Y-88392000D02*
X143953000Y-88392000D01*
X143540893Y-88519000D02*
X143953000Y-88519000D01*
X144117500Y-88556500D02*
X143953000Y-88392000D01*
X146177000Y-88556500D02*
X143990500Y-88556500D01*
X141732000Y-91790107D02*
X141732000Y-90327893D01*
X141732000Y-90327893D02*
X143540893Y-88519000D01*
X143406173Y-93464280D02*
X141732000Y-91790107D01*
X143990500Y-88556500D02*
X143953000Y-88519000D01*
X143558000Y-102222000D02*
X143002000Y-102222000D01*
X144117500Y-101796205D02*
X144059705Y-101854000D01*
X145198500Y-106807000D02*
X144272000Y-106807000D01*
X146558000Y-105447500D02*
X145198500Y-106807000D01*
X142494000Y-102730000D02*
X142494000Y-105441107D01*
X143926000Y-101854000D02*
X143558000Y-102222000D01*
X143002000Y-102222000D02*
X142494000Y-102730000D01*
X143859893Y-106807000D02*
X144272000Y-106807000D01*
X144059705Y-101854000D02*
X143926000Y-101854000D01*
X142494000Y-105441107D02*
X143859893Y-106807000D01*
X144272000Y-102997000D02*
X144563000Y-102997000D01*
X144563000Y-102997000D02*
X145440000Y-102120000D01*
X145440000Y-102120000D02*
X145922500Y-101637500D01*
X145922500Y-101637500D02*
X146558000Y-101637500D01*
X137755400Y-107219600D02*
X135063000Y-107219600D01*
X139322000Y-105537000D02*
X138346999Y-105537000D01*
X135063000Y-107219600D02*
X133863000Y-106019600D01*
X138346999Y-105537000D02*
X137755400Y-106128599D01*
X137755400Y-106128599D02*
X137755400Y-107219600D01*
D31*
X152620000Y-87850000D02*
X153670000Y-88900000D01*
D30*
X133863000Y-89255600D02*
X135666400Y-91059000D01*
D31*
X133863000Y-89255600D02*
X135268600Y-87850000D01*
X135268600Y-87850000D02*
X152620000Y-87850000D01*
D30*
X135666400Y-91059000D02*
X139003000Y-91059000D01*
D32*
X160512000Y-90869242D02*
X160512000Y-91424000D01*
X160512000Y-91424000D02*
X164338000Y-95250000D01*
D30*
X149350000Y-103280000D02*
X147005500Y-103280000D01*
X147005500Y-103280000D02*
X146558000Y-102832500D01*
X146177000Y-89751500D02*
X147058500Y-88870000D01*
X147058500Y-88870000D02*
X149300000Y-88870000D01*
X147627500Y-91730000D02*
X149310000Y-91730000D01*
X145631500Y-93726000D02*
X147627500Y-91730000D01*
X146558000Y-106642500D02*
X149077500Y-106642500D01*
X149077500Y-106642500D02*
X149390000Y-106330000D01*
X140390000Y-90763893D02*
X139415107Y-89789000D01*
X139415107Y-89789000D02*
X139003000Y-89789000D01*
X140390000Y-94130000D02*
X140390000Y-90763893D01*
G04 #@! TA.AperFunction,Conductor*
G36*
X132972533Y-92839926D02*
G01*
X133028466Y-92881798D01*
X133052883Y-92947262D01*
X133038562Y-93014553D01*
X133035914Y-93019506D01*
X132979343Y-93156082D01*
X132979340Y-93156092D01*
X132950500Y-93301079D01*
X132950500Y-93301082D01*
X132950500Y-93448918D01*
X132950500Y-93448920D01*
X132950499Y-93448920D01*
X132979340Y-93593907D01*
X132979342Y-93593912D01*
X132984903Y-93607339D01*
X132992369Y-93676809D01*
X132969609Y-93729095D01*
X132957207Y-93745662D01*
X132957202Y-93745671D01*
X132907342Y-93879355D01*
X132906909Y-93880517D01*
X132900500Y-93940127D01*
X132900500Y-94086850D01*
X132900501Y-94119499D01*
X132880817Y-94186539D01*
X132828013Y-94232294D01*
X132776501Y-94243500D01*
X132353302Y-94243500D01*
X132317008Y-94246356D01*
X132317002Y-94246357D01*
X132161609Y-94291504D01*
X132161606Y-94291505D01*
X132022315Y-94373881D01*
X132022307Y-94373887D01*
X131907887Y-94488307D01*
X131907881Y-94488315D01*
X131825505Y-94627606D01*
X131825504Y-94627609D01*
X131780357Y-94783002D01*
X131780356Y-94783008D01*
X131777500Y-94819302D01*
X131777500Y-95228697D01*
X131780356Y-95264991D01*
X131780357Y-95264997D01*
X131825504Y-95420390D01*
X131825507Y-95420397D01*
X131837910Y-95441370D01*
X131855093Y-95509094D01*
X131837912Y-95567608D01*
X131825968Y-95587804D01*
X131783496Y-95734000D01*
X132089648Y-95734000D01*
X132152766Y-95751267D01*
X132161605Y-95756494D01*
X132161608Y-95756494D01*
X132161610Y-95756496D01*
X132317002Y-95801642D01*
X132317005Y-95801642D01*
X132317007Y-95801643D01*
X132353310Y-95804500D01*
X132353318Y-95804500D01*
X132464000Y-95804500D01*
X132472685Y-95807050D01*
X132481647Y-95805762D01*
X132505687Y-95816740D01*
X132531039Y-95824185D01*
X132536966Y-95831025D01*
X132545203Y-95834787D01*
X132559492Y-95857021D01*
X132576794Y-95876989D01*
X132579081Y-95887503D01*
X132582977Y-95893565D01*
X132588000Y-95928500D01*
X132588000Y-96110000D01*
X132568315Y-96177039D01*
X132515511Y-96222794D01*
X132464000Y-96234000D01*
X131783496Y-96234000D01*
X131825968Y-96380195D01*
X131908278Y-96519374D01*
X131908285Y-96519383D01*
X132022616Y-96633714D01*
X132022625Y-96633721D01*
X132161803Y-96716030D01*
X132317090Y-96761145D01*
X132353362Y-96763999D01*
X132405978Y-96763999D01*
X132473018Y-96783682D01*
X132518773Y-96836485D01*
X132528718Y-96905644D01*
X132499694Y-96969200D01*
X132493661Y-96975680D01*
X132026287Y-97443054D01*
X132000620Y-97462752D01*
X131998243Y-97464124D01*
X131893555Y-97544455D01*
X131893545Y-97544464D01*
X131800464Y-97637545D01*
X131800455Y-97637555D01*
X131720132Y-97742232D01*
X131720120Y-97742250D01*
X131654303Y-97856248D01*
X131654302Y-97856249D01*
X131603800Y-97978170D01*
X131569724Y-98105341D01*
X131552500Y-98236166D01*
X131552500Y-98867833D01*
X131569724Y-98998658D01*
X131569725Y-98998662D01*
X131588171Y-99067501D01*
X131603800Y-99125829D01*
X131654302Y-99247750D01*
X131654303Y-99247751D01*
X131720120Y-99361749D01*
X131720132Y-99361767D01*
X131800455Y-99466444D01*
X131800459Y-99466449D01*
X131893551Y-99559541D01*
X131893555Y-99559544D01*
X131998232Y-99639867D01*
X131998236Y-99639869D01*
X131998243Y-99639875D01*
X131998250Y-99639879D01*
X132112248Y-99705696D01*
X132112249Y-99705697D01*
X132112252Y-99705698D01*
X132112257Y-99705701D01*
X132234171Y-99756200D01*
X132361338Y-99790275D01*
X132476629Y-99805453D01*
X132487616Y-99806900D01*
X132492174Y-99807500D01*
X132492181Y-99807500D01*
X133108000Y-99807500D01*
X133179940Y-99802355D01*
X133191726Y-99798893D01*
X133242559Y-99797534D01*
X133242804Y-99795261D01*
X133250513Y-99796089D01*
X133250517Y-99796091D01*
X133310127Y-99802500D01*
X133558480Y-99802499D01*
X133625519Y-99822183D01*
X133646161Y-99838818D01*
X134555681Y-100748337D01*
X134589166Y-100809660D01*
X134592000Y-100836018D01*
X134592000Y-102332366D01*
X134574117Y-102396515D01*
X134488267Y-102538529D01*
X134488265Y-102538533D01*
X134440548Y-102691665D01*
X134440548Y-102691667D01*
X134434904Y-102753780D01*
X134434500Y-102758221D01*
X134434500Y-103184988D01*
X134440546Y-103251526D01*
X134440548Y-103251533D01*
X134488265Y-103404666D01*
X134488267Y-103404670D01*
X134571242Y-103541929D01*
X134571246Y-103541934D01*
X134684665Y-103655353D01*
X134684670Y-103655357D01*
X134821929Y-103738332D01*
X134821933Y-103738334D01*
X134846994Y-103746143D01*
X134975067Y-103786052D01*
X135041619Y-103792100D01*
X135543380Y-103792099D01*
X135543388Y-103792099D01*
X135609926Y-103786053D01*
X135609927Y-103786052D01*
X135609933Y-103786052D01*
X135763069Y-103738333D01*
X135825850Y-103700379D01*
X135893405Y-103682544D01*
X135954149Y-103700379D01*
X136016931Y-103738333D01*
X136016934Y-103738334D01*
X136016933Y-103738334D01*
X136041994Y-103746143D01*
X136170067Y-103786052D01*
X136236619Y-103792100D01*
X136345919Y-103792099D01*
X136354604Y-103794649D01*
X136363566Y-103793361D01*
X136387603Y-103804338D01*
X136412958Y-103811783D01*
X136418886Y-103818625D01*
X136427122Y-103822386D01*
X136441408Y-103844617D01*
X136458713Y-103864587D01*
X136461000Y-103875102D01*
X136464896Y-103881164D01*
X136469919Y-103916099D01*
X136469919Y-104074187D01*
X136460481Y-104121637D01*
X136438342Y-104175087D01*
X136438341Y-104175090D01*
X136438341Y-104175091D01*
X136438340Y-104175092D01*
X136409500Y-104320079D01*
X136409500Y-104467922D01*
X136420040Y-104520909D01*
X136413813Y-104590500D01*
X136370950Y-104645678D01*
X136305060Y-104668922D01*
X136298423Y-104669100D01*
X135505129Y-104669100D01*
X135505123Y-104669101D01*
X135445516Y-104675508D01*
X135310671Y-104725802D01*
X135310664Y-104725806D01*
X135195455Y-104812052D01*
X135195452Y-104812055D01*
X135109206Y-104927264D01*
X135109203Y-104927269D01*
X135060189Y-105058683D01*
X135018317Y-105114616D01*
X134952853Y-105139033D01*
X134884580Y-105124181D01*
X134856326Y-105103030D01*
X134742786Y-104989490D01*
X134570820Y-104864551D01*
X134381414Y-104768044D01*
X134381413Y-104768043D01*
X134381412Y-104768043D01*
X134179243Y-104702354D01*
X134179241Y-104702353D01*
X134179240Y-104702353D01*
X134017957Y-104676808D01*
X133969287Y-104669100D01*
X133756713Y-104669100D01*
X133708042Y-104676808D01*
X133546760Y-104702353D01*
X133344585Y-104768044D01*
X133155179Y-104864551D01*
X132983213Y-104989490D01*
X132832890Y-105139813D01*
X132707951Y-105311779D01*
X132611444Y-105501185D01*
X132545753Y-105703360D01*
X132512500Y-105913313D01*
X132512500Y-106125886D01*
X132540763Y-106304335D01*
X132545754Y-106335843D01*
X132595382Y-106488583D01*
X132611444Y-106538014D01*
X132707951Y-106727420D01*
X132832890Y-106899386D01*
X132983213Y-107049709D01*
X133155179Y-107174648D01*
X133155181Y-107174649D01*
X133155184Y-107174651D01*
X133344588Y-107271157D01*
X133546757Y-107336846D01*
X133756713Y-107370100D01*
X133756714Y-107370100D01*
X133969286Y-107370100D01*
X133969287Y-107370100D01*
X134079111Y-107352705D01*
X134184055Y-107336084D01*
X134184315Y-107337728D01*
X134246852Y-107340850D01*
X134293711Y-107370257D01*
X134510692Y-107587239D01*
X134544177Y-107648562D01*
X134539193Y-107718254D01*
X134497321Y-107774187D01*
X134431857Y-107798604D01*
X134423016Y-107798920D01*
X129695971Y-107799129D01*
X129688837Y-107798924D01*
X129431342Y-107784095D01*
X129423146Y-107783349D01*
X129367832Y-107776460D01*
X129361863Y-107775569D01*
X129136577Y-107736298D01*
X129127457Y-107734352D01*
X129079711Y-107722272D01*
X129074948Y-107720966D01*
X128848568Y-107653993D01*
X128838707Y-107650619D01*
X128805372Y-107637624D01*
X128801814Y-107636173D01*
X128571623Y-107538117D01*
X128561249Y-107533116D01*
X128553961Y-107529176D01*
X128551561Y-107527844D01*
X128315842Y-107393585D01*
X128303882Y-107385830D01*
X128147525Y-107271155D01*
X128079727Y-107221430D01*
X128068733Y-107212350D01*
X127864939Y-107023310D01*
X127855060Y-107013028D01*
X127674314Y-106801839D01*
X127665681Y-106790491D01*
X127651999Y-106770181D01*
X127510371Y-106559943D01*
X127503109Y-106547698D01*
X127378354Y-106306755D01*
X127377135Y-106304335D01*
X127373489Y-106296895D01*
X127368912Y-106286341D01*
X127280130Y-106052404D01*
X127278839Y-106048833D01*
X127267169Y-106014954D01*
X127264194Y-106004979D01*
X127206323Y-105776102D01*
X127205213Y-105771308D01*
X127195043Y-105723083D01*
X127193466Y-105713912D01*
X127163234Y-105487261D01*
X127162584Y-105481277D01*
X127157905Y-105425660D01*
X127157488Y-105417461D01*
X127152962Y-105159565D01*
X127153011Y-105155248D01*
X128391900Y-105155248D01*
X128391900Y-105359951D01*
X128423922Y-105562134D01*
X128487181Y-105756823D01*
X128580115Y-105939213D01*
X128700428Y-106104813D01*
X128845186Y-106249571D01*
X128963932Y-106335843D01*
X129010790Y-106369887D01*
X129125954Y-106428566D01*
X129193176Y-106462818D01*
X129193178Y-106462818D01*
X129193181Y-106462820D01*
X129273481Y-106488911D01*
X129387865Y-106526077D01*
X129463219Y-106538012D01*
X129590048Y-106558100D01*
X129590049Y-106558100D01*
X129794751Y-106558100D01*
X129794752Y-106558100D01*
X129996934Y-106526077D01*
X130191619Y-106462820D01*
X130374010Y-106369887D01*
X130489024Y-106286325D01*
X130539613Y-106249571D01*
X130539615Y-106249568D01*
X130539619Y-106249566D01*
X130684366Y-106104819D01*
X130684368Y-106104815D01*
X130684371Y-106104813D01*
X130766333Y-105992000D01*
X130804687Y-105939210D01*
X130897620Y-105756819D01*
X130960877Y-105562134D01*
X130992900Y-105359952D01*
X130992900Y-105155248D01*
X130977257Y-105056481D01*
X130960877Y-104953065D01*
X130910702Y-104798643D01*
X130897620Y-104758381D01*
X130897618Y-104758378D01*
X130897618Y-104758376D01*
X130859641Y-104683844D01*
X130804687Y-104575990D01*
X130771636Y-104530499D01*
X130684371Y-104410386D01*
X130539613Y-104265628D01*
X130374013Y-104145315D01*
X130374012Y-104145314D01*
X130374010Y-104145313D01*
X130284054Y-104099478D01*
X130191623Y-104052381D01*
X129996934Y-103989122D01*
X129822395Y-103961478D01*
X129794752Y-103957100D01*
X129590048Y-103957100D01*
X129565729Y-103960951D01*
X129387865Y-103989122D01*
X129193176Y-104052381D01*
X129010786Y-104145315D01*
X128845186Y-104265628D01*
X128700428Y-104410386D01*
X128580115Y-104575986D01*
X128487181Y-104758376D01*
X128423922Y-104953065D01*
X128391900Y-105155248D01*
X127153011Y-105155248D01*
X127153042Y-105152460D01*
X127153323Y-105145426D01*
X127153323Y-105145418D01*
X127154221Y-105122958D01*
X127152900Y-105107372D01*
X127152900Y-105036067D01*
X127152900Y-105036066D01*
X127118763Y-104798639D01*
X127051184Y-104568487D01*
X127029953Y-104521999D01*
X127027186Y-104513478D01*
X127016346Y-104492204D01*
X126951539Y-104350295D01*
X126951535Y-104350290D01*
X126951532Y-104350283D01*
X126918696Y-104299189D01*
X126918696Y-104299190D01*
X126915340Y-104293969D01*
X126907576Y-104278729D01*
X126889996Y-104254533D01*
X126821856Y-104148505D01*
X126766795Y-104084961D01*
X126752716Y-104065582D01*
X126732395Y-104045261D01*
X126676781Y-103981079D01*
X126664772Y-103967219D01*
X126590080Y-103902499D01*
X126590079Y-103902499D01*
X126586738Y-103899604D01*
X126566418Y-103879284D01*
X126547037Y-103865203D01*
X126543013Y-103861716D01*
X126543011Y-103861714D01*
X126483506Y-103810153D01*
X126483501Y-103810149D01*
X126483495Y-103810144D01*
X126377472Y-103742006D01*
X126353271Y-103724424D01*
X126338031Y-103716659D01*
X126332805Y-103713300D01*
X126332804Y-103713299D01*
X126281712Y-103680465D01*
X126281692Y-103680454D01*
X126142201Y-103616751D01*
X126139778Y-103615644D01*
X126118522Y-103604814D01*
X126110000Y-103602045D01*
X126103545Y-103599097D01*
X126062373Y-103580295D01*
X126009568Y-103534541D01*
X125989883Y-103467501D01*
X126009567Y-103400462D01*
X126062370Y-103354706D01*
X126113883Y-103343500D01*
X128716731Y-103343500D01*
X128716747Y-103343501D01*
X128724343Y-103343501D01*
X128882454Y-103343501D01*
X128882457Y-103343501D01*
X129035185Y-103302577D01*
X129107735Y-103260690D01*
X129172116Y-103223520D01*
X129283920Y-103111716D01*
X129283920Y-103111714D01*
X129294124Y-103101511D01*
X129294127Y-103101506D01*
X130063216Y-102332419D01*
X130124539Y-102298934D01*
X130150897Y-102296100D01*
X130482413Y-102296100D01*
X130482416Y-102296100D01*
X130552996Y-102289686D01*
X130715406Y-102239078D01*
X130860985Y-102151072D01*
X130981272Y-102030785D01*
X131069278Y-101885206D01*
X131119886Y-101722796D01*
X131126300Y-101652216D01*
X131126300Y-100988984D01*
X131119886Y-100918404D01*
X131069278Y-100755994D01*
X130981272Y-100610415D01*
X130981270Y-100610413D01*
X130981269Y-100610411D01*
X130860988Y-100490130D01*
X130855949Y-100487084D01*
X130715406Y-100402122D01*
X130552996Y-100351514D01*
X130552994Y-100351513D01*
X130552992Y-100351513D01*
X130503578Y-100347023D01*
X130482416Y-100345100D01*
X129969184Y-100345100D01*
X129949945Y-100346848D01*
X129898607Y-100351513D01*
X129736193Y-100402122D01*
X129590611Y-100490130D01*
X129590610Y-100490131D01*
X129488127Y-100592615D01*
X129426804Y-100626100D01*
X129357112Y-100621116D01*
X129312765Y-100592615D01*
X129210677Y-100490527D01*
X129065196Y-100402581D01*
X128991397Y-100379584D01*
X128933250Y-100340846D01*
X128905276Y-100276821D01*
X128916358Y-100207836D01*
X128925188Y-100192305D01*
X128935081Y-100177499D01*
X128935084Y-100177495D01*
X128991658Y-100040913D01*
X129009665Y-99950387D01*
X129020500Y-99895920D01*
X129020500Y-99846375D01*
X129040185Y-99779336D01*
X129080350Y-99740258D01*
X129210677Y-99661472D01*
X129210678Y-99661471D01*
X129312763Y-99559385D01*
X129374086Y-99525899D01*
X129443777Y-99530883D01*
X129488126Y-99559384D01*
X129590611Y-99661869D01*
X129590613Y-99661870D01*
X129590615Y-99661872D01*
X129736194Y-99749878D01*
X129898604Y-99800486D01*
X129969184Y-99806900D01*
X129969187Y-99806900D01*
X130482413Y-99806900D01*
X130482416Y-99806900D01*
X130552996Y-99800486D01*
X130715406Y-99749878D01*
X130860985Y-99661872D01*
X130981272Y-99541585D01*
X131069278Y-99396006D01*
X131119886Y-99233596D01*
X131126300Y-99163016D01*
X131126300Y-98499784D01*
X131119886Y-98429204D01*
X131069278Y-98266794D01*
X130981272Y-98121215D01*
X130981270Y-98121213D01*
X130981269Y-98121211D01*
X130860988Y-98000930D01*
X130824435Y-97978833D01*
X130715406Y-97912922D01*
X130552996Y-97862314D01*
X130552994Y-97862313D01*
X130552992Y-97862313D01*
X130503578Y-97857823D01*
X130482416Y-97855900D01*
X130482413Y-97855900D01*
X130150897Y-97855900D01*
X130083858Y-97836215D01*
X130063216Y-97819581D01*
X128709816Y-96466181D01*
X128676331Y-96404858D01*
X128681315Y-96335166D01*
X128723187Y-96279233D01*
X128788651Y-96254816D01*
X128797497Y-96254500D01*
X128851920Y-96254500D01*
X128968187Y-96231372D01*
X128996913Y-96225658D01*
X129133495Y-96169084D01*
X129256416Y-96086951D01*
X129360951Y-95982416D01*
X129443084Y-95859495D01*
X129447271Y-95849388D01*
X129468688Y-95797681D01*
X129499658Y-95722913D01*
X129523067Y-95605230D01*
X129528500Y-95577920D01*
X129528500Y-95524730D01*
X129548185Y-95457691D01*
X129600989Y-95411936D01*
X129670147Y-95401992D01*
X129699952Y-95410168D01*
X129829087Y-95463658D01*
X129829091Y-95463658D01*
X129829092Y-95463659D01*
X129974079Y-95492500D01*
X129974082Y-95492500D01*
X130121920Y-95492500D01*
X130219462Y-95473096D01*
X130266913Y-95463658D01*
X130373114Y-95419668D01*
X130403488Y-95407087D01*
X130403488Y-95407086D01*
X130403495Y-95407084D01*
X130526416Y-95324951D01*
X130630951Y-95220416D01*
X130713084Y-95097495D01*
X130769658Y-94960913D01*
X130769658Y-94960912D01*
X130771989Y-94955285D01*
X130772852Y-94955642D01*
X130800600Y-94909344D01*
X132841520Y-92868425D01*
X132902841Y-92834942D01*
X132972533Y-92839926D01*
G37*
G04 #@! TD.AperFunction*
G04 #@! TA.AperFunction,Conductor*
G36*
X159735367Y-90409274D02*
G01*
X159767429Y-90416249D01*
X159769052Y-90417872D01*
X159771277Y-90418440D01*
X159793636Y-90442455D01*
X159816835Y-90465653D01*
X159817322Y-90467896D01*
X159818888Y-90469577D01*
X159824716Y-90501881D01*
X159831688Y-90533926D01*
X159831013Y-90536780D01*
X159831294Y-90538336D01*
X159822565Y-90572534D01*
X159790343Y-90650324D01*
X159790340Y-90650334D01*
X159761500Y-90795321D01*
X159761500Y-90795324D01*
X159761500Y-90943160D01*
X159761500Y-90943162D01*
X159761499Y-90943162D01*
X159790340Y-91088149D01*
X159790343Y-91088159D01*
X159802061Y-91116448D01*
X159811500Y-91163900D01*
X159811500Y-91355006D01*
X159811500Y-91492994D01*
X159811500Y-91492996D01*
X159811499Y-91492996D01*
X159838418Y-91628322D01*
X159838421Y-91628332D01*
X159891222Y-91755807D01*
X159967887Y-91870545D01*
X159967888Y-91870546D01*
X161938762Y-93841419D01*
X161972247Y-93902742D01*
X161967263Y-93972434D01*
X161925391Y-94028367D01*
X161906176Y-94040188D01*
X161741453Y-94121883D01*
X161592010Y-94242009D01*
X161592009Y-94242010D01*
X161471883Y-94391453D01*
X161471881Y-94391456D01*
X161386694Y-94563221D01*
X161340419Y-94749291D01*
X161337500Y-94792345D01*
X161337500Y-95707656D01*
X161337501Y-95707659D01*
X161340418Y-95750701D01*
X161340418Y-95750702D01*
X161364582Y-95847864D01*
X161380098Y-95910258D01*
X161386694Y-95936778D01*
X161471881Y-96108543D01*
X161592009Y-96257989D01*
X161592010Y-96257990D01*
X161741453Y-96378116D01*
X161803547Y-96408912D01*
X161854859Y-96456333D01*
X161872388Y-96523968D01*
X161850569Y-96590343D01*
X161803547Y-96631088D01*
X161741453Y-96661883D01*
X161592010Y-96782009D01*
X161592009Y-96782010D01*
X161471883Y-96931453D01*
X161471881Y-96931456D01*
X161386694Y-97103221D01*
X161340419Y-97289291D01*
X161337500Y-97332345D01*
X161337500Y-98247656D01*
X161337501Y-98247659D01*
X161340418Y-98290701D01*
X161340418Y-98290702D01*
X161386694Y-98476778D01*
X161471881Y-98648543D01*
X161471883Y-98648546D01*
X161592009Y-98797989D01*
X161592010Y-98797990D01*
X161741453Y-98918116D01*
X161803547Y-98948912D01*
X161854859Y-98996333D01*
X161872388Y-99063968D01*
X161850569Y-99130343D01*
X161803547Y-99171088D01*
X161741453Y-99201883D01*
X161592010Y-99322009D01*
X161592009Y-99322010D01*
X161471883Y-99471453D01*
X161471881Y-99471456D01*
X161386694Y-99643221D01*
X161340419Y-99829291D01*
X161337500Y-99872345D01*
X161337500Y-100787656D01*
X161337501Y-100787659D01*
X161340418Y-100830701D01*
X161340418Y-100830702D01*
X161386694Y-101016778D01*
X161471881Y-101188543D01*
X161471883Y-101188546D01*
X161592009Y-101337989D01*
X161592010Y-101337990D01*
X161741453Y-101458116D01*
X161741456Y-101458118D01*
X161843944Y-101508947D01*
X161913225Y-101543307D01*
X162062781Y-101580500D01*
X162099291Y-101589580D01*
X162099292Y-101589580D01*
X162099296Y-101589581D01*
X162142343Y-101592500D01*
X166533656Y-101592499D01*
X166576704Y-101589581D01*
X166762775Y-101543307D01*
X166934547Y-101458116D01*
X166934555Y-101458108D01*
X166938307Y-101455712D01*
X167005394Y-101436188D01*
X167072386Y-101456034D01*
X167118014Y-101508947D01*
X167129096Y-101560188D01*
X167129096Y-105254600D01*
X167128901Y-105261552D01*
X167114781Y-105512995D01*
X167114072Y-105520989D01*
X167107672Y-105573699D01*
X167106824Y-105579523D01*
X167069304Y-105800358D01*
X167067453Y-105809263D01*
X167056288Y-105854562D01*
X167055045Y-105859213D01*
X166991008Y-106081499D01*
X166987796Y-106091143D01*
X166975980Y-106122300D01*
X166974599Y-106125782D01*
X166880731Y-106352401D01*
X166875968Y-106362571D01*
X166873101Y-106368034D01*
X166871831Y-106370392D01*
X166743229Y-106603084D01*
X166735831Y-106614859D01*
X166579094Y-106835762D01*
X166570424Y-106846634D01*
X166389935Y-107048601D01*
X166380102Y-107058433D01*
X166178151Y-107238909D01*
X166167279Y-107247580D01*
X165946372Y-107404322D01*
X165934599Y-107411719D01*
X165701897Y-107540330D01*
X165699544Y-107541598D01*
X165694097Y-107544457D01*
X165683921Y-107549223D01*
X165457310Y-107643088D01*
X165453828Y-107644469D01*
X165422656Y-107656291D01*
X165413013Y-107659503D01*
X165190724Y-107723544D01*
X165186069Y-107724787D01*
X165140772Y-107735951D01*
X165131869Y-107737802D01*
X164911038Y-107775322D01*
X164905215Y-107776170D01*
X164852508Y-107782570D01*
X164844514Y-107783279D01*
X164593348Y-107797385D01*
X164586400Y-107797580D01*
X155961638Y-107797962D01*
X155940386Y-107791723D01*
X155918298Y-107790143D01*
X155907518Y-107782073D01*
X155894598Y-107778280D01*
X155880094Y-107761543D01*
X155862365Y-107748271D01*
X155857659Y-107735653D01*
X155848841Y-107725478D01*
X155845688Y-107703557D01*
X155837949Y-107682807D01*
X155840811Y-107669649D01*
X155838894Y-107656320D01*
X155848093Y-107636173D01*
X155852801Y-107614534D01*
X155866065Y-107596816D01*
X155867916Y-107592763D01*
X155873939Y-107586294D01*
X155922417Y-107537817D01*
X155983740Y-107504333D01*
X156010097Y-107501499D01*
X156657871Y-107501499D01*
X156657872Y-107501499D01*
X156717483Y-107495091D01*
X156852331Y-107444796D01*
X156967546Y-107358546D01*
X157053796Y-107243331D01*
X157104091Y-107108483D01*
X157110500Y-107048873D01*
X157110499Y-105753128D01*
X157104091Y-105693517D01*
X157067090Y-105594313D01*
X157053797Y-105558671D01*
X157053793Y-105558664D01*
X156967547Y-105443455D01*
X156967544Y-105443452D01*
X156852335Y-105357206D01*
X156852328Y-105357202D01*
X156717482Y-105306908D01*
X156717483Y-105306908D01*
X156657883Y-105300501D01*
X156657881Y-105300500D01*
X156657873Y-105300500D01*
X156657864Y-105300500D01*
X155762129Y-105300500D01*
X155762123Y-105300501D01*
X155702516Y-105306908D01*
X155567671Y-105357202D01*
X155567664Y-105357206D01*
X155452455Y-105443452D01*
X155452452Y-105443455D01*
X155366206Y-105558664D01*
X155366202Y-105558671D01*
X155315908Y-105693517D01*
X155313718Y-105713891D01*
X155309501Y-105753123D01*
X155309500Y-105753135D01*
X155309500Y-106400902D01*
X155289815Y-106467941D01*
X155273181Y-106488583D01*
X154991584Y-106770181D01*
X154964656Y-106784884D01*
X154938838Y-106801477D01*
X154932637Y-106802368D01*
X154930261Y-106803666D01*
X154903903Y-106806500D01*
X154694500Y-106806500D01*
X154627461Y-106786815D01*
X154581706Y-106734011D01*
X154570500Y-106682500D01*
X154570499Y-105753129D01*
X154570498Y-105753123D01*
X154570497Y-105753116D01*
X154564091Y-105693517D01*
X154527090Y-105594313D01*
X154513797Y-105558671D01*
X154513793Y-105558664D01*
X154427547Y-105443455D01*
X154320188Y-105363085D01*
X154317451Y-105359429D01*
X154313297Y-105357532D01*
X154296705Y-105331714D01*
X154278318Y-105307151D01*
X154277302Y-105301523D01*
X154275523Y-105298754D01*
X154270500Y-105263819D01*
X154270500Y-105155728D01*
X163289096Y-105155728D01*
X163289096Y-105360431D01*
X163321118Y-105562614D01*
X163384377Y-105757303D01*
X163433934Y-105854562D01*
X163477064Y-105939210D01*
X163477311Y-105939693D01*
X163597624Y-106105293D01*
X163742382Y-106250051D01*
X163860467Y-106335843D01*
X163907986Y-106370367D01*
X164022208Y-106428566D01*
X164090372Y-106463298D01*
X164090374Y-106463298D01*
X164090377Y-106463300D01*
X164168190Y-106488583D01*
X164285061Y-106526557D01*
X164357385Y-106538012D01*
X164487244Y-106558580D01*
X164487245Y-106558580D01*
X164691947Y-106558580D01*
X164691948Y-106558580D01*
X164894130Y-106526557D01*
X165088815Y-106463300D01*
X165271206Y-106370367D01*
X165429811Y-106255135D01*
X165436809Y-106250051D01*
X165436811Y-106250048D01*
X165436815Y-106250046D01*
X165581562Y-106105299D01*
X165581564Y-106105295D01*
X165581567Y-106105293D01*
X165672025Y-105980786D01*
X165701883Y-105939690D01*
X165794816Y-105757299D01*
X165858073Y-105562614D01*
X165890096Y-105360432D01*
X165890096Y-105155728D01*
X165887004Y-105136204D01*
X165858073Y-104953545D01*
X165807742Y-104798643D01*
X165794816Y-104758861D01*
X165794814Y-104758858D01*
X165794814Y-104758856D01*
X165749080Y-104669100D01*
X165701883Y-104576470D01*
X165668484Y-104530500D01*
X165581567Y-104410866D01*
X165436809Y-104266108D01*
X165271209Y-104145795D01*
X165271208Y-104145794D01*
X165271206Y-104145793D01*
X165180308Y-104099478D01*
X165088819Y-104052861D01*
X164894130Y-103989602D01*
X164719591Y-103961958D01*
X164691948Y-103957580D01*
X164487244Y-103957580D01*
X164462925Y-103961431D01*
X164285061Y-103989602D01*
X164090372Y-104052861D01*
X163907982Y-104145795D01*
X163742382Y-104266108D01*
X163597624Y-104410866D01*
X163477311Y-104576466D01*
X163384377Y-104758856D01*
X163321118Y-104953545D01*
X163289096Y-105155728D01*
X154270500Y-105155728D01*
X154270500Y-104669059D01*
X154270501Y-104669046D01*
X154270501Y-104500945D01*
X154270501Y-104500943D01*
X154229577Y-104348215D01*
X154185765Y-104272331D01*
X154150520Y-104211284D01*
X154038716Y-104099480D01*
X154034385Y-104095149D01*
X154034374Y-104095139D01*
X150557590Y-100618355D01*
X150557588Y-100618352D01*
X150438717Y-100499481D01*
X150438716Y-100499480D01*
X150348685Y-100447501D01*
X150348684Y-100447500D01*
X150301790Y-100420425D01*
X150301789Y-100420424D01*
X150289263Y-100417067D01*
X150149057Y-100379499D01*
X150085915Y-100379499D01*
X150064669Y-100373260D01*
X150042582Y-100371681D01*
X150031798Y-100363608D01*
X150018876Y-100359814D01*
X150004377Y-100343082D01*
X149986648Y-100329810D01*
X149981940Y-100317187D01*
X149973121Y-100307010D01*
X149969969Y-100285094D01*
X149962231Y-100264346D01*
X149965094Y-100251184D01*
X149963177Y-100237852D01*
X149972376Y-100217707D01*
X149977083Y-100196073D01*
X149990352Y-100178345D01*
X149992202Y-100174296D01*
X149998219Y-100167832D01*
X150133509Y-100032542D01*
X150133514Y-100032539D01*
X150143714Y-100022338D01*
X150143716Y-100022338D01*
X150255520Y-99910534D01*
X150317893Y-99802500D01*
X150334577Y-99773603D01*
X150375500Y-99620875D01*
X150375500Y-99619945D01*
X150377930Y-99612592D01*
X150395852Y-99586660D01*
X150412258Y-99559746D01*
X150415565Y-99558139D01*
X150417656Y-99555115D01*
X150446750Y-99542990D01*
X150475105Y-99529217D01*
X150480980Y-99528726D01*
X150482150Y-99528239D01*
X150483639Y-99528504D01*
X150495668Y-99527500D01*
X150751613Y-99527500D01*
X150751616Y-99527500D01*
X150822196Y-99521086D01*
X150984606Y-99470478D01*
X151130185Y-99382472D01*
X151171180Y-99341477D01*
X151232319Y-99280339D01*
X151293642Y-99246854D01*
X151363334Y-99251838D01*
X151407681Y-99280339D01*
X151509811Y-99382469D01*
X151509813Y-99382470D01*
X151509815Y-99382472D01*
X151655394Y-99470478D01*
X151817804Y-99521086D01*
X151888384Y-99527500D01*
X152125192Y-99527500D01*
X152192231Y-99547185D01*
X152212873Y-99563819D01*
X152733181Y-100084127D01*
X152766666Y-100145450D01*
X152769500Y-100171808D01*
X152769500Y-100748870D01*
X152769501Y-100748876D01*
X152775908Y-100808483D01*
X152826202Y-100943328D01*
X152826206Y-100943335D01*
X152912452Y-101058544D01*
X152912455Y-101058547D01*
X153027664Y-101144793D01*
X153027671Y-101144797D01*
X153162517Y-101195091D01*
X153162516Y-101195091D01*
X153169444Y-101195835D01*
X153222127Y-101201500D01*
X154117872Y-101201499D01*
X154177483Y-101195091D01*
X154312331Y-101144796D01*
X154427546Y-101058546D01*
X154513796Y-100943331D01*
X154564091Y-100808483D01*
X154570500Y-100748873D01*
X154570500Y-100748833D01*
X155310000Y-100748833D01*
X155316401Y-100808372D01*
X155316403Y-100808379D01*
X155366645Y-100943086D01*
X155366649Y-100943093D01*
X155452809Y-101058187D01*
X155452812Y-101058190D01*
X155567906Y-101144350D01*
X155567913Y-101144354D01*
X155702620Y-101194596D01*
X155702627Y-101194598D01*
X155762155Y-101200999D01*
X155762172Y-101201000D01*
X155960000Y-101201000D01*
X156460000Y-101201000D01*
X156657828Y-101201000D01*
X156657844Y-101200999D01*
X156717372Y-101194598D01*
X156717379Y-101194596D01*
X156852086Y-101144354D01*
X156852093Y-101144350D01*
X156967187Y-101058190D01*
X156967190Y-101058187D01*
X157053350Y-100943093D01*
X157053354Y-100943086D01*
X157103596Y-100808379D01*
X157103598Y-100808372D01*
X157110000Y-100748833D01*
X157110000Y-100351000D01*
X156460000Y-100351000D01*
X156460000Y-101201000D01*
X155960000Y-101201000D01*
X155960000Y-100351000D01*
X155310000Y-100351000D01*
X155310000Y-100748833D01*
X154570500Y-100748833D01*
X154570499Y-100084127D01*
X154570499Y-99453155D01*
X155310000Y-99453155D01*
X155310000Y-99851000D01*
X155960000Y-99851000D01*
X156460000Y-99851000D01*
X157110000Y-99851000D01*
X157110000Y-99453172D01*
X157109999Y-99453155D01*
X157103598Y-99393627D01*
X157103596Y-99393620D01*
X157053354Y-99258913D01*
X157053350Y-99258906D01*
X156967190Y-99143812D01*
X156967187Y-99143809D01*
X156852093Y-99057649D01*
X156852086Y-99057645D01*
X156717379Y-99007403D01*
X156717372Y-99007401D01*
X156657844Y-99001000D01*
X156460000Y-99001000D01*
X156460000Y-99851000D01*
X155960000Y-99851000D01*
X155960000Y-99001000D01*
X155762155Y-99001000D01*
X155702627Y-99007401D01*
X155702620Y-99007403D01*
X155567913Y-99057645D01*
X155567906Y-99057649D01*
X155452812Y-99143809D01*
X155452809Y-99143812D01*
X155366649Y-99258906D01*
X155366645Y-99258913D01*
X155316403Y-99393620D01*
X155316401Y-99393627D01*
X155310000Y-99453155D01*
X154570499Y-99453155D01*
X154570499Y-99453129D01*
X154570498Y-99453123D01*
X154564091Y-99393516D01*
X154513797Y-99258671D01*
X154513793Y-99258664D01*
X154427547Y-99143455D01*
X154427544Y-99143452D01*
X154312335Y-99057206D01*
X154312328Y-99057202D01*
X154177482Y-99006908D01*
X154177483Y-99006908D01*
X154117883Y-99000501D01*
X154117881Y-99000500D01*
X154117873Y-99000500D01*
X154117865Y-99000500D01*
X153540808Y-99000500D01*
X153473769Y-98980815D01*
X153453127Y-98964181D01*
X153081819Y-98592873D01*
X153048334Y-98531550D01*
X153045500Y-98505192D01*
X153045500Y-98220386D01*
X153040475Y-98165087D01*
X153039086Y-98149804D01*
X152988478Y-97987394D01*
X152900472Y-97841815D01*
X152900470Y-97841813D01*
X152900469Y-97841811D01*
X152780188Y-97721530D01*
X152735503Y-97694517D01*
X152634606Y-97633522D01*
X152472196Y-97582914D01*
X152472194Y-97582913D01*
X152472192Y-97582913D01*
X152422778Y-97578423D01*
X152401616Y-97576500D01*
X151888384Y-97576500D01*
X151869145Y-97578248D01*
X151817807Y-97582913D01*
X151655393Y-97633522D01*
X151509811Y-97721530D01*
X151509810Y-97721531D01*
X151407681Y-97823661D01*
X151346358Y-97857146D01*
X151276666Y-97852162D01*
X151232319Y-97823661D01*
X151130188Y-97721530D01*
X151085503Y-97694517D01*
X150984606Y-97633522D01*
X150822196Y-97582914D01*
X150822194Y-97582913D01*
X150822192Y-97582913D01*
X150772778Y-97578423D01*
X150751616Y-97576500D01*
X150751613Y-97576500D01*
X150420097Y-97576500D01*
X150390656Y-97567855D01*
X150360670Y-97561332D01*
X150355654Y-97557577D01*
X150353058Y-97556815D01*
X150332416Y-97540181D01*
X150285289Y-97493054D01*
X150251804Y-97431731D01*
X150251379Y-97429694D01*
X150236013Y-97352443D01*
X150229049Y-97335630D01*
X150208472Y-97285952D01*
X150201003Y-97216483D01*
X150232278Y-97154004D01*
X150292367Y-97118352D01*
X150323033Y-97114500D01*
X150752613Y-97114500D01*
X150752616Y-97114500D01*
X150823196Y-97108086D01*
X150985606Y-97057478D01*
X151131185Y-96969472D01*
X151169204Y-96931453D01*
X151233319Y-96867339D01*
X151294642Y-96833854D01*
X151364334Y-96838838D01*
X151408681Y-96867339D01*
X151510811Y-96969469D01*
X151510813Y-96969470D01*
X151510815Y-96969472D01*
X151656394Y-97057478D01*
X151818804Y-97108086D01*
X151889384Y-97114500D01*
X151889387Y-97114500D01*
X152402613Y-97114500D01*
X152402616Y-97114500D01*
X152473196Y-97108086D01*
X152635606Y-97057478D01*
X152781185Y-96969472D01*
X152901472Y-96849185D01*
X152901477Y-96849176D01*
X152902381Y-96848024D01*
X152903261Y-96847394D01*
X152906775Y-96843881D01*
X152907359Y-96844465D01*
X152959222Y-96807393D01*
X152999990Y-96800500D01*
X155324071Y-96800500D01*
X155417027Y-96782009D01*
X155449744Y-96775501D01*
X155568127Y-96726465D01*
X155602337Y-96703607D01*
X155602338Y-96703607D01*
X155656463Y-96667441D01*
X155674669Y-96655277D01*
X155993128Y-96336816D01*
X156054450Y-96303333D01*
X156080808Y-96300499D01*
X156657871Y-96300499D01*
X156657872Y-96300499D01*
X156717483Y-96294091D01*
X156852331Y-96243796D01*
X156967546Y-96157546D01*
X157053796Y-96042331D01*
X157104091Y-95907483D01*
X157110500Y-95847873D01*
X157110499Y-94552128D01*
X157104091Y-94492517D01*
X157092399Y-94461170D01*
X157053797Y-94357671D01*
X157053793Y-94357664D01*
X156967547Y-94242455D01*
X156967544Y-94242452D01*
X156852335Y-94156206D01*
X156852328Y-94156202D01*
X156717482Y-94105908D01*
X156717483Y-94105908D01*
X156657883Y-94099501D01*
X156657881Y-94099500D01*
X156657873Y-94099500D01*
X156657864Y-94099500D01*
X155762129Y-94099500D01*
X155762123Y-94099501D01*
X155702516Y-94105908D01*
X155567671Y-94156202D01*
X155567664Y-94156206D01*
X155452455Y-94242452D01*
X155452452Y-94242455D01*
X155366206Y-94357664D01*
X155366202Y-94357671D01*
X155315908Y-94492517D01*
X155309501Y-94552116D01*
X155309501Y-94552123D01*
X155309500Y-94552135D01*
X155309500Y-95129191D01*
X155289815Y-95196230D01*
X155273181Y-95216872D01*
X155026873Y-95463181D01*
X154965550Y-95496666D01*
X154939192Y-95499500D01*
X154670862Y-95499500D01*
X154603823Y-95479815D01*
X154583181Y-95463181D01*
X154570000Y-95450000D01*
X152974020Y-95450000D01*
X152906981Y-95430315D01*
X152886339Y-95413681D01*
X152781188Y-95308530D01*
X152724262Y-95274117D01*
X152635606Y-95220522D01*
X152473196Y-95169914D01*
X152473194Y-95169913D01*
X152473192Y-95169913D01*
X152423778Y-95165423D01*
X152402616Y-95163500D01*
X151889384Y-95163500D01*
X151870145Y-95165248D01*
X151818807Y-95169913D01*
X151656393Y-95220522D01*
X151510811Y-95308530D01*
X151510810Y-95308531D01*
X151408681Y-95410661D01*
X151347358Y-95444146D01*
X151277666Y-95439162D01*
X151233319Y-95410661D01*
X151131188Y-95308530D01*
X151074262Y-95274117D01*
X150985606Y-95220522D01*
X150848882Y-95177918D01*
X150790736Y-95139181D01*
X150762762Y-95075156D01*
X150773843Y-95006171D01*
X150798090Y-94971855D01*
X151217790Y-94552155D01*
X152770000Y-94552155D01*
X152770000Y-94950000D01*
X153420000Y-94950000D01*
X153920000Y-94950000D01*
X154570000Y-94950000D01*
X154570000Y-94552172D01*
X154569999Y-94552155D01*
X154563598Y-94492627D01*
X154563596Y-94492620D01*
X154513354Y-94357913D01*
X154513350Y-94357906D01*
X154427190Y-94242812D01*
X154427187Y-94242809D01*
X154312093Y-94156649D01*
X154312086Y-94156645D01*
X154177379Y-94106403D01*
X154177372Y-94106401D01*
X154117844Y-94100000D01*
X153920000Y-94100000D01*
X153920000Y-94950000D01*
X153420000Y-94950000D01*
X153420000Y-94100000D01*
X153222155Y-94100000D01*
X153162627Y-94106401D01*
X153162620Y-94106403D01*
X153027913Y-94156645D01*
X153027906Y-94156649D01*
X152912812Y-94242809D01*
X152912809Y-94242812D01*
X152826649Y-94357906D01*
X152826645Y-94357913D01*
X152776403Y-94492620D01*
X152776401Y-94492627D01*
X152770000Y-94552155D01*
X151217790Y-94552155D01*
X152951853Y-92818093D01*
X153013176Y-92784608D01*
X153039534Y-92781774D01*
X154743031Y-92781774D01*
X154795391Y-92794888D01*
X154795749Y-92794027D01*
X154801375Y-92796357D01*
X154801376Y-92796358D01*
X154937958Y-92852932D01*
X154937962Y-92852932D01*
X154937963Y-92852933D01*
X155082950Y-92881774D01*
X155082953Y-92881774D01*
X155230791Y-92881774D01*
X155328333Y-92862370D01*
X155375784Y-92852932D01*
X155512366Y-92796358D01*
X155635287Y-92714225D01*
X155739822Y-92609690D01*
X155821955Y-92486769D01*
X155831494Y-92463741D01*
X155858266Y-92399106D01*
X155878529Y-92350187D01*
X155907371Y-92205192D01*
X155907371Y-92057356D01*
X155907371Y-92057353D01*
X155878530Y-91912366D01*
X155878529Y-91912365D01*
X155878529Y-91912361D01*
X155877595Y-91910106D01*
X155821958Y-91775785D01*
X155821951Y-91775772D01*
X155739822Y-91652858D01*
X155739819Y-91652854D01*
X155635287Y-91548322D01*
X155536128Y-91482067D01*
X155491323Y-91428455D01*
X155482616Y-91359130D01*
X155501919Y-91310072D01*
X155520535Y-91282211D01*
X155520535Y-91282210D01*
X155520541Y-91282202D01*
X155529771Y-91259920D01*
X155558410Y-91190777D01*
X155577115Y-91145620D01*
X155590386Y-91078904D01*
X155605957Y-91000627D01*
X155605957Y-90950151D01*
X155625642Y-90883112D01*
X155678446Y-90837357D01*
X155747604Y-90827413D01*
X155811160Y-90856438D01*
X155833059Y-90881261D01*
X155877086Y-90947152D01*
X155877092Y-90947160D01*
X155981621Y-91051689D01*
X155981625Y-91051692D01*
X156104539Y-91133821D01*
X156104552Y-91133828D01*
X156241123Y-91190397D01*
X156241128Y-91190399D01*
X156241132Y-91190399D01*
X156241133Y-91190400D01*
X156386120Y-91219241D01*
X156386123Y-91219241D01*
X156533961Y-91219241D01*
X156631503Y-91199837D01*
X156678954Y-91190399D01*
X156802475Y-91139235D01*
X156815529Y-91133828D01*
X156815529Y-91133827D01*
X156815536Y-91133825D01*
X156938457Y-91051692D01*
X157042992Y-90947157D01*
X157125125Y-90824236D01*
X157136843Y-90795943D01*
X157163719Y-90755718D01*
X157375995Y-90543444D01*
X157381358Y-90535416D01*
X157402430Y-90517805D01*
X157421135Y-90497695D01*
X157428854Y-90495720D01*
X157434968Y-90490611D01*
X157462220Y-90487187D01*
X157488826Y-90480383D01*
X157499501Y-90482503D01*
X157504293Y-90481902D01*
X157523562Y-90486632D01*
X157525689Y-90487338D01*
X157554517Y-90498091D01*
X157559735Y-90498652D01*
X157571954Y-90502712D01*
X157596315Y-90519608D01*
X157622078Y-90534276D01*
X157624706Y-90539300D01*
X157629366Y-90542532D01*
X157640726Y-90569919D01*
X157654468Y-90596185D01*
X157654468Y-90603049D01*
X157656136Y-90607070D01*
X157654468Y-90616336D01*
X157654470Y-90644577D01*
X157624485Y-90795319D01*
X157624485Y-90795324D01*
X157624485Y-90943160D01*
X157624485Y-90943162D01*
X157624484Y-90943162D01*
X157653325Y-91088149D01*
X157653328Y-91088159D01*
X157709897Y-91224730D01*
X157709904Y-91224743D01*
X157792033Y-91347657D01*
X157792036Y-91347661D01*
X157896565Y-91452190D01*
X157896569Y-91452193D01*
X158019483Y-91534322D01*
X158019496Y-91534329D01*
X158156067Y-91590898D01*
X158156072Y-91590900D01*
X158156076Y-91590900D01*
X158156077Y-91590901D01*
X158301064Y-91619742D01*
X158301067Y-91619742D01*
X158448905Y-91619742D01*
X158564524Y-91596743D01*
X158593898Y-91590900D01*
X158713158Y-91541501D01*
X158730473Y-91534329D01*
X158730473Y-91534328D01*
X158730480Y-91534326D01*
X158853401Y-91452193D01*
X158957936Y-91347658D01*
X159040069Y-91224737D01*
X159096643Y-91088155D01*
X159118550Y-90978026D01*
X159125485Y-90943162D01*
X159125485Y-90795321D01*
X159097113Y-90652691D01*
X159103340Y-90583099D01*
X159146203Y-90527922D01*
X159212092Y-90504677D01*
X159218730Y-90504499D01*
X159409871Y-90504499D01*
X159409872Y-90504499D01*
X159469483Y-90498091D01*
X159604331Y-90447796D01*
X159633692Y-90425815D01*
X159635842Y-90425013D01*
X159637283Y-90423226D01*
X159668419Y-90412862D01*
X159699156Y-90401398D01*
X159701399Y-90401885D01*
X159703577Y-90401161D01*
X159735367Y-90409274D01*
G37*
G04 #@! TD.AperFunction*
G04 #@! TA.AperFunction,Conductor*
G36*
X150805702Y-102565383D02*
G01*
X150812180Y-102571415D01*
X153033181Y-104792416D01*
X153066666Y-104853739D01*
X153069500Y-104880097D01*
X153069500Y-105263819D01*
X153049815Y-105330858D01*
X153019812Y-105363085D01*
X152912452Y-105443455D01*
X152826206Y-105558664D01*
X152826202Y-105558671D01*
X152775908Y-105693517D01*
X152773718Y-105713891D01*
X152769500Y-105753127D01*
X152769500Y-106255135D01*
X152769501Y-106682500D01*
X152749817Y-106749539D01*
X152697013Y-106795294D01*
X152645501Y-106806500D01*
X150764500Y-106806500D01*
X150697461Y-106786815D01*
X150651706Y-106734011D01*
X150640500Y-106682500D01*
X150640499Y-105532129D01*
X150640498Y-105532123D01*
X150639301Y-105520989D01*
X150634091Y-105472517D01*
X150623251Y-105443454D01*
X150583797Y-105337671D01*
X150583793Y-105337664D01*
X150497547Y-105222455D01*
X150497544Y-105222452D01*
X150382335Y-105136206D01*
X150382328Y-105136202D01*
X150247482Y-105085908D01*
X150247483Y-105085908D01*
X150187883Y-105079501D01*
X150187881Y-105079500D01*
X150187873Y-105079500D01*
X150187864Y-105079500D01*
X148592129Y-105079500D01*
X148592123Y-105079501D01*
X148532516Y-105085908D01*
X148397671Y-105136202D01*
X148397669Y-105136203D01*
X148370622Y-105156451D01*
X148305157Y-105180867D01*
X148236884Y-105166015D01*
X148187479Y-105116609D01*
X148181755Y-105104646D01*
X148176465Y-105091873D01*
X148172480Y-105085909D01*
X148159013Y-105065753D01*
X148105275Y-104985328D01*
X147354673Y-104234726D01*
X147319589Y-104211284D01*
X147248127Y-104163535D01*
X147248125Y-104163534D01*
X147243062Y-104160151D01*
X147243813Y-104159026D01*
X147198888Y-104114896D01*
X147183427Y-104046758D01*
X147207258Y-103981079D01*
X147262816Y-103938710D01*
X147307185Y-103930500D01*
X147975501Y-103930500D01*
X148042540Y-103950185D01*
X148088295Y-104002989D01*
X148099501Y-104054500D01*
X148099501Y-104077876D01*
X148105908Y-104137483D01*
X148156202Y-104272328D01*
X148156206Y-104272335D01*
X148242452Y-104387544D01*
X148242455Y-104387547D01*
X148357664Y-104473793D01*
X148357671Y-104473797D01*
X148492517Y-104524091D01*
X148492516Y-104524091D01*
X148499444Y-104524835D01*
X148552127Y-104530500D01*
X150147872Y-104530499D01*
X150207483Y-104524091D01*
X150342331Y-104473796D01*
X150457546Y-104387546D01*
X150543796Y-104272331D01*
X150594091Y-104137483D01*
X150600500Y-104077873D01*
X150600499Y-102659095D01*
X150620184Y-102592057D01*
X150672987Y-102546302D01*
X150742146Y-102536358D01*
X150805702Y-102565383D01*
G37*
G04 #@! TD.AperFunction*
G04 #@! TA.AperFunction,Conductor*
G36*
X145791620Y-103395007D02*
G01*
X145792767Y-103394820D01*
X145823844Y-103408300D01*
X145855137Y-103421210D01*
X145856286Y-103422373D01*
X145856866Y-103422625D01*
X145857563Y-103423666D01*
X145868866Y-103435107D01*
X145868943Y-103435031D01*
X145987665Y-103553753D01*
X145987670Y-103553757D01*
X146124929Y-103636732D01*
X146124933Y-103636734D01*
X146179100Y-103653612D01*
X146278067Y-103684452D01*
X146344619Y-103690500D01*
X146444690Y-103690499D01*
X146467073Y-103697071D01*
X146490309Y-103699195D01*
X146503250Y-103707693D01*
X146511728Y-103710183D01*
X146520946Y-103716718D01*
X146526969Y-103721415D01*
X146590831Y-103785277D01*
X146697374Y-103856466D01*
X146703274Y-103858909D01*
X146714570Y-103867719D01*
X146728985Y-103887789D01*
X146746612Y-103905105D01*
X146749008Y-103915669D01*
X146755329Y-103924469D01*
X146756604Y-103949146D01*
X146762072Y-103973243D01*
X146758376Y-103983426D01*
X146758936Y-103994245D01*
X146746668Y-104015692D01*
X146738240Y-104038922D01*
X146729625Y-104045491D01*
X146724247Y-104054895D01*
X146702331Y-104066306D01*
X146682682Y-104081291D01*
X146668520Y-104083911D01*
X146662275Y-104087163D01*
X146654691Y-104086469D01*
X146638314Y-104089500D01*
X145858989Y-104089500D01*
X145791950Y-104069815D01*
X145746195Y-104017011D01*
X145739913Y-104000095D01*
X145698283Y-103856806D01*
X145698282Y-103856803D01*
X145614685Y-103715447D01*
X145609900Y-103709278D01*
X145612366Y-103707364D01*
X145585802Y-103658776D01*
X145590749Y-103589082D01*
X145601376Y-103567320D01*
X145608994Y-103554951D01*
X145615081Y-103548865D01*
X145671335Y-103453743D01*
X145671892Y-103452840D01*
X145697059Y-103430175D01*
X145721806Y-103407069D01*
X145722947Y-103406861D01*
X145723811Y-103406084D01*
X145757255Y-103400620D01*
X145790548Y-103394565D01*
X145791620Y-103395007D01*
G37*
G04 #@! TD.AperFunction*
G04 #@! TA.AperFunction,Conductor*
G36*
X136867332Y-97053836D02*
G01*
X136911681Y-97082337D01*
X137616315Y-97786971D01*
X137643195Y-97827199D01*
X137654914Y-97855491D01*
X137654919Y-97855501D01*
X137737048Y-97978415D01*
X137737051Y-97978419D01*
X137841580Y-98082948D01*
X137841584Y-98082951D01*
X137964498Y-98165080D01*
X137964511Y-98165087D01*
X138098011Y-98220384D01*
X138101087Y-98221658D01*
X138101091Y-98221658D01*
X138101092Y-98221659D01*
X138246079Y-98250500D01*
X138246082Y-98250500D01*
X138393920Y-98250500D01*
X138491462Y-98231096D01*
X138538913Y-98221658D01*
X138675495Y-98165084D01*
X138703507Y-98146367D01*
X138736445Y-98124359D01*
X138803122Y-98103481D01*
X138870503Y-98121965D01*
X138893017Y-98139780D01*
X139763055Y-99009818D01*
X139796540Y-99071141D01*
X139791556Y-99140833D01*
X139749684Y-99196766D01*
X139684220Y-99221183D01*
X139675374Y-99221499D01*
X139558043Y-99221499D01*
X139492547Y-99239049D01*
X139405316Y-99262422D01*
X139372590Y-99281317D01*
X139372589Y-99281316D01*
X139268387Y-99341477D01*
X139268382Y-99341481D01*
X139156578Y-99453286D01*
X136495082Y-102114781D01*
X136433759Y-102148266D01*
X136407402Y-102151100D01*
X136236611Y-102151100D01*
X136170073Y-102157146D01*
X136170071Y-102157147D01*
X136170068Y-102157147D01*
X136170067Y-102157148D01*
X136160976Y-102159980D01*
X136153886Y-102162190D01*
X136084026Y-102163338D01*
X136024635Y-102126535D01*
X135994569Y-102063465D01*
X135993000Y-102043803D01*
X135993000Y-100425504D01*
X135971962Y-100319745D01*
X135970328Y-100311530D01*
X135966080Y-100290171D01*
X135942281Y-100232716D01*
X135925542Y-100192305D01*
X135913278Y-100162695D01*
X135913271Y-100162682D01*
X135836615Y-100047959D01*
X135799330Y-100010674D01*
X135739042Y-99950386D01*
X134894818Y-99106162D01*
X134861333Y-99044839D01*
X134858499Y-99018481D01*
X134858499Y-97754129D01*
X134858498Y-97754123D01*
X134854994Y-97721528D01*
X134852091Y-97694517D01*
X134830862Y-97637600D01*
X134801797Y-97559671D01*
X134801796Y-97559669D01*
X134759232Y-97502811D01*
X134734815Y-97437347D01*
X134749666Y-97369074D01*
X134799071Y-97319668D01*
X134858499Y-97304500D01*
X136292996Y-97304500D01*
X136386240Y-97285952D01*
X136428328Y-97277580D01*
X136492069Y-97251177D01*
X136555807Y-97224777D01*
X136555808Y-97224776D01*
X136555811Y-97224775D01*
X136670543Y-97148114D01*
X136736319Y-97082337D01*
X136797640Y-97048852D01*
X136867332Y-97053836D01*
G37*
G04 #@! TD.AperFunction*
G04 #@! TA.AperFunction,Conductor*
G36*
X124861811Y-99532785D02*
G01*
X124907566Y-99585589D01*
X124917510Y-99654747D01*
X124916389Y-99661292D01*
X124912900Y-99678831D01*
X124912900Y-99846371D01*
X124945582Y-100010674D01*
X124945584Y-100010682D01*
X124999481Y-100140801D01*
X125006950Y-100210271D01*
X124999481Y-100235707D01*
X124946065Y-100364663D01*
X124946063Y-100364671D01*
X124913400Y-100528877D01*
X124913400Y-100696322D01*
X124946063Y-100860528D01*
X124946066Y-100860540D01*
X124988997Y-100964186D01*
X124996466Y-101033656D01*
X124965190Y-101096135D01*
X124938190Y-101116916D01*
X124938471Y-101117336D01*
X124777810Y-101224686D01*
X124777806Y-101224689D01*
X124645489Y-101357006D01*
X124645486Y-101357010D01*
X124541524Y-101512599D01*
X124541519Y-101512608D01*
X124469907Y-101685496D01*
X124469906Y-101685499D01*
X124464515Y-101712599D01*
X124464516Y-101712600D01*
X125216412Y-101712600D01*
X125199195Y-101722540D01*
X125143340Y-101778395D01*
X125103844Y-101846804D01*
X125083400Y-101923104D01*
X125083400Y-102002096D01*
X125103844Y-102078396D01*
X125140855Y-102142500D01*
X123395945Y-102142500D01*
X123432956Y-102078396D01*
X123453400Y-102002096D01*
X123453400Y-101923104D01*
X123432956Y-101846804D01*
X123393460Y-101778395D01*
X123337605Y-101722540D01*
X123320388Y-101712600D01*
X124072284Y-101712600D01*
X124072284Y-101712599D01*
X124066893Y-101685499D01*
X124066892Y-101685496D01*
X123995280Y-101512608D01*
X123995275Y-101512599D01*
X123891313Y-101357010D01*
X123891310Y-101357006D01*
X123758993Y-101224689D01*
X123758989Y-101224686D01*
X123603400Y-101120724D01*
X123603391Y-101120719D01*
X123430505Y-101049108D01*
X123430497Y-101049106D01*
X123345219Y-101032143D01*
X123283308Y-100999758D01*
X123248734Y-100939043D01*
X123252473Y-100869273D01*
X123281726Y-100822848D01*
X124555157Y-99549419D01*
X124582084Y-99534715D01*
X124607903Y-99518123D01*
X124614103Y-99517231D01*
X124616480Y-99515934D01*
X124642838Y-99513100D01*
X124794772Y-99513100D01*
X124861811Y-99532785D01*
G37*
G04 #@! TD.AperFunction*
G04 #@! TA.AperFunction,Conductor*
G36*
X127427196Y-100587414D02*
G01*
X127469477Y-100615123D01*
X127924952Y-101070599D01*
X127924953Y-101070600D01*
X128451800Y-101070600D01*
X128518839Y-101090285D01*
X128564594Y-101143089D01*
X128575800Y-101194600D01*
X128575800Y-101446600D01*
X128556115Y-101513639D01*
X128503311Y-101559394D01*
X128451800Y-101570600D01*
X127669800Y-101570600D01*
X127602761Y-101550915D01*
X127557006Y-101498111D01*
X127545800Y-101446600D01*
X127545800Y-101398553D01*
X127113400Y-100966153D01*
X126684893Y-101394660D01*
X126623570Y-101428145D01*
X126553878Y-101423161D01*
X126509531Y-101394660D01*
X126438400Y-101323529D01*
X126367268Y-101394661D01*
X126305945Y-101428145D01*
X126236253Y-101423161D01*
X126191906Y-101394660D01*
X125674304Y-100877057D01*
X125669965Y-100869111D01*
X125662717Y-100863685D01*
X125653482Y-100838925D01*
X125640819Y-100815734D01*
X125641464Y-100806703D01*
X125638301Y-100798221D01*
X125643281Y-100775324D01*
X125650109Y-100782152D01*
X125723618Y-100812600D01*
X125803182Y-100812600D01*
X125876691Y-100782152D01*
X125932952Y-100725891D01*
X125963400Y-100652382D01*
X125963400Y-100589980D01*
X126007604Y-100581187D01*
X126077195Y-100587414D01*
X126119476Y-100615123D01*
X126438400Y-100934046D01*
X126438401Y-100934046D01*
X126757323Y-100615123D01*
X126818646Y-100581638D01*
X126869194Y-100581187D01*
X126913400Y-100589980D01*
X126913400Y-100652382D01*
X126943848Y-100725891D01*
X127000109Y-100782152D01*
X127073618Y-100812600D01*
X127153182Y-100812600D01*
X127226691Y-100782152D01*
X127282952Y-100725891D01*
X127313400Y-100652382D01*
X127313400Y-100589980D01*
X127357605Y-100581187D01*
X127427196Y-100587414D01*
G37*
G04 #@! TD.AperFunction*
G04 #@! TA.AperFunction,Conductor*
G36*
X134491695Y-87478312D02*
G01*
X134558732Y-87498000D01*
X134604485Y-87550806D01*
X134614425Y-87619964D01*
X134585397Y-87683519D01*
X134579369Y-87689993D01*
X134347522Y-87921841D01*
X134286199Y-87955326D01*
X134221523Y-87952091D01*
X134179245Y-87938354D01*
X134039272Y-87916184D01*
X133969287Y-87905100D01*
X133756713Y-87905100D01*
X133708042Y-87912808D01*
X133546760Y-87938353D01*
X133534135Y-87942455D01*
X133360260Y-87998951D01*
X133344585Y-88004044D01*
X133155179Y-88100551D01*
X132983213Y-88225490D01*
X132832890Y-88375813D01*
X132707951Y-88547779D01*
X132611444Y-88737185D01*
X132611443Y-88737187D01*
X132611443Y-88737188D01*
X132609725Y-88742474D01*
X132545753Y-88939360D01*
X132532090Y-89025628D01*
X132512500Y-89149313D01*
X132512500Y-89361887D01*
X132515148Y-89378603D01*
X132540600Y-89539306D01*
X132545754Y-89571843D01*
X132607143Y-89760779D01*
X132611444Y-89774014D01*
X132707951Y-89963420D01*
X132832890Y-90135386D01*
X132983213Y-90285709D01*
X133155179Y-90410648D01*
X133155181Y-90410649D01*
X133155184Y-90410651D01*
X133344588Y-90507157D01*
X133546757Y-90572846D01*
X133756713Y-90606100D01*
X133756714Y-90606100D01*
X133969286Y-90606100D01*
X133969287Y-90606100D01*
X134114509Y-90583099D01*
X134184055Y-90572084D01*
X134184315Y-90573728D01*
X134246852Y-90576850D01*
X134293711Y-90606257D01*
X134935273Y-91247819D01*
X134968758Y-91309142D01*
X134963774Y-91378834D01*
X134921902Y-91434767D01*
X134856438Y-91459184D01*
X134847592Y-91459500D01*
X132615929Y-91459500D01*
X132502920Y-91481980D01*
X132490256Y-91484499D01*
X132490255Y-91484499D01*
X132371874Y-91533534D01*
X132265326Y-91604726D01*
X129880654Y-93989398D01*
X129834357Y-94017149D01*
X129834714Y-94018011D01*
X129692507Y-94076914D01*
X129692498Y-94076919D01*
X129569584Y-94159048D01*
X129569580Y-94159051D01*
X129465051Y-94263580D01*
X129465048Y-94263584D01*
X129382919Y-94386498D01*
X129382912Y-94386511D01*
X129326343Y-94523082D01*
X129326340Y-94523092D01*
X129297500Y-94668079D01*
X129297500Y-94721269D01*
X129277815Y-94788308D01*
X129225011Y-94834063D01*
X129155853Y-94844007D01*
X129126048Y-94835830D01*
X128996917Y-94782343D01*
X128996907Y-94782340D01*
X128851920Y-94753500D01*
X128851918Y-94753500D01*
X128704082Y-94753500D01*
X128704080Y-94753500D01*
X128559092Y-94782340D01*
X128559082Y-94782343D01*
X128422509Y-94838913D01*
X128422504Y-94838916D01*
X128419082Y-94841203D01*
X128352405Y-94862080D01*
X128350193Y-94862100D01*
X128087400Y-94862100D01*
X128020361Y-94842415D01*
X127974606Y-94789611D01*
X127963400Y-94738100D01*
X127963400Y-94578879D01*
X127963399Y-94578877D01*
X127930736Y-94414671D01*
X127930734Y-94414663D01*
X127867514Y-94262037D01*
X127469476Y-94660076D01*
X127408153Y-94693561D01*
X127357604Y-94694012D01*
X127313400Y-94685219D01*
X127313400Y-94622818D01*
X127282952Y-94549309D01*
X127226691Y-94493048D01*
X127153182Y-94462600D01*
X127073618Y-94462600D01*
X127000109Y-94493048D01*
X126943848Y-94549309D01*
X126913400Y-94622818D01*
X126913400Y-94685218D01*
X126869194Y-94694012D01*
X126799602Y-94687785D01*
X126757322Y-94660076D01*
X126438401Y-94341153D01*
X126438400Y-94341153D01*
X126119476Y-94660076D01*
X126114714Y-94662675D01*
X126111719Y-94667201D01*
X126084372Y-94679243D01*
X126058153Y-94693561D01*
X126051420Y-94693755D01*
X126047775Y-94695361D01*
X126023780Y-94694555D01*
X126012484Y-94694882D01*
X126010028Y-94694494D01*
X125963400Y-94685219D01*
X125963400Y-94622818D01*
X125932952Y-94549309D01*
X125876691Y-94493048D01*
X125803182Y-94462600D01*
X125723618Y-94462600D01*
X125650109Y-94493048D01*
X125641577Y-94501579D01*
X125645803Y-94442489D01*
X125674304Y-94398142D01*
X126191906Y-93880539D01*
X126253229Y-93847054D01*
X126322920Y-93852038D01*
X126367268Y-93880538D01*
X126438400Y-93951669D01*
X126509531Y-93880539D01*
X126570854Y-93847054D01*
X126640546Y-93852038D01*
X126684893Y-93880539D01*
X127113399Y-94309045D01*
X127543090Y-93879355D01*
X127604413Y-93845870D01*
X127618618Y-93843633D01*
X127674828Y-93838097D01*
X127725280Y-93762591D01*
X127796892Y-93589703D01*
X127796893Y-93589700D01*
X127802284Y-93562600D01*
X127050388Y-93562600D01*
X127067605Y-93552660D01*
X127123460Y-93496805D01*
X127162956Y-93428396D01*
X127183400Y-93352096D01*
X127183400Y-93273104D01*
X127162956Y-93196804D01*
X127123460Y-93128395D01*
X127067605Y-93072540D01*
X127050388Y-93062600D01*
X127802284Y-93062600D01*
X127802284Y-93062599D01*
X127796893Y-93035499D01*
X127796892Y-93035496D01*
X127725280Y-92862608D01*
X127725275Y-92862599D01*
X127621313Y-92707010D01*
X127621310Y-92707006D01*
X127488993Y-92574689D01*
X127488989Y-92574686D01*
X127333400Y-92470724D01*
X127333391Y-92470719D01*
X127160505Y-92399108D01*
X127160497Y-92399106D01*
X126976970Y-92362600D01*
X126383400Y-92362600D01*
X126383400Y-93012600D01*
X125883400Y-93012600D01*
X125883400Y-92362600D01*
X125289830Y-92362600D01*
X125106302Y-92399106D01*
X125106294Y-92399108D01*
X124933408Y-92470719D01*
X124933399Y-92470724D01*
X124777810Y-92574686D01*
X124777806Y-92574689D01*
X124645489Y-92707006D01*
X124645486Y-92707010D01*
X124541524Y-92862599D01*
X124541519Y-92862608D01*
X124469907Y-93035496D01*
X124469906Y-93035499D01*
X124464515Y-93062599D01*
X124464516Y-93062600D01*
X125216412Y-93062600D01*
X125199195Y-93072540D01*
X125143340Y-93128395D01*
X125103844Y-93196804D01*
X125083400Y-93273104D01*
X125083400Y-93352096D01*
X125103844Y-93428396D01*
X125143340Y-93496805D01*
X125199195Y-93552660D01*
X125216412Y-93562600D01*
X124464516Y-93562600D01*
X124469906Y-93589700D01*
X124469907Y-93589703D01*
X124541519Y-93762591D01*
X124541524Y-93762600D01*
X124645486Y-93918189D01*
X124645489Y-93918193D01*
X124777806Y-94050510D01*
X124777810Y-94050513D01*
X124938471Y-94157864D01*
X124937733Y-94158967D01*
X124982724Y-94203146D01*
X124998196Y-94271281D01*
X124988998Y-94311013D01*
X124946066Y-94414659D01*
X124946063Y-94414671D01*
X124913400Y-94578877D01*
X124913400Y-94746322D01*
X124946063Y-94910528D01*
X124946065Y-94910536D01*
X124999481Y-95039493D01*
X125006950Y-95108963D01*
X124999481Y-95134399D01*
X124945584Y-95264517D01*
X124945582Y-95264525D01*
X124912900Y-95428828D01*
X124912900Y-95596371D01*
X124945582Y-95760674D01*
X124945585Y-95760686D01*
X124999210Y-95890148D01*
X125006679Y-95959617D01*
X124999210Y-95985052D01*
X124945585Y-96114513D01*
X124945582Y-96114525D01*
X124912900Y-96278828D01*
X124912900Y-96446371D01*
X124945582Y-96610674D01*
X124945585Y-96610686D01*
X124999210Y-96740148D01*
X125006679Y-96809617D01*
X124999210Y-96835052D01*
X124945585Y-96964513D01*
X124945582Y-96964525D01*
X124912900Y-97128828D01*
X124912900Y-97296371D01*
X124945582Y-97460674D01*
X124945585Y-97460686D01*
X124999210Y-97590148D01*
X125006679Y-97659617D01*
X124999210Y-97685052D01*
X124945585Y-97814513D01*
X124945582Y-97814525D01*
X124912900Y-97978828D01*
X124912900Y-98146368D01*
X124916389Y-98163908D01*
X124910162Y-98233500D01*
X124867300Y-98288677D01*
X124801410Y-98311922D01*
X124794772Y-98312100D01*
X124429410Y-98312100D01*
X124429394Y-98312099D01*
X124421798Y-98312099D01*
X124263683Y-98312099D01*
X124187319Y-98332561D01*
X124110954Y-98353023D01*
X124110949Y-98353026D01*
X123974030Y-98432075D01*
X123974022Y-98432081D01*
X121210649Y-101195455D01*
X121149326Y-101228940D01*
X121079634Y-101223956D01*
X121023701Y-101182084D01*
X120999284Y-101116620D01*
X120998968Y-101107774D01*
X120998968Y-93062599D01*
X121434515Y-93062599D01*
X121434516Y-93062600D01*
X122186412Y-93062600D01*
X122169195Y-93072540D01*
X122113340Y-93128395D01*
X122073844Y-93196804D01*
X122053400Y-93273104D01*
X122053400Y-93352096D01*
X122073844Y-93428396D01*
X122113340Y-93496805D01*
X122169195Y-93552660D01*
X122186412Y-93562600D01*
X121434516Y-93562600D01*
X121439906Y-93589700D01*
X121439907Y-93589703D01*
X121511519Y-93762591D01*
X121511524Y-93762600D01*
X121615486Y-93918189D01*
X121615489Y-93918193D01*
X121747806Y-94050510D01*
X121747810Y-94050513D01*
X121903399Y-94154475D01*
X121903408Y-94154480D01*
X122076294Y-94226091D01*
X122076302Y-94226093D01*
X122259828Y-94262599D01*
X122259831Y-94262600D01*
X122503400Y-94262600D01*
X122503400Y-93612600D01*
X123003400Y-93612600D01*
X123003400Y-94262600D01*
X123246969Y-94262600D01*
X123246971Y-94262599D01*
X123430497Y-94226093D01*
X123430505Y-94226091D01*
X123603391Y-94154480D01*
X123603400Y-94154475D01*
X123758989Y-94050513D01*
X123758993Y-94050510D01*
X123891310Y-93918193D01*
X123891313Y-93918189D01*
X123995275Y-93762600D01*
X123995280Y-93762591D01*
X124066892Y-93589703D01*
X124066893Y-93589700D01*
X124072284Y-93562600D01*
X123320388Y-93562600D01*
X123337605Y-93552660D01*
X123393460Y-93496805D01*
X123432956Y-93428396D01*
X123453400Y-93352096D01*
X123453400Y-93273104D01*
X123432956Y-93196804D01*
X123393460Y-93128395D01*
X123337605Y-93072540D01*
X123320388Y-93062600D01*
X124072284Y-93062600D01*
X124072284Y-93062599D01*
X124066893Y-93035499D01*
X124066892Y-93035496D01*
X123995280Y-92862608D01*
X123995275Y-92862599D01*
X123891313Y-92707010D01*
X123891310Y-92707006D01*
X123758993Y-92574689D01*
X123758989Y-92574686D01*
X123603400Y-92470724D01*
X123603391Y-92470719D01*
X123430505Y-92399108D01*
X123430497Y-92399106D01*
X123246970Y-92362600D01*
X123003400Y-92362600D01*
X123003400Y-93012600D01*
X122503400Y-93012600D01*
X122503400Y-92362600D01*
X122259830Y-92362600D01*
X122076302Y-92399106D01*
X122076294Y-92399108D01*
X121903408Y-92470719D01*
X121903399Y-92470724D01*
X121747810Y-92574686D01*
X121747806Y-92574689D01*
X121615489Y-92707006D01*
X121615486Y-92707010D01*
X121511524Y-92862599D01*
X121511519Y-92862608D01*
X121439907Y-93035496D01*
X121439906Y-93035499D01*
X121434515Y-93062599D01*
X120998968Y-93062599D01*
X120998968Y-91922888D01*
X121018653Y-91855849D01*
X121071457Y-91810094D01*
X121122944Y-91798888D01*
X123764549Y-91798428D01*
X125500817Y-91798127D01*
X125500953Y-91798100D01*
X125595930Y-91798100D01*
X125595933Y-91798100D01*
X125833357Y-91763964D01*
X126063507Y-91696386D01*
X126109991Y-91675157D01*
X126118515Y-91672389D01*
X126139778Y-91661554D01*
X126281697Y-91596744D01*
X126338026Y-91560543D01*
X126353262Y-91552782D01*
X126377456Y-91535203D01*
X126483485Y-91467064D01*
X126547031Y-91412001D01*
X126566407Y-91397925D01*
X126586719Y-91377612D01*
X126664765Y-91309987D01*
X126732402Y-91231930D01*
X126752704Y-91211631D01*
X126766775Y-91192262D01*
X126821845Y-91128710D01*
X126889996Y-91022668D01*
X126907565Y-90998488D01*
X126915326Y-90983253D01*
X126951529Y-90926924D01*
X127016351Y-90784987D01*
X127027177Y-90763744D01*
X127029944Y-90755224D01*
X127051176Y-90708736D01*
X127118757Y-90478587D01*
X127152897Y-90241164D01*
X127152898Y-90171346D01*
X127152943Y-90119710D01*
X127152983Y-90119572D01*
X127152962Y-90117663D01*
X127156512Y-89915248D01*
X128391900Y-89915248D01*
X128391900Y-90119952D01*
X128394782Y-90138148D01*
X128423922Y-90322134D01*
X128487181Y-90516823D01*
X128580115Y-90699213D01*
X128700428Y-90864813D01*
X128845186Y-91009571D01*
X128975843Y-91104497D01*
X129010790Y-91129887D01*
X129125289Y-91188227D01*
X129193176Y-91222818D01*
X129193178Y-91222818D01*
X129193181Y-91222820D01*
X129270120Y-91247819D01*
X129387865Y-91286077D01*
X129488957Y-91302088D01*
X129590048Y-91318100D01*
X129590049Y-91318100D01*
X129794751Y-91318100D01*
X129794752Y-91318100D01*
X129996934Y-91286077D01*
X130191619Y-91222820D01*
X130374010Y-91129887D01*
X130515242Y-91027277D01*
X130539613Y-91009571D01*
X130539615Y-91009568D01*
X130539619Y-91009566D01*
X130684366Y-90864819D01*
X130684368Y-90864815D01*
X130684371Y-90864813D01*
X130742328Y-90785040D01*
X130804687Y-90699210D01*
X130897620Y-90516819D01*
X130960877Y-90322134D01*
X130992900Y-90119952D01*
X130992900Y-89915248D01*
X130986759Y-89876478D01*
X130960877Y-89713065D01*
X130915466Y-89573306D01*
X130897620Y-89518381D01*
X130897618Y-89518378D01*
X130897618Y-89518376D01*
X130837173Y-89399748D01*
X130804687Y-89335990D01*
X130758646Y-89272619D01*
X130684371Y-89170386D01*
X130539613Y-89025628D01*
X130374013Y-88905315D01*
X130374012Y-88905314D01*
X130374010Y-88905313D01*
X130262970Y-88848735D01*
X130191623Y-88812381D01*
X129996934Y-88749122D01*
X129822395Y-88721478D01*
X129794752Y-88717100D01*
X129590048Y-88717100D01*
X129565729Y-88720951D01*
X129387865Y-88749122D01*
X129193176Y-88812381D01*
X129010786Y-88905315D01*
X128845186Y-89025628D01*
X128700428Y-89170386D01*
X128580115Y-89335986D01*
X128487181Y-89518376D01*
X128423922Y-89713065D01*
X128393136Y-89907442D01*
X128391900Y-89915248D01*
X127156512Y-89915248D01*
X127157477Y-89860231D01*
X127157889Y-89852100D01*
X127162672Y-89795240D01*
X127163308Y-89789381D01*
X127193409Y-89563702D01*
X127194978Y-89554576D01*
X127205406Y-89505124D01*
X127206516Y-89500335D01*
X127264097Y-89272597D01*
X127267060Y-89262655D01*
X127279223Y-89227345D01*
X127280463Y-89223921D01*
X127368785Y-88991186D01*
X127373346Y-88980668D01*
X127377841Y-88971494D01*
X127378960Y-88969274D01*
X127503098Y-88729517D01*
X127510352Y-88717285D01*
X127665683Y-88486703D01*
X127674292Y-88475386D01*
X127855059Y-88264170D01*
X127864918Y-88253909D01*
X128068731Y-88064848D01*
X128079706Y-88055783D01*
X128303877Y-87891372D01*
X128315822Y-87883626D01*
X128550404Y-87750012D01*
X128552608Y-87748789D01*
X128561583Y-87743937D01*
X128571909Y-87738960D01*
X128800890Y-87641419D01*
X128804316Y-87640021D01*
X128839105Y-87626459D01*
X128848921Y-87623101D01*
X129074226Y-87556446D01*
X129078844Y-87555178D01*
X129127906Y-87542765D01*
X129136962Y-87540833D01*
X129361238Y-87501737D01*
X129367126Y-87500858D01*
X129423687Y-87493814D01*
X129431792Y-87493077D01*
X129688289Y-87478304D01*
X129695409Y-87478100D01*
X134491695Y-87478312D01*
G37*
G04 #@! TD.AperFunction*
G04 #@! TA.AperFunction,Conductor*
G36*
X135678766Y-95351267D02*
G01*
X135687605Y-95356494D01*
X135687608Y-95356494D01*
X135687610Y-95356496D01*
X135843002Y-95401642D01*
X135843005Y-95401642D01*
X135843007Y-95401643D01*
X135879310Y-95404500D01*
X135966156Y-95404500D01*
X135995596Y-95413144D01*
X136025583Y-95419668D01*
X136030598Y-95423422D01*
X136033195Y-95424185D01*
X136053837Y-95440819D01*
X136077681Y-95464663D01*
X136111166Y-95525986D01*
X136114000Y-95552344D01*
X136114000Y-95671981D01*
X136094315Y-95739020D01*
X136077681Y-95759662D01*
X136039662Y-95797681D01*
X135978339Y-95831166D01*
X135951981Y-95834000D01*
X135309495Y-95834000D01*
X135294515Y-95853952D01*
X135238522Y-95895743D01*
X135195354Y-95903500D01*
X134944435Y-95903500D01*
X134877396Y-95883815D01*
X134831641Y-95831011D01*
X134821697Y-95761853D01*
X134823464Y-95752262D01*
X134825801Y-95741879D01*
X134833658Y-95722913D01*
X134860832Y-95586300D01*
X134861179Y-95584762D01*
X134877406Y-95555550D01*
X134892918Y-95525897D01*
X134894324Y-95525096D01*
X134895109Y-95523684D01*
X134924553Y-95507882D01*
X134953634Y-95491323D01*
X134955903Y-95491058D01*
X134956674Y-95490645D01*
X134958331Y-95490775D01*
X134982150Y-95488000D01*
X135174000Y-95488000D01*
X135174000Y-95458000D01*
X135193685Y-95390961D01*
X135246489Y-95345206D01*
X135298000Y-95334000D01*
X135615648Y-95334000D01*
X135678766Y-95351267D01*
G37*
G04 #@! TD.AperFunction*
G04 #@! TA.AperFunction,Conductor*
G36*
X135029414Y-92780185D02*
G01*
X135050056Y-92796819D01*
X135429056Y-93175819D01*
X135462541Y-93237142D01*
X135457557Y-93306834D01*
X135415685Y-93362767D01*
X135350221Y-93387184D01*
X135341375Y-93387500D01*
X134932005Y-93387500D01*
X134796677Y-93414418D01*
X134796671Y-93414420D01*
X134669189Y-93467224D01*
X134669180Y-93467229D01*
X134661436Y-93472404D01*
X134648308Y-93477166D01*
X134640006Y-93483858D01*
X134605808Y-93492587D01*
X134601158Y-93493087D01*
X134577152Y-93493087D01*
X134577148Y-93493178D01*
X134575466Y-93493087D01*
X134574654Y-93493088D01*
X134573846Y-93493001D01*
X134570518Y-93492823D01*
X134570585Y-93491557D01*
X134535393Y-93481223D01*
X134532398Y-93480683D01*
X134531865Y-93480187D01*
X134508461Y-93473315D01*
X134462706Y-93420511D01*
X134451500Y-93369000D01*
X134451500Y-93301079D01*
X134422659Y-93156092D01*
X134422658Y-93156091D01*
X134422658Y-93156087D01*
X134408599Y-93122146D01*
X134366087Y-93019511D01*
X134366077Y-93019493D01*
X134321909Y-92953390D01*
X134301031Y-92886713D01*
X134319516Y-92819333D01*
X134371495Y-92772643D01*
X134425011Y-92760500D01*
X134962375Y-92760500D01*
X135029414Y-92780185D01*
G37*
G04 #@! TD.AperFunction*
G04 #@! TA.AperFunction,Conductor*
G36*
X152386942Y-88470185D02*
G01*
X152407584Y-88486819D01*
X152733181Y-88812416D01*
X152766666Y-88873739D01*
X152769500Y-88900097D01*
X152769500Y-89547870D01*
X152769501Y-89547876D01*
X152775908Y-89607483D01*
X152829303Y-89750641D01*
X152826692Y-89751614D01*
X152838512Y-89805944D01*
X152814096Y-89871409D01*
X152767141Y-89909525D01*
X152757352Y-89914079D01*
X152726215Y-89922423D01*
X152676095Y-89951360D01*
X152671363Y-89954091D01*
X152671363Y-89954092D01*
X152589285Y-90001479D01*
X152589282Y-90001481D01*
X150772180Y-91818584D01*
X150710857Y-91852069D01*
X150641165Y-91847085D01*
X150585232Y-91805213D01*
X150560815Y-91739749D01*
X150560499Y-91730903D01*
X150560499Y-90932129D01*
X150560498Y-90932123D01*
X150560497Y-90932116D01*
X150554091Y-90872517D01*
X150540977Y-90837357D01*
X150503797Y-90737671D01*
X150503793Y-90737664D01*
X150417547Y-90622455D01*
X150417544Y-90622452D01*
X150302335Y-90536206D01*
X150302328Y-90536202D01*
X150167482Y-90485908D01*
X150167483Y-90485908D01*
X150107883Y-90479501D01*
X150107881Y-90479500D01*
X150107873Y-90479500D01*
X150107864Y-90479500D01*
X148512129Y-90479500D01*
X148512123Y-90479501D01*
X148452516Y-90485908D01*
X148317671Y-90536202D01*
X148317664Y-90536206D01*
X148202455Y-90622452D01*
X148202452Y-90622455D01*
X148116206Y-90737664D01*
X148116202Y-90737671D01*
X148065908Y-90872517D01*
X148060060Y-90926918D01*
X148059501Y-90932123D01*
X148059500Y-90932135D01*
X148059500Y-90955500D01*
X148039815Y-91022539D01*
X147987011Y-91068294D01*
X147935500Y-91079500D01*
X147563429Y-91079500D01*
X147437761Y-91104497D01*
X147437755Y-91104499D01*
X147319370Y-91153535D01*
X147212831Y-91224722D01*
X147212824Y-91224728D01*
X145590851Y-92846701D01*
X145529528Y-92880186D01*
X145459836Y-92875202D01*
X145403903Y-92833330D01*
X145379486Y-92767866D01*
X145384094Y-92724424D01*
X145384703Y-92722328D01*
X145425598Y-92581569D01*
X145428500Y-92544694D01*
X145428500Y-92113306D01*
X145425598Y-92076431D01*
X145425597Y-92076426D01*
X145421312Y-92061677D01*
X145421511Y-91991808D01*
X145459453Y-91933138D01*
X145501334Y-91910106D01*
X145501286Y-91909989D01*
X145502348Y-91909548D01*
X145504405Y-91908418D01*
X145506901Y-91907660D01*
X145506913Y-91907658D01*
X145643495Y-91851084D01*
X145766416Y-91768951D01*
X145870951Y-91664416D01*
X145953084Y-91541495D01*
X145956054Y-91534326D01*
X145997292Y-91434767D01*
X146009658Y-91404913D01*
X146028540Y-91309989D01*
X146038500Y-91259920D01*
X146038500Y-91112079D01*
X146009659Y-90967092D01*
X146009658Y-90967091D01*
X146009658Y-90967087D01*
X145999747Y-90943160D01*
X145953087Y-90830511D01*
X145953077Y-90830493D01*
X145934299Y-90802389D01*
X145913421Y-90735712D01*
X145931906Y-90668332D01*
X145983885Y-90621642D01*
X146037397Y-90609499D01*
X146390380Y-90609499D01*
X146390388Y-90609499D01*
X146456926Y-90603453D01*
X146456927Y-90603452D01*
X146456933Y-90603452D01*
X146610069Y-90555733D01*
X146716208Y-90491570D01*
X146747329Y-90472757D01*
X146747336Y-90472752D01*
X146803839Y-90416249D01*
X146860753Y-90359335D01*
X146866866Y-90349224D01*
X146929066Y-90246331D01*
X146943733Y-90222069D01*
X146991452Y-90068933D01*
X146997500Y-90002381D01*
X146997499Y-89902306D01*
X147017183Y-89835269D01*
X147033809Y-89814635D01*
X147291628Y-89556816D01*
X147352950Y-89523334D01*
X147379308Y-89520500D01*
X147925501Y-89520500D01*
X147992540Y-89540185D01*
X148038295Y-89592989D01*
X148049501Y-89644500D01*
X148049501Y-89667876D01*
X148055908Y-89727483D01*
X148106202Y-89862328D01*
X148106206Y-89862335D01*
X148192452Y-89977544D01*
X148192455Y-89977547D01*
X148307664Y-90063793D01*
X148307671Y-90063797D01*
X148442517Y-90114091D01*
X148442516Y-90114091D01*
X148449444Y-90114835D01*
X148502127Y-90120500D01*
X150097872Y-90120499D01*
X150157483Y-90114091D01*
X150292331Y-90063796D01*
X150407546Y-89977546D01*
X150493796Y-89862331D01*
X150544091Y-89727483D01*
X150550500Y-89667873D01*
X150550499Y-88574499D01*
X150570184Y-88507461D01*
X150622987Y-88461706D01*
X150674499Y-88450500D01*
X152319903Y-88450500D01*
X152386942Y-88470185D01*
G37*
G04 #@! TD.AperFunction*
G04 #@! TA.AperFunction,Conductor*
G36*
X142420539Y-88470185D02*
G01*
X142466294Y-88522989D01*
X142477500Y-88574500D01*
X142477500Y-88611084D01*
X142457815Y-88678123D01*
X142441181Y-88698765D01*
X141226727Y-89913218D01*
X141226726Y-89913219D01*
X141213879Y-89932447D01*
X141167152Y-90002380D01*
X141167152Y-90002381D01*
X141167151Y-90002382D01*
X141155536Y-90019763D01*
X141155533Y-90019768D01*
X141106499Y-90138148D01*
X141106497Y-90138153D01*
X141081692Y-90262852D01*
X141049306Y-90324763D01*
X140988590Y-90359336D01*
X140918820Y-90355595D01*
X140872394Y-90326340D01*
X140514819Y-89968765D01*
X140481334Y-89907442D01*
X140478500Y-89881084D01*
X140478500Y-89573313D01*
X140478499Y-89573298D01*
X140478384Y-89571839D01*
X140475598Y-89536431D01*
X140470352Y-89518376D01*
X140440272Y-89414838D01*
X140429744Y-89378602D01*
X140346081Y-89237135D01*
X140346078Y-89237132D01*
X140341298Y-89230969D01*
X140343635Y-89229155D01*
X140316798Y-89180050D01*
X140321756Y-89110356D01*
X140342554Y-89077998D01*
X140340903Y-89076717D01*
X140345686Y-89070550D01*
X140429281Y-88929198D01*
X140475100Y-88771486D01*
X140475295Y-88769001D01*
X140475295Y-88769000D01*
X139127000Y-88769000D01*
X139118314Y-88766449D01*
X139109353Y-88767738D01*
X139085312Y-88756759D01*
X139059961Y-88749315D01*
X139054033Y-88742474D01*
X139045797Y-88738713D01*
X139031507Y-88716478D01*
X139014206Y-88696511D01*
X139011918Y-88685996D01*
X139008023Y-88679935D01*
X139003000Y-88645000D01*
X139003000Y-88574500D01*
X139022685Y-88507461D01*
X139075489Y-88461706D01*
X139127000Y-88450500D01*
X142353500Y-88450500D01*
X142420539Y-88470185D01*
G37*
G04 #@! TD.AperFunction*
M02*
