%TF.GenerationSoftware,KiCad,Pcbnew,7.0.6*%
%TF.CreationDate,2024-02-06T23:15:24+01:00*%
%TF.ProjectId,USB2CANv2,55534232-4341-44e7-9632-2e6b69636164,0_2*%
%TF.SameCoordinates,Original*%
%TF.FileFunction,Legend,Top*%
%TF.FilePolarity,Positive*%
%FSLAX46Y46*%
G04 Gerber Fmt 4.6, Leading zero omitted, Abs format (unit mm)*
G04 Created by KiCad (PCBNEW 7.0.6) date 2024-02-06 23:15:24*
%MOMM*%
%LPD*%
G01*
G04 APERTURE LIST*
G04 Aperture macros list*
%AMRoundRect*
0 Rectangle with rounded corners*
0 $1 Rounding radius*
0 $2 $3 $4 $5 $6 $7 $8 $9 X,Y pos of 4 corners*
0 Add a 4 corners polygon primitive as box body*
4,1,4,$2,$3,$4,$5,$6,$7,$8,$9,$2,$3,0*
0 Add four circle primitives for the rounded corners*
1,1,$1+$1,$2,$3*
1,1,$1+$1,$4,$5*
1,1,$1+$1,$6,$7*
1,1,$1+$1,$8,$9*
0 Add four rect primitives between the rounded corners*
20,1,$1+$1,$2,$3,$4,$5,0*
20,1,$1+$1,$4,$5,$6,$7,0*
20,1,$1+$1,$6,$7,$8,$9,0*
20,1,$1+$1,$8,$9,$2,$3,0*%
G04 Aperture macros list end*
%ADD10C,0.150000*%
%ADD11C,0.120000*%
%ADD12O,1.350000X1.350000*%
%ADD13R,1.350000X1.350000*%
%ADD14RoundRect,0.200000X0.200000X0.275000X-0.200000X0.275000X-0.200000X-0.275000X0.200000X-0.275000X0*%
%ADD15R,0.500000X0.375000*%
%ADD16R,0.650000X0.300000*%
%ADD17RoundRect,0.155000X0.155000X-0.212500X0.155000X0.212500X-0.155000X0.212500X-0.155000X-0.212500X0*%
%ADD18R,1.700000X1.700000*%
%ADD19O,1.700000X1.700000*%
%ADD20RoundRect,0.155000X-0.212500X-0.155000X0.212500X-0.155000X0.212500X0.155000X-0.212500X0.155000X0*%
%ADD21RoundRect,0.160000X-0.160000X0.197500X-0.160000X-0.197500X0.160000X-0.197500X0.160000X0.197500X0*%
%ADD22RoundRect,0.250000X-0.325000X-0.450000X0.325000X-0.450000X0.325000X0.450000X-0.325000X0.450000X0*%
%ADD23C,2.100000*%
%ADD24RoundRect,0.243750X-0.243750X-0.456250X0.243750X-0.456250X0.243750X0.456250X-0.243750X0.456250X0*%
%ADD25RoundRect,0.381000X2.119000X0.381000X-2.119000X0.381000X-2.119000X-0.381000X2.119000X-0.381000X0*%
%ADD26R,2.000000X2.400000*%
%ADD27R,1.800000X1.000000*%
%ADD28C,0.700000*%
%ADD29O,1.700000X0.900000*%
%ADD30O,2.400000X0.900000*%
%ADD31RoundRect,0.075000X0.548008X0.441942X0.441942X0.548008X-0.548008X-0.441942X-0.441942X-0.548008X0*%
%ADD32RoundRect,0.075000X0.548008X-0.441942X-0.441942X0.548008X-0.548008X0.441942X0.441942X-0.548008X0*%
%ADD33RoundRect,0.155000X0.212500X0.155000X-0.212500X0.155000X-0.212500X-0.155000X0.212500X-0.155000X0*%
%ADD34RoundRect,0.155000X-0.259862X0.040659X0.040659X-0.259862X0.259862X-0.040659X-0.040659X0.259862X0*%
%ADD35RoundRect,0.200000X-0.200000X-0.275000X0.200000X-0.275000X0.200000X0.275000X-0.200000X0.275000X0*%
%ADD36RoundRect,0.155000X-0.155000X0.212500X-0.155000X-0.212500X0.155000X-0.212500X0.155000X0.212500X0*%
%ADD37RoundRect,0.243750X0.243750X0.456250X-0.243750X0.456250X-0.243750X-0.456250X0.243750X-0.456250X0*%
%ADD38RoundRect,0.155000X-0.040659X-0.259862X0.259862X0.040659X0.040659X0.259862X-0.259862X-0.040659X0*%
%ADD39C,0.500000*%
G04 APERTURE END LIST*
D10*
X157527141Y-91397171D02*
X157527141Y-90797171D01*
X157527141Y-90797171D02*
X157669998Y-90797171D01*
X157669998Y-90797171D02*
X157755712Y-90825742D01*
X157755712Y-90825742D02*
X157812855Y-90882885D01*
X157812855Y-90882885D02*
X157841426Y-90940028D01*
X157841426Y-90940028D02*
X157869998Y-91054314D01*
X157869998Y-91054314D02*
X157869998Y-91140028D01*
X157869998Y-91140028D02*
X157841426Y-91254314D01*
X157841426Y-91254314D02*
X157812855Y-91311457D01*
X157812855Y-91311457D02*
X157755712Y-91368600D01*
X157755712Y-91368600D02*
X157669998Y-91397171D01*
X157669998Y-91397171D02*
X157527141Y-91397171D01*
X158127141Y-91082885D02*
X158327141Y-91082885D01*
X158412855Y-91397171D02*
X158127141Y-91397171D01*
X158127141Y-91397171D02*
X158127141Y-90797171D01*
X158127141Y-90797171D02*
X158412855Y-90797171D01*
X158869998Y-91082885D02*
X158955712Y-91111457D01*
X158955712Y-91111457D02*
X158984283Y-91140028D01*
X158984283Y-91140028D02*
X159012855Y-91197171D01*
X159012855Y-91197171D02*
X159012855Y-91282885D01*
X159012855Y-91282885D02*
X158984283Y-91340028D01*
X158984283Y-91340028D02*
X158955712Y-91368600D01*
X158955712Y-91368600D02*
X158898569Y-91397171D01*
X158898569Y-91397171D02*
X158669998Y-91397171D01*
X158669998Y-91397171D02*
X158669998Y-90797171D01*
X158669998Y-90797171D02*
X158869998Y-90797171D01*
X158869998Y-90797171D02*
X158927141Y-90825742D01*
X158927141Y-90825742D02*
X158955712Y-90854314D01*
X158955712Y-90854314D02*
X158984283Y-90911457D01*
X158984283Y-90911457D02*
X158984283Y-90968600D01*
X158984283Y-90968600D02*
X158955712Y-91025742D01*
X158955712Y-91025742D02*
X158927141Y-91054314D01*
X158927141Y-91054314D02*
X158869998Y-91082885D01*
X158869998Y-91082885D02*
X158669998Y-91082885D01*
X159269998Y-90797171D02*
X159269998Y-91282885D01*
X159269998Y-91282885D02*
X159298569Y-91340028D01*
X159298569Y-91340028D02*
X159327141Y-91368600D01*
X159327141Y-91368600D02*
X159384283Y-91397171D01*
X159384283Y-91397171D02*
X159498569Y-91397171D01*
X159498569Y-91397171D02*
X159555712Y-91368600D01*
X159555712Y-91368600D02*
X159584283Y-91340028D01*
X159584283Y-91340028D02*
X159612855Y-91282885D01*
X159612855Y-91282885D02*
X159612855Y-90797171D01*
X160212854Y-90825742D02*
X160155712Y-90797171D01*
X160155712Y-90797171D02*
X160069997Y-90797171D01*
X160069997Y-90797171D02*
X159984283Y-90825742D01*
X159984283Y-90825742D02*
X159927140Y-90882885D01*
X159927140Y-90882885D02*
X159898569Y-90940028D01*
X159898569Y-90940028D02*
X159869997Y-91054314D01*
X159869997Y-91054314D02*
X159869997Y-91140028D01*
X159869997Y-91140028D02*
X159898569Y-91254314D01*
X159898569Y-91254314D02*
X159927140Y-91311457D01*
X159927140Y-91311457D02*
X159984283Y-91368600D01*
X159984283Y-91368600D02*
X160069997Y-91397171D01*
X160069997Y-91397171D02*
X160127140Y-91397171D01*
X160127140Y-91397171D02*
X160212854Y-91368600D01*
X160212854Y-91368600D02*
X160241426Y-91340028D01*
X160241426Y-91340028D02*
X160241426Y-91140028D01*
X160241426Y-91140028D02*
X160127140Y-91140028D01*
X160355712Y-91454314D02*
X160812854Y-91454314D01*
X161241426Y-90797171D02*
X160955712Y-90797171D01*
X160955712Y-90797171D02*
X160927140Y-91082885D01*
X160927140Y-91082885D02*
X160955712Y-91054314D01*
X160955712Y-91054314D02*
X161012855Y-91025742D01*
X161012855Y-91025742D02*
X161155712Y-91025742D01*
X161155712Y-91025742D02*
X161212855Y-91054314D01*
X161212855Y-91054314D02*
X161241426Y-91082885D01*
X161241426Y-91082885D02*
X161269997Y-91140028D01*
X161269997Y-91140028D02*
X161269997Y-91282885D01*
X161269997Y-91282885D02*
X161241426Y-91340028D01*
X161241426Y-91340028D02*
X161212855Y-91368600D01*
X161212855Y-91368600D02*
X161155712Y-91397171D01*
X161155712Y-91397171D02*
X161012855Y-91397171D01*
X161012855Y-91397171D02*
X160955712Y-91368600D01*
X160955712Y-91368600D02*
X160927140Y-91340028D01*
X161441426Y-90797171D02*
X161641426Y-91397171D01*
X161641426Y-91397171D02*
X161841426Y-90797171D01*
X131526779Y-88134866D02*
X132288684Y-88134866D01*
X131908779Y-104390866D02*
X132670684Y-104390866D01*
X136480779Y-104136866D02*
X137242684Y-104136866D01*
X136861731Y-104517819D02*
X136861731Y-103755914D01*
X138069779Y-89150866D02*
X138831684Y-89150866D01*
X138450731Y-89531819D02*
X138450731Y-88769914D01*
X136544207Y-91722580D02*
X136496588Y-91770200D01*
X136496588Y-91770200D02*
X136353731Y-91817819D01*
X136353731Y-91817819D02*
X136258493Y-91817819D01*
X136258493Y-91817819D02*
X136115636Y-91770200D01*
X136115636Y-91770200D02*
X136020398Y-91674961D01*
X136020398Y-91674961D02*
X135972779Y-91579723D01*
X135972779Y-91579723D02*
X135925160Y-91389247D01*
X135925160Y-91389247D02*
X135925160Y-91246390D01*
X135925160Y-91246390D02*
X135972779Y-91055914D01*
X135972779Y-91055914D02*
X136020398Y-90960676D01*
X136020398Y-90960676D02*
X136115636Y-90865438D01*
X136115636Y-90865438D02*
X136258493Y-90817819D01*
X136258493Y-90817819D02*
X136353731Y-90817819D01*
X136353731Y-90817819D02*
X136496588Y-90865438D01*
X136496588Y-90865438D02*
X136544207Y-90913057D01*
X136925160Y-91532104D02*
X137401350Y-91532104D01*
X136829922Y-91817819D02*
X137163255Y-90817819D01*
X137163255Y-90817819D02*
X137496588Y-91817819D01*
X137829922Y-91817819D02*
X137829922Y-90817819D01*
X137829922Y-90817819D02*
X138401350Y-91817819D01*
X138401350Y-91817819D02*
X138401350Y-90817819D01*
X138829922Y-90913057D02*
X138877541Y-90865438D01*
X138877541Y-90865438D02*
X138972779Y-90817819D01*
X138972779Y-90817819D02*
X139210874Y-90817819D01*
X139210874Y-90817819D02*
X139306112Y-90865438D01*
X139306112Y-90865438D02*
X139353731Y-90913057D01*
X139353731Y-90913057D02*
X139401350Y-91008295D01*
X139401350Y-91008295D02*
X139401350Y-91103533D01*
X139401350Y-91103533D02*
X139353731Y-91246390D01*
X139353731Y-91246390D02*
X138782303Y-91817819D01*
X138782303Y-91817819D02*
X139401350Y-91817819D01*
X133496207Y-104168580D02*
X133448588Y-104216200D01*
X133448588Y-104216200D02*
X133305731Y-104263819D01*
X133305731Y-104263819D02*
X133210493Y-104263819D01*
X133210493Y-104263819D02*
X133067636Y-104216200D01*
X133067636Y-104216200D02*
X132972398Y-104120961D01*
X132972398Y-104120961D02*
X132924779Y-104025723D01*
X132924779Y-104025723D02*
X132877160Y-103835247D01*
X132877160Y-103835247D02*
X132877160Y-103692390D01*
X132877160Y-103692390D02*
X132924779Y-103501914D01*
X132924779Y-103501914D02*
X132972398Y-103406676D01*
X132972398Y-103406676D02*
X133067636Y-103311438D01*
X133067636Y-103311438D02*
X133210493Y-103263819D01*
X133210493Y-103263819D02*
X133305731Y-103263819D01*
X133305731Y-103263819D02*
X133448588Y-103311438D01*
X133448588Y-103311438D02*
X133496207Y-103359057D01*
X133877160Y-103978104D02*
X134353350Y-103978104D01*
X133781922Y-104263819D02*
X134115255Y-103263819D01*
X134115255Y-103263819D02*
X134448588Y-104263819D01*
X134781922Y-104263819D02*
X134781922Y-103263819D01*
X134781922Y-103263819D02*
X135353350Y-104263819D01*
X135353350Y-104263819D02*
X135353350Y-103263819D01*
X136353350Y-104263819D02*
X135781922Y-104263819D01*
X136067636Y-104263819D02*
X136067636Y-103263819D01*
X136067636Y-103263819D02*
X135972398Y-103406676D01*
X135972398Y-103406676D02*
X135877160Y-103501914D01*
X135877160Y-103501914D02*
X135781922Y-103549533D01*
X162045599Y-87922171D02*
X162045599Y-88350742D01*
X162045599Y-88350742D02*
X162017028Y-88436457D01*
X162017028Y-88436457D02*
X161959885Y-88493600D01*
X161959885Y-88493600D02*
X161874171Y-88522171D01*
X161874171Y-88522171D02*
X161817028Y-88522171D01*
X162274171Y-87922171D02*
X162645599Y-87922171D01*
X162645599Y-87922171D02*
X162445599Y-88150742D01*
X162445599Y-88150742D02*
X162531314Y-88150742D01*
X162531314Y-88150742D02*
X162588457Y-88179314D01*
X162588457Y-88179314D02*
X162617028Y-88207885D01*
X162617028Y-88207885D02*
X162645599Y-88265028D01*
X162645599Y-88265028D02*
X162645599Y-88407885D01*
X162645599Y-88407885D02*
X162617028Y-88465028D01*
X162617028Y-88465028D02*
X162588457Y-88493600D01*
X162588457Y-88493600D02*
X162531314Y-88522171D01*
X162531314Y-88522171D02*
X162359885Y-88522171D01*
X162359885Y-88522171D02*
X162302742Y-88493600D01*
X162302742Y-88493600D02*
X162274171Y-88465028D01*
X130850000Y-95789771D02*
X130650000Y-95504057D01*
X130507143Y-95789771D02*
X130507143Y-95189771D01*
X130507143Y-95189771D02*
X130735714Y-95189771D01*
X130735714Y-95189771D02*
X130792857Y-95218342D01*
X130792857Y-95218342D02*
X130821428Y-95246914D01*
X130821428Y-95246914D02*
X130850000Y-95304057D01*
X130850000Y-95304057D02*
X130850000Y-95389771D01*
X130850000Y-95389771D02*
X130821428Y-95446914D01*
X130821428Y-95446914D02*
X130792857Y-95475485D01*
X130792857Y-95475485D02*
X130735714Y-95504057D01*
X130735714Y-95504057D02*
X130507143Y-95504057D01*
X131392857Y-95189771D02*
X131107143Y-95189771D01*
X131107143Y-95189771D02*
X131078571Y-95475485D01*
X131078571Y-95475485D02*
X131107143Y-95446914D01*
X131107143Y-95446914D02*
X131164286Y-95418342D01*
X131164286Y-95418342D02*
X131307143Y-95418342D01*
X131307143Y-95418342D02*
X131364286Y-95446914D01*
X131364286Y-95446914D02*
X131392857Y-95475485D01*
X131392857Y-95475485D02*
X131421428Y-95532628D01*
X131421428Y-95532628D02*
X131421428Y-95675485D01*
X131421428Y-95675485D02*
X131392857Y-95732628D01*
X131392857Y-95732628D02*
X131364286Y-95761200D01*
X131364286Y-95761200D02*
X131307143Y-95789771D01*
X131307143Y-95789771D02*
X131164286Y-95789771D01*
X131164286Y-95789771D02*
X131107143Y-95761200D01*
X131107143Y-95761200D02*
X131078571Y-95732628D01*
X132452857Y-95949771D02*
X132452857Y-96435485D01*
X132452857Y-96435485D02*
X132481428Y-96492628D01*
X132481428Y-96492628D02*
X132510000Y-96521200D01*
X132510000Y-96521200D02*
X132567142Y-96549771D01*
X132567142Y-96549771D02*
X132681428Y-96549771D01*
X132681428Y-96549771D02*
X132738571Y-96521200D01*
X132738571Y-96521200D02*
X132767142Y-96492628D01*
X132767142Y-96492628D02*
X132795714Y-96435485D01*
X132795714Y-96435485D02*
X132795714Y-95949771D01*
X133052856Y-96006914D02*
X133081428Y-95978342D01*
X133081428Y-95978342D02*
X133138571Y-95949771D01*
X133138571Y-95949771D02*
X133281428Y-95949771D01*
X133281428Y-95949771D02*
X133338571Y-95978342D01*
X133338571Y-95978342D02*
X133367142Y-96006914D01*
X133367142Y-96006914D02*
X133395713Y-96064057D01*
X133395713Y-96064057D02*
X133395713Y-96121200D01*
X133395713Y-96121200D02*
X133367142Y-96206914D01*
X133367142Y-96206914D02*
X133024285Y-96549771D01*
X133024285Y-96549771D02*
X133395713Y-96549771D01*
X157834285Y-103362628D02*
X157805713Y-103391200D01*
X157805713Y-103391200D02*
X157719999Y-103419771D01*
X157719999Y-103419771D02*
X157662856Y-103419771D01*
X157662856Y-103419771D02*
X157577142Y-103391200D01*
X157577142Y-103391200D02*
X157519999Y-103334057D01*
X157519999Y-103334057D02*
X157491428Y-103276914D01*
X157491428Y-103276914D02*
X157462856Y-103162628D01*
X157462856Y-103162628D02*
X157462856Y-103076914D01*
X157462856Y-103076914D02*
X157491428Y-102962628D01*
X157491428Y-102962628D02*
X157519999Y-102905485D01*
X157519999Y-102905485D02*
X157577142Y-102848342D01*
X157577142Y-102848342D02*
X157662856Y-102819771D01*
X157662856Y-102819771D02*
X157719999Y-102819771D01*
X157719999Y-102819771D02*
X157805713Y-102848342D01*
X157805713Y-102848342D02*
X157834285Y-102876914D01*
X158405713Y-103419771D02*
X158062856Y-103419771D01*
X158234285Y-103419771D02*
X158234285Y-102819771D01*
X158234285Y-102819771D02*
X158177142Y-102905485D01*
X158177142Y-102905485D02*
X158119999Y-102962628D01*
X158119999Y-102962628D02*
X158062856Y-102991200D01*
X158920000Y-102819771D02*
X158805714Y-102819771D01*
X158805714Y-102819771D02*
X158748571Y-102848342D01*
X158748571Y-102848342D02*
X158720000Y-102876914D01*
X158720000Y-102876914D02*
X158662857Y-102962628D01*
X158662857Y-102962628D02*
X158634285Y-103076914D01*
X158634285Y-103076914D02*
X158634285Y-103305485D01*
X158634285Y-103305485D02*
X158662857Y-103362628D01*
X158662857Y-103362628D02*
X158691428Y-103391200D01*
X158691428Y-103391200D02*
X158748571Y-103419771D01*
X158748571Y-103419771D02*
X158862857Y-103419771D01*
X158862857Y-103419771D02*
X158920000Y-103391200D01*
X158920000Y-103391200D02*
X158948571Y-103362628D01*
X158948571Y-103362628D02*
X158977142Y-103305485D01*
X158977142Y-103305485D02*
X158977142Y-103162628D01*
X158977142Y-103162628D02*
X158948571Y-103105485D01*
X158948571Y-103105485D02*
X158920000Y-103076914D01*
X158920000Y-103076914D02*
X158862857Y-103048342D01*
X158862857Y-103048342D02*
X158748571Y-103048342D01*
X158748571Y-103048342D02*
X158691428Y-103076914D01*
X158691428Y-103076914D02*
X158662857Y-103105485D01*
X158662857Y-103105485D02*
X158634285Y-103162628D01*
X152890000Y-98652628D02*
X152861428Y-98681200D01*
X152861428Y-98681200D02*
X152775714Y-98709771D01*
X152775714Y-98709771D02*
X152718571Y-98709771D01*
X152718571Y-98709771D02*
X152632857Y-98681200D01*
X152632857Y-98681200D02*
X152575714Y-98624057D01*
X152575714Y-98624057D02*
X152547143Y-98566914D01*
X152547143Y-98566914D02*
X152518571Y-98452628D01*
X152518571Y-98452628D02*
X152518571Y-98366914D01*
X152518571Y-98366914D02*
X152547143Y-98252628D01*
X152547143Y-98252628D02*
X152575714Y-98195485D01*
X152575714Y-98195485D02*
X152632857Y-98138342D01*
X152632857Y-98138342D02*
X152718571Y-98109771D01*
X152718571Y-98109771D02*
X152775714Y-98109771D01*
X152775714Y-98109771D02*
X152861428Y-98138342D01*
X152861428Y-98138342D02*
X152890000Y-98166914D01*
X153232857Y-98366914D02*
X153175714Y-98338342D01*
X153175714Y-98338342D02*
X153147143Y-98309771D01*
X153147143Y-98309771D02*
X153118571Y-98252628D01*
X153118571Y-98252628D02*
X153118571Y-98224057D01*
X153118571Y-98224057D02*
X153147143Y-98166914D01*
X153147143Y-98166914D02*
X153175714Y-98138342D01*
X153175714Y-98138342D02*
X153232857Y-98109771D01*
X153232857Y-98109771D02*
X153347143Y-98109771D01*
X153347143Y-98109771D02*
X153404286Y-98138342D01*
X153404286Y-98138342D02*
X153432857Y-98166914D01*
X153432857Y-98166914D02*
X153461428Y-98224057D01*
X153461428Y-98224057D02*
X153461428Y-98252628D01*
X153461428Y-98252628D02*
X153432857Y-98309771D01*
X153432857Y-98309771D02*
X153404286Y-98338342D01*
X153404286Y-98338342D02*
X153347143Y-98366914D01*
X153347143Y-98366914D02*
X153232857Y-98366914D01*
X153232857Y-98366914D02*
X153175714Y-98395485D01*
X153175714Y-98395485D02*
X153147143Y-98424057D01*
X153147143Y-98424057D02*
X153118571Y-98481200D01*
X153118571Y-98481200D02*
X153118571Y-98595485D01*
X153118571Y-98595485D02*
X153147143Y-98652628D01*
X153147143Y-98652628D02*
X153175714Y-98681200D01*
X153175714Y-98681200D02*
X153232857Y-98709771D01*
X153232857Y-98709771D02*
X153347143Y-98709771D01*
X153347143Y-98709771D02*
X153404286Y-98681200D01*
X153404286Y-98681200D02*
X153432857Y-98652628D01*
X153432857Y-98652628D02*
X153461428Y-98595485D01*
X153461428Y-98595485D02*
X153461428Y-98481200D01*
X153461428Y-98481200D02*
X153432857Y-98424057D01*
X153432857Y-98424057D02*
X153404286Y-98395485D01*
X153404286Y-98395485D02*
X153347143Y-98366914D01*
X139392785Y-105425771D02*
X139192785Y-105140057D01*
X139049928Y-105425771D02*
X139049928Y-104825771D01*
X139049928Y-104825771D02*
X139278499Y-104825771D01*
X139278499Y-104825771D02*
X139335642Y-104854342D01*
X139335642Y-104854342D02*
X139364213Y-104882914D01*
X139364213Y-104882914D02*
X139392785Y-104940057D01*
X139392785Y-104940057D02*
X139392785Y-105025771D01*
X139392785Y-105025771D02*
X139364213Y-105082914D01*
X139364213Y-105082914D02*
X139335642Y-105111485D01*
X139335642Y-105111485D02*
X139278499Y-105140057D01*
X139278499Y-105140057D02*
X139049928Y-105140057D01*
X139964213Y-105425771D02*
X139621356Y-105425771D01*
X139792785Y-105425771D02*
X139792785Y-104825771D01*
X139792785Y-104825771D02*
X139735642Y-104911485D01*
X139735642Y-104911485D02*
X139678499Y-104968628D01*
X139678499Y-104968628D02*
X139621356Y-104997200D01*
X140192785Y-104882914D02*
X140221357Y-104854342D01*
X140221357Y-104854342D02*
X140278500Y-104825771D01*
X140278500Y-104825771D02*
X140421357Y-104825771D01*
X140421357Y-104825771D02*
X140478500Y-104854342D01*
X140478500Y-104854342D02*
X140507071Y-104882914D01*
X140507071Y-104882914D02*
X140535642Y-104940057D01*
X140535642Y-104940057D02*
X140535642Y-104997200D01*
X140535642Y-104997200D02*
X140507071Y-105082914D01*
X140507071Y-105082914D02*
X140164214Y-105425771D01*
X140164214Y-105425771D02*
X140535642Y-105425771D01*
X155373333Y-94844819D02*
X154897143Y-94844819D01*
X154897143Y-94844819D02*
X154897143Y-93844819D01*
X156230476Y-94844819D02*
X155659048Y-94844819D01*
X155944762Y-94844819D02*
X155944762Y-93844819D01*
X155944762Y-93844819D02*
X155849524Y-93987676D01*
X155849524Y-93987676D02*
X155754286Y-94082914D01*
X155754286Y-94082914D02*
X155659048Y-94130533D01*
X156618000Y-92182628D02*
X156589428Y-92211200D01*
X156589428Y-92211200D02*
X156503714Y-92239771D01*
X156503714Y-92239771D02*
X156446571Y-92239771D01*
X156446571Y-92239771D02*
X156360857Y-92211200D01*
X156360857Y-92211200D02*
X156303714Y-92154057D01*
X156303714Y-92154057D02*
X156275143Y-92096914D01*
X156275143Y-92096914D02*
X156246571Y-91982628D01*
X156246571Y-91982628D02*
X156246571Y-91896914D01*
X156246571Y-91896914D02*
X156275143Y-91782628D01*
X156275143Y-91782628D02*
X156303714Y-91725485D01*
X156303714Y-91725485D02*
X156360857Y-91668342D01*
X156360857Y-91668342D02*
X156446571Y-91639771D01*
X156446571Y-91639771D02*
X156503714Y-91639771D01*
X156503714Y-91639771D02*
X156589428Y-91668342D01*
X156589428Y-91668342D02*
X156618000Y-91696914D01*
X156903714Y-92239771D02*
X157018000Y-92239771D01*
X157018000Y-92239771D02*
X157075143Y-92211200D01*
X157075143Y-92211200D02*
X157103714Y-92182628D01*
X157103714Y-92182628D02*
X157160857Y-92096914D01*
X157160857Y-92096914D02*
X157189428Y-91982628D01*
X157189428Y-91982628D02*
X157189428Y-91754057D01*
X157189428Y-91754057D02*
X157160857Y-91696914D01*
X157160857Y-91696914D02*
X157132286Y-91668342D01*
X157132286Y-91668342D02*
X157075143Y-91639771D01*
X157075143Y-91639771D02*
X156960857Y-91639771D01*
X156960857Y-91639771D02*
X156903714Y-91668342D01*
X156903714Y-91668342D02*
X156875143Y-91696914D01*
X156875143Y-91696914D02*
X156846571Y-91754057D01*
X156846571Y-91754057D02*
X156846571Y-91896914D01*
X156846571Y-91896914D02*
X156875143Y-91954057D01*
X156875143Y-91954057D02*
X156903714Y-91982628D01*
X156903714Y-91982628D02*
X156960857Y-92011200D01*
X156960857Y-92011200D02*
X157075143Y-92011200D01*
X157075143Y-92011200D02*
X157132286Y-91982628D01*
X157132286Y-91982628D02*
X157160857Y-91954057D01*
X157160857Y-91954057D02*
X157189428Y-91896914D01*
X139064285Y-88407771D02*
X138864285Y-88122057D01*
X138721428Y-88407771D02*
X138721428Y-87807771D01*
X138721428Y-87807771D02*
X138949999Y-87807771D01*
X138949999Y-87807771D02*
X139007142Y-87836342D01*
X139007142Y-87836342D02*
X139035713Y-87864914D01*
X139035713Y-87864914D02*
X139064285Y-87922057D01*
X139064285Y-87922057D02*
X139064285Y-88007771D01*
X139064285Y-88007771D02*
X139035713Y-88064914D01*
X139035713Y-88064914D02*
X139007142Y-88093485D01*
X139007142Y-88093485D02*
X138949999Y-88122057D01*
X138949999Y-88122057D02*
X138721428Y-88122057D01*
X139635713Y-88407771D02*
X139292856Y-88407771D01*
X139464285Y-88407771D02*
X139464285Y-87807771D01*
X139464285Y-87807771D02*
X139407142Y-87893485D01*
X139407142Y-87893485D02*
X139349999Y-87950628D01*
X139349999Y-87950628D02*
X139292856Y-87979200D01*
X140207142Y-88407771D02*
X139864285Y-88407771D01*
X140035714Y-88407771D02*
X140035714Y-87807771D01*
X140035714Y-87807771D02*
X139978571Y-87893485D01*
X139978571Y-87893485D02*
X139921428Y-87950628D01*
X139921428Y-87950628D02*
X139864285Y-87979200D01*
X130670000Y-98529771D02*
X130470000Y-98244057D01*
X130327143Y-98529771D02*
X130327143Y-97929771D01*
X130327143Y-97929771D02*
X130555714Y-97929771D01*
X130555714Y-97929771D02*
X130612857Y-97958342D01*
X130612857Y-97958342D02*
X130641428Y-97986914D01*
X130641428Y-97986914D02*
X130670000Y-98044057D01*
X130670000Y-98044057D02*
X130670000Y-98129771D01*
X130670000Y-98129771D02*
X130641428Y-98186914D01*
X130641428Y-98186914D02*
X130612857Y-98215485D01*
X130612857Y-98215485D02*
X130555714Y-98244057D01*
X130555714Y-98244057D02*
X130327143Y-98244057D01*
X131184286Y-97929771D02*
X131070000Y-97929771D01*
X131070000Y-97929771D02*
X131012857Y-97958342D01*
X131012857Y-97958342D02*
X130984286Y-97986914D01*
X130984286Y-97986914D02*
X130927143Y-98072628D01*
X130927143Y-98072628D02*
X130898571Y-98186914D01*
X130898571Y-98186914D02*
X130898571Y-98415485D01*
X130898571Y-98415485D02*
X130927143Y-98472628D01*
X130927143Y-98472628D02*
X130955714Y-98501200D01*
X130955714Y-98501200D02*
X131012857Y-98529771D01*
X131012857Y-98529771D02*
X131127143Y-98529771D01*
X131127143Y-98529771D02*
X131184286Y-98501200D01*
X131184286Y-98501200D02*
X131212857Y-98472628D01*
X131212857Y-98472628D02*
X131241428Y-98415485D01*
X131241428Y-98415485D02*
X131241428Y-98272628D01*
X131241428Y-98272628D02*
X131212857Y-98215485D01*
X131212857Y-98215485D02*
X131184286Y-98186914D01*
X131184286Y-98186914D02*
X131127143Y-98158342D01*
X131127143Y-98158342D02*
X131012857Y-98158342D01*
X131012857Y-98158342D02*
X130955714Y-98186914D01*
X130955714Y-98186914D02*
X130927143Y-98215485D01*
X130927143Y-98215485D02*
X130898571Y-98272628D01*
X143904643Y-88219771D02*
X143904643Y-87619771D01*
X143904643Y-87619771D02*
X144047500Y-87619771D01*
X144047500Y-87619771D02*
X144133214Y-87648342D01*
X144133214Y-87648342D02*
X144190357Y-87705485D01*
X144190357Y-87705485D02*
X144218928Y-87762628D01*
X144218928Y-87762628D02*
X144247500Y-87876914D01*
X144247500Y-87876914D02*
X144247500Y-87962628D01*
X144247500Y-87962628D02*
X144218928Y-88076914D01*
X144218928Y-88076914D02*
X144190357Y-88134057D01*
X144190357Y-88134057D02*
X144133214Y-88191200D01*
X144133214Y-88191200D02*
X144047500Y-88219771D01*
X144047500Y-88219771D02*
X143904643Y-88219771D01*
X144818928Y-88219771D02*
X144476071Y-88219771D01*
X144647500Y-88219771D02*
X144647500Y-87619771D01*
X144647500Y-87619771D02*
X144590357Y-87705485D01*
X144590357Y-87705485D02*
X144533214Y-87762628D01*
X144533214Y-87762628D02*
X144476071Y-87791200D01*
X141357643Y-105319770D02*
X141357643Y-104719770D01*
X141357643Y-104719770D02*
X141500500Y-104719770D01*
X141500500Y-104719770D02*
X141586214Y-104748341D01*
X141586214Y-104748341D02*
X141643357Y-104805484D01*
X141643357Y-104805484D02*
X141671928Y-104862627D01*
X141671928Y-104862627D02*
X141700500Y-104976913D01*
X141700500Y-104976913D02*
X141700500Y-105062627D01*
X141700500Y-105062627D02*
X141671928Y-105176913D01*
X141671928Y-105176913D02*
X141643357Y-105234056D01*
X141643357Y-105234056D02*
X141586214Y-105291199D01*
X141586214Y-105291199D02*
X141500500Y-105319770D01*
X141500500Y-105319770D02*
X141357643Y-105319770D01*
X141929071Y-104776913D02*
X141957643Y-104748341D01*
X141957643Y-104748341D02*
X142014786Y-104719770D01*
X142014786Y-104719770D02*
X142157643Y-104719770D01*
X142157643Y-104719770D02*
X142214786Y-104748341D01*
X142214786Y-104748341D02*
X142243357Y-104776913D01*
X142243357Y-104776913D02*
X142271928Y-104834056D01*
X142271928Y-104834056D02*
X142271928Y-104891199D01*
X142271928Y-104891199D02*
X142243357Y-104976913D01*
X142243357Y-104976913D02*
X141900500Y-105319770D01*
X141900500Y-105319770D02*
X142271928Y-105319770D01*
X154344285Y-103394057D02*
X154344285Y-103679771D01*
X154144285Y-103079771D02*
X154344285Y-103394057D01*
X154344285Y-103394057D02*
X154544285Y-103079771D01*
X155058571Y-103679771D02*
X154715714Y-103679771D01*
X154887143Y-103679771D02*
X154887143Y-103079771D01*
X154887143Y-103079771D02*
X154830000Y-103165485D01*
X154830000Y-103165485D02*
X154772857Y-103222628D01*
X154772857Y-103222628D02*
X154715714Y-103251200D01*
X158584285Y-98454057D02*
X158584285Y-98739771D01*
X158384285Y-98139771D02*
X158584285Y-98454057D01*
X158584285Y-98454057D02*
X158784285Y-98139771D01*
X158955714Y-98196914D02*
X158984286Y-98168342D01*
X158984286Y-98168342D02*
X159041429Y-98139771D01*
X159041429Y-98139771D02*
X159184286Y-98139771D01*
X159184286Y-98139771D02*
X159241429Y-98168342D01*
X159241429Y-98168342D02*
X159270000Y-98196914D01*
X159270000Y-98196914D02*
X159298571Y-98254057D01*
X159298571Y-98254057D02*
X159298571Y-98311200D01*
X159298571Y-98311200D02*
X159270000Y-98396914D01*
X159270000Y-98396914D02*
X158927143Y-98739771D01*
X158927143Y-98739771D02*
X159298571Y-98739771D01*
X153214285Y-90649771D02*
X153014285Y-90364057D01*
X152871428Y-90649771D02*
X152871428Y-90049771D01*
X152871428Y-90049771D02*
X153099999Y-90049771D01*
X153099999Y-90049771D02*
X153157142Y-90078342D01*
X153157142Y-90078342D02*
X153185713Y-90106914D01*
X153185713Y-90106914D02*
X153214285Y-90164057D01*
X153214285Y-90164057D02*
X153214285Y-90249771D01*
X153214285Y-90249771D02*
X153185713Y-90306914D01*
X153185713Y-90306914D02*
X153157142Y-90335485D01*
X153157142Y-90335485D02*
X153099999Y-90364057D01*
X153099999Y-90364057D02*
X152871428Y-90364057D01*
X153785713Y-90649771D02*
X153442856Y-90649771D01*
X153614285Y-90649771D02*
X153614285Y-90049771D01*
X153614285Y-90049771D02*
X153557142Y-90135485D01*
X153557142Y-90135485D02*
X153499999Y-90192628D01*
X153499999Y-90192628D02*
X153442856Y-90221200D01*
X154300000Y-90249771D02*
X154300000Y-90649771D01*
X154157142Y-90021200D02*
X154014285Y-90449771D01*
X154014285Y-90449771D02*
X154385714Y-90449771D01*
X145022857Y-89329771D02*
X145022857Y-89815485D01*
X145022857Y-89815485D02*
X145051428Y-89872628D01*
X145051428Y-89872628D02*
X145080000Y-89901200D01*
X145080000Y-89901200D02*
X145137142Y-89929771D01*
X145137142Y-89929771D02*
X145251428Y-89929771D01*
X145251428Y-89929771D02*
X145308571Y-89901200D01*
X145308571Y-89901200D02*
X145337142Y-89872628D01*
X145337142Y-89872628D02*
X145365714Y-89815485D01*
X145365714Y-89815485D02*
X145365714Y-89329771D01*
X145965713Y-89929771D02*
X145622856Y-89929771D01*
X145794285Y-89929771D02*
X145794285Y-89329771D01*
X145794285Y-89329771D02*
X145737142Y-89415485D01*
X145737142Y-89415485D02*
X145679999Y-89472628D01*
X145679999Y-89472628D02*
X145622856Y-89501200D01*
X136730000Y-99452628D02*
X136701428Y-99481200D01*
X136701428Y-99481200D02*
X136615714Y-99509771D01*
X136615714Y-99509771D02*
X136558571Y-99509771D01*
X136558571Y-99509771D02*
X136472857Y-99481200D01*
X136472857Y-99481200D02*
X136415714Y-99424057D01*
X136415714Y-99424057D02*
X136387143Y-99366914D01*
X136387143Y-99366914D02*
X136358571Y-99252628D01*
X136358571Y-99252628D02*
X136358571Y-99166914D01*
X136358571Y-99166914D02*
X136387143Y-99052628D01*
X136387143Y-99052628D02*
X136415714Y-98995485D01*
X136415714Y-98995485D02*
X136472857Y-98938342D01*
X136472857Y-98938342D02*
X136558571Y-98909771D01*
X136558571Y-98909771D02*
X136615714Y-98909771D01*
X136615714Y-98909771D02*
X136701428Y-98938342D01*
X136701428Y-98938342D02*
X136730000Y-98966914D01*
X137301428Y-99509771D02*
X136958571Y-99509771D01*
X137130000Y-99509771D02*
X137130000Y-98909771D01*
X137130000Y-98909771D02*
X137072857Y-98995485D01*
X137072857Y-98995485D02*
X137015714Y-99052628D01*
X137015714Y-99052628D02*
X136958571Y-99081200D01*
X153078938Y-93519640D02*
X153038532Y-93519640D01*
X153038532Y-93519640D02*
X152957720Y-93479234D01*
X152957720Y-93479234D02*
X152917314Y-93438828D01*
X152917314Y-93438828D02*
X152876907Y-93358016D01*
X152876907Y-93358016D02*
X152876907Y-93277204D01*
X152876907Y-93277204D02*
X152897110Y-93216594D01*
X152897110Y-93216594D02*
X152957720Y-93115579D01*
X152957720Y-93115579D02*
X153018329Y-93054970D01*
X153018329Y-93054970D02*
X153119344Y-92994361D01*
X153119344Y-92994361D02*
X153179953Y-92974158D01*
X153179953Y-92974158D02*
X153260765Y-92974158D01*
X153260765Y-92974158D02*
X153341578Y-93014564D01*
X153341578Y-93014564D02*
X153381984Y-93054970D01*
X153381984Y-93054970D02*
X153422390Y-93135782D01*
X153422390Y-93135782D02*
X153422390Y-93176188D01*
X153826451Y-93499437D02*
X153745639Y-93418625D01*
X153745639Y-93418625D02*
X153685029Y-93398422D01*
X153685029Y-93398422D02*
X153644623Y-93398422D01*
X153644623Y-93398422D02*
X153543608Y-93418625D01*
X153543608Y-93418625D02*
X153442593Y-93479234D01*
X153442593Y-93479234D02*
X153280968Y-93640858D01*
X153280968Y-93640858D02*
X153260765Y-93701468D01*
X153260765Y-93701468D02*
X153260765Y-93741874D01*
X153260765Y-93741874D02*
X153280968Y-93802483D01*
X153280968Y-93802483D02*
X153361781Y-93883295D01*
X153361781Y-93883295D02*
X153422390Y-93903498D01*
X153422390Y-93903498D02*
X153462796Y-93903498D01*
X153462796Y-93903498D02*
X153523405Y-93883295D01*
X153523405Y-93883295D02*
X153624420Y-93782280D01*
X153624420Y-93782280D02*
X153644623Y-93721671D01*
X153644623Y-93721671D02*
X153644623Y-93681265D01*
X153644623Y-93681265D02*
X153624420Y-93620655D01*
X153624420Y-93620655D02*
X153543608Y-93539843D01*
X153543608Y-93539843D02*
X153482999Y-93519640D01*
X153482999Y-93519640D02*
X153442593Y-93519640D01*
X153442593Y-93519640D02*
X153381984Y-93539843D01*
X136474285Y-94302628D02*
X136445713Y-94331200D01*
X136445713Y-94331200D02*
X136359999Y-94359771D01*
X136359999Y-94359771D02*
X136302856Y-94359771D01*
X136302856Y-94359771D02*
X136217142Y-94331200D01*
X136217142Y-94331200D02*
X136159999Y-94274057D01*
X136159999Y-94274057D02*
X136131428Y-94216914D01*
X136131428Y-94216914D02*
X136102856Y-94102628D01*
X136102856Y-94102628D02*
X136102856Y-94016914D01*
X136102856Y-94016914D02*
X136131428Y-93902628D01*
X136131428Y-93902628D02*
X136159999Y-93845485D01*
X136159999Y-93845485D02*
X136217142Y-93788342D01*
X136217142Y-93788342D02*
X136302856Y-93759771D01*
X136302856Y-93759771D02*
X136359999Y-93759771D01*
X136359999Y-93759771D02*
X136445713Y-93788342D01*
X136445713Y-93788342D02*
X136474285Y-93816914D01*
X137045713Y-94359771D02*
X136702856Y-94359771D01*
X136874285Y-94359771D02*
X136874285Y-93759771D01*
X136874285Y-93759771D02*
X136817142Y-93845485D01*
X136817142Y-93845485D02*
X136759999Y-93902628D01*
X136759999Y-93902628D02*
X136702856Y-93931200D01*
X137274285Y-93816914D02*
X137302857Y-93788342D01*
X137302857Y-93788342D02*
X137360000Y-93759771D01*
X137360000Y-93759771D02*
X137502857Y-93759771D01*
X137502857Y-93759771D02*
X137560000Y-93788342D01*
X137560000Y-93788342D02*
X137588571Y-93816914D01*
X137588571Y-93816914D02*
X137617142Y-93874057D01*
X137617142Y-93874057D02*
X137617142Y-93931200D01*
X137617142Y-93931200D02*
X137588571Y-94016914D01*
X137588571Y-94016914D02*
X137245714Y-94359771D01*
X137245714Y-94359771D02*
X137617142Y-94359771D01*
X149256907Y-90107609D02*
X149216501Y-90107609D01*
X149216501Y-90107609D02*
X149135689Y-90067203D01*
X149135689Y-90067203D02*
X149095282Y-90026797D01*
X149095282Y-90026797D02*
X149054876Y-89945985D01*
X149054876Y-89945985D02*
X149054876Y-89865173D01*
X149054876Y-89865173D02*
X149075079Y-89804563D01*
X149075079Y-89804563D02*
X149135689Y-89703548D01*
X149135689Y-89703548D02*
X149196298Y-89642939D01*
X149196298Y-89642939D02*
X149297313Y-89582330D01*
X149297313Y-89582330D02*
X149357922Y-89562127D01*
X149357922Y-89562127D02*
X149438734Y-89562127D01*
X149438734Y-89562127D02*
X149519547Y-89602533D01*
X149519547Y-89602533D02*
X149559953Y-89642939D01*
X149559953Y-89642939D02*
X149600359Y-89723751D01*
X149600359Y-89723751D02*
X149600359Y-89764157D01*
X149620562Y-90552076D02*
X149378125Y-90309640D01*
X149499344Y-90430858D02*
X149923608Y-90006594D01*
X149923608Y-90006594D02*
X149822592Y-90026797D01*
X149822592Y-90026797D02*
X149741780Y-90026797D01*
X149741780Y-90026797D02*
X149681171Y-90006594D01*
X150024623Y-90956138D02*
X149782187Y-90713701D01*
X149903405Y-90834919D02*
X150327669Y-90410655D01*
X150327669Y-90410655D02*
X150226654Y-90430858D01*
X150226654Y-90430858D02*
X150145841Y-90430858D01*
X150145841Y-90430858D02*
X150085232Y-90410655D01*
X131129143Y-92471771D02*
X131129143Y-91871771D01*
X131129143Y-91871771D02*
X131272000Y-91871771D01*
X131272000Y-91871771D02*
X131357714Y-91900342D01*
X131357714Y-91900342D02*
X131414857Y-91957485D01*
X131414857Y-91957485D02*
X131443428Y-92014628D01*
X131443428Y-92014628D02*
X131472000Y-92128914D01*
X131472000Y-92128914D02*
X131472000Y-92214628D01*
X131472000Y-92214628D02*
X131443428Y-92328914D01*
X131443428Y-92328914D02*
X131414857Y-92386057D01*
X131414857Y-92386057D02*
X131357714Y-92443200D01*
X131357714Y-92443200D02*
X131272000Y-92471771D01*
X131272000Y-92471771D02*
X131129143Y-92471771D01*
X131672000Y-91871771D02*
X132043428Y-91871771D01*
X132043428Y-91871771D02*
X131843428Y-92100342D01*
X131843428Y-92100342D02*
X131929143Y-92100342D01*
X131929143Y-92100342D02*
X131986286Y-92128914D01*
X131986286Y-92128914D02*
X132014857Y-92157485D01*
X132014857Y-92157485D02*
X132043428Y-92214628D01*
X132043428Y-92214628D02*
X132043428Y-92357485D01*
X132043428Y-92357485D02*
X132014857Y-92414628D01*
X132014857Y-92414628D02*
X131986286Y-92443200D01*
X131986286Y-92443200D02*
X131929143Y-92471771D01*
X131929143Y-92471771D02*
X131757714Y-92471771D01*
X131757714Y-92471771D02*
X131700571Y-92443200D01*
X131700571Y-92443200D02*
X131672000Y-92414628D01*
X133220000Y-101179771D02*
X133020000Y-100894057D01*
X132877143Y-101179771D02*
X132877143Y-100579771D01*
X132877143Y-100579771D02*
X133105714Y-100579771D01*
X133105714Y-100579771D02*
X133162857Y-100608342D01*
X133162857Y-100608342D02*
X133191428Y-100636914D01*
X133191428Y-100636914D02*
X133220000Y-100694057D01*
X133220000Y-100694057D02*
X133220000Y-100779771D01*
X133220000Y-100779771D02*
X133191428Y-100836914D01*
X133191428Y-100836914D02*
X133162857Y-100865485D01*
X133162857Y-100865485D02*
X133105714Y-100894057D01*
X133105714Y-100894057D02*
X132877143Y-100894057D01*
X133420000Y-100579771D02*
X133791428Y-100579771D01*
X133791428Y-100579771D02*
X133591428Y-100808342D01*
X133591428Y-100808342D02*
X133677143Y-100808342D01*
X133677143Y-100808342D02*
X133734286Y-100836914D01*
X133734286Y-100836914D02*
X133762857Y-100865485D01*
X133762857Y-100865485D02*
X133791428Y-100922628D01*
X133791428Y-100922628D02*
X133791428Y-101065485D01*
X133791428Y-101065485D02*
X133762857Y-101122628D01*
X133762857Y-101122628D02*
X133734286Y-101151200D01*
X133734286Y-101151200D02*
X133677143Y-101179771D01*
X133677143Y-101179771D02*
X133505714Y-101179771D01*
X133505714Y-101179771D02*
X133448571Y-101151200D01*
X133448571Y-101151200D02*
X133420000Y-101122628D01*
X149144285Y-106052628D02*
X149115713Y-106081200D01*
X149115713Y-106081200D02*
X149029999Y-106109771D01*
X149029999Y-106109771D02*
X148972856Y-106109771D01*
X148972856Y-106109771D02*
X148887142Y-106081200D01*
X148887142Y-106081200D02*
X148829999Y-106024057D01*
X148829999Y-106024057D02*
X148801428Y-105966914D01*
X148801428Y-105966914D02*
X148772856Y-105852628D01*
X148772856Y-105852628D02*
X148772856Y-105766914D01*
X148772856Y-105766914D02*
X148801428Y-105652628D01*
X148801428Y-105652628D02*
X148829999Y-105595485D01*
X148829999Y-105595485D02*
X148887142Y-105538342D01*
X148887142Y-105538342D02*
X148972856Y-105509771D01*
X148972856Y-105509771D02*
X149029999Y-105509771D01*
X149029999Y-105509771D02*
X149115713Y-105538342D01*
X149115713Y-105538342D02*
X149144285Y-105566914D01*
X149715713Y-106109771D02*
X149372856Y-106109771D01*
X149544285Y-106109771D02*
X149544285Y-105509771D01*
X149544285Y-105509771D02*
X149487142Y-105595485D01*
X149487142Y-105595485D02*
X149429999Y-105652628D01*
X149429999Y-105652628D02*
X149372856Y-105681200D01*
X150258571Y-105509771D02*
X149972857Y-105509771D01*
X149972857Y-105509771D02*
X149944285Y-105795485D01*
X149944285Y-105795485D02*
X149972857Y-105766914D01*
X149972857Y-105766914D02*
X150030000Y-105738342D01*
X150030000Y-105738342D02*
X150172857Y-105738342D01*
X150172857Y-105738342D02*
X150230000Y-105766914D01*
X150230000Y-105766914D02*
X150258571Y-105795485D01*
X150258571Y-105795485D02*
X150287142Y-105852628D01*
X150287142Y-105852628D02*
X150287142Y-105995485D01*
X150287142Y-105995485D02*
X150258571Y-106052628D01*
X150258571Y-106052628D02*
X150230000Y-106081200D01*
X150230000Y-106081200D02*
X150172857Y-106109771D01*
X150172857Y-106109771D02*
X150030000Y-106109771D01*
X150030000Y-106109771D02*
X149972857Y-106081200D01*
X149972857Y-106081200D02*
X149944285Y-106052628D01*
X160434285Y-99332628D02*
X160405713Y-99361200D01*
X160405713Y-99361200D02*
X160319999Y-99389771D01*
X160319999Y-99389771D02*
X160262856Y-99389771D01*
X160262856Y-99389771D02*
X160177142Y-99361200D01*
X160177142Y-99361200D02*
X160119999Y-99304057D01*
X160119999Y-99304057D02*
X160091428Y-99246914D01*
X160091428Y-99246914D02*
X160062856Y-99132628D01*
X160062856Y-99132628D02*
X160062856Y-99046914D01*
X160062856Y-99046914D02*
X160091428Y-98932628D01*
X160091428Y-98932628D02*
X160119999Y-98875485D01*
X160119999Y-98875485D02*
X160177142Y-98818342D01*
X160177142Y-98818342D02*
X160262856Y-98789771D01*
X160262856Y-98789771D02*
X160319999Y-98789771D01*
X160319999Y-98789771D02*
X160405713Y-98818342D01*
X160405713Y-98818342D02*
X160434285Y-98846914D01*
X161005713Y-99389771D02*
X160662856Y-99389771D01*
X160834285Y-99389771D02*
X160834285Y-98789771D01*
X160834285Y-98789771D02*
X160777142Y-98875485D01*
X160777142Y-98875485D02*
X160719999Y-98932628D01*
X160719999Y-98932628D02*
X160662856Y-98961200D01*
X161205714Y-98789771D02*
X161605714Y-98789771D01*
X161605714Y-98789771D02*
X161348571Y-99389771D01*
X153000000Y-97382628D02*
X152971428Y-97411200D01*
X152971428Y-97411200D02*
X152885714Y-97439771D01*
X152885714Y-97439771D02*
X152828571Y-97439771D01*
X152828571Y-97439771D02*
X152742857Y-97411200D01*
X152742857Y-97411200D02*
X152685714Y-97354057D01*
X152685714Y-97354057D02*
X152657143Y-97296914D01*
X152657143Y-97296914D02*
X152628571Y-97182628D01*
X152628571Y-97182628D02*
X152628571Y-97096914D01*
X152628571Y-97096914D02*
X152657143Y-96982628D01*
X152657143Y-96982628D02*
X152685714Y-96925485D01*
X152685714Y-96925485D02*
X152742857Y-96868342D01*
X152742857Y-96868342D02*
X152828571Y-96839771D01*
X152828571Y-96839771D02*
X152885714Y-96839771D01*
X152885714Y-96839771D02*
X152971428Y-96868342D01*
X152971428Y-96868342D02*
X153000000Y-96896914D01*
X153200000Y-96839771D02*
X153600000Y-96839771D01*
X153600000Y-96839771D02*
X153342857Y-97439771D01*
X136700000Y-96242628D02*
X136671428Y-96271200D01*
X136671428Y-96271200D02*
X136585714Y-96299771D01*
X136585714Y-96299771D02*
X136528571Y-96299771D01*
X136528571Y-96299771D02*
X136442857Y-96271200D01*
X136442857Y-96271200D02*
X136385714Y-96214057D01*
X136385714Y-96214057D02*
X136357143Y-96156914D01*
X136357143Y-96156914D02*
X136328571Y-96042628D01*
X136328571Y-96042628D02*
X136328571Y-95956914D01*
X136328571Y-95956914D02*
X136357143Y-95842628D01*
X136357143Y-95842628D02*
X136385714Y-95785485D01*
X136385714Y-95785485D02*
X136442857Y-95728342D01*
X136442857Y-95728342D02*
X136528571Y-95699771D01*
X136528571Y-95699771D02*
X136585714Y-95699771D01*
X136585714Y-95699771D02*
X136671428Y-95728342D01*
X136671428Y-95728342D02*
X136700000Y-95756914D01*
X137214286Y-95899771D02*
X137214286Y-96299771D01*
X137071428Y-95671200D02*
X136928571Y-96099771D01*
X136928571Y-96099771D02*
X137300000Y-96099771D01*
X146966000Y-106892628D02*
X146937428Y-106921200D01*
X146937428Y-106921200D02*
X146851714Y-106949771D01*
X146851714Y-106949771D02*
X146794571Y-106949771D01*
X146794571Y-106949771D02*
X146708857Y-106921200D01*
X146708857Y-106921200D02*
X146651714Y-106864057D01*
X146651714Y-106864057D02*
X146623143Y-106806914D01*
X146623143Y-106806914D02*
X146594571Y-106692628D01*
X146594571Y-106692628D02*
X146594571Y-106606914D01*
X146594571Y-106606914D02*
X146623143Y-106492628D01*
X146623143Y-106492628D02*
X146651714Y-106435485D01*
X146651714Y-106435485D02*
X146708857Y-106378342D01*
X146708857Y-106378342D02*
X146794571Y-106349771D01*
X146794571Y-106349771D02*
X146851714Y-106349771D01*
X146851714Y-106349771D02*
X146937428Y-106378342D01*
X146937428Y-106378342D02*
X146966000Y-106406914D01*
X147194571Y-106406914D02*
X147223143Y-106378342D01*
X147223143Y-106378342D02*
X147280286Y-106349771D01*
X147280286Y-106349771D02*
X147423143Y-106349771D01*
X147423143Y-106349771D02*
X147480286Y-106378342D01*
X147480286Y-106378342D02*
X147508857Y-106406914D01*
X147508857Y-106406914D02*
X147537428Y-106464057D01*
X147537428Y-106464057D02*
X147537428Y-106521200D01*
X147537428Y-106521200D02*
X147508857Y-106606914D01*
X147508857Y-106606914D02*
X147166000Y-106949771D01*
X147166000Y-106949771D02*
X147537428Y-106949771D01*
X143410000Y-105622628D02*
X143381428Y-105651200D01*
X143381428Y-105651200D02*
X143295714Y-105679771D01*
X143295714Y-105679771D02*
X143238571Y-105679771D01*
X143238571Y-105679771D02*
X143152857Y-105651200D01*
X143152857Y-105651200D02*
X143095714Y-105594057D01*
X143095714Y-105594057D02*
X143067143Y-105536914D01*
X143067143Y-105536914D02*
X143038571Y-105422628D01*
X143038571Y-105422628D02*
X143038571Y-105336914D01*
X143038571Y-105336914D02*
X143067143Y-105222628D01*
X143067143Y-105222628D02*
X143095714Y-105165485D01*
X143095714Y-105165485D02*
X143152857Y-105108342D01*
X143152857Y-105108342D02*
X143238571Y-105079771D01*
X143238571Y-105079771D02*
X143295714Y-105079771D01*
X143295714Y-105079771D02*
X143381428Y-105108342D01*
X143381428Y-105108342D02*
X143410000Y-105136914D01*
X143610000Y-105079771D02*
X143981428Y-105079771D01*
X143981428Y-105079771D02*
X143781428Y-105308342D01*
X143781428Y-105308342D02*
X143867143Y-105308342D01*
X143867143Y-105308342D02*
X143924286Y-105336914D01*
X143924286Y-105336914D02*
X143952857Y-105365485D01*
X143952857Y-105365485D02*
X143981428Y-105422628D01*
X143981428Y-105422628D02*
X143981428Y-105565485D01*
X143981428Y-105565485D02*
X143952857Y-105622628D01*
X143952857Y-105622628D02*
X143924286Y-105651200D01*
X143924286Y-105651200D02*
X143867143Y-105679771D01*
X143867143Y-105679771D02*
X143695714Y-105679771D01*
X143695714Y-105679771D02*
X143638571Y-105651200D01*
X143638571Y-105651200D02*
X143610000Y-105622628D01*
X153257143Y-88259771D02*
X153257143Y-87659771D01*
X153257143Y-87659771D02*
X153400000Y-87659771D01*
X153400000Y-87659771D02*
X153485714Y-87688342D01*
X153485714Y-87688342D02*
X153542857Y-87745485D01*
X153542857Y-87745485D02*
X153571428Y-87802628D01*
X153571428Y-87802628D02*
X153600000Y-87916914D01*
X153600000Y-87916914D02*
X153600000Y-88002628D01*
X153600000Y-88002628D02*
X153571428Y-88116914D01*
X153571428Y-88116914D02*
X153542857Y-88174057D01*
X153542857Y-88174057D02*
X153485714Y-88231200D01*
X153485714Y-88231200D02*
X153400000Y-88259771D01*
X153400000Y-88259771D02*
X153257143Y-88259771D01*
X154114286Y-87859771D02*
X154114286Y-88259771D01*
X153971428Y-87631200D02*
X153828571Y-88059771D01*
X153828571Y-88059771D02*
X154200000Y-88059771D01*
X155054285Y-99612628D02*
X155025713Y-99641200D01*
X155025713Y-99641200D02*
X154939999Y-99669771D01*
X154939999Y-99669771D02*
X154882856Y-99669771D01*
X154882856Y-99669771D02*
X154797142Y-99641200D01*
X154797142Y-99641200D02*
X154739999Y-99584057D01*
X154739999Y-99584057D02*
X154711428Y-99526914D01*
X154711428Y-99526914D02*
X154682856Y-99412628D01*
X154682856Y-99412628D02*
X154682856Y-99326914D01*
X154682856Y-99326914D02*
X154711428Y-99212628D01*
X154711428Y-99212628D02*
X154739999Y-99155485D01*
X154739999Y-99155485D02*
X154797142Y-99098342D01*
X154797142Y-99098342D02*
X154882856Y-99069771D01*
X154882856Y-99069771D02*
X154939999Y-99069771D01*
X154939999Y-99069771D02*
X155025713Y-99098342D01*
X155025713Y-99098342D02*
X155054285Y-99126914D01*
X155625713Y-99669771D02*
X155282856Y-99669771D01*
X155454285Y-99669771D02*
X155454285Y-99069771D01*
X155454285Y-99069771D02*
X155397142Y-99155485D01*
X155397142Y-99155485D02*
X155339999Y-99212628D01*
X155339999Y-99212628D02*
X155282856Y-99241200D01*
X155968571Y-99326914D02*
X155911428Y-99298342D01*
X155911428Y-99298342D02*
X155882857Y-99269771D01*
X155882857Y-99269771D02*
X155854285Y-99212628D01*
X155854285Y-99212628D02*
X155854285Y-99184057D01*
X155854285Y-99184057D02*
X155882857Y-99126914D01*
X155882857Y-99126914D02*
X155911428Y-99098342D01*
X155911428Y-99098342D02*
X155968571Y-99069771D01*
X155968571Y-99069771D02*
X156082857Y-99069771D01*
X156082857Y-99069771D02*
X156140000Y-99098342D01*
X156140000Y-99098342D02*
X156168571Y-99126914D01*
X156168571Y-99126914D02*
X156197142Y-99184057D01*
X156197142Y-99184057D02*
X156197142Y-99212628D01*
X156197142Y-99212628D02*
X156168571Y-99269771D01*
X156168571Y-99269771D02*
X156140000Y-99298342D01*
X156140000Y-99298342D02*
X156082857Y-99326914D01*
X156082857Y-99326914D02*
X155968571Y-99326914D01*
X155968571Y-99326914D02*
X155911428Y-99355485D01*
X155911428Y-99355485D02*
X155882857Y-99384057D01*
X155882857Y-99384057D02*
X155854285Y-99441200D01*
X155854285Y-99441200D02*
X155854285Y-99555485D01*
X155854285Y-99555485D02*
X155882857Y-99612628D01*
X155882857Y-99612628D02*
X155911428Y-99641200D01*
X155911428Y-99641200D02*
X155968571Y-99669771D01*
X155968571Y-99669771D02*
X156082857Y-99669771D01*
X156082857Y-99669771D02*
X156140000Y-99641200D01*
X156140000Y-99641200D02*
X156168571Y-99612628D01*
X156168571Y-99612628D02*
X156197142Y-99555485D01*
X156197142Y-99555485D02*
X156197142Y-99441200D01*
X156197142Y-99441200D02*
X156168571Y-99384057D01*
X156168571Y-99384057D02*
X156140000Y-99355485D01*
X156140000Y-99355485D02*
X156082857Y-99326914D01*
X130314285Y-93959771D02*
X130114285Y-93674057D01*
X129971428Y-93959771D02*
X129971428Y-93359771D01*
X129971428Y-93359771D02*
X130199999Y-93359771D01*
X130199999Y-93359771D02*
X130257142Y-93388342D01*
X130257142Y-93388342D02*
X130285713Y-93416914D01*
X130285713Y-93416914D02*
X130314285Y-93474057D01*
X130314285Y-93474057D02*
X130314285Y-93559771D01*
X130314285Y-93559771D02*
X130285713Y-93616914D01*
X130285713Y-93616914D02*
X130257142Y-93645485D01*
X130257142Y-93645485D02*
X130199999Y-93674057D01*
X130199999Y-93674057D02*
X129971428Y-93674057D01*
X130885713Y-93959771D02*
X130542856Y-93959771D01*
X130714285Y-93959771D02*
X130714285Y-93359771D01*
X130714285Y-93359771D02*
X130657142Y-93445485D01*
X130657142Y-93445485D02*
X130599999Y-93502628D01*
X130599999Y-93502628D02*
X130542856Y-93531200D01*
X131085714Y-93359771D02*
X131457142Y-93359771D01*
X131457142Y-93359771D02*
X131257142Y-93588342D01*
X131257142Y-93588342D02*
X131342857Y-93588342D01*
X131342857Y-93588342D02*
X131400000Y-93616914D01*
X131400000Y-93616914D02*
X131428571Y-93645485D01*
X131428571Y-93645485D02*
X131457142Y-93702628D01*
X131457142Y-93702628D02*
X131457142Y-93845485D01*
X131457142Y-93845485D02*
X131428571Y-93902628D01*
X131428571Y-93902628D02*
X131400000Y-93931200D01*
X131400000Y-93931200D02*
X131342857Y-93959771D01*
X131342857Y-93959771D02*
X131171428Y-93959771D01*
X131171428Y-93959771D02*
X131114285Y-93931200D01*
X131114285Y-93931200D02*
X131085714Y-93902628D01*
X146318938Y-88389640D02*
X146278532Y-88389640D01*
X146278532Y-88389640D02*
X146197720Y-88349234D01*
X146197720Y-88349234D02*
X146157314Y-88308828D01*
X146157314Y-88308828D02*
X146116907Y-88228016D01*
X146116907Y-88228016D02*
X146116907Y-88147204D01*
X146116907Y-88147204D02*
X146137110Y-88086594D01*
X146137110Y-88086594D02*
X146197720Y-87985579D01*
X146197720Y-87985579D02*
X146258329Y-87924970D01*
X146258329Y-87924970D02*
X146359344Y-87864361D01*
X146359344Y-87864361D02*
X146419953Y-87844158D01*
X146419953Y-87844158D02*
X146500765Y-87844158D01*
X146500765Y-87844158D02*
X146581578Y-87884564D01*
X146581578Y-87884564D02*
X146621984Y-87924970D01*
X146621984Y-87924970D02*
X146662390Y-88005782D01*
X146662390Y-88005782D02*
X146662390Y-88046188D01*
X147086654Y-88389640D02*
X146884623Y-88187610D01*
X146884623Y-88187610D02*
X146662390Y-88369437D01*
X146662390Y-88369437D02*
X146702796Y-88369437D01*
X146702796Y-88369437D02*
X146763405Y-88389640D01*
X146763405Y-88389640D02*
X146864420Y-88490655D01*
X146864420Y-88490655D02*
X146884623Y-88551265D01*
X146884623Y-88551265D02*
X146884623Y-88591671D01*
X146884623Y-88591671D02*
X146864420Y-88652280D01*
X146864420Y-88652280D02*
X146763405Y-88753295D01*
X146763405Y-88753295D02*
X146702796Y-88773498D01*
X146702796Y-88773498D02*
X146662390Y-88773498D01*
X146662390Y-88773498D02*
X146601781Y-88753295D01*
X146601781Y-88753295D02*
X146500765Y-88652280D01*
X146500765Y-88652280D02*
X146480562Y-88591671D01*
X146480562Y-88591671D02*
X146480562Y-88551265D01*
X151507609Y-103453092D02*
X151507609Y-103493498D01*
X151507609Y-103493498D02*
X151467203Y-103574310D01*
X151467203Y-103574310D02*
X151426797Y-103614717D01*
X151426797Y-103614717D02*
X151345985Y-103655123D01*
X151345985Y-103655123D02*
X151265173Y-103655123D01*
X151265173Y-103655123D02*
X151204563Y-103634920D01*
X151204563Y-103634920D02*
X151103548Y-103574310D01*
X151103548Y-103574310D02*
X151042939Y-103513701D01*
X151042939Y-103513701D02*
X150982330Y-103412686D01*
X150982330Y-103412686D02*
X150962127Y-103352077D01*
X150962127Y-103352077D02*
X150962127Y-103271265D01*
X150962127Y-103271265D02*
X151002533Y-103190452D01*
X151002533Y-103190452D02*
X151042939Y-103150046D01*
X151042939Y-103150046D02*
X151123751Y-103109640D01*
X151123751Y-103109640D02*
X151164157Y-103109640D01*
X151952076Y-103089437D02*
X151709640Y-103331874D01*
X151830858Y-103210655D02*
X151406594Y-102786391D01*
X151406594Y-102786391D02*
X151426797Y-102887407D01*
X151426797Y-102887407D02*
X151426797Y-102968219D01*
X151426797Y-102968219D02*
X151406594Y-103028828D01*
X151790452Y-102402533D02*
X151830858Y-102362127D01*
X151830858Y-102362127D02*
X151891467Y-102341924D01*
X151891467Y-102341924D02*
X151931873Y-102341924D01*
X151931873Y-102341924D02*
X151992483Y-102362127D01*
X151992483Y-102362127D02*
X152093498Y-102422736D01*
X152093498Y-102422736D02*
X152194513Y-102523751D01*
X152194513Y-102523751D02*
X152255122Y-102624767D01*
X152255122Y-102624767D02*
X152275325Y-102685376D01*
X152275325Y-102685376D02*
X152275325Y-102725782D01*
X152275325Y-102725782D02*
X152255122Y-102786391D01*
X152255122Y-102786391D02*
X152214716Y-102826797D01*
X152214716Y-102826797D02*
X152154107Y-102847000D01*
X152154107Y-102847000D02*
X152113701Y-102847000D01*
X152113701Y-102847000D02*
X152053092Y-102826797D01*
X152053092Y-102826797D02*
X151952077Y-102766188D01*
X151952077Y-102766188D02*
X151851061Y-102665173D01*
X151851061Y-102665173D02*
X151790452Y-102564158D01*
X151790452Y-102564158D02*
X151770249Y-102503548D01*
X151770249Y-102503548D02*
X151770249Y-102463142D01*
X151770249Y-102463142D02*
X151790452Y-102402533D01*
%TO.C,G\u002A\u002A\u002A*%
G36*
X145540769Y-93261970D02*
G01*
X145585593Y-93528817D01*
X145634692Y-93819892D01*
X145671103Y-94034854D01*
X145734415Y-94407529D01*
X145960937Y-94088217D01*
X146187459Y-93768905D01*
X146193778Y-93982349D01*
X146196084Y-94131708D01*
X146193910Y-94235612D01*
X146192641Y-94249155D01*
X146217927Y-94245092D01*
X146290627Y-94174875D01*
X146342301Y-94116093D01*
X146442734Y-94013309D01*
X146518106Y-93965417D01*
X146537840Y-93968093D01*
X146530499Y-94015216D01*
X146488584Y-94040162D01*
X146413288Y-94094920D01*
X146400904Y-94126676D01*
X146371696Y-94199967D01*
X146294988Y-94326658D01*
X146187160Y-94484714D01*
X146064590Y-94652101D01*
X145943655Y-94806786D01*
X145840734Y-94926732D01*
X145772205Y-94989907D01*
X145756462Y-94993676D01*
X145704201Y-94976471D01*
X145712645Y-95018405D01*
X145770627Y-95099721D01*
X145866982Y-95200663D01*
X145880437Y-95213016D01*
X145982996Y-95304936D01*
X146011952Y-95326150D01*
X145972575Y-95277853D01*
X145924497Y-95222999D01*
X145844425Y-95118824D01*
X145846955Y-95082146D01*
X145932006Y-95112986D01*
X146061102Y-95187333D01*
X146240829Y-95298410D01*
X146062335Y-95520841D01*
X145914477Y-95711498D01*
X145836366Y-95827791D01*
X145828986Y-95868107D01*
X145857151Y-95856262D01*
X145917920Y-95796634D01*
X146061439Y-95796634D01*
X146067589Y-95857534D01*
X146160985Y-95876628D01*
X146168987Y-95876676D01*
X146261910Y-95867535D01*
X146264598Y-95828403D01*
X146240820Y-95796634D01*
X146166653Y-95729714D01*
X146133273Y-95716592D01*
X146080813Y-95758890D01*
X146061439Y-95796634D01*
X145917920Y-95796634D01*
X145920122Y-95794473D01*
X146017609Y-95675505D01*
X146066527Y-95609869D01*
X146294182Y-95609869D01*
X146313706Y-95653791D01*
X146329756Y-95645443D01*
X146336142Y-95582116D01*
X146329756Y-95574295D01*
X146298033Y-95581620D01*
X146294182Y-95609869D01*
X146066527Y-95609869D01*
X146087887Y-95581210D01*
X146187330Y-95449977D01*
X146262754Y-95363596D01*
X146289887Y-95343327D01*
X146348086Y-95373717D01*
X146451223Y-95448134D01*
X146471714Y-95464311D01*
X146622567Y-95585030D01*
X146507863Y-95730853D01*
X146444065Y-95826251D01*
X146433428Y-95875031D01*
X146439002Y-95876676D01*
X146487023Y-95838091D01*
X146524638Y-95796634D01*
X146701775Y-95796634D01*
X146707925Y-95857534D01*
X146801321Y-95876628D01*
X146809323Y-95876676D01*
X146902246Y-95867535D01*
X146904935Y-95828403D01*
X146881156Y-95796634D01*
X146806990Y-95729714D01*
X146773609Y-95716592D01*
X146721149Y-95758890D01*
X146701775Y-95796634D01*
X146524638Y-95796634D01*
X146575179Y-95740930D01*
X146681049Y-95613084D01*
X146711086Y-95574295D01*
X146952305Y-95574295D01*
X146959630Y-95606018D01*
X146987879Y-95609869D01*
X147031802Y-95590345D01*
X147023453Y-95574295D01*
X146960126Y-95567908D01*
X146952305Y-95574295D01*
X146711086Y-95574295D01*
X146782212Y-95482444D01*
X146856247Y-95376899D01*
X146881156Y-95326661D01*
X146837721Y-95309465D01*
X146803462Y-95307488D01*
X146745977Y-95325330D01*
X146746579Y-95341163D01*
X146740346Y-95409253D01*
X146719070Y-95452333D01*
X146662798Y-95501555D01*
X146580206Y-95467357D01*
X146575848Y-95464375D01*
X146480152Y-95401165D01*
X146330734Y-95305332D01*
X146202313Y-95224249D01*
X146056141Y-95128734D01*
X145954682Y-95055032D01*
X145922166Y-95022613D01*
X145950441Y-94970163D01*
X146027502Y-94852032D01*
X146111786Y-94729407D01*
X146347543Y-94729407D01*
X146374224Y-94756087D01*
X146400904Y-94729407D01*
X146374224Y-94702726D01*
X146347543Y-94729407D01*
X146111786Y-94729407D01*
X146139562Y-94688995D01*
X146205412Y-94595722D01*
X146264175Y-94515961D01*
X146507627Y-94515961D01*
X146534308Y-94542642D01*
X146560988Y-94515961D01*
X146534308Y-94489281D01*
X146507627Y-94515961D01*
X146264175Y-94515961D01*
X146348007Y-94402173D01*
X146367997Y-94379084D01*
X146627433Y-94379084D01*
X146634732Y-94382558D01*
X146683429Y-94344993D01*
X146694392Y-94329197D01*
X146707989Y-94279310D01*
X146700690Y-94275835D01*
X146651993Y-94313401D01*
X146641030Y-94329197D01*
X146627433Y-94379084D01*
X146367997Y-94379084D01*
X146450754Y-94283500D01*
X146530553Y-94224193D01*
X146604301Y-94208740D01*
X146625537Y-94210093D01*
X146762929Y-94181960D01*
X146845245Y-94095670D01*
X146898813Y-94006291D01*
X146888058Y-93981460D01*
X146831352Y-93992637D01*
X146730044Y-93993159D01*
X146706791Y-93930246D01*
X146764718Y-93816457D01*
X146781952Y-93794091D01*
X146853319Y-93708494D01*
X146872912Y-93704333D01*
X146855059Y-93779260D01*
X146854225Y-93782243D01*
X146848116Y-93877472D01*
X146901092Y-93902306D01*
X146993478Y-93871161D01*
X147014560Y-93848945D01*
X147084979Y-93797580D01*
X147100558Y-93795583D01*
X147093009Y-93836418D01*
X147033739Y-93947772D01*
X146932491Y-94112921D01*
X146799014Y-94315141D01*
X146790581Y-94327520D01*
X146637701Y-94541989D01*
X146506715Y-94707510D01*
X146409634Y-94809865D01*
X146360883Y-94836127D01*
X146298019Y-94836582D01*
X146302281Y-94895635D01*
X146365846Y-94995908D01*
X146480893Y-95120024D01*
X146494287Y-95132490D01*
X146694392Y-95316382D01*
X146507627Y-95110026D01*
X146320862Y-94903670D01*
X146507627Y-94997675D01*
X146651087Y-95077849D01*
X146838092Y-95192715D01*
X147003419Y-95300896D01*
X147312447Y-95510111D01*
X147199172Y-95693393D01*
X147140448Y-95806443D01*
X147128549Y-95870926D01*
X147137902Y-95876676D01*
X147199639Y-95833964D01*
X147221919Y-95793252D01*
X147229068Y-95785249D01*
X147423372Y-95785249D01*
X147436355Y-95815070D01*
X147490084Y-95872355D01*
X147520973Y-95860604D01*
X147521493Y-95853144D01*
X147483591Y-95808010D01*
X147459886Y-95791538D01*
X147423372Y-95785249D01*
X147229068Y-95785249D01*
X147272553Y-95736567D01*
X147302694Y-95739964D01*
X147330256Y-95723090D01*
X147323528Y-95663304D01*
X147317518Y-95578030D01*
X147336349Y-95556508D01*
X147408013Y-95588762D01*
X147517569Y-95669407D01*
X147638305Y-95774265D01*
X147743512Y-95879158D01*
X147806481Y-95959910D01*
X147812456Y-95987483D01*
X147828712Y-96028289D01*
X147876022Y-96036760D01*
X147907382Y-96008239D01*
X147862107Y-95929726D01*
X147751434Y-95811799D01*
X147734402Y-95796634D01*
X148055106Y-95796634D01*
X148081787Y-95823314D01*
X148108467Y-95796634D01*
X148081787Y-95769953D01*
X148055106Y-95796634D01*
X147734402Y-95796634D01*
X147640604Y-95713117D01*
X148121550Y-95713117D01*
X148128850Y-95716592D01*
X148177546Y-95679026D01*
X148188509Y-95663230D01*
X148202107Y-95613343D01*
X148194808Y-95609869D01*
X148146111Y-95647434D01*
X148135148Y-95663230D01*
X148121550Y-95713117D01*
X147640604Y-95713117D01*
X147586599Y-95665032D01*
X147378838Y-95500002D01*
X147139387Y-95327286D01*
X147077765Y-95285404D01*
X146879071Y-95155316D01*
X146710682Y-95051251D01*
X146593512Y-94985769D01*
X146551782Y-94969533D01*
X146517758Y-94931114D01*
X146524454Y-94895926D01*
X146536427Y-94875615D01*
X146743842Y-94875615D01*
X146771300Y-94913890D01*
X146870381Y-94985983D01*
X146998790Y-95064106D01*
X147199853Y-95191091D01*
X147401396Y-95337807D01*
X147494812Y-95415198D01*
X147623942Y-95522130D01*
X147725167Y-95591426D01*
X147761619Y-95606055D01*
X147753852Y-95575472D01*
X147680317Y-95495214D01*
X147574854Y-95398530D01*
X147413497Y-95268703D01*
X147231923Y-95137974D01*
X147052024Y-95020118D01*
X146895696Y-94928913D01*
X146784832Y-94878136D01*
X146743842Y-94875615D01*
X146536427Y-94875615D01*
X146543975Y-94862810D01*
X147254686Y-94862810D01*
X147277981Y-94992941D01*
X147318719Y-95065583D01*
X147443009Y-95123538D01*
X147593311Y-95111193D01*
X147704446Y-95045763D01*
X147777291Y-94911765D01*
X147764430Y-94771553D01*
X147680024Y-94656539D01*
X147538237Y-94598136D01*
X147501673Y-94596003D01*
X147350333Y-94638287D01*
X147267932Y-94759729D01*
X147254686Y-94862810D01*
X146543975Y-94862810D01*
X146561308Y-94833406D01*
X146644408Y-94705862D01*
X146758576Y-94535542D01*
X146888629Y-94344694D01*
X147019387Y-94155565D01*
X147135670Y-93990404D01*
X147222298Y-93871458D01*
X147233687Y-93856521D01*
X147289763Y-93865283D01*
X147411097Y-93928825D01*
X147580247Y-94034472D01*
X147779769Y-94169548D01*
X147992218Y-94321379D01*
X148200153Y-94477290D01*
X148386129Y-94624605D01*
X148532703Y-94750649D01*
X148622431Y-94842748D01*
X148642081Y-94879911D01*
X148613992Y-94955511D01*
X148540960Y-95087277D01*
X148455895Y-95220747D01*
X148269709Y-95497217D01*
X148469235Y-95414216D01*
X148646774Y-95336426D01*
X148814218Y-95257167D01*
X148828845Y-95249797D01*
X148902690Y-95211237D01*
X148945626Y-95192129D01*
X148950723Y-95204597D01*
X148911054Y-95260767D01*
X148819690Y-95372764D01*
X148669702Y-95552715D01*
X148625233Y-95606134D01*
X148493020Y-95796066D01*
X148429119Y-95957572D01*
X148435217Y-96076324D01*
X148512998Y-96137995D01*
X148562039Y-96143482D01*
X148663586Y-96165522D01*
X148694879Y-96252302D01*
X148695442Y-96276886D01*
X148717482Y-96378433D01*
X148804261Y-96409726D01*
X148828845Y-96410289D01*
X148930393Y-96432329D01*
X148961685Y-96519108D01*
X148962249Y-96543693D01*
X148940209Y-96645240D01*
X148853430Y-96676533D01*
X148828845Y-96677096D01*
X148727298Y-96699135D01*
X148696005Y-96785915D01*
X148695442Y-96810499D01*
X148717482Y-96912047D01*
X148804261Y-96943339D01*
X148828845Y-96943903D01*
X148930393Y-96965942D01*
X148961685Y-97052722D01*
X148962249Y-97077306D01*
X148940209Y-97178853D01*
X148853430Y-97210146D01*
X148828845Y-97210709D01*
X148727298Y-97232749D01*
X148696005Y-97319529D01*
X148695442Y-97344113D01*
X148717482Y-97445660D01*
X148804261Y-97476953D01*
X148828845Y-97477516D01*
X148930393Y-97499556D01*
X148961685Y-97586335D01*
X148962249Y-97610919D01*
X148940209Y-97712467D01*
X148853430Y-97743759D01*
X148828845Y-97744323D01*
X148727298Y-97766362D01*
X148696005Y-97853142D01*
X148695442Y-97877726D01*
X148717482Y-97979273D01*
X148804261Y-98010566D01*
X148828845Y-98011130D01*
X148930393Y-98033169D01*
X148961685Y-98119949D01*
X148962249Y-98144533D01*
X148940209Y-98246080D01*
X148853430Y-98277373D01*
X148828845Y-98277936D01*
X148727298Y-98299976D01*
X148696005Y-98386755D01*
X148695442Y-98411340D01*
X148717482Y-98512887D01*
X148804261Y-98544180D01*
X148828845Y-98544743D01*
X148930393Y-98566783D01*
X148961685Y-98653562D01*
X148962249Y-98678146D01*
X148940209Y-98779694D01*
X148853430Y-98810986D01*
X148828845Y-98811550D01*
X148727298Y-98833589D01*
X148696005Y-98920369D01*
X148695442Y-98944953D01*
X148717482Y-99046500D01*
X148804261Y-99077793D01*
X148828845Y-99078356D01*
X148930393Y-99100396D01*
X148961685Y-99187176D01*
X148962249Y-99211760D01*
X148940209Y-99313307D01*
X148853430Y-99344600D01*
X148828845Y-99345163D01*
X148727298Y-99367203D01*
X148696005Y-99453982D01*
X148695442Y-99478566D01*
X148717482Y-99580114D01*
X148804261Y-99611406D01*
X148828845Y-99611970D01*
X148962249Y-99611970D01*
X148962249Y-100278987D01*
X148962249Y-100946003D01*
X148695442Y-100946003D01*
X148534400Y-100952133D01*
X148454171Y-100976878D01*
X148429236Y-101029774D01*
X148428635Y-101045697D01*
X148424618Y-101069631D01*
X148407374Y-101095045D01*
X148369116Y-101125162D01*
X148302058Y-101163207D01*
X148198412Y-101212406D01*
X148050391Y-101275983D01*
X147850209Y-101357164D01*
X147590078Y-101459173D01*
X147262212Y-101585236D01*
X146858823Y-101738577D01*
X146372124Y-101922421D01*
X145794328Y-102139994D01*
X145707207Y-102172771D01*
X145467081Y-102263108D01*
X144040702Y-101721209D01*
X143672325Y-101580398D01*
X143336394Y-101450345D01*
X143045908Y-101336214D01*
X142813866Y-101243168D01*
X142653266Y-101176372D01*
X142577107Y-101140988D01*
X142573265Y-101138252D01*
X142533309Y-101050353D01*
X142532207Y-101034939D01*
X142482384Y-100994034D01*
X142346730Y-100964933D01*
X142252060Y-100956555D01*
X141971913Y-100940426D01*
X141971913Y-100812600D01*
X143119182Y-100812600D01*
X143121591Y-100866607D01*
X143137191Y-100912306D01*
X143178543Y-100956331D01*
X143258205Y-101005313D01*
X143388738Y-101065886D01*
X143582701Y-101144683D01*
X143852653Y-101248335D01*
X144173068Y-101369147D01*
X144506913Y-101497842D01*
X144791480Y-101613677D01*
X145014397Y-101711203D01*
X145163293Y-101784971D01*
X145225795Y-101829528D01*
X145226955Y-101833408D01*
X145272597Y-101916354D01*
X145380692Y-101985292D01*
X145495219Y-102011608D01*
X145582242Y-101975470D01*
X145690672Y-101884511D01*
X145708664Y-101865116D01*
X145783965Y-101801068D01*
X145907337Y-101729519D01*
X146090919Y-101645086D01*
X146346851Y-101542387D01*
X146687275Y-101416041D01*
X146867816Y-101351265D01*
X147895022Y-100985528D01*
X147895022Y-100805682D01*
X147886289Y-100685092D01*
X147838312Y-100635634D01*
X147718423Y-100625848D01*
X147708257Y-100625835D01*
X147584811Y-100639238D01*
X147523106Y-100672194D01*
X147521493Y-100679197D01*
X147567862Y-100716663D01*
X147679585Y-100732554D01*
X147681577Y-100732558D01*
X147801938Y-100751728D01*
X147841292Y-100817024D01*
X147841543Y-100825940D01*
X147819620Y-100867262D01*
X147746824Y-100918468D01*
X147612480Y-100984410D01*
X147405907Y-101069937D01*
X147116429Y-101179901D01*
X146841018Y-101280415D01*
X146531855Y-101390915D01*
X146255397Y-101487661D01*
X146027887Y-101565134D01*
X145865567Y-101617820D01*
X145784679Y-101640203D01*
X145780442Y-101640604D01*
X145698891Y-101602705D01*
X145653845Y-101559659D01*
X145549290Y-101494561D01*
X145467081Y-101479617D01*
X145341319Y-101513227D01*
X145280316Y-101559659D01*
X145199064Y-101626970D01*
X145158761Y-101639701D01*
X145093567Y-101621781D01*
X144945061Y-101571906D01*
X144729741Y-101495904D01*
X144464108Y-101399602D01*
X144164658Y-101288829D01*
X144151429Y-101283887D01*
X143806961Y-101153186D01*
X143552130Y-101051229D01*
X143375477Y-100972559D01*
X143265544Y-100911718D01*
X143210874Y-100863248D01*
X143199224Y-100830316D01*
X143223218Y-100779249D01*
X143786198Y-100779249D01*
X143802625Y-100891117D01*
X143868942Y-100930319D01*
X143911671Y-100932663D01*
X144004150Y-100911539D01*
X144038454Y-100827594D01*
X144040803Y-100790366D01*
X144117021Y-100790366D01*
X144120276Y-100889358D01*
X144182669Y-100924837D01*
X144253217Y-100928216D01*
X144359519Y-100916384D01*
X144390484Y-100858380D01*
X144383898Y-100785919D01*
X144479896Y-100785919D01*
X144492763Y-100898776D01*
X144551810Y-100938204D01*
X144626640Y-100939813D01*
X144707354Y-100929429D01*
X144687321Y-100911238D01*
X144680001Y-100909220D01*
X144601079Y-100846111D01*
X144587436Y-100795347D01*
X144598021Y-100738777D01*
X144634127Y-100778276D01*
X144686939Y-100818986D01*
X144716501Y-100791616D01*
X144717208Y-100785919D01*
X144800064Y-100785919D01*
X144815520Y-100898320D01*
X144852761Y-100945991D01*
X144853425Y-100946003D01*
X144890892Y-100899634D01*
X144904582Y-100803382D01*
X144969944Y-100803382D01*
X144975674Y-100907306D01*
X145009965Y-100946003D01*
X145065623Y-100903587D01*
X145071083Y-100879302D01*
X145081809Y-100839979D01*
X145102211Y-100879302D01*
X145153897Y-100944686D01*
X145202060Y-100918286D01*
X145226558Y-100813738D01*
X145226955Y-100794837D01*
X145225673Y-100785919D01*
X145333677Y-100785919D01*
X145348035Y-100900327D01*
X145409069Y-100942180D01*
X145467081Y-100946003D01*
X145574374Y-100918171D01*
X145600484Y-100865961D01*
X145570302Y-100794279D01*
X145509662Y-100803003D01*
X145475740Y-100852621D01*
X145452249Y-100871338D01*
X145444613Y-100825940D01*
X145478173Y-100747225D01*
X145520442Y-100732558D01*
X145591454Y-100703744D01*
X145600484Y-100679197D01*
X145566194Y-100649076D01*
X145832730Y-100649076D01*
X145834901Y-100710242D01*
X145864246Y-100830448D01*
X145867291Y-100870326D01*
X145897540Y-100938490D01*
X145920652Y-100946003D01*
X145964007Y-100901311D01*
X145974014Y-100839281D01*
X145988571Y-100785919D01*
X146134098Y-100785919D01*
X146147286Y-100899126D01*
X146207277Y-100939484D01*
X146280841Y-100942253D01*
X146375758Y-100935768D01*
X146372405Y-100916847D01*
X146320862Y-100892642D01*
X146259815Y-100855824D01*
X146294182Y-100842214D01*
X146347313Y-100831259D01*
X146307263Y-100794465D01*
X146304393Y-100792590D01*
X146464705Y-100792590D01*
X146468816Y-100895745D01*
X146534433Y-100930507D01*
X146584768Y-100932663D01*
X146682684Y-100915555D01*
X146708772Y-100861597D01*
X146795405Y-100861597D01*
X146795498Y-100932756D01*
X146822086Y-100946003D01*
X146870997Y-100900629D01*
X146888423Y-100825940D01*
X146895690Y-100705877D01*
X146918815Y-100825940D01*
X146955561Y-100919645D01*
X146991590Y-100946003D01*
X147033151Y-100900600D01*
X147048507Y-100825940D01*
X147055774Y-100705877D01*
X147078899Y-100825940D01*
X147120535Y-100928058D01*
X147168276Y-100935790D01*
X147193934Y-100855816D01*
X147191529Y-100799260D01*
X147160628Y-100693666D01*
X147077751Y-100646985D01*
X147001219Y-100635795D01*
X146873650Y-100639073D01*
X146828520Y-100686694D01*
X146827795Y-100698132D01*
X146808926Y-100819103D01*
X146795405Y-100861597D01*
X146708772Y-100861597D01*
X146718021Y-100842467D01*
X146721072Y-100775538D01*
X146708065Y-100665137D01*
X146652984Y-100631831D01*
X146601009Y-100635464D01*
X146499418Y-100689245D01*
X146464705Y-100792590D01*
X146304393Y-100792590D01*
X146294182Y-100785919D01*
X146245126Y-100744566D01*
X146295559Y-100733548D01*
X146307522Y-100733375D01*
X146386736Y-100707491D01*
X146400904Y-100679197D01*
X146355239Y-100639084D01*
X146267501Y-100625835D01*
X146172161Y-100643065D01*
X146137283Y-100716305D01*
X146134098Y-100785919D01*
X145988571Y-100785919D01*
X145997663Y-100752592D01*
X146030524Y-100732558D01*
X146062393Y-100699867D01*
X146054056Y-100679197D01*
X145979182Y-100635187D01*
X145911794Y-100625835D01*
X145832730Y-100649076D01*
X145566194Y-100649076D01*
X145554819Y-100639084D01*
X145467081Y-100625835D01*
X145371741Y-100643065D01*
X145336863Y-100716305D01*
X145333677Y-100785919D01*
X145225673Y-100785919D01*
X145211263Y-100685706D01*
X145147838Y-100651612D01*
X145106892Y-100652216D01*
X145008639Y-100692856D01*
X144969944Y-100803382D01*
X144904582Y-100803382D01*
X144906783Y-100787911D01*
X144906787Y-100785919D01*
X144891330Y-100673519D01*
X144854089Y-100625848D01*
X144853425Y-100625835D01*
X144815959Y-100672205D01*
X144800068Y-100783928D01*
X144800064Y-100785919D01*
X144717208Y-100785919D01*
X144728013Y-100698891D01*
X144654740Y-100636933D01*
X144583469Y-100625835D01*
X144507277Y-100652468D01*
X144480743Y-100749695D01*
X144479896Y-100785919D01*
X144383898Y-100785919D01*
X144382830Y-100774163D01*
X144348882Y-100663512D01*
X144277227Y-100633600D01*
X144246634Y-100636313D01*
X144147838Y-100694721D01*
X144117021Y-100790366D01*
X144040803Y-100790366D01*
X144041505Y-100779249D01*
X144029332Y-100668127D01*
X143966324Y-100628729D01*
X143916033Y-100625835D01*
X143821639Y-100644873D01*
X143788410Y-100723246D01*
X143786198Y-100779249D01*
X143223218Y-100779249D01*
X143235932Y-100752191D01*
X143332627Y-100732558D01*
X143432891Y-100713144D01*
X143466030Y-100675816D01*
X143419615Y-100641240D01*
X143304454Y-100634776D01*
X143292606Y-100635795D01*
X143172423Y-100659858D01*
X143125790Y-100722139D01*
X143119182Y-100812600D01*
X141971913Y-100812600D01*
X141971913Y-100276198D01*
X141971913Y-100252306D01*
X142398803Y-100252306D01*
X142406539Y-100375044D01*
X142443602Y-100402556D01*
X142530780Y-100343731D01*
X142558278Y-100320489D01*
X142615568Y-100252306D01*
X142718972Y-100252306D01*
X142733329Y-100366714D01*
X142794363Y-100408567D01*
X142852375Y-100412390D01*
X142947715Y-100395161D01*
X142982592Y-100321920D01*
X142985778Y-100252306D01*
X143092501Y-100252306D01*
X143109272Y-100369483D01*
X143171674Y-100410738D01*
X143199224Y-100412390D01*
X143285934Y-100390044D01*
X143305946Y-100359029D01*
X143262948Y-100311182D01*
X143228968Y-100305667D01*
X143172657Y-100264459D01*
X143172636Y-100252306D01*
X143359308Y-100252306D01*
X143374764Y-100364706D01*
X143412005Y-100412378D01*
X143412669Y-100412390D01*
X143450136Y-100366021D01*
X143466026Y-100254298D01*
X143466030Y-100252306D01*
X143450574Y-100139906D01*
X143447657Y-100136172D01*
X143544413Y-100136172D01*
X143562081Y-100156256D01*
X143618469Y-100263321D01*
X143626114Y-100316340D01*
X143650661Y-100397079D01*
X143679476Y-100412390D01*
X143727539Y-100369490D01*
X143732837Y-100336712D01*
X143744174Y-100265646D01*
X143849356Y-100265646D01*
X143850940Y-100371227D01*
X143910507Y-100408734D01*
X143982759Y-100412390D01*
X144088953Y-100398245D01*
X144128451Y-100333482D01*
X144132923Y-100252306D01*
X144213089Y-100252306D01*
X144227447Y-100366714D01*
X144288481Y-100408567D01*
X144346493Y-100412390D01*
X144446775Y-100394124D01*
X144479896Y-100359029D01*
X144436675Y-100311688D01*
X144399854Y-100305667D01*
X144328829Y-100277742D01*
X144319812Y-100253981D01*
X144322043Y-100252306D01*
X144533257Y-100252306D01*
X144551502Y-100356477D01*
X144591190Y-100413560D01*
X144629750Y-100404555D01*
X144644193Y-100345688D01*
X144654919Y-100306366D01*
X144675320Y-100345688D01*
X144725750Y-100411918D01*
X144771942Y-100385919D01*
X144797829Y-100281528D01*
X144798580Y-100258976D01*
X144906787Y-100258976D01*
X144925677Y-100360850D01*
X144966396Y-100414280D01*
X145005013Y-100400562D01*
X145017722Y-100345688D01*
X145028448Y-100306366D01*
X145048850Y-100345688D01*
X145100398Y-100411155D01*
X145148369Y-100384785D01*
X145173103Y-100280245D01*
X145173593Y-100258976D01*
X145172641Y-100252306D01*
X145226955Y-100252306D01*
X145242411Y-100364706D01*
X145279652Y-100412378D01*
X145280316Y-100412390D01*
X145317783Y-100366021D01*
X145333673Y-100254298D01*
X145333677Y-100252306D01*
X145333230Y-100249057D01*
X145387039Y-100249057D01*
X145402276Y-100352738D01*
X145470215Y-100390695D01*
X145546276Y-100394603D01*
X145651362Y-100383818D01*
X145663662Y-100346509D01*
X145652078Y-100330218D01*
X145626913Y-100252306D01*
X145760568Y-100252306D01*
X145778813Y-100356477D01*
X145818501Y-100413560D01*
X145857060Y-100404555D01*
X145871504Y-100345688D01*
X145882230Y-100306366D01*
X145902631Y-100345688D01*
X145953793Y-100411397D01*
X146001217Y-100385110D01*
X146026566Y-100280553D01*
X146027375Y-100252306D01*
X146240820Y-100252306D01*
X146255398Y-100366938D01*
X146316404Y-100408780D01*
X146370655Y-100412390D01*
X146462816Y-100395294D01*
X146494765Y-100322582D01*
X146495875Y-100256017D01*
X146560988Y-100256017D01*
X146572881Y-100369716D01*
X146623923Y-100406079D01*
X146681051Y-100402761D01*
X146778418Y-100352648D01*
X146914154Y-100352648D01*
X146956168Y-100389503D01*
X147022990Y-100352032D01*
X147082752Y-100319971D01*
X147094602Y-100352495D01*
X147131509Y-100409459D01*
X147147963Y-100412390D01*
X147185430Y-100366021D01*
X147200655Y-100258976D01*
X147254686Y-100258976D01*
X147273576Y-100360850D01*
X147314295Y-100414280D01*
X147352912Y-100400562D01*
X147365621Y-100345688D01*
X147376347Y-100306366D01*
X147396749Y-100345688D01*
X147448297Y-100411155D01*
X147496269Y-100384785D01*
X147505519Y-100345688D01*
X147610394Y-100345688D01*
X147611096Y-100394942D01*
X147704214Y-100412189D01*
X147722895Y-100412390D01*
X147832358Y-100398482D01*
X147872672Y-100334224D01*
X147877235Y-100252306D01*
X147948383Y-100252306D01*
X147966673Y-100361109D01*
X148038912Y-100397606D01*
X148072893Y-100399050D01*
X148165211Y-100377494D01*
X148196178Y-100292355D01*
X148196995Y-100265646D01*
X148278347Y-100265646D01*
X148283754Y-100371475D01*
X148318368Y-100412390D01*
X148372460Y-100371057D01*
X148375274Y-100352495D01*
X148396241Y-100319912D01*
X148446885Y-100352032D01*
X148526402Y-100389552D01*
X148558124Y-100333224D01*
X148547638Y-100221546D01*
X148493343Y-100118253D01*
X148408131Y-100094683D01*
X148325373Y-100145370D01*
X148278440Y-100264850D01*
X148278347Y-100265646D01*
X148196995Y-100265646D01*
X148197403Y-100252306D01*
X148179113Y-100143503D01*
X148106874Y-100107006D01*
X148072893Y-100105562D01*
X147980575Y-100127118D01*
X147949609Y-100212257D01*
X147948383Y-100252306D01*
X147877235Y-100252306D01*
X147862525Y-100137537D01*
X147801514Y-100095705D01*
X147749371Y-100092222D01*
X147652423Y-100115472D01*
X147636870Y-100185604D01*
X147628188Y-100303503D01*
X147610394Y-100345688D01*
X147505519Y-100345688D01*
X147521002Y-100280245D01*
X147521493Y-100258976D01*
X147505611Y-100147673D01*
X147439216Y-100108376D01*
X147388089Y-100105562D01*
X147291304Y-100123827D01*
X147257132Y-100200180D01*
X147254686Y-100258976D01*
X147200655Y-100258976D01*
X147201320Y-100254298D01*
X147201324Y-100252306D01*
X147186568Y-100137487D01*
X147125551Y-100095659D01*
X147074142Y-100092222D01*
X146966729Y-100125019D01*
X146921697Y-100224371D01*
X146914154Y-100352648D01*
X146778418Y-100352648D01*
X146780528Y-100351562D01*
X146817999Y-100238966D01*
X146815894Y-100132517D01*
X146756482Y-100095266D01*
X146697936Y-100092222D01*
X146601017Y-100108253D01*
X146564855Y-100178062D01*
X146560988Y-100256017D01*
X146495875Y-100256017D01*
X146495937Y-100252306D01*
X146476984Y-100136885D01*
X146412588Y-100095205D01*
X146366103Y-100092222D01*
X146276131Y-100111253D01*
X146243408Y-100189252D01*
X146240820Y-100252306D01*
X146027375Y-100252306D01*
X146013017Y-100137898D01*
X145951983Y-100096045D01*
X145893972Y-100092222D01*
X145798632Y-100109451D01*
X145763754Y-100182692D01*
X145760568Y-100252306D01*
X145626913Y-100252306D01*
X145619902Y-100230601D01*
X145626788Y-100192368D01*
X145609352Y-100131518D01*
X145520986Y-100111207D01*
X145422702Y-100123409D01*
X145389101Y-100196792D01*
X145387039Y-100249057D01*
X145333230Y-100249057D01*
X145318221Y-100139906D01*
X145280980Y-100092234D01*
X145280316Y-100092222D01*
X145242849Y-100138591D01*
X145226959Y-100250314D01*
X145226955Y-100252306D01*
X145172641Y-100252306D01*
X145157711Y-100147673D01*
X145091317Y-100108376D01*
X145040190Y-100105562D01*
X144943404Y-100123827D01*
X144909233Y-100200180D01*
X144906787Y-100258976D01*
X144798580Y-100258976D01*
X144799247Y-100238966D01*
X144792102Y-100130426D01*
X144767182Y-100115944D01*
X144741823Y-100145583D01*
X144688571Y-100193899D01*
X144658151Y-100158924D01*
X144606807Y-100093231D01*
X144559341Y-100119603D01*
X144534047Y-100224360D01*
X144533257Y-100252306D01*
X144322043Y-100252306D01*
X144358926Y-100224621D01*
X144399854Y-100233009D01*
X144468161Y-100224071D01*
X144479896Y-100177973D01*
X144434496Y-100107889D01*
X144346493Y-100092222D01*
X144251153Y-100109451D01*
X144216275Y-100182692D01*
X144213089Y-100252306D01*
X144132923Y-100252306D01*
X144133047Y-100250049D01*
X144121309Y-100137124D01*
X144068198Y-100100400D01*
X143999644Y-100103305D01*
X143893516Y-100145006D01*
X143850561Y-100255913D01*
X143849356Y-100265646D01*
X143744174Y-100265646D01*
X143751556Y-100219369D01*
X143765227Y-100176628D01*
X143764075Y-100114687D01*
X143681879Y-100092941D01*
X143647832Y-100092222D01*
X143549904Y-100101571D01*
X143544413Y-100136172D01*
X143447657Y-100136172D01*
X143413333Y-100092234D01*
X143412669Y-100092222D01*
X143375202Y-100138591D01*
X143359312Y-100250314D01*
X143359308Y-100252306D01*
X143172636Y-100252306D01*
X143172543Y-100198945D01*
X143168656Y-100113291D01*
X143142798Y-100092222D01*
X143107479Y-100138604D01*
X143092505Y-100250354D01*
X143092501Y-100252306D01*
X142985778Y-100252306D01*
X142971420Y-100137898D01*
X142910387Y-100096045D01*
X142852375Y-100092222D01*
X142757035Y-100109451D01*
X142722157Y-100182692D01*
X142718972Y-100252306D01*
X142615568Y-100252306D01*
X142649714Y-100211668D01*
X142649567Y-100131018D01*
X142559524Y-100093312D01*
X142532207Y-100092222D01*
X142436867Y-100109451D01*
X142401989Y-100182692D01*
X142398803Y-100252306D01*
X141971913Y-100252306D01*
X141971913Y-100003286D01*
X147379196Y-100003286D01*
X147386521Y-100035010D01*
X147414770Y-100038861D01*
X147458692Y-100019337D01*
X147450344Y-100003286D01*
X147387017Y-99996900D01*
X147379196Y-100003286D01*
X141971913Y-100003286D01*
X141971913Y-99718693D01*
X142825694Y-99718693D01*
X142959098Y-99718693D01*
X143092501Y-99718693D01*
X143092501Y-98064491D01*
X143092501Y-96730457D01*
X143519392Y-96730457D01*
X143519392Y-98144533D01*
X143519392Y-99558608D01*
X143679476Y-99558608D01*
X143839560Y-99558608D01*
X143839560Y-98971634D01*
X143839560Y-98384659D01*
X144115505Y-98384659D01*
X144297704Y-98377485D01*
X144425894Y-98345429D01*
X144509472Y-98272693D01*
X144557839Y-98143478D01*
X144560135Y-98122966D01*
X144906787Y-98122966D01*
X144907197Y-98509374D01*
X144909281Y-98803526D01*
X144914318Y-99019889D01*
X144923586Y-99172930D01*
X144938366Y-99277115D01*
X144959935Y-99346910D01*
X144989575Y-99396782D01*
X145022811Y-99435106D01*
X145110513Y-99507687D01*
X145221977Y-99545283D01*
X145393169Y-99558081D01*
X145458840Y-99558608D01*
X145692517Y-99543685D01*
X145840262Y-99496536D01*
X145876429Y-99470296D01*
X145918849Y-99418463D01*
X145947081Y-99340769D01*
X145963863Y-99217022D01*
X145971928Y-99027028D01*
X145974014Y-98750596D01*
X145974014Y-98749918D01*
X145974014Y-98117852D01*
X145707207Y-98117852D01*
X145440400Y-98117852D01*
X145440400Y-98304617D01*
X145452338Y-98433339D01*
X145498944Y-98485277D01*
X145547123Y-98491382D01*
X145604879Y-98502192D01*
X145637080Y-98550344D01*
X145650981Y-98659420D01*
X145653845Y-98838230D01*
X145653845Y-99185079D01*
X145467081Y-99185079D01*
X145280316Y-99185079D01*
X145280316Y-98144533D01*
X145280316Y-97103987D01*
X145467081Y-97103987D01*
X145593382Y-97113954D01*
X145645088Y-97158806D01*
X145653845Y-97237390D01*
X145671075Y-97332730D01*
X145744315Y-97367608D01*
X145813930Y-97370793D01*
X145915066Y-97362914D01*
X145961086Y-97319272D01*
X145973572Y-97209858D01*
X145974014Y-97148209D01*
X145952668Y-96948768D01*
X145878231Y-96821589D01*
X145735102Y-96753741D01*
X145507682Y-96732293D01*
X145472151Y-96732233D01*
X145246082Y-96746287D01*
X145094975Y-96789936D01*
X145026850Y-96834168D01*
X144987925Y-96869810D01*
X144958476Y-96912606D01*
X144937181Y-96976738D01*
X144922720Y-97076385D01*
X144913771Y-97225731D01*
X144909013Y-97438955D01*
X144907125Y-97730240D01*
X144906787Y-98113767D01*
X144906787Y-98122966D01*
X144560135Y-98122966D01*
X144580392Y-97941985D01*
X144586531Y-97652415D01*
X144586619Y-97592748D01*
X144584869Y-97323290D01*
X144577300Y-97138390D01*
X144560437Y-97015907D01*
X144530802Y-96933702D01*
X144484918Y-96869636D01*
X144470594Y-96853959D01*
X144398336Y-96790436D01*
X144310434Y-96753164D01*
X144177861Y-96735427D01*
X143971588Y-96730506D01*
X143936981Y-96730457D01*
X146347543Y-96730457D01*
X146347543Y-98108959D01*
X146348867Y-98482253D01*
X146352595Y-98819922D01*
X146358361Y-99107422D01*
X146365800Y-99330210D01*
X146374545Y-99473744D01*
X146383117Y-99523034D01*
X146457754Y-99549101D01*
X146569882Y-99558608D01*
X146721072Y-99558608D01*
X146721072Y-98971634D01*
X146721072Y-98384659D01*
X146907837Y-98384659D01*
X147094602Y-98384659D01*
X147094602Y-98971634D01*
X147094602Y-99558608D01*
X147281366Y-99558608D01*
X147468131Y-99558608D01*
X147468131Y-98962495D01*
X147465036Y-98685532D01*
X147454036Y-98494945D01*
X147432558Y-98370517D01*
X147398027Y-98292036D01*
X147379819Y-98268798D01*
X147320796Y-98187485D01*
X147339535Y-98121209D01*
X147379819Y-98073629D01*
X147424315Y-97998862D01*
X147451679Y-97879580D01*
X147465159Y-97693824D01*
X147468131Y-97476754D01*
X147465288Y-97234726D01*
X147453560Y-97073607D01*
X147428155Y-96967659D01*
X147384277Y-96891148D01*
X147352107Y-96853959D01*
X147282659Y-96792239D01*
X147198833Y-96755196D01*
X147072955Y-96736728D01*
X146877349Y-96730736D01*
X146791813Y-96730457D01*
X146347543Y-96730457D01*
X143936981Y-96730457D01*
X143519392Y-96730457D01*
X143092501Y-96730457D01*
X143092501Y-96410289D01*
X144160452Y-96410289D01*
X144584445Y-96413010D01*
X144908263Y-96421409D01*
X145138319Y-96435842D01*
X145281028Y-96456663D01*
X145332255Y-96475146D01*
X145434824Y-96512646D01*
X145563260Y-96492767D01*
X145615467Y-96475146D01*
X145753741Y-96447825D01*
X145995556Y-96427818D01*
X146337971Y-96415277D01*
X146778045Y-96410360D01*
X146844924Y-96410289D01*
X147895022Y-96410289D01*
X147895022Y-98064491D01*
X147895022Y-99718693D01*
X148028425Y-99718693D01*
X148161829Y-99718693D01*
X148161829Y-99211760D01*
X148428635Y-99211760D01*
X148450675Y-99313307D01*
X148537455Y-99344600D01*
X148562039Y-99345163D01*
X148663586Y-99323124D01*
X148694879Y-99236344D01*
X148695442Y-99211760D01*
X148673403Y-99110212D01*
X148586623Y-99078920D01*
X148562039Y-99078356D01*
X148460491Y-99100396D01*
X148429199Y-99187176D01*
X148428635Y-99211760D01*
X148161829Y-99211760D01*
X148161829Y-98678146D01*
X148428635Y-98678146D01*
X148450675Y-98779694D01*
X148537455Y-98810986D01*
X148562039Y-98811550D01*
X148663586Y-98789510D01*
X148694879Y-98702730D01*
X148695442Y-98678146D01*
X148673403Y-98576599D01*
X148586623Y-98545306D01*
X148562039Y-98544743D01*
X148460491Y-98566783D01*
X148429199Y-98653562D01*
X148428635Y-98678146D01*
X148161829Y-98678146D01*
X148161829Y-98144533D01*
X148428635Y-98144533D01*
X148450675Y-98246080D01*
X148537455Y-98277373D01*
X148562039Y-98277936D01*
X148663586Y-98255897D01*
X148694879Y-98169117D01*
X148695442Y-98144533D01*
X148673403Y-98042986D01*
X148586623Y-98011693D01*
X148562039Y-98011130D01*
X148460491Y-98033169D01*
X148429199Y-98119949D01*
X148428635Y-98144533D01*
X148161829Y-98144533D01*
X148161829Y-97931087D01*
X148161829Y-97610919D01*
X148428635Y-97610919D01*
X148450675Y-97712467D01*
X148537455Y-97743759D01*
X148562039Y-97744323D01*
X148663586Y-97722283D01*
X148694879Y-97635504D01*
X148695442Y-97610919D01*
X148673403Y-97509372D01*
X148586623Y-97478079D01*
X148562039Y-97477516D01*
X148460491Y-97499556D01*
X148429199Y-97586335D01*
X148428635Y-97610919D01*
X148161829Y-97610919D01*
X148161829Y-97077306D01*
X148428635Y-97077306D01*
X148450675Y-97178853D01*
X148537455Y-97210146D01*
X148562039Y-97210709D01*
X148663586Y-97188670D01*
X148694879Y-97101890D01*
X148695442Y-97077306D01*
X148673403Y-96975759D01*
X148586623Y-96944466D01*
X148562039Y-96943903D01*
X148460491Y-96965942D01*
X148429199Y-97052722D01*
X148428635Y-97077306D01*
X148161829Y-97077306D01*
X148161829Y-96543693D01*
X148428635Y-96543693D01*
X148450675Y-96645240D01*
X148537455Y-96676533D01*
X148562039Y-96677096D01*
X148663586Y-96655056D01*
X148694879Y-96568277D01*
X148695442Y-96543693D01*
X148673403Y-96442145D01*
X148586623Y-96410853D01*
X148562039Y-96410289D01*
X148460491Y-96432329D01*
X148429199Y-96519108D01*
X148428635Y-96543693D01*
X148161829Y-96543693D01*
X148161829Y-96143482D01*
X146967298Y-96143482D01*
X146554968Y-96142056D01*
X146236063Y-96137260D01*
X145997317Y-96128321D01*
X145825464Y-96114466D01*
X145707238Y-96094921D01*
X145629374Y-96068913D01*
X145621506Y-96065007D01*
X145503374Y-96016107D01*
X145415296Y-96027610D01*
X145350478Y-96065007D01*
X145290455Y-96091526D01*
X145193211Y-96111627D01*
X145045692Y-96126087D01*
X144834845Y-96135679D01*
X144547618Y-96141178D01*
X144170956Y-96143359D01*
X144028202Y-96143482D01*
X142825694Y-96143482D01*
X142825694Y-97931087D01*
X142825694Y-99718693D01*
X141971913Y-99718693D01*
X141971913Y-99611970D01*
X142131997Y-99611970D01*
X142246404Y-99597612D01*
X142288258Y-99536578D01*
X142292081Y-99478566D01*
X142274851Y-99383227D01*
X142201611Y-99348349D01*
X142131997Y-99345163D01*
X142017589Y-99330805D01*
X141975736Y-99269772D01*
X141971913Y-99211760D01*
X142292081Y-99211760D01*
X142314120Y-99313307D01*
X142400900Y-99344600D01*
X142425484Y-99345163D01*
X142527031Y-99323124D01*
X142558324Y-99236344D01*
X142558887Y-99211760D01*
X142536848Y-99110212D01*
X142450068Y-99078920D01*
X142425484Y-99078356D01*
X142323937Y-99100396D01*
X142292644Y-99187176D01*
X142292081Y-99211760D01*
X141971913Y-99211760D01*
X141989142Y-99116420D01*
X142062383Y-99081542D01*
X142131997Y-99078356D01*
X142246404Y-99063998D01*
X142288258Y-99002965D01*
X142292081Y-98944953D01*
X142274851Y-98849613D01*
X142201611Y-98814736D01*
X142131997Y-98811550D01*
X142017589Y-98797192D01*
X141975736Y-98736158D01*
X141971913Y-98678146D01*
X142292081Y-98678146D01*
X142314120Y-98779694D01*
X142400900Y-98810986D01*
X142425484Y-98811550D01*
X142527031Y-98789510D01*
X142558324Y-98702730D01*
X142558887Y-98678146D01*
X142536848Y-98576599D01*
X142450068Y-98545306D01*
X142425484Y-98544743D01*
X142323937Y-98566783D01*
X142292644Y-98653562D01*
X142292081Y-98678146D01*
X141971913Y-98678146D01*
X141989142Y-98582807D01*
X142062383Y-98547929D01*
X142131997Y-98544743D01*
X142246404Y-98530385D01*
X142288258Y-98469351D01*
X142292081Y-98411340D01*
X142274851Y-98316000D01*
X142201611Y-98281122D01*
X142131997Y-98277936D01*
X142017589Y-98263578D01*
X141975736Y-98202545D01*
X141971913Y-98144533D01*
X142292081Y-98144533D01*
X142314120Y-98246080D01*
X142400900Y-98277373D01*
X142425484Y-98277936D01*
X142527031Y-98255897D01*
X142558324Y-98169117D01*
X142558887Y-98144533D01*
X142536848Y-98042986D01*
X142450068Y-98011693D01*
X142425484Y-98011130D01*
X142323937Y-98033169D01*
X142292644Y-98119949D01*
X142292081Y-98144533D01*
X141971913Y-98144533D01*
X141989142Y-98049193D01*
X142062383Y-98014315D01*
X142131997Y-98011130D01*
X142246404Y-97996772D01*
X142288258Y-97935738D01*
X142292081Y-97877726D01*
X142274851Y-97782386D01*
X142201611Y-97747509D01*
X142131997Y-97744323D01*
X142017589Y-97729965D01*
X141975736Y-97668931D01*
X141971913Y-97610919D01*
X142292081Y-97610919D01*
X142314120Y-97712467D01*
X142400900Y-97743759D01*
X142425484Y-97744323D01*
X142527031Y-97722283D01*
X142558324Y-97635504D01*
X142558887Y-97610919D01*
X142536848Y-97509372D01*
X142450068Y-97478079D01*
X142425484Y-97477516D01*
X142323937Y-97499556D01*
X142292644Y-97586335D01*
X142292081Y-97610919D01*
X141971913Y-97610919D01*
X141989142Y-97515580D01*
X142062383Y-97480702D01*
X142131997Y-97477516D01*
X142246404Y-97463158D01*
X142288258Y-97402125D01*
X142292081Y-97344113D01*
X142274851Y-97248773D01*
X142201611Y-97213895D01*
X142131997Y-97210709D01*
X142017589Y-97196351D01*
X141975736Y-97135318D01*
X141971913Y-97077306D01*
X142292081Y-97077306D01*
X142314120Y-97178853D01*
X142400900Y-97210146D01*
X142425484Y-97210709D01*
X142527031Y-97188670D01*
X142558324Y-97101890D01*
X142558887Y-97077306D01*
X142536848Y-96975759D01*
X142450068Y-96944466D01*
X142425484Y-96943903D01*
X142323937Y-96965942D01*
X142292644Y-97052722D01*
X142292081Y-97077306D01*
X141971913Y-97077306D01*
X141989142Y-96981966D01*
X142062383Y-96947088D01*
X142131997Y-96943903D01*
X142246404Y-96929545D01*
X142288258Y-96868511D01*
X142292081Y-96810499D01*
X142274851Y-96715160D01*
X142201611Y-96680282D01*
X142131997Y-96677096D01*
X142017589Y-96662738D01*
X141975736Y-96601704D01*
X141971913Y-96543693D01*
X142292081Y-96543693D01*
X142314120Y-96645240D01*
X142400900Y-96676533D01*
X142425484Y-96677096D01*
X142527031Y-96655056D01*
X142558324Y-96568277D01*
X142558887Y-96543693D01*
X142536848Y-96442145D01*
X142450068Y-96410853D01*
X142425484Y-96410289D01*
X142323937Y-96432329D01*
X142292644Y-96519108D01*
X142292081Y-96543693D01*
X141971913Y-96543693D01*
X141989142Y-96448353D01*
X142062383Y-96413475D01*
X142131997Y-96410289D01*
X142246638Y-96395702D01*
X142288480Y-96334697D01*
X142292081Y-96280597D01*
X142323358Y-96172259D01*
X142412144Y-96133853D01*
X142515161Y-96083137D01*
X142529649Y-95972821D01*
X142499379Y-95903356D01*
X142932417Y-95903356D01*
X142959098Y-95930037D01*
X142985778Y-95903356D01*
X142959098Y-95876676D01*
X142932417Y-95903356D01*
X142499379Y-95903356D01*
X142455608Y-95802906D01*
X142326605Y-95620778D01*
X143172543Y-95620778D01*
X143451634Y-95397794D01*
X143653198Y-95248446D01*
X143876134Y-95100437D01*
X144011928Y-95019776D01*
X144174504Y-94925219D01*
X144242965Y-94875192D01*
X144220959Y-94871423D01*
X144112135Y-94915643D01*
X143953979Y-94992313D01*
X143773594Y-95102334D01*
X143571918Y-95252662D01*
X143435480Y-95371298D01*
X143172543Y-95620778D01*
X142326605Y-95620778D01*
X142293039Y-95573390D01*
X142277459Y-95553999D01*
X142149120Y-95386675D01*
X142093817Y-95287592D01*
X142115297Y-95254480D01*
X142217306Y-95285068D01*
X142403589Y-95377088D01*
X142491279Y-95424419D01*
X142717158Y-95547981D01*
X142499138Y-95226932D01*
X142281117Y-94905883D01*
X142350270Y-94833846D01*
X143164538Y-94833846D01*
X143173669Y-94915964D01*
X143220997Y-94996214D01*
X143345060Y-95106038D01*
X143494586Y-95118934D01*
X143635253Y-95041305D01*
X143722783Y-94912511D01*
X143704305Y-94777368D01*
X143644525Y-94693588D01*
X143506228Y-94606875D01*
X143357404Y-94615301D01*
X143230128Y-94716152D01*
X143220997Y-94729407D01*
X143164538Y-94833846D01*
X142350270Y-94833846D01*
X142460023Y-94719516D01*
X142582681Y-94607686D01*
X142753346Y-94472932D01*
X142953149Y-94327710D01*
X143163218Y-94184478D01*
X143364685Y-94055693D01*
X143538679Y-93953811D01*
X143666330Y-93891290D01*
X143728769Y-93880585D01*
X143729630Y-93881397D01*
X143796300Y-93964505D01*
X143898314Y-94103902D01*
X144020741Y-94277698D01*
X144148649Y-94464004D01*
X144267106Y-94640934D01*
X144361182Y-94786597D01*
X144415943Y-94879107D01*
X144423918Y-94899154D01*
X144380476Y-94944478D01*
X144265639Y-95031184D01*
X144099068Y-95144990D01*
X143976809Y-95223924D01*
X143697387Y-95409058D01*
X143455695Y-95585410D01*
X143261212Y-95744267D01*
X143123416Y-95876917D01*
X143051783Y-95974649D01*
X143055791Y-96028752D01*
X143092501Y-96036760D01*
X143141761Y-95994448D01*
X143145862Y-95968137D01*
X143152367Y-95956718D01*
X143199224Y-95956718D01*
X143225904Y-95983398D01*
X143252585Y-95956718D01*
X147681577Y-95956718D01*
X147708257Y-95983398D01*
X147734938Y-95956718D01*
X147708257Y-95930037D01*
X147681577Y-95956718D01*
X143252585Y-95956718D01*
X143225904Y-95930037D01*
X143199224Y-95956718D01*
X143152367Y-95956718D01*
X143182765Y-95903356D01*
X143305946Y-95903356D01*
X143332627Y-95930037D01*
X143359308Y-95903356D01*
X147574854Y-95903356D01*
X147601535Y-95930037D01*
X147628215Y-95903356D01*
X147601535Y-95876676D01*
X147574854Y-95903356D01*
X143359308Y-95903356D01*
X143332627Y-95876676D01*
X143305946Y-95903356D01*
X143182765Y-95903356D01*
X143185253Y-95898988D01*
X143233515Y-95849995D01*
X143412669Y-95849995D01*
X143439350Y-95876676D01*
X143466030Y-95849995D01*
X143439350Y-95823314D01*
X143412669Y-95849995D01*
X143233515Y-95849995D01*
X143263221Y-95819840D01*
X143532475Y-95819840D01*
X143539774Y-95823314D01*
X143588471Y-95785749D01*
X143599434Y-95769953D01*
X143613031Y-95720066D01*
X143605732Y-95716592D01*
X143557035Y-95754157D01*
X143546072Y-95769953D01*
X143532475Y-95819840D01*
X143263221Y-95819840D01*
X143286125Y-95796589D01*
X143368248Y-95728595D01*
X143590634Y-95557675D01*
X143691292Y-95723194D01*
X143763700Y-95823426D01*
X143815305Y-95861705D01*
X143821576Y-95859085D01*
X143820537Y-95851585D01*
X144010573Y-95851585D01*
X144034509Y-95871627D01*
X144119707Y-95874979D01*
X144226179Y-95860463D01*
X144266451Y-95826464D01*
X144230779Y-95754871D01*
X144141714Y-95757729D01*
X144074207Y-95796646D01*
X144010573Y-95851585D01*
X143820537Y-95851585D01*
X143813536Y-95801040D01*
X143755678Y-95696048D01*
X143739976Y-95673256D01*
X143680122Y-95589199D01*
X143911264Y-95589199D01*
X143919602Y-95609869D01*
X143967553Y-95660775D01*
X143976112Y-95663230D01*
X143999032Y-95621945D01*
X143999644Y-95609869D01*
X143958622Y-95558558D01*
X143943133Y-95556508D01*
X143911264Y-95589199D01*
X143680122Y-95589199D01*
X143628749Y-95517052D01*
X143987621Y-95278721D01*
X144175223Y-95156195D01*
X144343856Y-95049662D01*
X144461593Y-94979224D01*
X144474647Y-94972073D01*
X144563743Y-94930905D01*
X144582947Y-94952087D01*
X144567898Y-95003346D01*
X144549630Y-95066608D01*
X144575821Y-95046517D01*
X144615842Y-94996214D01*
X144669617Y-94915798D01*
X144652632Y-94882182D01*
X144615835Y-94872211D01*
X144554607Y-94824860D01*
X144460193Y-94718022D01*
X144541859Y-94718022D01*
X144554842Y-94747843D01*
X144608572Y-94805129D01*
X144639460Y-94793377D01*
X144639980Y-94785917D01*
X144602078Y-94740783D01*
X144578374Y-94724311D01*
X144541859Y-94718022D01*
X144460193Y-94718022D01*
X144454897Y-94712029D01*
X144331227Y-94554308D01*
X144225139Y-94409239D01*
X144319812Y-94409239D01*
X144346493Y-94435919D01*
X144373173Y-94409239D01*
X144346493Y-94382558D01*
X144319812Y-94409239D01*
X144225139Y-94409239D01*
X144198116Y-94372286D01*
X144070087Y-94186555D01*
X143961659Y-94017705D01*
X143887354Y-93886325D01*
X143861692Y-93813006D01*
X143864244Y-93806473D01*
X143914980Y-93815120D01*
X143953564Y-93863852D01*
X144021123Y-93928297D01*
X144079599Y-93899277D01*
X144106273Y-93789176D01*
X144106366Y-93780561D01*
X144106366Y-93665114D01*
X144189500Y-93783804D01*
X144242389Y-93907027D01*
X144209765Y-93987355D01*
X144126749Y-94009029D01*
X144074036Y-94035783D01*
X144079775Y-94062534D01*
X144150645Y-94087012D01*
X144212820Y-94062534D01*
X144323363Y-94014077D01*
X144368646Y-94028892D01*
X144373173Y-94058794D01*
X144329109Y-94112892D01*
X144265676Y-94142678D01*
X144193838Y-94190569D01*
X144191656Y-94230965D01*
X144248713Y-94252673D01*
X144283146Y-94227124D01*
X144370374Y-94174284D01*
X144399597Y-94169113D01*
X144450682Y-94209899D01*
X144542692Y-94316460D01*
X144658375Y-94465098D01*
X144780480Y-94632116D01*
X144891755Y-94793816D01*
X144974948Y-94926502D01*
X145012807Y-95006477D01*
X145013509Y-95012389D01*
X144971594Y-95059925D01*
X144860422Y-95146359D01*
X144701854Y-95255023D01*
X144658850Y-95282765D01*
X144451054Y-95405567D01*
X144316535Y-95461242D01*
X144248675Y-95453354D01*
X144236198Y-95380174D01*
X144311443Y-95263926D01*
X144323187Y-95250387D01*
X144453215Y-95102936D01*
X144310422Y-95228590D01*
X144198786Y-95302952D01*
X144113079Y-95319174D01*
X144104993Y-95315533D01*
X144067753Y-95309198D01*
X144090808Y-95367122D01*
X144163945Y-95473447D01*
X144276954Y-95612316D01*
X144346056Y-95689911D01*
X144447968Y-95798372D01*
X144485206Y-95828996D01*
X144475649Y-95809974D01*
X144706682Y-95809974D01*
X144731448Y-95863530D01*
X144800064Y-95876676D01*
X144884698Y-95852088D01*
X144893446Y-95809974D01*
X144827906Y-95748009D01*
X144800064Y-95743272D01*
X144719941Y-95785352D01*
X144706682Y-95809974D01*
X144475649Y-95809974D01*
X144462926Y-95784650D01*
X144433060Y-95738266D01*
X144331002Y-95583188D01*
X144586619Y-95583188D01*
X144613299Y-95609869D01*
X144639980Y-95583188D01*
X144613299Y-95556508D01*
X144586619Y-95583188D01*
X144331002Y-95583188D01*
X144324413Y-95573176D01*
X144483340Y-95455676D01*
X144586315Y-95387500D01*
X144664525Y-95372042D01*
X144741806Y-95419423D01*
X144841998Y-95539761D01*
X144913874Y-95638439D01*
X145011200Y-95764902D01*
X145083070Y-95841598D01*
X145107922Y-95853411D01*
X145092644Y-95801531D01*
X145027392Y-95696900D01*
X144984998Y-95638893D01*
X144897610Y-95518573D01*
X144870133Y-95445114D01*
X144897084Y-95381037D01*
X144939588Y-95328561D01*
X145006445Y-95248038D01*
X145002591Y-95242441D01*
X144932249Y-95300342D01*
X144820656Y-95357489D01*
X144754751Y-95348037D01*
X144736869Y-95302884D01*
X144808221Y-95235373D01*
X144879083Y-95190652D01*
X145018573Y-95118570D01*
X145128982Y-95078911D01*
X145149963Y-95076256D01*
X145218995Y-95046453D01*
X145226955Y-95022894D01*
X145191263Y-94981260D01*
X145178064Y-94982873D01*
X145125902Y-94948950D01*
X145071908Y-94889491D01*
X145760568Y-94889491D01*
X145787249Y-94916172D01*
X145813930Y-94889491D01*
X145787249Y-94862810D01*
X145760568Y-94889491D01*
X145071908Y-94889491D01*
X145033411Y-94847097D01*
X144919337Y-94698266D01*
X144903537Y-94676045D01*
X145920652Y-94676045D01*
X145947333Y-94702726D01*
X145974014Y-94676045D01*
X145947333Y-94649365D01*
X145920652Y-94676045D01*
X144903537Y-94676045D01*
X144694919Y-94374145D01*
X144551584Y-94153192D01*
X144473980Y-94013927D01*
X144462554Y-93957088D01*
X144467721Y-93955667D01*
X144520199Y-93997001D01*
X144596509Y-94099338D01*
X144615134Y-94129092D01*
X144720022Y-94302516D01*
X144746703Y-94038278D01*
X144773383Y-93774040D01*
X144985371Y-94082673D01*
X145097312Y-94232210D01*
X145180012Y-94316076D01*
X145220849Y-94321567D01*
X145221349Y-94320231D01*
X145238640Y-94243103D01*
X145268846Y-94082787D01*
X145307956Y-93861468D01*
X145351964Y-93601329D01*
X145359542Y-93555457D01*
X145473745Y-92861760D01*
X145540769Y-93261970D01*
G37*
G36*
X147447183Y-93719169D02*
G01*
X147589353Y-93800691D01*
X147774707Y-93919321D01*
X147982635Y-94060954D01*
X148192530Y-94211485D01*
X148383783Y-94356808D01*
X148535786Y-94482819D01*
X148557478Y-94502444D01*
X148707017Y-94657318D01*
X148765606Y-94762080D01*
X148760039Y-94795708D01*
X148709122Y-94811047D01*
X148616539Y-94750540D01*
X148505776Y-94643781D01*
X148370203Y-94520865D01*
X148174388Y-94365325D01*
X147948840Y-94200699D01*
X147801640Y-94100560D01*
X147555397Y-93933854D01*
X147396639Y-93814546D01*
X147319961Y-93737495D01*
X147319954Y-93697558D01*
X147368803Y-93688861D01*
X147447183Y-93719169D01*
G37*
G36*
X143646344Y-93732119D02*
G01*
X143651391Y-93739949D01*
X143630091Y-93794253D01*
X143537566Y-93864359D01*
X143507796Y-93880587D01*
X143325070Y-93985456D01*
X143102101Y-94129926D01*
X142868165Y-94293210D01*
X142652536Y-94454520D01*
X142484490Y-94593067D01*
X142426156Y-94648664D01*
X142294519Y-94770633D01*
X142215941Y-94804310D01*
X142185948Y-94751287D01*
X142185358Y-94734376D01*
X142229430Y-94651792D01*
X142353843Y-94524932D01*
X142546894Y-94363536D01*
X142796882Y-94177341D01*
X143092103Y-93976088D01*
X143112688Y-93962646D01*
X143326866Y-93825104D01*
X143470052Y-93740419D01*
X143559514Y-93701452D01*
X143612522Y-93701065D01*
X143646344Y-93732119D01*
G37*
G36*
X142862743Y-93520327D02*
G01*
X142966031Y-93588415D01*
X143011901Y-93634596D01*
X143076543Y-93645946D01*
X143201830Y-93600978D01*
X143236876Y-93583088D01*
X143384878Y-93520991D01*
X143483708Y-93513081D01*
X143514591Y-93559482D01*
X143508868Y-93581276D01*
X143460337Y-93626691D01*
X143341513Y-93716476D01*
X143171471Y-93836671D01*
X143012459Y-93944617D01*
X142789081Y-94099513D01*
X142577041Y-94256596D01*
X142406391Y-94393128D01*
X142334747Y-94457301D01*
X142206118Y-94579021D01*
X142130374Y-94635100D01*
X142085451Y-94635876D01*
X142049285Y-94591684D01*
X142048978Y-94591187D01*
X142063077Y-94519734D01*
X142148206Y-94402760D01*
X142288429Y-94256606D01*
X142467811Y-94097611D01*
X142670417Y-93942117D01*
X142706642Y-93916780D01*
X142844357Y-93813629D01*
X142930540Y-93732603D01*
X142946769Y-93692635D01*
X142884004Y-93629739D01*
X142825694Y-93560061D01*
X142775122Y-93489448D01*
X142801156Y-93488834D01*
X142862743Y-93520327D01*
G37*
G36*
X148119397Y-93561122D02*
G01*
X148005408Y-93726871D01*
X148391951Y-94029636D01*
X148572318Y-94176965D01*
X148725088Y-94312803D01*
X148826419Y-94415501D01*
X148848072Y-94443813D01*
X148895737Y-94550962D01*
X148872208Y-94592986D01*
X148790068Y-94570872D01*
X148661898Y-94485609D01*
X148588719Y-94423445D01*
X148392787Y-94263158D01*
X148125809Y-94069003D01*
X147810979Y-93857196D01*
X147488642Y-93654366D01*
X147422423Y-93592662D01*
X147450116Y-93528372D01*
X147451394Y-93527028D01*
X147513426Y-93495686D01*
X147608320Y-93521284D01*
X147712472Y-93577554D01*
X147910245Y-93694243D01*
X148071815Y-93544808D01*
X148233386Y-93395373D01*
X148119397Y-93561122D01*
G37*
G36*
X146767085Y-94084784D02*
G01*
X146774434Y-94118901D01*
X146739823Y-94165768D01*
X146643491Y-94134558D01*
X146621993Y-94121604D01*
X146581284Y-94068792D01*
X146608653Y-94039230D01*
X146700084Y-94028901D01*
X146767085Y-94084784D01*
G37*
G36*
X144373173Y-93822264D02*
G01*
X144424079Y-93870215D01*
X144426535Y-93878775D01*
X144385249Y-93901694D01*
X144373173Y-93902306D01*
X144321862Y-93861284D01*
X144319812Y-93845795D01*
X144352503Y-93813926D01*
X144373173Y-93822264D01*
G37*
G36*
X146649579Y-93828461D02*
G01*
X146641030Y-93848945D01*
X146570342Y-93900314D01*
X146554690Y-93902306D01*
X146525759Y-93869428D01*
X146534308Y-93848945D01*
X146604996Y-93797575D01*
X146620648Y-93795583D01*
X146649579Y-93828461D01*
G37*
G36*
X143801974Y-93674440D02*
G01*
X143812879Y-93688861D01*
X143810440Y-93738111D01*
X143792497Y-93742222D01*
X143717061Y-93703281D01*
X143706156Y-93688861D01*
X143708596Y-93639610D01*
X143726539Y-93635499D01*
X143801974Y-93674440D01*
G37*
G36*
X147236554Y-93668377D02*
G01*
X147228005Y-93688861D01*
X147157317Y-93740230D01*
X147141665Y-93742222D01*
X147112734Y-93709344D01*
X147121282Y-93688861D01*
X147191971Y-93637491D01*
X147207623Y-93635499D01*
X147236554Y-93668377D01*
G37*
G36*
X143678739Y-93464519D02*
G01*
X143698773Y-93502096D01*
X143697809Y-93573016D01*
X143640080Y-93571645D01*
X143608327Y-93546564D01*
X143573947Y-93472951D01*
X143604810Y-93424249D01*
X143620405Y-93422054D01*
X143678739Y-93464519D01*
G37*
G36*
X147357297Y-93451174D02*
G01*
X147361408Y-93469117D01*
X147322468Y-93544553D01*
X147308047Y-93555457D01*
X147258797Y-93553018D01*
X147254686Y-93535075D01*
X147293626Y-93459639D01*
X147308047Y-93448735D01*
X147357297Y-93451174D01*
G37*
G36*
X145598331Y-101741624D02*
G01*
X145593298Y-101770381D01*
X145554204Y-101850301D01*
X145494265Y-101898248D01*
X145447826Y-101893168D01*
X145440400Y-101864127D01*
X145477204Y-101791624D01*
X145526597Y-101741316D01*
X145590148Y-101699322D01*
X145598331Y-101741624D01*
G37*
G36*
X145515039Y-101631894D02*
G01*
X145440727Y-101719447D01*
X145363556Y-101782332D01*
X145336501Y-101771623D01*
X145333677Y-101726339D01*
X145376250Y-101631281D01*
X145416021Y-101604753D01*
X145506196Y-101588860D01*
X145515039Y-101631894D01*
G37*
G36*
X143946282Y-100759239D02*
G01*
X143919602Y-100785919D01*
X143892921Y-100759239D01*
X143919602Y-100732558D01*
X143946282Y-100759239D01*
G37*
G36*
X144302025Y-100750345D02*
G01*
X144294700Y-100782068D01*
X144266451Y-100785919D01*
X144222528Y-100766395D01*
X144230876Y-100750345D01*
X144294204Y-100743959D01*
X144302025Y-100750345D01*
G37*
G36*
X146614350Y-100759239D02*
G01*
X146587669Y-100785919D01*
X146560988Y-100759239D01*
X146587669Y-100732558D01*
X146614350Y-100759239D01*
G37*
G36*
X142879056Y-100225625D02*
G01*
X142929961Y-100273576D01*
X142932417Y-100282136D01*
X142891132Y-100305056D01*
X142879056Y-100305667D01*
X142827745Y-100264646D01*
X142825694Y-100249157D01*
X142858385Y-100217287D01*
X142879056Y-100225625D01*
G37*
G36*
X145920652Y-100225625D02*
G01*
X145893972Y-100252306D01*
X145867291Y-100225625D01*
X145893972Y-100198945D01*
X145920652Y-100225625D01*
G37*
G36*
X146383117Y-100216732D02*
G01*
X146389503Y-100280059D01*
X146383117Y-100287880D01*
X146351394Y-100280555D01*
X146347543Y-100252306D01*
X146367067Y-100208384D01*
X146383117Y-100216732D01*
G37*
G36*
X146703285Y-100216732D02*
G01*
X146709672Y-100280059D01*
X146703285Y-100287880D01*
X146671562Y-100280555D01*
X146667711Y-100252306D01*
X146687235Y-100208384D01*
X146703285Y-100216732D01*
G37*
G36*
X147094602Y-100225625D02*
G01*
X147067921Y-100252306D01*
X147041240Y-100225625D01*
X147067921Y-100198945D01*
X147094602Y-100225625D01*
G37*
G36*
X148428635Y-100225625D02*
G01*
X148401955Y-100252306D01*
X148375274Y-100225625D01*
X148401955Y-100198945D01*
X148428635Y-100225625D01*
G37*
G36*
X142949300Y-96516388D02*
G01*
X142963133Y-96672189D01*
X142973792Y-96927432D01*
X142981157Y-97278498D01*
X142985102Y-97721767D01*
X142985778Y-98037810D01*
X142983991Y-98535858D01*
X142978709Y-98943923D01*
X142970057Y-99258387D01*
X142958156Y-99475629D01*
X142943130Y-99592030D01*
X142932417Y-99611970D01*
X142915534Y-99559232D01*
X142901701Y-99403431D01*
X142891041Y-99148188D01*
X142883677Y-98797122D01*
X142879731Y-98353853D01*
X142879056Y-98037810D01*
X142880843Y-97539763D01*
X142886125Y-97131697D01*
X142894777Y-96817233D01*
X142906678Y-96599991D01*
X142921704Y-96483591D01*
X142932417Y-96463651D01*
X142949300Y-96516388D01*
G37*
G36*
X148038881Y-97111335D02*
G01*
X148041632Y-97220751D01*
X148046647Y-97586145D01*
X148048364Y-98006996D01*
X148046782Y-98432089D01*
X148041899Y-98810209D01*
X148041676Y-98821592D01*
X148037810Y-98969898D01*
X148034270Y-99016916D01*
X148031170Y-98968084D01*
X148028622Y-98828835D01*
X148026740Y-98604607D01*
X148025636Y-98300833D01*
X148025387Y-98037810D01*
X148025847Y-97678853D01*
X148027174Y-97394112D01*
X148029255Y-97189287D01*
X148031975Y-97070082D01*
X148035221Y-97042197D01*
X148038881Y-97111335D01*
G37*
G36*
X145551802Y-96204500D02*
G01*
X145573803Y-96272439D01*
X145543591Y-96368011D01*
X145507102Y-96396949D01*
X145446530Y-96389685D01*
X145440400Y-96372047D01*
X145472059Y-96295936D01*
X145507102Y-96248953D01*
X145519444Y-96225209D01*
X145463303Y-96265324D01*
X145447539Y-96278302D01*
X145360229Y-96347827D01*
X145332208Y-96348571D01*
X145340911Y-96280233D01*
X145341547Y-96276886D01*
X145393671Y-96193145D01*
X145478191Y-96168740D01*
X145551802Y-96204500D01*
G37*
G36*
X144354723Y-96262743D02*
G01*
X144386514Y-96263809D01*
X144488938Y-96269091D01*
X144491731Y-96273741D01*
X144401983Y-96277503D01*
X144226786Y-96280126D01*
X143973229Y-96281356D01*
X143892921Y-96281417D01*
X143619580Y-96280603D01*
X143422700Y-96278328D01*
X143309370Y-96274846D01*
X143286681Y-96270409D01*
X143361724Y-96265271D01*
X143399329Y-96263809D01*
X143702342Y-96257480D01*
X144043583Y-96257125D01*
X144354723Y-96262743D01*
G37*
G36*
X147528463Y-96261867D02*
G01*
X147590966Y-96263845D01*
X147690755Y-96269055D01*
X147691075Y-96273641D01*
X147599181Y-96277363D01*
X147422326Y-96279978D01*
X147167764Y-96281244D01*
X147067921Y-96281324D01*
X146791519Y-96280511D01*
X146592531Y-96278291D01*
X146477698Y-96274905D01*
X146453763Y-96270594D01*
X146527468Y-96265601D01*
X146577100Y-96263752D01*
X146881370Y-96257608D01*
X147219388Y-96256981D01*
X147528463Y-96261867D01*
G37*
G36*
X144213089Y-97557558D02*
G01*
X144213089Y-98011130D01*
X144026324Y-98011130D01*
X143839560Y-98011130D01*
X143839560Y-97557558D01*
X143839560Y-97103987D01*
X144026324Y-97103987D01*
X144213089Y-97103987D01*
X144213089Y-97557558D01*
G37*
G36*
X147094602Y-97557558D02*
G01*
X147094602Y-98011130D01*
X146907837Y-98011130D01*
X146721072Y-98011130D01*
X146721072Y-97557558D01*
X146721072Y-97103987D01*
X146907837Y-97103987D01*
X147094602Y-97103987D01*
X147094602Y-97557558D01*
G37*
G36*
X143526178Y-94740443D02*
G01*
X143572753Y-94782768D01*
X143612282Y-94868175D01*
X143572753Y-94942852D01*
X143481013Y-95010706D01*
X143431141Y-95022894D01*
X143347997Y-94979836D01*
X143325243Y-94942852D01*
X143315483Y-94821898D01*
X143365790Y-94728547D01*
X143431141Y-94702726D01*
X143526178Y-94740443D01*
G37*
G36*
X147581640Y-94740443D02*
G01*
X147628215Y-94782768D01*
X147667744Y-94868175D01*
X147628215Y-94942852D01*
X147536475Y-95010706D01*
X147486603Y-95022894D01*
X147403459Y-94979836D01*
X147380705Y-94942852D01*
X147370946Y-94821898D01*
X147421252Y-94728547D01*
X147486603Y-94702726D01*
X147581640Y-94740443D01*
G37*
D11*
%TO.C,J3*%
X159512000Y-90214000D02*
X161572000Y-90214000D01*
X161572000Y-90214000D02*
X161572000Y-88094000D01*
X159512000Y-90214000D02*
X159512000Y-88094000D01*
X157452000Y-90214000D02*
X157452000Y-89154000D01*
X158512000Y-90214000D02*
X157452000Y-90214000D01*
X159512000Y-88094000D02*
X161572000Y-88094000D01*
%TO.C,R5*%
X131047258Y-96251500D02*
X130572742Y-96251500D01*
X131047258Y-97296500D02*
X130572742Y-97296500D01*
%TO.C,U2*%
X133058000Y-98690000D02*
X134958000Y-98690000D01*
X134658000Y-96890000D02*
X133058000Y-96890000D01*
%TO.C,C16*%
X158136000Y-104763835D02*
X158136000Y-104532165D01*
X158856000Y-104763835D02*
X158856000Y-104532165D01*
%TO.C,J4*%
X136403000Y-87925600D02*
X137733000Y-87925600D01*
X132533000Y-87925600D02*
X132533000Y-90585600D01*
X135133000Y-87925600D02*
X132533000Y-87925600D01*
X135133000Y-87925600D02*
X135133000Y-90585600D01*
X137733000Y-87925600D02*
X137733000Y-89255600D01*
X135133000Y-90585600D02*
X132533000Y-90585600D01*
%TO.C,C8*%
X154570165Y-98065000D02*
X154801835Y-98065000D01*
X154570165Y-98785000D02*
X154801835Y-98785000D01*
%TO.C,R12*%
X140080000Y-106385379D02*
X140080000Y-106720621D01*
X139320000Y-106385379D02*
X139320000Y-106720621D01*
%TO.C,L1*%
X155313748Y-95175000D02*
X155836252Y-95175000D01*
X155313748Y-96595000D02*
X155836252Y-96595000D01*
%TO.C,C9*%
X157078000Y-93587835D02*
X157078000Y-93356165D01*
X156358000Y-93587835D02*
X156358000Y-93356165D01*
%TO.C,R11*%
X140050000Y-89572379D02*
X140050000Y-89907621D01*
X139290000Y-89572379D02*
X139290000Y-89907621D01*
%TO.C,R6*%
X131047258Y-98791500D02*
X130572742Y-98791500D01*
X131047258Y-99836500D02*
X130572742Y-99836500D01*
%TO.C,D1*%
X140415000Y-89830000D02*
X143100000Y-89830000D01*
X140415000Y-87910000D02*
X140415000Y-89830000D01*
X143100000Y-87910000D02*
X140415000Y-87910000D01*
%TO.C,D2*%
X140301000Y-107639999D02*
X142986000Y-107639999D01*
X140301000Y-105719999D02*
X140301000Y-107639999D01*
X142986000Y-105719999D02*
X140301000Y-105719999D01*
%TO.C,Y1*%
X151636000Y-107667200D02*
X157386000Y-107667200D01*
X157386000Y-104067200D02*
X151636000Y-104067200D01*
X151636000Y-104067200D02*
X151636000Y-107667200D01*
%TO.C,Y2*%
X159752000Y-99909000D02*
X159752000Y-101259000D01*
X158002000Y-99909000D02*
X158002000Y-101259000D01*
%TO.C,R14*%
X152780000Y-91526379D02*
X152780000Y-91861621D01*
X152020000Y-91526379D02*
X152020000Y-91861621D01*
%TO.C,J1*%
X121113400Y-102232600D02*
X118383400Y-102232600D01*
X127793400Y-93162600D02*
X127793400Y-102112600D01*
X118383400Y-93042600D02*
X118383400Y-102232600D01*
X124713400Y-93042600D02*
X123813400Y-93042600D01*
X121113400Y-93042600D02*
X118383400Y-93042600D01*
X124713400Y-102232600D02*
X123813400Y-102232600D01*
%TO.C,U1*%
X146112151Y-104192480D02*
X147059675Y-105140003D01*
X152667031Y-97637600D02*
X151995280Y-98309351D01*
X138213769Y-97637600D02*
X138885520Y-96965849D01*
X145440400Y-104864231D02*
X146112151Y-104192480D01*
X151995280Y-96965849D02*
X152667031Y-97637600D01*
X146112151Y-91082720D02*
X145440400Y-90410969D01*
X145440400Y-90410969D02*
X144768649Y-91082720D01*
X138885520Y-98309351D02*
X138213769Y-97637600D01*
X144768649Y-104192480D02*
X145440400Y-104864231D01*
%TO.C,C1*%
X136920235Y-98505600D02*
X136688565Y-98505600D01*
X136920235Y-97785600D02*
X136688565Y-97785600D01*
%TO.C,C6*%
X152826651Y-93770534D02*
X152990466Y-93934349D01*
X152317534Y-94279651D02*
X152481349Y-94443466D01*
%TO.C,C12*%
X136971035Y-95406800D02*
X136739365Y-95406800D01*
X136971035Y-94686800D02*
X136739365Y-94686800D01*
%TO.C,C11*%
X149270651Y-90595534D02*
X149434466Y-90759349D01*
X148761534Y-91104651D02*
X148925349Y-91268466D01*
%TO.C,D3*%
X132427000Y-93162000D02*
X135112000Y-93162000D01*
X132427000Y-91242000D02*
X132427000Y-93162000D01*
X135112000Y-91242000D02*
X132427000Y-91242000D01*
%TO.C,R3*%
X133061942Y-102630500D02*
X133536458Y-102630500D01*
X133061942Y-101585500D02*
X133536458Y-101585500D01*
%TO.C,C15*%
X149467835Y-107268600D02*
X149236165Y-107268600D01*
X149467835Y-106548600D02*
X149236165Y-106548600D01*
%TO.C,C17*%
X161091200Y-100468165D02*
X161091200Y-100699835D01*
X160371200Y-100468165D02*
X160371200Y-100699835D01*
%TO.C,C7*%
X154570165Y-97049000D02*
X154801835Y-97049000D01*
X154570165Y-97769000D02*
X154801835Y-97769000D01*
%TO.C,C4*%
X136920235Y-97235600D02*
X136688565Y-97235600D01*
X136920235Y-96515600D02*
X136688565Y-96515600D01*
%TO.C,C2*%
X146410000Y-106056165D02*
X146410000Y-106287835D01*
X145690000Y-106056165D02*
X145690000Y-106287835D01*
%TO.C,C3*%
X144911400Y-106056165D02*
X144911400Y-106287835D01*
X144191400Y-106056165D02*
X144191400Y-106287835D01*
%TO.C,J5*%
X136403000Y-104689600D02*
X137733000Y-104689600D01*
X132533000Y-104689600D02*
X132533000Y-107349600D01*
X135133000Y-104689600D02*
X132533000Y-104689600D01*
X135133000Y-104689600D02*
X135133000Y-107349600D01*
X137733000Y-104689600D02*
X137733000Y-106019600D01*
X135133000Y-107349600D02*
X132533000Y-107349600D01*
%TO.C,D4*%
X152967400Y-87940000D02*
X150282400Y-87940000D01*
X152967400Y-89860000D02*
X152967400Y-87940000D01*
X150282400Y-89860000D02*
X152967400Y-89860000D01*
%TO.C,C18*%
X155909600Y-100722165D02*
X155909600Y-100953835D01*
X155189600Y-100722165D02*
X155189600Y-100953835D01*
%TO.C,R13*%
X129666000Y-93418079D02*
X129666000Y-93753321D01*
X128906000Y-93418079D02*
X128906000Y-93753321D01*
%TO.C,C5*%
X146983534Y-88981349D02*
X147147349Y-88817534D01*
X147492651Y-89490466D02*
X147656466Y-89326651D01*
%TO.C,C10*%
X150539534Y-102189349D02*
X150703349Y-102025534D01*
X151048651Y-102698466D02*
X151212466Y-102534651D01*
%TD*%
%LPC*%
D12*
%TO.C,J3*%
X160512000Y-89154000D03*
D13*
X158512000Y-89154000D03*
%TD*%
D14*
%TO.C,R5*%
X131635000Y-96774000D03*
X129985000Y-96774000D03*
%TD*%
D15*
%TO.C,U2*%
X134708000Y-98327500D03*
D16*
X134783000Y-97790000D03*
D15*
X134708000Y-97252500D03*
X133008000Y-97252500D03*
D16*
X132933000Y-97790000D03*
D15*
X133008000Y-98327500D03*
%TD*%
D17*
%TO.C,C16*%
X158496000Y-105215500D03*
X158496000Y-104080500D03*
%TD*%
D18*
%TO.C,J4*%
X136403000Y-89255600D03*
D19*
X133863000Y-89255600D03*
%TD*%
D20*
%TO.C,C8*%
X154118500Y-98425000D03*
X155253500Y-98425000D03*
%TD*%
D21*
%TO.C,R12*%
X139700000Y-105955500D03*
X139700000Y-107150500D03*
%TD*%
D22*
%TO.C,L1*%
X154550000Y-95885000D03*
X156600000Y-95885000D03*
%TD*%
D23*
%TO.C,H2*%
X129692400Y-105257600D03*
%TD*%
%TO.C,H4*%
X164591835Y-89984543D03*
%TD*%
D17*
%TO.C,C9*%
X156718000Y-92904500D03*
X156718000Y-94039500D03*
%TD*%
D21*
%TO.C,R11*%
X139670000Y-89142500D03*
X139670000Y-90337500D03*
%TD*%
D14*
%TO.C,R6*%
X131635000Y-99314000D03*
X129985000Y-99314000D03*
%TD*%
D24*
%TO.C,D1*%
X141162500Y-88870000D03*
X143037500Y-88870000D03*
%TD*%
%TO.C,D2*%
X141048500Y-106679999D03*
X142923500Y-106679999D03*
%TD*%
D25*
%TO.C,J2*%
X164338000Y-100330000D03*
X164338000Y-97790000D03*
X164338000Y-95250000D03*
%TD*%
D26*
%TO.C,Y1*%
X152836000Y-105867200D03*
X156536000Y-105867200D03*
%TD*%
D27*
%TO.C,Y2*%
X158877000Y-99334000D03*
X158877000Y-101834000D03*
%TD*%
D21*
%TO.C,R14*%
X152400000Y-91096500D03*
X152400000Y-92291500D03*
%TD*%
D28*
%TO.C,J1*%
X127113400Y-94662600D03*
X127113400Y-95512600D03*
X127113400Y-96362600D03*
X127113400Y-97212600D03*
X127113400Y-98062600D03*
X127113400Y-98912600D03*
X127113400Y-99762600D03*
X127113400Y-100612600D03*
X125763400Y-100612600D03*
X125763400Y-99762600D03*
X125763400Y-98912600D03*
X125763400Y-98062600D03*
X125763400Y-97212600D03*
X125763400Y-96362600D03*
X125763400Y-95512600D03*
X125763400Y-94662600D03*
D29*
X122753400Y-101962600D03*
X122753400Y-93312600D03*
D30*
X126133400Y-101962600D03*
X126133400Y-93312600D03*
%TD*%
D31*
%TO.C,U1*%
X144079219Y-104302081D03*
X143725666Y-103948528D03*
X143372113Y-103594975D03*
X143018559Y-103241421D03*
X142665006Y-102887868D03*
X142311452Y-102534314D03*
X141957899Y-102180761D03*
X141604346Y-101827208D03*
X141250792Y-101473654D03*
X140897239Y-101120101D03*
X140543686Y-100766548D03*
X140190132Y-100412994D03*
X139836579Y-100059441D03*
X139483025Y-99705887D03*
X139129472Y-99352334D03*
X138775919Y-98998781D03*
D32*
X138775919Y-96276419D03*
X139129472Y-95922866D03*
X139483025Y-95569313D03*
X139836579Y-95215759D03*
X140190132Y-94862206D03*
X140543686Y-94508652D03*
X140897239Y-94155099D03*
X141250792Y-93801546D03*
X141604346Y-93447992D03*
X141957899Y-93094439D03*
X142311452Y-92740886D03*
X142665006Y-92387332D03*
X143018559Y-92033779D03*
X143372113Y-91680225D03*
X143725666Y-91326672D03*
X144079219Y-90973119D03*
D31*
X146801581Y-90973119D03*
X147155134Y-91326672D03*
X147508687Y-91680225D03*
X147862241Y-92033779D03*
X148215794Y-92387332D03*
X148569348Y-92740886D03*
X148922901Y-93094439D03*
X149276454Y-93447992D03*
X149630008Y-93801546D03*
X149983561Y-94155099D03*
X150337114Y-94508652D03*
X150690668Y-94862206D03*
X151044221Y-95215759D03*
X151397775Y-95569313D03*
X151751328Y-95922866D03*
X152104881Y-96276419D03*
D32*
X152104881Y-98998781D03*
X151751328Y-99352334D03*
X151397775Y-99705887D03*
X151044221Y-100059441D03*
X150690668Y-100412994D03*
X150337114Y-100766548D03*
X149983561Y-101120101D03*
X149630008Y-101473654D03*
X149276454Y-101827208D03*
X148922901Y-102180761D03*
X148569348Y-102534314D03*
X148215794Y-102887868D03*
X147862241Y-103241421D03*
X147508687Y-103594975D03*
X147155134Y-103948528D03*
X146801581Y-104302081D03*
%TD*%
D33*
%TO.C,C1*%
X137371900Y-98145600D03*
X136236900Y-98145600D03*
%TD*%
D23*
%TO.C,H3*%
X164589596Y-105258080D03*
%TD*%
D34*
%TO.C,C6*%
X152252717Y-93705717D03*
X153055283Y-94508283D03*
%TD*%
D33*
%TO.C,C12*%
X137422700Y-95046800D03*
X136287700Y-95046800D03*
%TD*%
D34*
%TO.C,C11*%
X148696717Y-90530717D03*
X149499283Y-91333283D03*
%TD*%
D24*
%TO.C,D3*%
X133174500Y-92202000D03*
X135049500Y-92202000D03*
%TD*%
D23*
%TO.C,H1*%
X129692400Y-90017600D03*
%TD*%
D35*
%TO.C,R3*%
X132474200Y-102108000D03*
X134124200Y-102108000D03*
%TD*%
D33*
%TO.C,C15*%
X149919500Y-106908600D03*
X148784500Y-106908600D03*
%TD*%
D36*
%TO.C,C17*%
X160731200Y-100016500D03*
X160731200Y-101151500D03*
%TD*%
D20*
%TO.C,C7*%
X154118500Y-97409000D03*
X155253500Y-97409000D03*
%TD*%
D33*
%TO.C,C4*%
X137371900Y-96875600D03*
X136236900Y-96875600D03*
%TD*%
D36*
%TO.C,C2*%
X146050000Y-105604500D03*
X146050000Y-106739500D03*
%TD*%
%TO.C,C3*%
X144551400Y-105604500D03*
X144551400Y-106739500D03*
%TD*%
D18*
%TO.C,J5*%
X136403000Y-106019600D03*
D19*
X133863000Y-106019600D03*
%TD*%
D37*
%TO.C,D4*%
X152219900Y-88900000D03*
X150344900Y-88900000D03*
%TD*%
D36*
%TO.C,C18*%
X155549600Y-100270500D03*
X155549600Y-101405500D03*
%TD*%
D21*
%TO.C,R13*%
X129286000Y-92988200D03*
X129286000Y-94183200D03*
%TD*%
D38*
%TO.C,C5*%
X146918717Y-89555283D03*
X147721283Y-88752717D03*
%TD*%
%TO.C,C10*%
X150474717Y-102763283D03*
X151277283Y-101960717D03*
%TD*%
D39*
X158597600Y-90195400D03*
X157903368Y-90281104D03*
X159766000Y-90332500D03*
X160512000Y-90449400D03*
X157327600Y-89814400D03*
X157220000Y-101220000D03*
X138416348Y-98142317D03*
X138320000Y-97500000D03*
X136361189Y-99023189D03*
X152146000Y-101346000D03*
X156464000Y-103886000D03*
X147066000Y-99732741D03*
X148212425Y-99255200D03*
X147066000Y-100432244D03*
X148609695Y-99833114D03*
X145375108Y-91880058D03*
X148590000Y-97155000D03*
X149225000Y-96520000D03*
X149225000Y-97790000D03*
X128270000Y-99822000D03*
X129032000Y-100330000D03*
X128778000Y-95504000D03*
X156083000Y-97917000D03*
X155702000Y-92964000D03*
X154940000Y-94488000D03*
X140970000Y-91440000D03*
X142494000Y-90424000D03*
X150876000Y-90932000D03*
X129413000Y-95123000D03*
X134393177Y-93475964D03*
X134707626Y-95870788D03*
X147580000Y-105650000D03*
X145465802Y-103619637D03*
X142708022Y-94930893D03*
X154620000Y-91531500D03*
X137569919Y-103813068D03*
X144463503Y-99822000D03*
X144870000Y-101690000D03*
X137351503Y-91694000D03*
X141275602Y-97246500D03*
X134112000Y-95504000D03*
X148093000Y-105167000D03*
X133701000Y-93375000D03*
X145288000Y-91186000D03*
X143764000Y-99822000D03*
X136652000Y-91694000D03*
X137160000Y-104394000D03*
X149225000Y-99314000D03*
X130048000Y-94742000D03*
X140716000Y-96647000D03*
X155194000Y-90932000D03*
X155267903Y-92020242D03*
X141519717Y-97902023D03*
X142367000Y-95547500D03*
X143406173Y-94974357D03*
X144117500Y-101796205D03*
X145440000Y-102120000D03*
%LPD*%
M02*
